<svg xmlns="http://www.w3.org/2000/svg" xmlns:xlink="http://www.w3.org/1999/xlink" width="150.999" height="128" viewBox="0 0 150.999 128"><defs><clipPath id="a"><circle cx="37.5" cy="37.5" r="37.5" transform="translate(786.688 3583.412)" fill="#fff"/></clipPath></defs><g transform="translate(-854.688 -3587.479)"><path d="M10808.572,11800.567l-24.572-14.156,24.572-14.156a64,64,0,1,1,0,28.313Z" transform="translate(-9929.312 -8134.934)" fill="#26aab7"/><g transform="translate(116 31.066)" clip-path="url(#a)"><g transform="translate(786.689 3583.412)"><path d="M19.167,17.861a1.256,1.256,0,0,0,1.256,1.256H35.495a1.256,1.256,0,0,0,1.256-1.256,8.8,8.8,0,0,0-5.074-7.956,5.024,5.024,0,1,0-7.436,0A8.8,8.8,0,0,0,19.167,17.861Zm6.28-11.3a2.512,2.512,0,1,1,2.512,2.512A2.515,2.515,0,0,1,25.447,6.557Zm2.512,5.024a6.291,6.291,0,0,1,6.154,5.024H21.8A6.291,6.291,0,0,1,27.959,11.581Z" transform="translate(9.721 -1.533)" fill="#fff"/><path d="M31.433,23.228a1.256,1.256,0,0,0,1.256,1.256H47.761a1.256,1.256,0,0,0,1.256-1.256,8.8,8.8,0,0,0-5.074-7.956,5.024,5.024,0,1,0-7.436,0A8.8,8.8,0,0,0,31.433,23.228Zm6.28-11.3a2.512,2.512,0,1,1,2.512,2.512A2.515,2.515,0,0,1,37.713,11.924Zm2.512,5.024a6.291,6.291,0,0,1,6.154,5.024H34.072A6.291,6.291,0,0,1,40.225,16.948Z" transform="translate(17.551 1.892)" fill="#fff"/><path d="M40.225,31.433a5,5,0,0,0-3.718,8.372,8.8,8.8,0,0,0-5.074,7.956,1.256,1.256,0,0,0,1.256,1.256H47.761a1.256,1.256,0,0,0,1.256-1.256,8.8,8.8,0,0,0-5.074-7.956,5,5,0,0,0-3.718-8.372Zm-2.512,5.024a2.512,2.512,0,1,1,2.512,2.512A2.515,2.515,0,0,1,37.713,36.457Zm8.666,10.048H34.072a6.281,6.281,0,0,1,12.307,0Z" transform="translate(17.551 17.551)" fill="#fff"/><path d="M19.167,53.128a1.256,1.256,0,0,0,1.256,1.256H35.495a1.256,1.256,0,0,0,1.256-1.256,8.8,8.8,0,0,0-5.074-7.956,5.024,5.024,0,1,0-7.436,0A8.8,8.8,0,0,0,19.167,53.128Zm6.28-11.3a2.512,2.512,0,1,1,2.512,2.512A2.515,2.515,0,0,1,25.447,41.824Zm2.512,5.024a6.291,6.291,0,0,1,6.154,5.024H21.8A6.291,6.291,0,0,1,27.959,46.848Z" transform="translate(9.721 20.976)" fill="#fff"/><path d="M49.31,27.539a5.024,5.024,0,1,0-7.436,0A8.8,8.8,0,0,0,36.8,35.495a1.256,1.256,0,0,0,1.256,1.256H53.128a1.256,1.256,0,0,0,1.256-1.256A8.8,8.8,0,0,0,49.31,27.539Zm-6.23-3.348A2.512,2.512,0,1,1,45.592,26.7,2.515,2.515,0,0,1,43.08,24.191ZM39.438,34.239a6.281,6.281,0,0,1,12.307,0Z" transform="translate(20.976 9.721)" fill="#fff"/><path d="M6.9,23.228a1.256,1.256,0,0,0,1.256,1.256H23.228a1.256,1.256,0,0,0,1.256-1.256,8.8,8.8,0,0,0-5.074-7.956,5.024,5.024,0,1,0-7.436,0A8.8,8.8,0,0,0,6.9,23.228Zm6.28-11.3a2.512,2.512,0,1,1,2.512,2.512A2.515,2.515,0,0,1,13.18,11.924Zm2.512,5.024a6.291,6.291,0,0,1,6.154,5.024H9.538A6.291,6.291,0,0,1,15.692,16.948Z" transform="translate(1.892 1.892)" fill="#fff"/><path d="M6.9,47.761a1.256,1.256,0,0,0,1.256,1.256H23.228a1.256,1.256,0,0,0,1.256-1.256,8.8,8.8,0,0,0-5.074-7.956,5.024,5.024,0,1,0-7.436,0A8.8,8.8,0,0,0,6.9,47.761Zm6.28-11.3a2.512,2.512,0,1,1,2.512,2.512A2.515,2.515,0,0,1,13.18,36.457Zm2.512,5.024a6.291,6.291,0,0,1,6.154,5.024H9.538A6.291,6.291,0,0,1,15.692,41.481Z" transform="translate(1.892 17.551)" fill="#fff"/><path d="M1.533,35.495a1.256,1.256,0,0,0,1.256,1.256H17.861a1.256,1.256,0,0,0,1.256-1.256,8.8,8.8,0,0,0-5.074-7.956,5.024,5.024,0,1,0-7.436,0A8.8,8.8,0,0,0,1.533,35.495Zm6.28-11.3A2.512,2.512,0,1,1,10.325,26.7,2.515,2.515,0,0,1,7.813,24.191Zm2.512,5.024a6.291,6.291,0,0,1,6.154,5.024H4.172A6.291,6.291,0,0,1,10.325,29.215Z" transform="translate(-1.533 9.721)" fill="#fff"/><path d="M16.1,29.916A13.816,13.816,0,1,0,29.916,16.1,13.832,13.832,0,0,0,16.1,29.916Zm13.816-11.3a11.3,11.3,0,1,1-11.3,11.3A11.317,11.317,0,0,1,29.916,18.612Z" transform="translate(7.764 7.764)" fill="#fff"/></g></g></g></svg>