<svg xmlns="http://www.w3.org/2000/svg" width="150.999" height="128" viewBox="0 0 150.999 128"><g transform="translate(-854.688 -3937.479)"><path d="M10808.572,11800.567l-24.572-14.156,24.572-14.156a64,64,0,1,1,0,28.313Z" transform="translate(-9929.312 -7784.934)" fill="#26aab7"/><g transform="translate(895.188 3951.892)"><path d="M86.312,19.449A17.449,17.449,0,1,0,67.277,36.817v6.718A4.751,4.751,0,0,0,64.1,48v7.931H53.73a9.517,9.517,0,1,0-14.148,0H29.207V48a4.751,4.751,0,0,0-3.172-4.466V36.817a17.449,17.449,0,1,0-3.172,0v6.718A4.751,4.751,0,0,0,19.69,48v9.517a7.94,7.94,0,0,0,7.931,7.931h9.517V95.588a1.585,1.585,0,0,0,1.586,1.586H54.587a1.585,1.585,0,0,0,1.586-1.586V65.449h9.517a7.94,7.94,0,0,0,7.931-7.931V48a4.751,4.751,0,0,0-3.172-4.466V36.817A17.466,17.466,0,0,0,86.312,19.449Zm-31.725,0A14.276,14.276,0,1,1,68.863,33.725,14.292,14.292,0,0,1,54.587,19.449ZM40.311,49.587a6.345,6.345,0,1,1,6.345,6.345A6.351,6.351,0,0,1,40.311,49.587ZM10.172,19.449A14.276,14.276,0,1,1,24.449,33.725,14.292,14.292,0,0,1,10.172,19.449Zm60.277,38.07a4.764,4.764,0,0,1-4.759,4.759h-11.1A1.585,1.585,0,0,0,53,63.863V94H48.242V76.553H45.07V94H40.311V63.863a1.585,1.585,0,0,0-1.586-1.586h-11.1a4.764,4.764,0,0,1-4.759-4.759V48a1.586,1.586,0,1,1,3.172,0v9.517A1.585,1.585,0,0,0,27.621,59.1h38.07a1.585,1.585,0,0,0,1.586-1.586V48a1.586,1.586,0,1,1,3.172,0Z" transform="translate(0 0)" fill="#fff"/><path d="M28.155,9.293l-9.982,9.982-3.637-3.637-2.243,2.243,4.759,4.759a1.586,1.586,0,0,0,2.243,0l11.1-11.1Z" transform="translate(3.103 4.275)" fill="#fff"/><path d="M53.983,23.226l2.243-2.243L51,15.759l5.223-5.223L53.983,8.293l-5.223,5.223L43.536,8.293l-2.243,2.243,5.223,5.223-5.223,5.223,2.243,2.243L48.759,18Z" transform="translate(20.104 3.689)" fill="#fff"/></g></g></svg>