<svg xmlns="http://www.w3.org/2000/svg" xmlns:xlink="http://www.w3.org/1999/xlink" width="451.267" height="285.678" viewBox="0 0 451.267 285.678"><defs><linearGradient id="a" x1="-12.072" y1="0.5" x2="-11.072" y2="0.5" gradientUnits="objectBoundingBox"><stop offset="0" stop-color="#06449b"/><stop offset="1" stop-color="#004aa9"/></linearGradient><linearGradient id="b" y1="0.5" x2="1" y2="0.5" gradientUnits="objectBoundingBox"><stop offset="0" stop-color="#daf3ff"/><stop offset="1" stop-color="#ceecff"/></linearGradient><linearGradient id="c" x1="0" y1="0.5" x2="1" y2="0.5" xlink:href="#a"/><linearGradient id="d" y1="0.5" x2="1" y2="0.5" gradientUnits="objectBoundingBox"><stop offset="0.088" stop-color="#2d4295"/><stop offset="1" stop-color="#004cb1"/></linearGradient><linearGradient id="g" y1="0.5" x2="1" y2="0.5" gradientUnits="objectBoundingBox"><stop offset="0" stop-color="#a673ff"/><stop offset="1" stop-color="#7d85ff"/></linearGradient><linearGradient id="h" x1="-2.437" y1="0.5" x2="-1.437" y2="0.5" xlink:href="#g"/><linearGradient id="i" x1="32.667" y1="86.474" x2="33.691" y2="86.474" xlink:href="#a"/><linearGradient id="j" x1="-80.738" y1="1.005" x2="-80.888" y2="-0.002" gradientUnits="objectBoundingBox"><stop offset="0" stop-color="#143586"/><stop offset="1" stop-color="#00247c"/></linearGradient><linearGradient id="k" x1="-9.227" y1="-26.989" x2="-8.231" y2="-26.989" xlink:href="#a"/><linearGradient id="l" x1="-49.759" y1="0.027" x2="-51.159" y2="0.871" gradientUnits="objectBoundingBox"><stop offset="0" stop-color="#143586"/><stop offset="1" stop-color="#003d95"/></linearGradient><linearGradient id="m" x1="-355.609" y1="0.048" x2="-355.609" y2="1.287" gradientUnits="objectBoundingBox"><stop offset="0" stop-color="#59d3ff"/><stop offset="1" stop-color="#2b9cff"/></linearGradient><linearGradient id="n" x1="-764.666" y1="0.5" x2="-763.666" y2="0.5" xlink:href="#b"/><linearGradient id="s" y1="0.5" x2="1" y2="0.5" gradientUnits="objectBoundingBox"><stop offset="0" stop-color="#fde477"/><stop offset="1" stop-color="#fdc33f"/></linearGradient><linearGradient id="z" x1="0.5" y1="0.128" x2="0.5" y2="0.941" xlink:href="#s"/><linearGradient id="aa" x1="0.5" y1="-0.01" x2="0.5" y2="1.105" xlink:href="#s"/></defs><g transform="translate(-2684.961 -6828.644)"><ellipse cx="214.767" cy="10.963" rx="214.767" ry="10.963" transform="translate(2706.693 7092.396)" fill="#0c86fa" opacity="0.3" style="mix-blend-mode:multiply;isolation:isolate"/><g transform="translate(2724.723 6866.479)"><g transform="translate(0)"><path d="M3153.648,7270.489H2757.507l32.14-11.831h331.861Z" transform="translate(-2756.023 -7052.008)" fill="#001f56"/><path d="M3146.831,6899.915v199.011a5.025,5.025,0,0,1-5.29,4.724h-329a5.02,5.02,0,0,1-5.273-4.724V6899.915a5.02,5.02,0,0,1,5.273-4.724h329A5.025,5.025,0,0,1,3146.831,6899.915Z" transform="translate(-2777.493 -6895.191)" fill="#e6e6e6"/><path d="M3144.382,7100.921a.011.011,0,0,1-.012.011H2825.11a.01.01,0,0,1-.01-.01V6915.037h319.282Z" transform="translate(-2785.187 -6903.753)" fill="#b1a8d1"/><path d="M3138.92,7296.107H2769.984a15.086,15.086,0,0,1-15.086-15.085h0a2.68,2.68,0,0,1,2.679-2.68h393.75a2.679,2.679,0,0,1,2.678,2.68h0A15.086,15.086,0,0,1,3138.92,7296.107Z" transform="translate(-2754.898 -7060.501)" fill="#e6e6e6"/></g></g><g transform="translate(3015.748 6984.05)"><g transform="translate(17.373 62.614)"><path d="M3376.335,7221.777c-14.47-5.222-27.116-7.04-28.246-4.062s9.686,9.627,24.156,14.849,27.116,7.04,28.246,4.061S3390.805,7227,3376.335,7221.777Z" transform="translate(-3319.192 -7213.912)" fill="#0e1c2f"/><g transform="translate(0 2.499)"><g transform="translate(10.208)"><g transform="translate(0.556)"><path d="M3338.5,7217.6c-5.855-8.039-20.109,30.72-21.913,41.249s4.041.934,11.874-14.122S3340.8,7220.759,3338.5,7217.6Z" transform="translate(-3316.257 -7216.507)" fill="#0e1c2f"/></g><path d="M3322.27,7287.766l-2.309,4.579-4.681-1.1,1.4-4.824Z" transform="translate(-3315.28 -7246.669)" fill="#0e1c2f"/></g><path d="M3307.526,7294.944a17.709,17.709,0,0,1-5.373,3.146c-3.817,1.588-4.513.846-4.823,1.729s13.189,3.584,13.189,3.584l1.742-7.472A39.223,39.223,0,0,0,3307.526,7294.944Z" transform="translate(-3297.325 -7250.34)" fill="#0e1c2f"/></g><path d="M3374.869,7222.889s-29.208-13.9-39.793-10.127c-8.9,3.173-19.718,41.282-19.718,41.282l7.446,2.562,16.084-30.38s17.745,8.5,34.313,13.343,13.1-10.6,13.1-10.6Z" transform="translate(-3305.105 -7212.112)" fill="#0e1c2f"/></g><g transform="translate(0 79.434)"><path d="M3384.142,7242.558c-15.329,1.8-27.443,5.807-27.058,8.959s13.125,4.25,28.453,2.453,27.444-5.807,27.059-8.958S3399.471,7240.761,3384.142,7242.558Z" transform="translate(-3305.731 -7241.694)" fill="#b4d5fd"/><g transform="translate(11.284 6.183)"><path d="M3331.24,7254.984c0-9.937-34.373,13.527-42.039,21.092s2.718,3.088,17.929-4.705S3331.24,7258.894,3331.24,7254.984Z" transform="translate(-3286.616 -7252.57)" fill="#b4d5fd"/></g><path d="M3293.41,7295.565l-4.8,1.8-2.691-3.984,4.634-2.757Z" transform="translate(-3275.03 -7262.805)" fill="#b4d5fd"/><path d="M3277.627,7292.9a17.694,17.694,0,0,1-6.083-1.333c-3.882-1.421-3.89-2.438-4.716-2s7.26,11.578,7.26,11.578l6.348-4.308A39.135,39.135,0,0,0,3277.627,7292.9Z" transform="translate(-3266.769 -7262.303)" fill="url(#a)"/></g><path d="M3384.791,7241.229s6.677,16.988-14.52,18.341a271.924,271.924,0,0,1-35.478.15c-1.2,0-38.756,15.166-38.756,15.166l-3.693-6.354s29.371-21.439,39.142-23.394,29.916-3.458,29.916-3.458Z" transform="translate(-3277.803 -7162.061)" fill="#0e1c2f"/><g transform="translate(44.471)"><path d="M3406.09,7152.447a3.761,3.761,0,0,1,1.29,3.739c-1.234,6.21-6.228,31.048-10.849,30.4-5.433-.765.145-23.009,2.273-28.066C3400.577,7154.3,3403.361,7150.38,3406.09,7152.447Z" transform="translate(-3366.229 -7123.511)" fill="#b4d5fd"/><path d="M3399.714,7190.263l-4.468,19.658-7.268-1.132,4.765-24.542Z" transform="translate(-3363.536 -7137.475)" fill="#f0beb4"/><path d="M3395.939,7170.552l8.837,5.616,5.316-19.245-6.113-4.97s-3.032,1.938-4.914,7.441S3395.939,7170.552,3395.939,7170.552Z" transform="translate(-3366.97 -7123.542)" fill="#fff"/><path d="M3427.668,7125.19l.38,6.054-7.962.38.421-2.576.246-1.487a6.131,6.131,0,0,1-2.032-.1c-2.35-.555-5.438-7.521-4.442-13.853.984-6.351,10.6-5.448,14.334-1.333S3427.668,7125.19,3427.668,7125.19Z" transform="translate(-3374.8 -7105.016)" fill="#f0beb4"/><path d="M3435.245,7158.9c-1.522,8.891-5.785,19.778-5.675,26.854s2.8,15.163,2.022,15.491c-.779.353-26.842.9-28.072-.219s4.031-10.449,4.372-17.416-4.542-9.938-5.395-18.366c-.829-8.415,3.154-14.152,5.164-15.552,2.034-1.4,7.076-1.461,7.076-1.461l9.451-.45s6.857-.171,10.1,3.093C3435.939,7152.531,3435.927,7154.942,3435.245,7158.9Z" transform="translate(-3369.751 -7121.742)" fill="#f0beb4"/><path d="M3425.386,7142.035l4.564-2.919a21.706,21.706,0,0,1-4.318,1.43Z" transform="translate(-3379.675 -7118.004)" fill="#e0ada6"/><path d="M3451.157,7152.867a3.76,3.76,0,0,0-1.15,3.784c1.463,6.16,7.372,30.8,11.966,29.976,5.4-.964-1-22.987-3.309-27.962C3456.736,7154.519,3453.809,7150.7,3451.157,7152.867Z" transform="translate(-3390.249 -7123.666)" fill="#f0beb4"/><path d="M3405.573,7175.434a18.052,18.052,0,0,1,1.658,8.168c-.048,5-5,16.175-4.434,17.8.434,1.271,17.487.974,25.389.563a26.755,26.755,0,0,0,3.928-.338c.732-.451-1.513-10.446-2.133-15.5-.282-2.309.282-5.842.966-9,.716-3.243,1.625-6.5,1.867-7.332.016-.064.032-.12.04-.152v-.017a.309.309,0,0,1,.016-.04l.652,1.819,8.643-2.132c-2.575-10.944-5.1-15.218-7.524-18.083s-7.653-3.146-7.653-3.146-3.259,6.929-10.558,6.664-3.911-6.333-3.911-6.333-3.235-.016-5.03,1.135-3.428,3.646-4.466,6.712a20.874,20.874,0,0,0-.95,10.139C3402.451,7169.712,3404.583,7173.229,3405.573,7175.434Z" transform="translate(-3369.523 -7121.858)" fill="#fff"/><g transform="translate(38.127 56.871)"><path d="M3449.89,7205.077a4.276,4.276,0,0,1-2.3,3.491c-6.043,3.36-27.676,15.17-30.046,13.348-2.759-2.119,27.805-20.683,29.47-19.881C3448.261,7202.636,3449.958,7203.059,3449.89,7205.077Z" transform="translate(-3414.342 -7202.01)" fill="#f0beb4"/><path d="M3414.325,7232.448a14.323,14.323,0,0,1,1.818-1.324c1.349-.833,2.967-1.408,3.769-.106a3,3,0,0,1-.034,3.449c-.652,1.3-3.213,3.592-3.814,2.979-.616-.613,1.063-2.544.792-2.595a.626.626,0,0,0-.1.031c-.626.361-3.994,3.489-4.546,2.83C3411.646,7237,3412.57,7233.932,3414.325,7232.448Z" transform="translate(-3412.046 -7214.195)" fill="#f0beb4"/></g><g transform="translate(0 60.916)"><rect width="31.837" height="1.554" transform="translate(49.353 20.196) rotate(180)" fill="#b4d3e5"/><path d="M3354.814,7229.321h29.626l-8.358-20.2h-29.626Z" transform="translate(-3345.621 -7209.126)" fill="#b4d3e5"/><path d="M3353.344,7229.321h29.626l-8.358-20.2h-29.626Z" transform="translate(-3344.987 -7209.126)" fill="url(#b)"/><path d="M3374.013,7226.267c.535,1.334,1.686,2.128,2.569,1.773s1.167-1.724.631-3.057-1.685-2.128-2.569-1.774S3373.478,7224.934,3374.013,7226.267Z" transform="translate(-3357.393 -7215.166)" fill="url(#c)"/></g><path d="M3415.767,7105.533a4.06,4.06,0,0,1,2.21-2.361,10.2,10.2,0,0,1,10.122.332c3.587,2.137,5.139,6.178,6.164,10.03q.077.291.146.592c.521,2.254.781,4.883,2.316,6.65a17.973,17.973,0,0,0,1.695,1.61,9.625,9.625,0,0,1,1.606,1.717,18.588,18.588,0,0,1,2.89,11.192,20.319,20.319,0,0,1-1.081,5.666c-.559,1.612-1.4,3.152-3.35,3.034-3.316-.2-7.466-1.936-10.428-3.393-2.866-1.409-5.458-4.3-5.143-7.692.385-4.122,4.082-7.108,4.533-11.218.321-2.922-.707-6.775-3.719-7.879a32.01,32.01,0,0,1-3.949-1.744,16.063,16.063,0,0,1-3.884-2.929c-1.954.489-2.117,3.45-2.117,3.45A6.933,6.933,0,0,1,3415.767,7105.533Z" transform="translate(-3374.571 -7101.982)" fill="#f5ca56"/></g></g><g transform="translate(2835.142 6850.941)"><g transform="translate(0 13.033)"><path d="M2949.109,6993.929l72.677-72.677,37.814,37.814,68.28-68.28" transform="translate(-2949.109 -6890.786)" fill="none" stroke="#fff" stroke-miterlimit="10" stroke-width="7.09"/></g><path d="M3269.579,6867.863l-20.143,6.552,15.746,14.169Z" transform="translate(-3078.685 -6867.863)" fill="#fff"/></g><g transform="translate(2822.126 6912.953)"><rect width="27.897" height="36.549" transform="translate(0 73.938)" fill="#7d6eb2"/><rect width="27.897" height="68.298" transform="translate(58.802 42.189)" fill="#fff"/><rect width="27.897" height="52.851" transform="translate(117.604 57.636)" fill="#7d6eb2"/><rect width="27.897" height="110.488" transform="translate(176.406)" fill="#fff"/></g><g transform="translate(3047.388 6884.66)"><g transform="translate(0)"><rect width="88.472" height="64.585" rx="3.479" fill="#fff"/><path d="M3.479,0H84.993a3.479,3.479,0,0,1,3.479,3.479V7.317a0,0,0,0,1,0,0H0a0,0,0,0,1,0,0V3.479A3.479,3.479,0,0,1,3.479,0Z" fill="url(#d)"/></g><g transform="translate(25.021 15.03)"><path d="M3368.321,6972.772a19.209,19.209,0,0,0,1.6,19.369l15.72-11.051Z" transform="translate(-3366.429 -6961.875)" fill="url(#d)"/><path d="M3388.293,6987.4l-15.72,11.051a19.211,19.211,0,0,0,29.309,2.535Z" transform="translate(-3369.08 -6968.188)" fill="url(#b)"/><path d="M3387.078,6953.6a19.215,19.215,0,0,1,13.588,32.8l-13.588-13.585-17.322-8.318A19.213,19.213,0,0,1,3387.078,6953.6Z" transform="translate(-3367.865 -6953.605)" fill="url(#g)"/></g></g><g transform="translate(2718.901 6828.644)"><g transform="translate(3.432 3.432)"><path d="M2795.139,6834.681a44.447,44.447,0,1,0,44.446,44.446,44.5,44.5,0,0,0-44.446-44.446Z" transform="translate(-2750.693 -6834.681)" fill="#fff"/></g><g transform="translate(0)"><path d="M2792.535,6838.569a37.953,37.953,0,1,1-37.953,37.954,38,38,0,0,1,37.953-37.954m0-9.925a47.878,47.878,0,1,0,47.879,47.878,47.932,47.932,0,0,0-47.879-47.878Z" transform="translate(-2744.657 -6828.645)" fill="#26aab7"/></g><path d="M2807.2,6862.625a28.559,28.559,0,1,0,28.558,28.558A28.558,28.558,0,0,0,2807.2,6862.625Zm0,47.494a18.936,18.936,0,1,1,18.936-18.937A18.937,18.937,0,0,1,2807.2,6910.119Z" transform="translate(-2759.318 -6843.305)" fill="#26aab7"/><circle cx="9.468" cy="9.468" r="9.468" transform="translate(36.482 54.908) rotate(-76.666)" fill="#26aab7"/><path d="M2863.81,6840.309l-1.785-8.927-5.53,5.531,1.339,6.694-1.785,1.786h0l-29.079,29.079-3.787-3.463h0v9.927h9.927l-3.463-3.787,29.079-29.079h0l1.785-1.785,6.695,1.339,5.531-5.53Z" transform="translate(-2778.537 -6829.826)" fill="url(#h)"/></g><g transform="translate(2684.961 6927.016)"><g transform="translate(8.541)"><path d="M2725.5,7123.188c-10.118-.049-5.451,9.542-3.833,17.881,3.029,13.12.5,30.576,5.678,32.6,13.831,4.724,10.992-45.771,7.191-48.176C2732.754,7124.392,2728.887,7123.65,2725.5,7123.188Z" transform="translate(-2708.267 -7054.097)" fill="#b4d5fd"/><g transform="translate(0 112.938)"><path d="M2727.58,7201.612c-8.025-9.03-16.716,31.335-17.064,44.8s4.333,5.332,10.856-14.837S2730.737,7205.165,2727.58,7201.612Z" transform="translate(-2704.52 -7200.308)" fill="#b4d5fd"/><path d="M2707.427,7278.553l-1.391,4.741,7.822,2.035.864-4.706Z" transform="translate(-2702.595 -7234.066)" fill="#b4d5fd"/><path d="M2711.439,7288.657s.818,3.238,4.882,8.164,5.552,4.417,5.335,5.845-21.672-4.888-21.672-4.888l3.386-11.375S2711.508,7288.355,2711.439,7288.657Z" transform="translate(-2699.984 -7237.454)" fill="url(#i)"/></g><path d="M2715.777,7217.578s20.2-51.956,23.645-62.6c2.281-7.042,3.613-13.593,2.972-16.964-1.682-8.839-22.6-4.536-22.6-4.536s-1.376,6.812-2.335,17.247c-.105,1.146-2.031,24.253-2.031,24.253s-2.348,9.507-3.187,14.355c-.915,5.289-3.76,26.177-3.76,26.177Z" transform="translate(-2703.651 -7058.084)" fill="url(#j)"/><path d="M2718.872,7124.3c-8.948,4.722-2.118,12.955,3.238,19.548,8.853,10.146,16.3,24.191,21.82,23.537,14.425-2.348-14.962-44.242-19.447-44.572C2722.387,7122.687,2722.073,7123.119,2718.872,7124.3Z" transform="translate(-2706.262 -7053.927)" fill="#b4d5fd"/><g transform="translate(31.99 109.124)"><path d="M2762.59,7194.169c-10.352-6.228-5.755,40.563-2.072,53.523s5.726,3.8,5.938-17.4S2766.663,7196.618,2762.59,7194.169Z" transform="translate(-2756.249 -7193.602)" fill="#b4d5fd"/><path d="M2761.633,7288.893l.325,4.827,7.734-.5-.46-4.728Z" transform="translate(-2758.572 -7234.541)" fill="#b4d5fd"/><path d="M2770.4,7296s1.746,2.848,7.093,6.338,6.616,2.56,6.835,3.988-22.144,1.8-22.144,1.8l-.16-11.866S2770.37,7295.69,2770.4,7296Z" transform="translate(-2758.74 -7237.74)" fill="url(#k)"/></g><path d="M2713.235,7134.065s-2.117,5.972,3.637,13.355c7.015,9,20.022,24.595,19.868,26.164-1.954,19.868,3.848,48.683,3.848,48.683l7.6-.4s4.077-38.923,2.559-49.472c-1.547-10.749-7.825-33.168-7.825-33.168Z" transform="translate(-2705.537 -7058.79)" fill="url(#l)"/><path d="M2712.438,7094.457c-.363,2.7,31.982,8.1,32.181,5.284.086-10.672,1.729-19.848,2.958-27.545.19-1.271.38-2.491.545-3.684,1.721-11.953,1.314-19.753-10.31-23.4l-9.764-2.249c-12.445,0-13.3,4.714-13.2,15.845.017,2.058.078,4.324.095,6.824.026,1.937.018,4.021-.043,6.253-.017.847-.052,1.712-.086,2.6A131.972,131.972,0,0,1,2712.438,7094.457Z" transform="translate(-2705.356 -7019.439)" fill="#fff"/><path d="M2716.624,7087.531l7.732-14.2-7.6,5.345c.026,1.937.018,4.021-.043,6.252C2716.694,7085.774,2716.659,7086.641,2716.624,7087.531Z" transform="translate(-2707.164 -7032.586)" opacity="0.3" fill="url(#m)" style="mix-blend-mode:multiply;isolation:isolate"/><g transform="translate(33.778 27.433)"><path d="M2759.661,7061.267c-3.123,6.093,22.267,31.091,25.2,27.279C2791.882,7085.141,2766.64,7052.5,2759.661,7061.267Z" transform="translate(-2759.395 -7054.171)" fill="#f0beb4"/><g transform="translate(21.297 3.419)"><path d="M2800.087,7087.326c6.66-1.441,21.153-29.654,19.557-31.209C2818.33,7053.1,2786.875,7087.885,2800.087,7087.326Z" transform="translate(-2796.853 -7055.931)" fill="#f0beb4"/></g><path d="M2832.194,7052.972c.347,1.4,2.164,2.34.722,5.021s-6.318,3.388-6.318,3.388l-5.844-.317s4.53-4.452,4.672-5.125a6.677,6.677,0,0,1,3.488-4.229c2.424-1.117,6.227-2.284,6.709-1.573S2831.921,7051.873,2832.194,7052.972Z" transform="translate(-2785.868 -7049.918)" fill="#f0beb4"/></g><path d="M2740.872,7022.308c-.4,2.88-1.415,3.446-.957,4.895.633,2.23,8.016,8.84,9.123,3.729l.066-.466.708-5.145c5.61,2.248,4.362-6.425,5.477-15.307-4.786-11.678-21.691-7.475-13.983,9.106C2741.3,7019.12,2741.263,7019.436,2740.872,7022.308Z" transform="translate(-2716.956 -7002.409)" fill="#f0beb4"/><path d="M2753.278,7039.784a15.154,15.154,0,0,1,1.848,6.384l.707-5.144Z" transform="translate(-2722.978 -7018.113)" fill="url(#n)" style="mix-blend-mode:multiply;isolation:isolate"/><path d="M2741.111,7018.378c.23-.031-.309-5.971.917-5.872.907.08,1.156,1.515,1.166,2.94l1.376-.319c-.2-2.631.12-5.771.927-6.489,1.445-1.266,4.854.947,8.453,1.774,2.3.519,3.25-2.073,3.628-4.007a3.494,3.494,0,0,0-1.5-3.618c-2.682-1.7-5.991-.768-9.989-1.086-4.924-.389-5.981,2.551-6.988,6.758S2740.892,7018.407,2741.111,7018.378Z" transform="translate(-2716.766 -7001.667)" fill="#12263f"/></g><path d="M2748.166,7063.895s7.429,6.045,14.813,11.94c4.061,3.253,8.11,6.46,10.9,8.6.023.011,3.06,2.285,4.808,2.313,5.5.088,17.373-21.263,17.373-21.263l-6.487-5.112-10.886,13.121s-3.018-3.8-5.247-6.547c-12-14.815-15.019-16-15.019-16Z" transform="translate(-2712.231 -7022.926)" fill="#fff"/><path d="M2754.99,7057.054l-.715,1.618-2.182-.075-.94-1.542,1.685-2.014Z" transform="translate(-2713.519 -7024.695)" fill="#26aab7"/><path d="M2751.692,7061.371l1.749,40.534-4.006,4.063-4.27-4.364,4.345-40.309,2.182.075" transform="translate(-2710.936 -7027.394)" fill="#26aab7"/><g transform="translate(13.513 45.309)"><path d="M2753.219,7099.6a22.443,22.443,0,0,0-44.49,4.1c0,.387.007.775.025,1.153a22.19,22.19,0,0,0,.774,4.9,22.473,22.473,0,0,0,1.1,3.084c.259.588.539,1.165.851,1.722a22.444,22.444,0,0,0,42.017-8.405c.077-.743.122-1.487.126-2.251A22.373,22.373,0,0,0,2753.219,7099.6Zm-22.131,22.668a18.439,18.439,0,0,1-15.472-8.5,17.064,17.064,0,0,1-1.184-2.131,18.8,18.8,0,0,1-1.26-3.651,18.443,18.443,0,0,1-.473-4.265c0-.471.026-.932.059-1.393a18.466,18.466,0,0,1,18.5-17,18.257,18.257,0,0,1,6.614,1.256,18.642,18.642,0,0,1,7.62,5.534,18.429,18.429,0,0,1,3.9,8.659,17.853,17.853,0,0,1,.247,3.112,19.053,19.053,0,0,1-.276,3.12A18.473,18.473,0,0,1,2731.088,7122.269Z" transform="translate(-2708.729 -7081.359)" fill="url(#g)"/><path d="M2734.167,7088.11a18.6,18.6,0,1,1-18.689,18.518A18.6,18.6,0,0,1,2734.167,7088.11Zm16.074,18.678a16.16,16.16,0,1,0-16.234,16.085A16.158,16.158,0,0,0,2750.241,7106.789Z" transform="translate(-2711.641 -7084.272)" fill="#6a56e9"/><circle cx="16.378" cy="16.378" r="16.378" transform="translate(0.911 13.901) rotate(-23.363)" fill="url(#g)"/><g transform="translate(16.951 12.368)"><path d="M2746.676,7106.031c1.834.7,2.7,2.275,2.69,4.493l0,.336-2.285-.01a3.354,3.354,0,0,0-.928-2.67l-1,4.1c2.865.461,4.361,1.587,4.35,3.962v.179c-.012,2.711-1.969,4.36-5.375,4.344-.358,0-.694-.025-1.03-.049l-.616,2.551-1.859-.008.73-2.977a4.441,4.441,0,0,1-2.8-4.426v-.134l2.285.01a2.9,2.9,0,0,0,1.02,2.425l1.05-4.319c-2.955-.506-4.181-1.745-4.172-3.85v-.18c.012-2.643,2.148-4.223,5.329-4.208.291,0,.582.024.851.048l.616-2.528,1.859.008Zm-3.32,5.966,1.073-4.431a1.932,1.932,0,0,0-.359-.024h-.089c-1.635-.008-2.916.771-2.922,2.138v.111C2741.053,7110.933,2741.633,7111.652,2743.356,7112Zm3.787,4.52v-.112c.006-1.277-.752-1.953-2.453-2.3l-1.142,4.7a4.4,4.4,0,0,0,.537.025h.09C2745.923,7118.841,2747.136,7118,2747.143,7116.517Z" transform="translate(-2738.544 -7103.113)" fill="#6a56e9"/></g><path d="M2749.145,7092.388c-1.187.591-2.4,1.193-3.633,1.795-10.487,5.188-22.055,10.875-32.322,15.866-1.239.6-2.457,1.193-3.643,1.773a22.2,22.2,0,0,1-.774-4.9c1.3-.833,2.647-1.675,4-2.527,8.025-5.063,16.8-10.553,25.115-15.742,1.355-.842,2.689-1.684,4.013-2.505A22.474,22.474,0,0,1,2749.145,7092.388Z" transform="translate(-2708.748 -7083.423)" fill="#eff0f0" opacity="0.1" style="mix-blend-mode:screen;isolation:isolate"/><path d="M2755.057,7117.75c0,.765-.049,1.508-.126,2.251-1.269.256-2.652.543-4.131.851-9.771,2-23.473,4.783-33.746,6.757-1.457.287-2.841.553-4.141.8-.312-.557-.592-1.134-.851-1.722,1.185-.371,2.465-.784,3.807-1.208,10.458-3.324,24.953-7.772,34.96-10.858,1.363-.423,2.653-.815,3.828-1.176A22.363,22.363,0,0,1,2755.057,7117.75Z" transform="translate(-2710.167 -7095.203)" fill="#eff0f0" opacity="0.1" style="mix-blend-mode:screen;isolation:isolate"/></g><path d="M2756.089,7044.481l-1.972,6,2.63,2.544,1.772-6.289Z" transform="translate(-2714.798 -7020.139)" fill="url(#b)"/><path d="M2746.524,7048.4l-7.261-8.748-2.744,1.744,8.061,10.177Z" transform="translate(-2707.206 -7018.057)" fill="url(#b)"/><path d="M2828.452,7077.595a.472.472,0,1,0-.171-.645A.472.472,0,0,0,2828.452,7077.595Z" transform="translate(-2746.769 -7034.046)" fill="#606060"/><path d="M2826.6,7080.036a.471.471,0,1,0-.172-.645A.471.471,0,0,0,2826.6,7080.036Z" transform="translate(-2745.969 -7035.1)" fill="#606060"/><g transform="translate(0 23.341)"><path d="M2707.9,7049.169c-6.564-1.147-25.366,29.7-20.977,31.327C2692.116,7086.046,2718.068,7053.13,2707.9,7049.169Z" transform="translate(-2685.526 -7045.49)" fill="#b4d5fd"/><g transform="translate(1.17 31.721)"><path d="M2687.254,7099.987a3.465,3.465,0,0,0,.5,3.361c5.6,7.531,38.386,22.4,38.466,19.676C2727.038,7121.271,2690.736,7091.658,2687.254,7099.987Z" transform="translate(-2687.019 -7098.514)" fill="#b4d5fd"/></g><path d="M2705.01,7078.545l-7.44,8.971,23.347,17.652-2.6,4.08s-29.763-13.2-31.808-20.3c-1.272-4.416,8.639-18.659,8.639-18.659" transform="translate(-2685.58 -7054.613)" fill="#f0beb4"/><path d="M2685.082,7077.767c-1.409-4.388,9.865-20.475,14.982-27.27a18.736,18.736,0,0,1,14.21-7.775l-1.935,16.362-13.376,15.882,18.447,15.006-4.491,6.588S2686.49,7082.156,2685.082,7077.767Z" transform="translate(-2684.961 -7042.721)" fill="#fff"/><path d="M2755.31,7138.675a.585.585,0,0,1-.1.126l-1.859,1.071a2.856,2.856,0,0,1-1.732.375l-1.645-.208a11.755,11.755,0,0,1-4.238-1.777l-2.629-2.438-.566-.515.546-.858,1.686-2.622.368-.6.014-.007.335-.065,2.389-.407a4.4,4.4,0,0,1,2.093.155l2.658,1.686a1.878,1.878,0,0,1-1.535.345,4.1,4.1,0,0,0-1.7.283l1.593.75,3.786,2.145A1.75,1.75,0,0,1,2755.31,7138.675Z" transform="translate(-2709.803 -7080.675)" fill="#f0beb4"/></g><g transform="translate(24.855 73.723)"><path d="M2731.323,7133.229a.472.472,0,1,0,.627-.23A.473.473,0,0,0,2731.323,7133.229Z" transform="translate(-2729.801 -7132.035)" fill="#606060"/><path d="M2728.722,7131.608a.472.472,0,1,0,.626-.229A.472.472,0,0,0,2728.722,7131.608Z" transform="translate(-2728.678 -7131.335)" fill="#606060"/></g></g><g transform="translate(2818.375 7040.628)"><g transform="translate(0)"><g transform="translate(8.747)"><rect width="71.246" height="9.931" rx="1.225" fill="url(#s)"/><rect width="14.681" height="9.931" transform="translate(46.202)" fill="#fdc33f"/><rect width="10.795" height="9.931" transform="translate(6.261)" fill="#fdc441" style="mix-blend-mode:screen;isolation:isolate"/></g><g transform="translate(0 9.931)"><path d="M2990.863,7220.283v7.294a1.47,1.47,0,0,1-.025.233,1.3,1.3,0,0,1-1.3,1.087h-68.6a1.31,1.31,0,0,1-1.3-1.087,1.472,1.472,0,0,1-.026-.233v-7.294a1.327,1.327,0,0,1,1.321-1.321h68.6A1.318,1.318,0,0,1,2990.863,7220.283Z" transform="translate(-2919.617 -7218.962)" fill="url(#s)"/><rect width="14.677" height="9.935" transform="translate(46.206 0)" fill="#fdc33f"/><rect width="10.791" height="9.935" transform="translate(6.27 0)" fill="#fdc441" style="mix-blend-mode:screen;isolation:isolate"/><path d="M2990.857,7234.524a1.3,1.3,0,0,1-1.3,1.088h-68.6a1.311,1.311,0,0,1-1.3-1.088Z" transform="translate(-2919.636 -7225.677)" fill="#fdc33f"/></g><g transform="translate(8.636 19.647)"><path d="M3006.052,7237.372v7.293a1.431,1.431,0,0,1-.026.233,1.3,1.3,0,0,1-1.3,1.087h-68.6a1.309,1.309,0,0,1-1.295-1.087,1.432,1.432,0,0,1-.026-.233v-7.293a1.327,1.327,0,0,1,1.321-1.321h68.6A1.318,1.318,0,0,1,3006.052,7237.372Z" transform="translate(-2934.806 -7236.05)" fill="url(#s)"/><rect width="14.677" height="9.935" transform="translate(46.207 0)" fill="#fdc33f"/><rect width="10.791" height="9.935" transform="translate(6.27 0)" fill="#fdc441" style="mix-blend-mode:screen;isolation:isolate"/><path d="M3006.047,7251.612a1.3,1.3,0,0,1-1.3,1.088h-68.6a1.31,1.31,0,0,1-1.295-1.088Z" transform="translate(-2934.826 -7242.764)" fill="#fdc33f"/></g><g transform="translate(5.182 29.578)"><path d="M2999.977,7254.839v7.293a1.438,1.438,0,0,1-.026.234,1.3,1.3,0,0,1-1.3,1.088h-68.6a1.31,1.31,0,0,1-1.3-1.088,1.437,1.437,0,0,1-.025-.234v-7.293a1.327,1.327,0,0,1,1.321-1.321h68.6A1.318,1.318,0,0,1,2999.977,7254.839Z" transform="translate(-2928.731 -7253.518)" fill="url(#s)"/><rect width="14.677" height="9.936" transform="translate(46.206)" fill="#fdc33f"/><rect width="10.791" height="9.936" transform="translate(6.269)" fill="#fdc441" style="mix-blend-mode:screen;isolation:isolate"/><path d="M2999.97,7269.081a1.3,1.3,0,0,1-1.3,1.088h-68.6a1.31,1.31,0,0,1-1.3-1.088Z" transform="translate(-2928.75 -7260.233)" fill="#fdc33f"/></g><g transform="translate(8.744 39.51)"><path d="M3006.243,7272.307v7.293a1.489,1.489,0,0,1-.026.233,1.3,1.3,0,0,1-1.3,1.088h-68.6a1.309,1.309,0,0,1-1.3-1.088,1.432,1.432,0,0,1-.026-.233v-7.293a1.326,1.326,0,0,1,1.321-1.32h68.6A1.319,1.319,0,0,1,3006.243,7272.307Z" transform="translate(-2934.996 -7270.986)" fill="url(#s)"/><rect width="14.677" height="9.936" transform="translate(46.206)" fill="#fdc33f"/><rect width="10.791" height="9.936" transform="translate(6.27)" fill="#fdc441" style="mix-blend-mode:screen;isolation:isolate"/><path d="M3006.237,7286.547a1.3,1.3,0,0,1-1.3,1.088h-68.6a1.309,1.309,0,0,1-1.3-1.088Z" transform="translate(-2935.016 -7277.7)" fill="#fdc33f"/></g><g transform="translate(4.21 49.225)"><path d="M2998.268,7289.4v7.292a1.382,1.382,0,0,1-.026.232,1.3,1.3,0,0,1-1.3,1.089h-68.6a1.31,1.31,0,0,1-1.3-1.089,1.382,1.382,0,0,1-.026-.232V7289.4a1.327,1.327,0,0,1,1.322-1.322h68.6A1.319,1.319,0,0,1,2998.268,7289.4Z" transform="translate(-2927.022 -7288.074)" fill="url(#s)"/><rect width="14.677" height="9.936" transform="translate(46.206)" fill="#fdc33f"/><rect width="10.791" height="9.936" transform="translate(6.269)" fill="#fdc441" style="mix-blend-mode:screen;isolation:isolate"/><path d="M2998.261,7303.635a1.3,1.3,0,0,1-1.3,1.088h-68.6a1.309,1.309,0,0,1-1.3-1.088Z" transform="translate(-2927.042 -7294.788)" fill="#fdc33f"/></g><g transform="translate(10.039 59.156)"><path d="M3008.521,7306.863v7.293a1.432,1.432,0,0,1-.026.233,1.3,1.3,0,0,1-1.3,1.088h-68.6a1.309,1.309,0,0,1-1.295-1.088,1.4,1.4,0,0,1-.026-.233v-7.293a1.327,1.327,0,0,1,1.321-1.321h68.6A1.318,1.318,0,0,1,3008.521,7306.863Z" transform="translate(-2937.275 -7305.542)" fill="url(#s)"/><rect width="14.677" height="9.935" transform="translate(46.206)" fill="#fdc33f"/><rect width="10.791" height="9.935" transform="translate(6.269)" fill="#fdc441" style="mix-blend-mode:screen;isolation:isolate"/><path d="M3008.515,7321.1a1.3,1.3,0,0,1-1.3,1.088h-68.6a1.309,1.309,0,0,1-1.295-1.088Z" transform="translate(-2937.295 -7312.256)" fill="#fdc33f"/></g></g><g transform="translate(52.354 11.421)"><path d="M3068.778,7244.985a28.794,28.794,0,0,0-57.078,5.26c0,.5.009.994.034,1.478a28.456,28.456,0,0,0,.992,6.293,28.8,28.8,0,0,0,1.406,3.957c.332.754.691,1.5,1.091,2.209a28.794,28.794,0,0,0,53.9-10.784c.1-.953.156-1.906.161-2.888A28.691,28.691,0,0,0,3068.778,7244.985Zm-28.392,29.081a23.657,23.657,0,0,1-19.85-10.908,21.734,21.734,0,0,1-1.519-2.735,24.067,24.067,0,0,1-1.618-4.683,23.677,23.677,0,0,1-.606-5.471c0-.6.032-1.2.075-1.787a23.69,23.69,0,0,1,23.736-21.806,23.445,23.445,0,0,1,8.484,1.611,23.919,23.919,0,0,1,9.776,7.1,23.627,23.627,0,0,1,5,11.108,22.94,22.94,0,0,1,.318,3.992,24.573,24.573,0,0,1-.354,4A23.7,23.7,0,0,1,3040.386,7274.066Z" transform="translate(-3011.7 -7221.583)" fill="url(#z)"/><path d="M3044.336,7230.244A23.867,23.867,0,1,1,3020.36,7254,23.863,23.863,0,0,1,3044.336,7230.244Zm20.622,23.962a20.731,20.731,0,1,0-20.827,20.635A20.728,20.728,0,0,0,3064.958,7254.206Z" transform="translate(-3015.437 -7225.319)" fill="#fdc33f"/><circle cx="21.011" cy="21.011" r="21.011" transform="translate(2.028 15.877) rotate(-19.241)" fill="url(#aa)"/><g transform="translate(21.747 15.867)"><path d="M3060.384,7253.233c2.353.9,3.464,2.919,3.451,5.764v.432l-2.932-.015a4.3,4.3,0,0,0-1.191-3.425l-1.288,5.253c3.676.593,5.594,2.038,5.581,5.084v.229c-.016,3.479-2.527,5.593-6.895,5.573-.46,0-.891-.033-1.321-.063l-.791,3.272-2.385-.011.938-3.818a5.7,5.7,0,0,1-3.6-5.679v-.172l2.931.014a3.717,3.717,0,0,0,1.308,3.11l1.348-5.542c-3.791-.649-5.364-2.236-5.352-4.938v-.23c.015-3.39,2.755-5.417,6.837-5.4.373,0,.746.032,1.092.063l.791-3.244,2.385.011Zm-4.26,7.654,1.377-5.685a2.513,2.513,0,0,0-.46-.031h-.115c-2.1-.01-3.741.99-3.749,2.743v.144C3053.17,7259.523,3053.913,7260.445,3056.125,7260.888Zm4.859,5.8v-.144c.007-1.638-.966-2.5-3.148-2.945l-1.465,6.028a5.437,5.437,0,0,0,.69.032h.115C3059.417,7269.668,3060.974,7268.583,3060.983,7266.686Z" transform="translate(-3049.951 -7249.49)" fill="#fdc33f"/></g><path d="M3063.551,7235.73c-1.522.759-3.084,1.531-4.66,2.3-13.454,6.657-28.295,13.952-41.465,20.354-1.589.772-3.152,1.53-4.673,2.276a28.465,28.465,0,0,1-.992-6.293c1.671-1.067,3.4-2.148,5.134-3.242,10.3-6.5,21.548-13.539,32.221-20.195,1.738-1.08,3.45-2.16,5.147-3.214A28.817,28.817,0,0,1,3063.551,7235.73Z" transform="translate(-3011.726 -7224.23)" fill="#fdfcf4" opacity="0.1" style="mix-blend-mode:screen;isolation:isolate"/><path d="M3071.136,7268.269c0,.981-.062,1.936-.161,2.889-1.627.328-3.4.7-5.3,1.091-12.535,2.563-30.114,6.137-43.293,8.669-1.869.367-3.645.709-5.313,1.023-.4-.714-.759-1.454-1.091-2.209,1.521-.476,3.162-1.007,4.885-1.549,13.416-4.265,32.012-9.971,44.849-13.93,1.75-.542,3.4-1.046,4.912-1.509A28.679,28.679,0,0,1,3071.136,7268.269Z" transform="translate(-3013.546 -7239.342)" fill="#fdfcf4" opacity="0.1" style="mix-blend-mode:screen;isolation:isolate"/></g></g></g></svg>