<svg xmlns="http://www.w3.org/2000/svg" width="150.999" height="128" viewBox="0 0 150.999 128"><g transform="translate(-583.688 -3413.479)"><path d="M10808.572,11800.567l-24.572-14.156,24.572-14.156a64,64,0,1,1,0,28.313Z" transform="translate(11518.688 15263.891) rotate(180)" fill="#26aab7"/><g transform="translate(602.686 3431.268)"><path d="M17.736,88.953a1.473,1.473,0,0,0,1.474,1.474H56.054a1.473,1.473,0,0,0,1.474-1.474v-5.9H75.213a1.473,1.473,0,0,0,1.474-1.474V63.9h8.843a1.473,1.473,0,0,0,1.441-1.782L82.582,41.635A39.794,39.794,0,1,0,10.326,64.794,41.376,41.376,0,0,1,17.736,88.953ZM6.136,38a36.847,36.847,0,0,1,73.5,3.79,1.484,1.484,0,0,0,.033.309l4.038,18.85H75.213a1.473,1.473,0,0,0-1.474,1.474V80.11H50.159v2.948H54.58v4.421H20.662a44.061,44.061,0,0,0-7.933-24.392A36.945,36.945,0,0,1,6.136,38Z" transform="translate(0 0)" fill="#fff"/><path d="M45.22,38.648l-1.1-2.617a13.393,13.393,0,0,0,.623-1.509l2.629-1.079a1.476,1.476,0,0,0,.9-1.178,14.862,14.862,0,0,0,0-4.106,1.476,1.476,0,0,0-.9-1.178L44.748,25.9a13.5,13.5,0,0,0-.622-1.509l1.094-2.617a1.474,1.474,0,0,0-.2-1.471A16.27,16.27,0,0,0,42.119,17.4a1.473,1.473,0,0,0-1.471-.2L38.03,18.3a13.465,13.465,0,0,0-1.508-.622l-1.079-2.629a1.472,1.472,0,0,0-1.177-.9,14.545,14.545,0,0,0-4.108,0,1.472,1.472,0,0,0-1.177.9L27.9,17.676a13.464,13.464,0,0,0-1.508.622L23.775,17.2a1.472,1.472,0,0,0-1.471.2A16.334,16.334,0,0,0,19.4,20.3a1.475,1.475,0,0,0-.2,1.472l1.1,2.617a13.46,13.46,0,0,0-.623,1.51l-2.629,1.079a1.476,1.476,0,0,0-.9,1.178,14.863,14.863,0,0,0,0,4.106,1.476,1.476,0,0,0,.9,1.178l2.629,1.079a13.5,13.5,0,0,0,.622,1.509L19.2,38.648a1.474,1.474,0,0,0,.2,1.471A16.27,16.27,0,0,0,22.3,43.026a1.476,1.476,0,0,0,1.471.2l2.618-1.095a13.464,13.464,0,0,0,1.508.622l1.079,2.629a1.472,1.472,0,0,0,1.177.9,14.874,14.874,0,0,0,4.108,0,1.472,1.472,0,0,0,1.177-.9l1.079-2.629a13.243,13.243,0,0,0,1.508-.622l2.618,1.095a1.477,1.477,0,0,0,1.471-.2,16.27,16.27,0,0,0,2.906-2.907,1.474,1.474,0,0,0,.2-1.471Zm-2.232-6.591a1.471,1.471,0,0,0-.858.962,10.3,10.3,0,0,1-.917,2.221,1.479,1.479,0,0,0-.075,1.29l1.019,2.434a13.44,13.44,0,0,1-1.193,1.194l-2.435-1.018a1.475,1.475,0,0,0-1.29.075,10.273,10.273,0,0,1-2.221.916,1.469,1.469,0,0,0-.961.858L33.05,43.444a10.886,10.886,0,0,1-1.678,0L30.365,40.99a1.469,1.469,0,0,0-.961-.858,10.365,10.365,0,0,1-2.222-.917,1.479,1.479,0,0,0-1.288-.074l-2.435,1.018a13.537,13.537,0,0,1-1.193-1.194l1.018-2.434a1.479,1.479,0,0,0-.073-1.288,10.244,10.244,0,0,1-.917-2.223,1.471,1.471,0,0,0-.858-.962l-2.454-1.007c-.023-.3-.033-.571-.033-.838s.01-.543.033-.838l2.454-1.007a1.471,1.471,0,0,0,.858-.962,10.3,10.3,0,0,1,.917-2.221,1.479,1.479,0,0,0,.075-1.29l-1.019-2.435a13.528,13.528,0,0,1,1.193-1.193l2.435,1.018a1.479,1.479,0,0,0,1.288-.074,10.365,10.365,0,0,1,2.222-.917,1.469,1.469,0,0,0,.961-.858l1.007-2.454a10.886,10.886,0,0,1,1.678,0l1.007,2.454a1.469,1.469,0,0,0,.961.858,10.365,10.365,0,0,1,2.222.917,1.478,1.478,0,0,0,1.288.074l2.435-1.018a13.536,13.536,0,0,1,1.193,1.194L41.14,23.894a1.479,1.479,0,0,0,.073,1.288,10.245,10.245,0,0,1,.917,2.223,1.471,1.471,0,0,0,.858.962l2.454,1.007c.023.3.033.571.033.838s-.01.543-.033.838Z" transform="translate(6.158 5.685)" fill="#fff"/><path d="M29.369,20a7.369,7.369,0,1,0,7.369,7.369A7.377,7.377,0,0,0,29.369,20Zm0,11.79a4.421,4.421,0,1,1,4.421-4.421A4.426,4.426,0,0,1,29.369,31.79Z" transform="translate(9 8.529)" fill="#fff"/><path d="M35.3,37.5l1.75,2.372a23.7,23.7,0,0,0,4.506-4.351l-2.309-1.832A20.785,20.785,0,0,1,35.3,37.5Z" transform="translate(15.301 15.015)" fill="#fff"/><path d="M13.581,44.6,16.2,43.251A20.64,20.64,0,0,1,34.58,13.23H45.76l-1.906,1.906,2.084,2.084L50.36,12.8a1.473,1.473,0,0,0,0-2.084L45.938,6.293,43.854,8.377l1.906,1.906H34.58a23.573,23.573,0,0,0-21,34.313Z" transform="translate(3.789 2.035)" fill="#fff"/><path d="M44.03,29.518l-2.841-.784a20.508,20.508,0,0,1-2.153,5.042l2.53,1.51A23.4,23.4,0,0,0,44.03,29.518Z" transform="translate(17.071 12.667)" fill="#fff"/><path d="M16.268,32.97l-2.424,1.68a23.692,23.692,0,0,0,4.221,4.631l1.9-2.257A20.653,20.653,0,0,1,16.268,32.97Z" transform="translate(5.136 14.674)" fill="#fff"/><path d="M30.256,39.254l.682,2.867a23.417,23.417,0,0,0,5.852-2.256l-1.419-2.583a20.488,20.488,0,0,1-5.115,1.972Z" transform="translate(12.911 16.716)" fill="#fff"/><path d="M18.429,39.312a23.472,23.472,0,0,0,5.694,2.629l.866-2.818a20.473,20.473,0,0,1-4.977-2.3Z" transform="translate(7.308 16.5)" fill="#fff"/><path d="M30.631,41.918l-.3-2.933a20.7,20.7,0,0,1-2.07.1,16.331,16.331,0,0,1-3.414-.278l-.481,2.907a26.657,26.657,0,0,0,3.9.318C29.052,42.037,29.846,42,30.631,41.918Z" transform="translate(10.123 17.441)" fill="#fff"/><path d="M23,55h2.948v2.948H23Z" transform="translate(9.474 25.11)" fill="#fff"/><path d="M27,55h2.948v2.948H27Z" transform="translate(11.369 25.11)" fill="#fff"/><path d="M31,55h2.948v2.948H31Z" transform="translate(13.264 25.11)" fill="#fff"/></g></g></svg>