<svg xmlns="http://www.w3.org/2000/svg" width="150.999" height="128" viewBox="0 0 150.999 128">
  <g id="Grupo_57603" data-name="Grupo 57603" transform="translate(-839 -2699.412)">
    <g id="Unión_8" data-name="Unión 8" transform="translate(-9945 -9023)" fill="#fff">
      <path d="M 10871 11849.412109375 C 10863.6611328125 11849.412109375 10856.4716796875 11848.162109375 10849.6318359375 11845.6962890625 C 10843.021484375 11843.3125 10836.8876953125 11839.853515625 10831.4013671875 11835.4130859375 C 10825.9619140625 11831.01171875 10821.3203125 11825.779296875 10817.60546875 11819.8623046875 C 10813.822265625 11813.8349609375 10811.1103515625 11807.26953125 10809.5478515625 11800.3466796875 L 10809.451171875 11799.919921875 L 10809.0712890625 11799.701171875 L 10786.0029296875 11786.4111328125 L 10809.0712890625 11773.12109375 L 10809.451171875 11772.90234375 L 10809.5478515625 11772.4755859375 C 10811.1103515625 11765.5537109375 10813.822265625 11758.98828125 10817.60546875 11752.9619140625 C 10821.3203125 11747.044921875 10825.9619140625 11741.8125 10831.4013671875 11737.4111328125 C 10836.8876953125 11732.970703125 10843.021484375 11729.51171875 10849.6318359375 11727.12890625 C 10856.4716796875 11724.662109375 10863.6611328125 11723.412109375 10871 11723.412109375 C 10879.505859375 11723.412109375 10887.755859375 11725.078125 10895.5224609375 11728.3623046875 C 10899.2548828125 11729.94140625 10902.85546875 11731.8955078125 10906.22265625 11734.1708984375 C 10909.5595703125 11736.4248046875 10912.6962890625 11739.013671875 10915.5478515625 11741.865234375 C 10918.3984375 11744.7158203125 10920.9873046875 11747.853515625 10923.240234375 11751.189453125 C 10925.515625 11754.5576171875 10927.4697265625 11758.1572265625 10929.048828125 11761.890625 C 10932.333984375 11769.65625 10933.9990234375 11777.90625 10933.9990234375 11786.4111328125 C 10933.9990234375 11794.9169921875 10932.333984375 11803.1669921875 10929.048828125 11810.93359375 C 10927.4697265625 11814.666015625 10925.515625 11818.2666015625 10923.240234375 11821.634765625 C 10920.9873046875 11824.970703125 10918.3984375 11828.1083984375 10915.5478515625 11830.9599609375 C 10912.6962890625 11833.810546875 10909.5595703125 11836.3994140625 10906.22265625 11838.6533203125 C 10902.85546875 11840.9287109375 10899.2548828125 11842.8828125 10895.5224609375 11844.4619140625 C 10887.755859375 11847.74609375 10879.505859375 11849.412109375 10871 11849.412109375 Z" stroke="none"/>
      <path d="M 10871 11848.412109375 C 10879.37109375 11848.412109375 10887.490234375 11846.7734375 10895.1328125 11843.541015625 C 10898.8056640625 11841.9873046875 10902.3486328125 11840.0634765625 10905.6630859375 11837.82421875 C 10908.9462890625 11835.6064453125 10912.0341796875 11833.05859375 10914.83984375 11830.2529296875 C 10917.646484375 11827.4462890625 10920.193359375 11824.3583984375 10922.412109375 11821.0751953125 C 10924.6513671875 11817.7607421875 10926.57421875 11814.2177734375 10928.1279296875 11810.5439453125 C 10931.3603515625 11802.9013671875 10932.9990234375 11794.7822265625 10932.9990234375 11786.4111328125 C 10932.9990234375 11778.041015625 10931.3603515625 11769.921875 10928.1279296875 11762.279296875 C 10926.57421875 11758.6064453125 10924.6513671875 11755.0634765625 10922.412109375 11751.7490234375 C 10920.193359375 11748.4658203125 10917.646484375 11745.3779296875 10914.83984375 11742.572265625 C 10912.0341796875 11739.765625 10908.9462890625 11737.2177734375 10905.6630859375 11735 C 10902.3486328125 11732.7607421875 10898.8056640625 11730.837890625 10895.1328125 11729.2841796875 C 10887.490234375 11726.05078125 10879.37109375 11724.412109375 10871 11724.412109375 C 10863.7763671875 11724.412109375 10856.701171875 11725.642578125 10849.970703125 11728.0693359375 C 10843.4658203125 11730.4140625 10837.4296875 11733.8193359375 10832.0302734375 11738.1884765625 C 10826.6767578125 11742.5205078125 10822.1083984375 11747.669921875 10818.4521484375 11753.4931640625 C 10814.728515625 11759.423828125 10812.0615234375 11765.884765625 10810.5234375 11772.6953125 L 10810.330078125 11773.55078125 L 10809.5703125 11773.98828125 L 10788.0068359375 11786.4111328125 L 10810.330078125 11799.271484375 L 10810.5234375 11800.126953125 C 10812.0615234375 11806.9384765625 10814.7294921875 11813.3994140625 10818.4521484375 11819.330078125 C 10822.1083984375 11825.154296875 10826.6767578125 11830.3037109375 10832.0302734375 11834.6357421875 C 10837.4296875 11839.005859375 10843.4658203125 11842.41015625 10849.970703125 11844.7548828125 C 10856.701171875 11847.181640625 10863.7763671875 11848.412109375 10871 11848.412109375 M 10871 11850.412109375 C 10840.5185546875 11850.412109375 10815.015625 11829.1025390625 10808.572265625 11800.5673828125 L 10784 11786.4111328125 L 10808.572265625 11772.2548828125 C 10815.015625 11743.72265625 10840.5185546875 11722.412109375 10871 11722.412109375 C 10906.3466796875 11722.412109375 10934.9990234375 11751.0673828125 10934.9990234375 11786.4111328125 C 10934.9990234375 11821.7578125 10906.3466796875 11850.412109375 10871 11850.412109375 Z" stroke="none" fill="#7d70b0"/>
    </g>
    <g id="_019-affiliate" data-name="019-affiliate" transform="translate(862.052 2699.501)">
      <path id="Trazado_129973" data-name="Trazado 129973" d="M145.54,241v-2.986a4.665,4.665,0,0,1,3.567-4.526,4.643,4.643,0,0,0-5.754,4.526V241a4.666,4.666,0,0,0,4.661,4.661h0a4.647,4.647,0,0,0,1.093-.135A4.665,4.665,0,0,1,145.54,241Z" transform="translate(-104.972 -175.576)" fill="#d4e1f4"/>
      <path id="Trazado_129974" data-name="Trazado 129974" d="M128.049,313.97a5.42,5.42,0,0,1,1.712-1.334,7.09,7.09,0,0,1-.528-.52,5.406,5.406,0,0,0-3.371,1.854,32.061,32.061,0,0,0,14.491,14.444v-1.191A32.058,32.058,0,0,1,128.049,313.97Z" transform="translate(-91.268 -237.55)" fill="#d4e1f4"/>
      <path id="Trazado_129975" data-name="Trazado 129975" d="M232.321,222.073v-3.411a5.52,5.52,0,0,1,4.417-5.4,5.512,5.512,0,0,0-6.6,5.4v3.411a5.512,5.512,0,0,0,6.6,5.4A5.52,5.52,0,0,1,232.321,222.073Z" transform="translate(-173.296 -159.715)" fill="#d4e1f4"/>
      <path id="Trazado_129976" data-name="Trazado 129976" d="M206.319,322.712v-13.05a6.413,6.413,0,0,1,3.861-5.845c-.159-.151-.314-.308-.462-.473a6.411,6.411,0,0,0-5.586,6.318v13.05a31.8,31.8,0,0,0,11.473,2.131c.366,0,.731-.008,1.093-.021a31.768,31.768,0,0,1-10.38-2.11Z" transform="translate(-152.898 -230.741)" fill="#d4e1f4"/>
      <path id="Trazado_129977" data-name="Trazado 129977" d="M319.069,327.361V316.513a8.939,8.939,0,0,0-.87-3.851c.023-.012.047-.022.071-.033a7.1,7.1,0,0,1-.525-.517,5.327,5.327,0,0,0-1.733.55,8.939,8.939,0,0,1,.87,3.851v12.015C317.628,328.168,318.357,327.777,319.069,327.361Z" transform="translate(-240.84 -237.549)" fill="#d4e1f4"/>
      <path id="Trazado_129978" data-name="Trazado 129978" d="M328.208,241v-2.986a4.665,4.665,0,0,1,3.567-4.526,4.643,4.643,0,0,0-5.754,4.526V241a4.666,4.666,0,0,0,4.661,4.661h0a4.645,4.645,0,0,0,1.093-.135A4.665,4.665,0,0,1,328.208,241Z" transform="translate(-248.765 -175.576)" fill="#d4e1f4"/>
      <path id="Trazado_129979" data-name="Trazado 129979" d="M131.916,98.726a33.433,33.433,0,0,0-30.135,47.311,1.274,1.274,0,0,0,.139.3,33.215,33.215,0,1,0,30-47.609Zm-27.46,47.058a5.179,5.179,0,0,1,3.238-1.8,6.775,6.775,0,0,0,10.016.03,5.129,5.129,0,0,1,1.5.521,8.663,8.663,0,0,0-.837,3.717v11.54a30.946,30.946,0,0,1-13.919-14.01Zm16.44,15.127V148.253a6.2,6.2,0,0,1,5.365-6.128,7.562,7.562,0,0,0,11.306.031,6.165,6.165,0,0,1,5.144,6.1V161a30.415,30.415,0,0,1-21.815-.087Zm24.335-1V148.253a8.742,8.742,0,0,0-.835-3.735,5.082,5.082,0,0,1,1.665-.533,6.775,6.775,0,0,0,10.016.031,5.216,5.216,0,0,1,3.2,1.962A30.944,30.944,0,0,1,145.231,159.907ZM160.4,143.465a7.719,7.719,0,0,0-4.778-2.061,1.424,1.424,0,0,0-1.215.672,4.272,4.272,0,0,1-6.781-.167,1.263,1.263,0,0,0-1.045-.516,7.579,7.579,0,0,0-3.6,1,8.569,8.569,0,0,0-5.858-2.846,1.455,1.455,0,0,0-1.26.7,5.059,5.059,0,0,1-8.03-.2,1.268,1.268,0,0,0-1.045-.516,8.583,8.583,0,0,0-6.169,2.882,7.651,7.651,0,0,0-3.366-1.015,1.434,1.434,0,0,0-1.215.672,4.272,4.272,0,0,1-6.781-.167,1.263,1.263,0,0,0-1.045-.516,7.662,7.662,0,0,0-4.853,1.9,30.631,30.631,0,1,1,57.041.172Z" transform="translate(-69.354 -69.324)" fill="#7d6eb2"/>
      <path id="Trazado_129980" data-name="Trazado 129980" d="M227,201.42a8.145,8.145,0,0,0-8.135,8.135v3.411a8.135,8.135,0,1,0,16.271,0v-3.411A8.144,8.144,0,0,0,227,201.42Zm5.511,11.547a5.511,5.511,0,1,1-11.023,0v-3.411a5.511,5.511,0,0,1,11.023,0Z" transform="translate(-164.552 -150.547)" fill="#7d6eb2"/>
      <path id="Trazado_129981" data-name="Trazado 129981" d="M314.021,228.646v2.986a7.285,7.285,0,1,0,14.569,0v-2.986a7.285,7.285,0,1,0-14.569,0Zm11.945,0v2.986a4.666,4.666,0,0,1-4.661,4.661h0a4.666,4.666,0,0,1-4.661-4.661v-2.986a4.661,4.661,0,0,1,9.321,0Z" transform="translate(-239.487 -166.205)" fill="#7d6eb2"/>
      <path id="Trazado_129982" data-name="Trazado 129982" d="M138.638,221.361a7.293,7.293,0,0,0-7.285,7.285v2.986a7.285,7.285,0,1,0,14.569,0v-2.986a7.293,7.293,0,0,0-7.285-7.285Zm4.661,10.271a4.666,4.666,0,0,1-4.661,4.661h0a4.666,4.666,0,0,1-4.661-4.661v-2.986a4.661,4.661,0,0,1,9.321,0Z" transform="translate(-95.594 -166.205)" fill="#7d6eb2"/>
      <path id="Trazado_129983" data-name="Trazado 129983" d="M231.522,10.385a1.312,1.312,0,0,0-1.856,0l-5.8,5.8a1.312,1.312,0,1,0,1.855,1.855l3.353-3.354V25.458a1.312,1.312,0,0,0,2.624,0V14.387c0-.04,0-.079-.006-.119l3.77,3.77a1.312,1.312,0,1,0,1.855-1.855Z" transform="translate(-168.163)" fill="#26aab7"/>
      <path id="Trazado_129984" data-name="Trazado 129984" d="M235.465,434.043l-3.354,3.354V426.624a1.312,1.312,0,1,0-2.624,0v11.07c0,.04,0,.079.006.119l-3.77-3.77a1.312,1.312,0,0,0-1.855,1.855l5.8,5.8a1.312,1.312,0,0,0,1.856,0l5.8-5.8a1.312,1.312,0,1,0-1.855-1.855Z" transform="translate(-168.163 -326.565)" fill="#26aab7"/>
      <path id="Trazado_129985" data-name="Trazado 129985" d="M17.111,237.7a1.312,1.312,0,0,0,.928-2.24l-3.354-3.354H25.458a1.312,1.312,0,0,0,0-2.624H14.387c-.04,0-.079,0-.119.006l3.77-3.77a1.312,1.312,0,1,0-1.855-1.855l-5.8,5.8a1.312,1.312,0,0,0,0,1.855l5.8,5.8a1.308,1.308,0,0,0,.928.384Z" transform="translate(0 -167.835)" fill="#26aab7"/>
      <path id="Trazado_129986" data-name="Trazado 129986" d="M435.9,223.868a1.312,1.312,0,1,0-1.855,1.855l3.354,3.353H426.624a1.312,1.312,0,1,0,0,2.624h11.07c.04,0,.08,0,.119-.006l-3.77,3.77a1.312,1.312,0,1,0,1.855,1.855l5.8-5.8a1.312,1.312,0,0,0,0-1.855Z" transform="translate(-327.22 -167.835)" fill="#26aab7"/>
      <path id="Trazado_129987" data-name="Trazado 129987" d="M81.6,91.116A1.312,1.312,0,0,0,82.916,89.8V85.061l7.618,7.617a1.312,1.312,0,1,0,1.856-1.855L84.56,82.995c-.03-.03-.066-.053-.1-.08H89.8a1.312,1.312,0,1,0,0-2.624H81.6A1.312,1.312,0,0,0,80.291,81.6v8.2A1.312,1.312,0,0,0,81.6,91.116Z" transform="translate(-54.92 -54.92)" fill="#26aab7"/>
      <path id="Trazado_129988" data-name="Trazado 129988" d="M376.285,384.761a1.312,1.312,0,0,0,1.312,1.312h8.2a1.312,1.312,0,0,0,1.312-1.312v-8.2a1.312,1.312,0,0,0-2.624,0V381.3l-7.618-7.618a1.312,1.312,0,1,0-1.856,1.855l7.829,7.828c.03.03.066.053.1.08H377.6a1.312,1.312,0,0,0-1.312,1.311Z" transform="translate(-287.618 -285.928)" fill="#26aab7"/>
      <path id="Trazado_129989" data-name="Trazado 129989" d="M386.073,89.806v-8.2a1.312,1.312,0,0,0-1.312-1.312h-8.2a1.312,1.312,0,1,0,0,2.624H381.3l-7.619,7.618a1.312,1.312,0,1,0,1.855,1.855l7.828-7.829c.03-.03.053-.066.08-.1v5.34a1.312,1.312,0,1,0,2.624,0Z" transform="translate(-286.582 -54.923)" fill="#26aab7"/>
      <path id="Trazado_129990" data-name="Trazado 129990" d="M92.679,375.013a1.312,1.312,0,0,0-1.855,0L83,382.841c-.03.03-.053.066-.08.1V377.6a1.312,1.312,0,1,0-2.624,0v8.2A1.312,1.312,0,0,0,81.6,387.11h8.2a1.312,1.312,0,1,0,0-2.624H85.062l7.618-7.618A1.312,1.312,0,0,0,92.679,375.013Z" transform="translate(-54.921 -286.964)" fill="#26aab7"/>
    </g>
  </g>
</svg>
