<svg xmlns="http://www.w3.org/2000/svg" width="150.999" height="128" viewBox="0 0 150.999 128">
  <g id="Grupo_57605" data-name="Grupo 57605" transform="translate(-839 -3064.412)">
    <g id="Unión_10" data-name="Unión 10" transform="translate(-9945 -8658)" fill="#fff">
      <path d="M 10871 11849.412109375 C 10863.6611328125 11849.412109375 10856.4716796875 11848.162109375 10849.6318359375 11845.6962890625 C 10843.021484375 11843.3125 10836.8876953125 11839.853515625 10831.4013671875 11835.4130859375 C 10825.9619140625 11831.01171875 10821.3203125 11825.779296875 10817.60546875 11819.8623046875 C 10813.822265625 11813.8349609375 10811.1103515625 11807.26953125 10809.5478515625 11800.3466796875 L 10809.451171875 11799.919921875 L 10809.0712890625 11799.701171875 L 10786.0029296875 11786.4111328125 L 10809.0712890625 11773.12109375 L 10809.451171875 11772.90234375 L 10809.5478515625 11772.4755859375 C 10811.1103515625 11765.5537109375 10813.822265625 11758.98828125 10817.60546875 11752.9619140625 C 10821.3203125 11747.044921875 10825.9619140625 11741.8125 10831.4013671875 11737.4111328125 C 10836.8876953125 11732.970703125 10843.021484375 11729.51171875 10849.6318359375 11727.12890625 C 10856.4716796875 11724.662109375 10863.6611328125 11723.412109375 10871 11723.412109375 C 10879.505859375 11723.412109375 10887.755859375 11725.078125 10895.5224609375 11728.3623046875 C 10899.2548828125 11729.94140625 10902.85546875 11731.8955078125 10906.22265625 11734.1708984375 C 10909.5595703125 11736.4248046875 10912.6962890625 11739.013671875 10915.5478515625 11741.865234375 C 10918.3984375 11744.7158203125 10920.9873046875 11747.853515625 10923.240234375 11751.189453125 C 10925.515625 11754.5576171875 10927.4697265625 11758.1572265625 10929.048828125 11761.890625 C 10932.333984375 11769.65625 10933.9990234375 11777.90625 10933.9990234375 11786.4111328125 C 10933.9990234375 11794.9169921875 10932.333984375 11803.1669921875 10929.048828125 11810.93359375 C 10927.4697265625 11814.666015625 10925.515625 11818.2666015625 10923.240234375 11821.634765625 C 10920.9873046875 11824.970703125 10918.3984375 11828.1083984375 10915.5478515625 11830.9599609375 C 10912.6962890625 11833.810546875 10909.5595703125 11836.3994140625 10906.22265625 11838.6533203125 C 10902.85546875 11840.9287109375 10899.2548828125 11842.8828125 10895.5224609375 11844.4619140625 C 10887.755859375 11847.74609375 10879.505859375 11849.412109375 10871 11849.412109375 Z" stroke="none"/>
      <path d="M 10871 11848.412109375 C 10879.37109375 11848.412109375 10887.490234375 11846.7734375 10895.1328125 11843.541015625 C 10898.8056640625 11841.9873046875 10902.3486328125 11840.0634765625 10905.6630859375 11837.82421875 C 10908.9462890625 11835.6064453125 10912.0341796875 11833.05859375 10914.83984375 11830.2529296875 C 10917.646484375 11827.4462890625 10920.193359375 11824.3583984375 10922.412109375 11821.0751953125 C 10924.6513671875 11817.7607421875 10926.57421875 11814.2177734375 10928.1279296875 11810.5439453125 C 10931.3603515625 11802.9013671875 10932.9990234375 11794.7822265625 10932.9990234375 11786.4111328125 C 10932.9990234375 11778.041015625 10931.3603515625 11769.921875 10928.1279296875 11762.279296875 C 10926.57421875 11758.6064453125 10924.6513671875 11755.0634765625 10922.412109375 11751.7490234375 C 10920.193359375 11748.4658203125 10917.646484375 11745.3779296875 10914.83984375 11742.572265625 C 10912.0341796875 11739.765625 10908.9462890625 11737.2177734375 10905.6630859375 11735 C 10902.3486328125 11732.7607421875 10898.8056640625 11730.837890625 10895.1328125 11729.2841796875 C 10887.490234375 11726.05078125 10879.37109375 11724.412109375 10871 11724.412109375 C 10863.7763671875 11724.412109375 10856.701171875 11725.642578125 10849.970703125 11728.0693359375 C 10843.4658203125 11730.4140625 10837.4296875 11733.8193359375 10832.0302734375 11738.1884765625 C 10826.6767578125 11742.5205078125 10822.1083984375 11747.669921875 10818.4521484375 11753.4931640625 C 10814.728515625 11759.423828125 10812.0615234375 11765.884765625 10810.5234375 11772.6953125 L 10810.330078125 11773.55078125 L 10809.5703125 11773.98828125 L 10788.0068359375 11786.4111328125 L 10810.330078125 11799.271484375 L 10810.5234375 11800.126953125 C 10812.0615234375 11806.9384765625 10814.7294921875 11813.3994140625 10818.4521484375 11819.330078125 C 10822.1083984375 11825.154296875 10826.6767578125 11830.3037109375 10832.0302734375 11834.6357421875 C 10837.4296875 11839.005859375 10843.4658203125 11842.41015625 10849.970703125 11844.7548828125 C 10856.701171875 11847.181640625 10863.7763671875 11848.412109375 10871 11848.412109375 M 10871 11850.412109375 C 10840.5185546875 11850.412109375 10815.015625 11829.1025390625 10808.572265625 11800.5673828125 L 10784 11786.4111328125 L 10808.572265625 11772.2548828125 C 10815.015625 11743.72265625 10840.5185546875 11722.412109375 10871 11722.412109375 C 10906.3466796875 11722.412109375 10934.9990234375 11751.0673828125 10934.9990234375 11786.4111328125 C 10934.9990234375 11821.7578125 10906.3466796875 11850.412109375 10871 11850.412109375 Z" stroke="none" fill="#7d70b0"/>
    </g>
    <g id="_021-ads-10" data-name="021-ads-10" transform="translate(864.728 3016.91)">
      <path id="Trazado_130010" data-name="Trazado 130010" d="M28.373,105.075A20,20,0,0,1,45.318,85.333a19.972,19.972,0,1,0-.011,39.482A20,20,0,0,1,28.373,105.075Z" transform="translate(-9.533 -9.564)" fill="#d4e1f4"/>
      <path id="Trazado_130011" data-name="Trazado 130011" d="M104.978,287.361a22.429,22.429,0,0,1-4.142-.386v2.59a3.456,3.456,0,0,0,.347,1.506,22.4,22.4,0,0,0,12.958-1.636V285.4A22.445,22.445,0,0,1,104.978,287.361Z" transform="translate(-72.219 -169.458)" fill="#d4e1f4"/>
      <path id="Trazado_130012" data-name="Trazado 130012" d="M192.13,188.575c-1.271.593-2.579,1.146-3.892,1.651a22.433,22.433,0,0,1-9.433,11.462v4.035a22.433,22.433,0,0,0,9.433-11.462c1.313-.5,2.621-1.057,3.892-1.651l13.83-6.454v-4.035Z" transform="translate(-134.458 -87.014)" fill="#d4e1f4"/>
      <path id="Trazado_130013" data-name="Trazado 130013" d="M325.418,166.686v4.035l5.325-2.485V164.2Z" transform="translate(-251.496 -72.708)" fill="#d4e1f4"/>
      <path id="Trazado_130014" data-name="Trazado 130014" d="M370.3,252.942a8.172,8.172,0,0,0-6.48-10.066v4.035A8.2,8.2,0,0,1,370.3,252.942Z" transform="translate(-282.148 -135.513)" fill="#d4e1f4"/>
      <path id="Trazado_130015" data-name="Trazado 130015" d="M135.084,335.905q-1.41-.141-2.824-.212V354a8.119,8.119,0,0,0,2.824-.979Z" transform="translate(-97.303 -209.606)" fill="#d4e1f4"/>
      <path id="Trazado_130016" data-name="Trazado 130016" d="M144.309,165.312V149.991a1.21,1.21,0,0,0-1.722-1.1l-23.3,10.873c-1.325.618-2.691,1.194-4.06,1.71a1.21,1.21,0,1,0,.854,2.265c1.426-.538,2.849-1.137,4.229-1.781l13.829-6.454v40.609l-13.829-6.454a60.64,60.64,0,0,0-13.326-4.41v-10.7h-2.421V184.8a60.256,60.256,0,0,0-9.822-.812,3.488,3.488,0,0,1-3.484-3.484v-3.944a1.21,1.21,0,0,0-2.421,0v3.944a5.912,5.912,0,0,0,5.9,5.9c.144,0,.288.005.433.006v19.675a1.21,1.21,0,0,0,1.21,1.21,10.611,10.611,0,0,0,10.6-10.6v-8.972a58.159,58.159,0,0,1,12.3,4.126l23.3,10.873a1.21,1.21,0,0,0,1.722-1.1V186.309a10.6,10.6,0,0,0,0-21ZM104.566,196.7a8.192,8.192,0,0,1-6.968,8.089V186.485a58.138,58.138,0,0,1,6.968.774Zm37.322,3.029-5.326-2.485V154.376l5.326-2.485Zm2.421-15.871v-16.1a8.177,8.177,0,0,1,0,16.1Z" transform="translate(-62.641 -60.398)" fill="#7d6eb2"/>
      <path id="Trazado_130017" data-name="Trazado 130017" d="M421.963,227.5a15.052,15.052,0,0,0-9.171-13.871,1.21,1.21,0,1,0-.948,2.227,12.654,12.654,0,0,1,0,23.286,1.21,1.21,0,1,0,.948,2.227A15.05,15.05,0,0,0,421.963,227.5Z" transform="translate(-319.9 -112.09)" fill="#7d6eb2"/>
      <path id="Trazado_130018" data-name="Trazado 130018" d="M427.6,180.505a1.21,1.21,0,1,0-.948,2.227,19.917,19.917,0,0,1,0,36.651,1.21,1.21,0,1,0,.948,2.227,22.337,22.337,0,0,0,0-41.105Z" transform="translate(-331.722 -85.646)" fill="#7d6eb2"/>
      <path id="Trazado_130019" data-name="Trazado 130019" d="M32.76,73.119A22.392,22.392,0,1,0,55.151,95.511,22.392,22.392,0,0,0,32.76,73.119Zm0,42.362A19.971,19.971,0,1,1,52.73,95.511,19.971,19.971,0,0,1,32.76,115.481Z" transform="translate(0)" fill="#26aab7"/>
      <path id="Trazado_130020" data-name="Trazado 130020" d="M90.971,101.684a9.281,9.281,0,0,0-15.221,9.448,1.211,1.211,0,0,0,2.32-.694,6.86,6.86,0,1,1,10.045,3.946,9.29,9.29,0,0,0-4.492,8.01V124.8a1.21,1.21,0,1,0,2.421,0v-2.407a6.86,6.86,0,0,1,3.3-5.924,9.279,9.279,0,0,0,1.628-14.786Z" transform="translate(-51.882 -20.81)" fill="#26aab7"/>
      <path id="Trazado_130021" data-name="Trazado 130021" d="M109.6,237.038a3.228,3.228,0,1,0,3.228,3.228,3.228,3.228,0,0,0-3.228-3.228Zm0,4.034a.807.807,0,1,1,.807-.807A.807.807,0,0,1,109.6,241.072Z" transform="translate(-76.634 -130.852)" fill="#26aab7"/>
    </g>
  </g>
</svg>
