<svg xmlns="http://www.w3.org/2000/svg" width="758.029" height="388.377" viewBox="0 0 758.029 388.377">
  <g id="Grupo_56958" data-name="Grupo 56958" transform="translate(-2311.565 -1205.968)">
    <path id="Trazado_130266" data-name="Trazado 130266" d="M2646.931,1371.8l-10.686-.245c3.433,4.449,4.2,8.549,2.067,12.017-2.137,3.539-7.252,6.447-14.891,8.654a138.119,138.119,0,0,0-183.065-175.428c-2.032.876-4.064,1.787-6.026,2.733l-.019.009c-5.936-1.811-11.717-3.3-17.3-4.426-28.159-5.715-48.142-1.765-56.259,11.12-7.725,12.255-3.519,30.7,11.809,52.218l-.006.01c-2.067,3.819-3.924,7.743-5.641,11.807-1.3,3.048-2.452,6.1-3.5,9.215-28.8,1.717-44.216,6.785-49.822,15.965-6.517,10.686,2.383,25.028,30.867,38.972,3.924,1.927,8.129,3.819,12.543,5.711a134.943,134.943,0,0,0,9.915,37.559,138.049,138.049,0,0,0,253.769,1.3c14.05-2.908,23.3-7.463,26.978-13.489C2650.224,1381.325,2649.908,1376.7,2646.931,1371.8Zm-32.97,22.6a212.868,212.868,0,0,1-34.651,2.8c-21.149.258-45.437-1.412-71.033-4.786q3.23-7.033,6.325-14.434a195.4,195.4,0,0,0,23,6.254,116.522,116.522,0,0,0,22.968,2.553c16.079,0,27.6-4.642,33.291-13.674a23.593,23.593,0,0,0,2.288-4.732h-8.2c-.135.25-.28.5-.431.737-4.227,6.709-13.671,10.175-26.932,10.171a109.382,109.382,0,0,1-21.5-2.4,187.25,187.25,0,0,1-21.649-5.856q2.96-7.407,5.746-15.08c5-13.777,9.274-27.435,12.734-40.549a348.279,348.279,0,0,0,50.682,3.491q16.8,0,34.8-1.356a130.7,130.7,0,0,1,2.68,26.443A129.187,129.187,0,0,1,2613.961,1394.395Zm-170.779,68.418c-3.987-1.446-6.011-7.168-7.006-11.714-1.574-7.184-1.858-17.274-.823-29.179.524-6.021,1.366-12.423,2.5-19.119a355.008,355.008,0,0,1,48.281,16.706c-3.549,6.12-7.138,11.8-10.727,16.939-6.838,9.8-13.524,17.363-19.337,21.868C2452.39,1461.164,2447.169,1464.259,2443.182,1462.813Zm46.56-49.713a362.417,362.417,0,0,0-50.578-17.515q.906-4.662,1.985-9.481,7.144,1.625,14.483,3.14c14.312,2.927,28.588,5.412,42.563,7.423Q2494.043,1405.257,2489.741,1413.1Zm-30.957-29.041q-8.294-1.707-16.334-3.561c2.521-10.491,5.618-21.428,9.234-32.572a319.719,319.719,0,0,0,56.008,27.623q-3.406,8.131-6.985,15.821C2486.961,1389.4,2472.9,1386.952,2458.785,1384.059Zm-45.906-141.612a85.778,85.778,0,0,0,5.081,8.94c9.5,14.685,22.051,25.329,30.906,31.673a151.254,151.254,0,0,0,16.262,10.124c-5.25,11.438-10.249,23.646-14.846,36.32q-1.286,3.545-2.5,7.077c-27.459-17.873-50.706-38.382-65.955-58.23l-.007-.008a130.522,130.522,0,0,1,13.1-18.455c2.032-2.383,4.135-4.7,6.342-6.937l.911-.911A131.269,131.269,0,0,1,2412.879,1242.447Zm117.409-19.806c3.987,1.446,6.01,7.168,7.006,11.713,1.574,7.184,1.858,17.274.823,29.18a291.206,291.206,0,0,1-7.627,43.593q-7.036-1.21-13.732-2.745a197.461,197.461,0,0,1-42.015-14.485,296.584,296.584,0,0,1,23.322-40.89c6.837-9.8,13.524-17.363,19.336-21.867,3.033-2.351,7.115-4.866,10.689-4.866A6.4,6.4,0,0,1,2530.288,1222.641Zm-15.669,88.75q6.85,1.591,14.055,2.837c-3.371,12.682-7.522,25.89-12.359,39.226q-2.8,7.711-5.781,15.161a313,313,0,0,1-56.414-28q1.469-4.3,3.035-8.619c4.493-12.391,9.371-24.315,14.485-35.484A204.478,204.478,0,0,0,2514.619,1311.391Zm71.383-59.35a129.513,129.513,0,0,1,33.7,58.285c-29.965,2.191-57.424,1.5-81.97-2.05a297.425,297.425,0,0,0,7.668-44.109c1.27-14.6,1.115-31.9-4.805-41.633q2.058.791,4.1,1.652A129.066,129.066,0,0,1,2586,1252.041Zm-91.9-38.085a130.237,130.237,0,0,1,26.521,2.7c-10.213,4.446-20.639,16.818-28.553,28.164a303.558,303.558,0,0,0-23.828,41.73,144.16,144.16,0,0,1-14.61-9.075c-15.192-10.778-24.294-22.065-29.253-29.634a76.857,76.857,0,0,1-5.541-9.9,130.021,130.021,0,0,1,16.8-10.138l.005,0q3.58-1.807,7.291-3.39c.179-.076.357-.155.537-.231l.124-.052c.528-.223,1.056-.439,1.586-.654l.427-.17A129.121,129.121,0,0,1,2494.1,1213.956Zm-127,16.269c4.227-6.709,13.671-10.172,26.933-10.172a109.387,109.387,0,0,1,21.5,2.4q4.519.914,9.22,2.153l.009,0a135.693,135.693,0,0,0-28.267,21.788c-1.787,1.751-3.5,3.573-5.185,5.466-2.1,2.312-4.1,4.73-6.026,7.183a139.061,139.061,0,0,0-8.549,12.228l-.006.01C2365,1253.887,2361.482,1239.134,2367.1,1230.226Zm7.18,63.159c1.156-2.663,2.348-5.291,3.644-7.848l0-.007c16.058,20.071,39.726,40.589,67.381,58.385-3.922,11.934-7.267,23.664-9.967,34.9a534.566,534.566,0,0,1-55.105-16.271c-3.433-1.226-6.762-2.488-9.95-3.749-1.892-.736-3.749-1.507-5.571-2.277-.281-2.8-.491-5.641-.561-8.479-.035-1.367-.07-2.7-.07-4.064,0-1.577.035-3.189.07-4.765a131.478,131.478,0,0,1,5.957-34.476c.6-1.892,1.226-3.749,1.927-5.606C2372.735,1297.2,2373.471,1295.276,2374.276,1293.384Zm-23.439,56.9c-24.841-12.123-36.193-23.825-31.112-32.129,4.1-6.727,19.025-11.282,41.868-12.963a134.264,134.264,0,0,0-5.186,29.15c-.21,2.943-.314,5.886-.35,8.865v.771c0,2.978.105,5.956.28,8.9C2354.446,1352.035,2352.624,1351.159,2350.837,1350.283Zm18.85,14.891c3.363,1.261,6.8,2.523,10.335,3.749,16.267,5.637,34.5,10.876,54.007,15.523q-1.062,4.741-1.961,9.341-2.392-.58-4.785-1.128c-26.967-6.138-47.2-7.387-56.582-7.6a126.994,126.994,0,0,1-5.114-21.464Zm4.589,29.4q-.439-1.043-.858-2.092a292.687,292.687,0,0,1,52.242,7.31q2.543.579,5.083,1.2c-1.219,7.112-2.119,13.908-2.675,20.3-1.052,12.1-1.127,26.056,2.248,36.02a130.766,130.766,0,0,1-56.041-62.737Zm170.417,69.2a130.46,130.46,0,0,1-90.014,4.148c9.617-5.041,19.28-16.618,26.721-27.285,3.839-5.5,7.674-11.591,11.46-18.163a367.465,367.465,0,0,1,62.545,36.184Q2550.188,1461.44,2544.694,1463.766ZM2586,1435.912a129.013,129.013,0,0,1-23.646,18.743,375.069,375.069,0,0,0-65.906-38.589c3.17-5.808,6.294-11.944,9.345-18.348a561.566,561.566,0,0,0,59.921,4.91c4.835.14,9.53.14,14.084.1a250.689,250.689,0,0,0,31.323-2.1A129.166,129.166,0,0,1,2586,1435.912Z" fill="#cbc5e0"/>
    <g id="Grupo_56953" data-name="Grupo 56953" transform="translate(2421.547 1230.062)">
      <g id="Grupo_56940" data-name="Grupo 56940" transform="translate(0 0)">
        <path id="Trazado_130267" data-name="Trazado 130267" d="M2844.985,1459.064,2825.9,1685.993s-2,13.756,8.232,13.78c16.824.041,83.737,0,83.737,0s-12.662-2.864-12.509-9.306c.181-7.594,22.307-233.551,22.307-233.551Z" transform="translate(-2637.741 -1335.577)" fill="#9ea8b2"/>
        <path id="Trazado_130268" data-name="Trazado 130268" d="M2927.289,1692.67c-3.309.01-67.219.21-83.6,0-7.14-.089-8.392-6.348-8.451-10.4a20.3,20.3,0,0,1,.217-3.378l.5-5.9,1.265-15.033,1.117-13.282,1.436-17.067,1.21-14.4,13.561-161.249,82.682-2.146s-9.318,94.561-15.91,163.395c-.736,7.669-1.436,15.023-2.083,21.887q-.316,3.288-.608,6.421c-.611,6.512-1.169,12.493-1.656,17.774-.256,2.783-.493,5.369-.706,7.738-.841,9.283-1.333,15.21-1.341,16.338a9.5,9.5,0,0,0,.161,1.837C2916.432,1692.433,2926.047,1692.67,2927.289,1692.67Z" transform="translate(-2641.732 -1332.59)" fill="#9da2ab"/>
        <path id="Trazado_130269" data-name="Trazado 130269" d="M2512.461,1247.543l46.489,186.735,6.365,25.574,21.652,86.976h402.261l-79.806-299.285Z" transform="translate(-2506.018 -1247.543)" fill="#a7adb3"/>
        <path id="Trazado_130270" data-name="Trazado 130270" d="M2507.785,1247.542l-6.443,2.148,72.384,303.634,8.566-6.5Z" transform="translate(-2501.343 -1247.542)" fill="#9da2ab"/>
        <path id="Trazado_130271" data-name="Trazado 130271" d="M2626.243,1770.464h399.785l11.04-6.5h-402.26Z" transform="translate(-2553.859 -1464.682)" fill="#9ea8b2"/>
        <rect id="Rect치ngulo_30779" data-name="Rect치ngulo 30779" width="86.56" height="4.113" transform="translate(212.777 360.17)" fill="#a7adb3"/>
        <path id="Trazado_130272" data-name="Trazado 130272" d="M2969.273,1491.679,2904,1251.5H2511.35v-3.957h397.6l65.053,243.6Z" transform="translate(-2505.551 -1247.542)" fill="#a7adb3"/>
        <path id="Trazado_130273" data-name="Trazado 130273" d="M2920.5,1775.174l-.447,3.145-81.405,16.446,1.117-13.282.532-6.309Z" transform="translate(-2643.168 -1469.394)" fill="#9ea8b2"/>
        <path id="Trazado_130274" data-name="Trazado 130274" d="M2927.29,1850.264c-3.309.01-67.219.21-83.6,0-7.14-.089-8.392-6.348-8.451-10.4l81.02-15.244c-.841,9.283-1.333,15.21-1.34,16.338a9.521,9.521,0,0,0,.161,1.836C2916.434,1850.028,2926.049,1850.264,2927.29,1850.264Z" transform="translate(-2641.734 -1490.185)" fill="#9ea8b2" opacity="0.4"/>
        <path id="Trazado_130275" data-name="Trazado 130275" d="M2802.021,1640.277l-176.707,60.588-21.652-86.977Z" transform="translate(-2544.365 -1401.578)" fill="#9ea8b2" opacity="0.4"/>
        <path id="Trazado_130276" data-name="Trazado 130276" d="M2512.46,1247.542h396.961l64.407,240.531H2570.3Z" transform="translate(-2506.017 -1247.542)" fill="#7d6eb2"/>
      </g>
      <ellipse id="Elipse_4365" data-name="Elipse 4365" cx="9.693" cy="11.769" rx="9.693" ry="11.769" transform="translate(266.834 270.205) rotate(-47.775)" fill="#fff"/>
      <path id="Trazado_130277" data-name="Trazado 130277" d="M2967.037,1487H2595.361l-42.092-167.679-3.226-12.859-2.754-10.968-6.455-25.718h366.319l7.089,25.718,3.024,10.968,3.544,12.859Z" transform="translate(-2517.947 -1256.89)" fill="#e6ecf6"/>
      <path id="Trazado_130278" data-name="Trazado 130278" d="M2914.242,1295.492H2547.289l-6.455-25.718h366.319Z" transform="translate(-2517.947 -1256.89)" fill="#9ea8b2"/>
      <g id="Grupo_56941" data-name="Grupo 56941" transform="translate(37.942 21.292)">
        <path id="Trazado_130279" data-name="Trazado 130279" d="M2569.324,1284.282a2.429,2.429,0,0,0-2.413,3.215,4.391,4.391,0,0,0,4.016,3.215,2.429,2.429,0,0,0,2.413-3.215A4.391,4.391,0,0,0,2569.324,1284.282Z" transform="translate(-2566.812 -1284.282)" fill="#e6ecf6"/>
        <path id="Trazado_130280" data-name="Trazado 130280" d="M2587.756,1284.282a2.429,2.429,0,0,0-2.413,3.215,4.392,4.392,0,0,0,4.017,3.215,2.429,2.429,0,0,0,2.413-3.215A4.392,4.392,0,0,0,2587.756,1284.282Z" transform="translate(-2574.562 -1284.282)" fill="#e6ecf6"/>
        <path id="Trazado_130281" data-name="Trazado 130281" d="M2611.621,1287.5a4.392,4.392,0,0,0-4.017-3.215,2.429,2.429,0,0,0-2.413,3.215,4.392,4.392,0,0,0,4.016,3.215A2.429,2.429,0,0,0,2611.621,1287.5Z" transform="translate(-2582.907 -1284.282)" fill="#e6ecf6"/>
      </g>
      <g id="Grupo_56952" data-name="Grupo 56952" transform="translate(51.907 52.078)">
        <g id="Grupo_56942" data-name="Grupo 56942" transform="translate(240.74 42.128)">
          <path id="Trazado_130282" data-name="Trazado 130282" d="M3046.3,1429.616c-2.683-10.762-13.63-19.519-24.4-19.519a15.353,15.353,0,0,0-12.465,5.644c-2.961,3.791-3.85,8.854-2.5,14.257,2.683,10.762,13.63,19.518,24.4,19.518a15.349,15.349,0,0,0,12.464-5.644C3046.753,1440.081,3047.644,1435.018,3046.3,1429.616Zm-3.746,13.285a13.809,13.809,0,0,1-11.222,5.037c-10.093,0-20.354-8.219-22.873-18.323-1.227-4.921-.44-9.5,2.216-12.9a13.811,13.811,0,0,1,11.222-5.037c10.093,0,20.354,8.219,22.873,18.323C3045.994,1434.918,3045.207,1439.5,3042.55,1442.9Z" transform="translate(-3006.312 -1410.097)" fill="#a7adb3"/>
          <path id="Trazado_130283" data-name="Trazado 130283" d="M3040.067,1441.305l-1.962-13.719-.155-.621h-5.525l.155.621,4.88,13.719Z" transform="translate(-3017.292 -1417.19)" fill="#a7adb3"/>
          <path id="Trazado_130284" data-name="Trazado 130284" d="M3040.065,1455.887l1.238,4.966h5.028l-1.238-4.966Z" transform="translate(-3020.504 -1429.35)" fill="#a7adb3"/>
        </g>
        <g id="Grupo_56943" data-name="Grupo 56943" transform="translate(252.738 88.737)">
          <path id="Trazado_130285" data-name="Trazado 130285" d="M3067,1510.041c-2.683-10.762-13.631-19.518-24.4-19.518a15.348,15.348,0,0,0-12.464,5.644c-2.962,3.791-3.851,8.854-2.5,14.256,2.684,10.763,13.631,19.518,24.4,19.518a15.353,15.353,0,0,0,12.465-5.643C3067.457,1520.506,3068.346,1515.444,3067,1510.041Zm-3.747,13.286a13.809,13.809,0,0,1-11.222,5.037c-10.093,0-20.354-8.22-22.873-18.323-1.227-4.922-.44-9.5,2.217-12.9a13.809,13.809,0,0,1,11.221-5.037c10.093,0,20.354,8.219,22.873,18.323C3066.7,1515.344,3065.909,1519.927,3063.253,1523.327Z" transform="translate(-3027.015 -1490.523)" fill="#a7adb3"/>
          <path id="Trazado_130286" data-name="Trazado 130286" d="M3060.771,1521.731l-1.962-13.72-.155-.62h-5.525l.155.62,4.879,13.72Z" transform="translate(-3037.995 -1497.615)" fill="#a7adb3"/>
          <path id="Trazado_130287" data-name="Trazado 130287" d="M3060.768,1536.313l1.238,4.966h5.028l-1.238-4.966Z" transform="translate(-3041.207 -1509.776)" fill="#a7adb3"/>
        </g>
        <g id="Grupo_56944" data-name="Grupo 56944" transform="translate(284.893 21.881)">
          <path id="Trazado_130288" data-name="Trazado 130288" d="M3136.221,1430.214a1.682,1.682,0,0,0,1.667-2.221,3.044,3.044,0,0,0-2.775-2.221h-39.554a1.682,1.682,0,0,0-1.667,2.221,3.044,3.044,0,0,0,2.775,2.221Z" transform="translate(-3087.261 -1396.441)" fill="#9ea8b2"/>
          <path id="Trazado_130289" data-name="Trazado 130289" d="M3126.563,1377.381a3.044,3.044,0,0,0-2.774-2.221h-39.555a1.682,1.682,0,0,0-1.667,2.221,3.044,3.044,0,0,0,2.774,2.221H3124.9A1.682,1.682,0,0,0,3126.563,1377.381Z" transform="translate(-3082.499 -1375.16)" fill="#9ea8b2"/>
          <path id="Trazado_130290" data-name="Trazado 130290" d="M3139.861,1444.813a1.682,1.682,0,0,0,1.667-2.221,3.045,3.045,0,0,0-2.775-2.221H3099.2a1.682,1.682,0,0,0-1.667,2.221,3.044,3.044,0,0,0,2.775,2.221Z" transform="translate(-3088.791 -1402.579)" fill="#9ea8b2"/>
          <path id="Trazado_130291" data-name="Trazado 130291" d="M3145.168,1457.191a3.045,3.045,0,0,0-2.775-2.221h-39.554a1.682,1.682,0,0,0-1.667,2.221,3.044,3.044,0,0,0,2.775,2.221H3143.5A1.682,1.682,0,0,0,3145.168,1457.191Z" transform="translate(-3090.322 -1408.717)" fill="#9ea8b2"/>
          <path id="Trazado_130292" data-name="Trazado 130292" d="M3156.924,1510.639a1.682,1.682,0,0,0,1.667-2.221,3.044,3.044,0,0,0-2.774-2.221h-39.555a1.682,1.682,0,0,0-1.667,2.221,3.044,3.044,0,0,0,2.775,2.221Z" transform="translate(-3095.966 -1430.257)" fill="#9ea8b2"/>
          <path id="Trazado_130293" data-name="Trazado 130293" d="M3160.564,1525.238a1.682,1.682,0,0,0,1.667-2.221,3.043,3.043,0,0,0-2.774-2.221H3119.9a1.682,1.682,0,0,0-1.667,2.221,3.044,3.044,0,0,0,2.774,2.221Z" transform="translate(-3097.497 -1436.395)" fill="#9ea8b2"/>
          <path id="Trazado_130294" data-name="Trazado 130294" d="M3165.872,1537.616a3.045,3.045,0,0,0-2.775-2.221h-39.554a1.682,1.682,0,0,0-1.667,2.221,3.043,3.043,0,0,0,2.774,2.221H3164.2A1.682,1.682,0,0,0,3165.872,1537.616Z" transform="translate(-3099.027 -1442.534)" fill="#9ea8b2"/>
        </g>
        <path id="Trazado_130295" data-name="Trazado 130295" d="M2918.2,1352.169l-2.761-11.073a5.061,5.061,0,0,0-4.613-3.692H2593.793a2.8,2.8,0,0,0-2.772,3.692l2.761,11.073a5.061,5.061,0,0,0,4.612,3.692h317.034A2.8,2.8,0,0,0,2918.2,1352.169Z" transform="translate(-2590.909 -1337.404)" fill="#9ea8b2"/>
        <path id="Trazado_130296" data-name="Trazado 130296" d="M2818.533,1337.405l4.6,18.456H2598.395a5.061,5.061,0,0,1-4.612-3.692l-2.761-11.072a2.8,2.8,0,0,1,2.772-3.692Z" transform="translate(-2590.909 -1337.404)" fill="#a7adb3"/>
        <path id="Trazado_130297" data-name="Trazado 130297" d="M3053.344,1347.472l.354,1.418h3.508l-1.83,6.045h1.855l1.8-6.226-.308-1.237Z" transform="translate(-2785.347 -1341.637)" fill="#7d6eb2"/>
        <path id="Trazado_130298" data-name="Trazado 130298" d="M3068.036,1347.251c-1.983,0-2.9,1.7-2.365,3.86a4.734,4.734,0,0,0,4.268,3.859c1.993,0,2.9-1.7,2.364-3.859A4.753,4.753,0,0,0,3068.036,1347.251Zm1.555,6.237c-.992,0-1.9-1.013-2.235-2.377-.346-1.386.047-2.378,1.027-2.378s1.9,1.023,2.235,2.378C3070.962,1352.486,3070.583,1353.488,3069.591,1353.488Z" transform="translate(-2790.467 -1341.544)" fill="#7d6eb2"/>
        <path id="Trazado_130299" data-name="Trazado 130299" d="M3091.425,1355.819a2.45,2.45,0,0,0-2.277-1.908,1.383,1.383,0,0,0-1.347,1.908,2.45,2.45,0,0,0,2.278,1.908A1.387,1.387,0,0,0,3091.425,1355.819Zm-1.568.938c-.427,0-.812-.438-.937-.938s0-.938.448-.938c.427,0,.813.437.938.938S3090.3,1356.758,3089.857,1356.758Z" transform="translate(-2799.807 -1344.345)" fill="#7d6eb2"/>
        <path id="Trazado_130300" data-name="Trazado 130300" d="M3085.6,1347.472l-3.587,7.463h1.269l3.587-7.463Z" transform="translate(-2797.401 -1341.637)" fill="#7d6eb2"/>
        <path id="Trazado_130301" data-name="Trazado 130301" d="M3081.873,1349.233a2.45,2.45,0,0,0-2.278-1.908,1.383,1.383,0,0,0-1.347,1.908,2.45,2.45,0,0,0,2.277,1.908A1.387,1.387,0,0,0,3081.873,1349.233Zm-2.505,0c-.128-.512,0-.938.448-.938.427,0,.813.437.938.938s0,.938-.448.938C3079.878,1350.172,3079.492,1349.734,3079.367,1349.233Z" transform="translate(-2795.79 -1341.576)" fill="#7d6eb2"/>
        <g id="Grupo_56945" data-name="Grupo 56945" transform="translate(22.571 30.733)">
          <path id="Trazado_130302" data-name="Trazado 130302" d="M2820.056,1501.236a3.151,3.151,0,0,0,3.131-4.17h0a5.7,5.7,0,0,0-5.21-4.17H2633.115a3.151,3.151,0,0,0-3.131,4.17h0a5.7,5.7,0,0,0,5.21,4.17Z" transform="translate(-2629.855 -1433.516)" fill="#9ea8b2"/>
          <path id="Trazado_130303" data-name="Trazado 130303" d="M2826.013,1525.126a3.151,3.151,0,0,0,3.131-4.17,5.7,5.7,0,0,0-5.21-4.17H2639.071a3.151,3.151,0,0,0-3.131,4.17,5.7,5.7,0,0,0,5.21,4.17Z" transform="translate(-2632.36 -1443.561)" fill="#9ea8b2"/>
          <path id="Trazado_130304" data-name="Trazado 130304" d="M2835.365,1545.907a5.7,5.7,0,0,0-5.21-4.17H2645.292a3.151,3.151,0,0,0-3.131,4.17,5.7,5.7,0,0,0,5.21,4.171h184.862A3.151,3.151,0,0,0,2835.365,1545.907Z" transform="translate(-2634.976 -1454.052)" fill="#9ea8b2"/>
          <path id="Trazado_130305" data-name="Trazado 130305" d="M2776.148,1435.65a7.16,7.16,0,0,0,6.548,5.242h20.619c2.895,0,4.656-2.347,3.935-5.242l-9.967-39.974a7.161,7.161,0,0,0-6.549-5.241h-20.619c-2.895,0-4.656,2.346-3.935,5.241Z" transform="translate(-2687.108 -1390.435)" fill="#9ea8b2"/>
          <path id="Trazado_130306" data-name="Trazado 130306" d="M2837.728,1435.65a7.159,7.159,0,0,0,6.548,5.242h20.618c2.9,0,4.657-2.347,3.935-5.242l-9.967-39.974a7.159,7.159,0,0,0-6.548-5.241h-20.619c-2.895,0-4.656,2.346-3.934,5.241Z" transform="translate(-2713 -1390.435)" fill="#9ea8b2"/>
          <path id="Trazado_130307" data-name="Trazado 130307" d="M2898.157,1435.65a7.159,7.159,0,0,0,6.548,5.242h20.619c2.895,0,4.656-2.347,3.934-5.242l-9.967-39.974a7.159,7.159,0,0,0-6.548-5.241h-20.619c-2.9,0-4.656,2.346-3.935,5.241Z" transform="translate(-2738.408 -1390.435)" fill="#9ea8b2"/>
        </g>
        <g id="Grupo_56947" data-name="Grupo 56947" transform="translate(8.774 30.733)">
          <path id="Trazado_130308" data-name="Trazado 130308" d="M2701.9,1432.106l-8.2-32.886c-1.209-4.852-6.124-8.785-10.976-8.785h-69.806c-4.853,0-7.805,3.933-6.595,8.785l8.2,32.886c1.21,4.853,6.124,8.786,10.976,8.786H2695.3C2700.154,1440.892,2703.106,1436.959,2701.9,1432.106Z" transform="translate(-2606.049 -1390.435)" fill="#9ea8b2"/>
          <g id="Grupo_56946" data-name="Grupo 56946" transform="translate(8.007 8.614)">
            <path id="Trazado_130309" data-name="Trazado 130309" d="M2687.65,1409.3a1.514,1.514,0,0,0,1.5-2h0a2.741,2.741,0,0,0-2.5-2h-65.225a1.515,1.515,0,0,0-1.5,2h0a2.742,2.742,0,0,0,2.5,2Z" transform="translate(-2619.865 -1405.299)" fill="#7d6eb2"/>
            <path id="Trazado_130310" data-name="Trazado 130310" d="M2690.958,1422.571a1.515,1.515,0,0,0,1.5-2h0a2.743,2.743,0,0,0-2.5-2h-65.225a1.514,1.514,0,0,0-1.5,2h0a2.741,2.741,0,0,0,2.5,2Z" transform="translate(-2621.256 -1410.879)" fill="#7d6eb2"/>
            <path id="Trazado_130311" data-name="Trazado 130311" d="M2695.77,1433.844a2.741,2.741,0,0,0-2.5-2h-65.225a1.514,1.514,0,0,0-1.5,2,2.741,2.741,0,0,0,2.5,2h65.224A1.515,1.515,0,0,0,2695.77,1433.844Z" transform="translate(-2622.648 -1416.46)" fill="#7d6eb2"/>
            <path id="Trazado_130312" data-name="Trazado 130312" d="M2647.14,1446.708h-15.388a1.514,1.514,0,0,0-1.5,2,2.741,2.741,0,0,0,2.5,2h15.388a1.515,1.515,0,0,0,1.5-2A2.741,2.741,0,0,0,2647.14,1446.708Z" transform="translate(-2624.207 -1422.71)" fill="#7d6eb2"/>
          </g>
        </g>
        <path id="Trazado_130313" data-name="Trazado 130313" d="M3204.254,1597.991l-4.3-17.25a6.3,6.3,0,0,0-5.758-4.608h-36.615a3.482,3.482,0,0,0-3.46,4.608l4.3,17.25a6.3,6.3,0,0,0,5.757,4.609h36.615A3.482,3.482,0,0,0,3204.254,1597.991Z" transform="translate(-2827.661 -1437.782)" fill="#9ea8b2"/>
        <g id="Grupo_56948" data-name="Grupo 56948" transform="translate(330.518 142.87)">
          <path id="Trazado_130314" data-name="Trazado 130314" d="M3196.781,1586.028a.794.794,0,0,0,.787-1.049,1.437,1.437,0,0,0-1.31-1.049h-34.213a.794.794,0,0,0-.788,1.049,1.438,1.438,0,0,0,1.311,1.049Z" transform="translate(-3161.226 -1583.93)" fill="#6284ac"/>
          <path id="Trazado_130315" data-name="Trazado 130315" d="M3198.517,1592.99a.8.8,0,0,0,.788-1.049,1.438,1.438,0,0,0-1.311-1.049h-34.213a.794.794,0,0,0-.788,1.049,1.438,1.438,0,0,0,1.31,1.049Z" transform="translate(-3161.956 -1586.857)" fill="#6284ac"/>
          <path id="Trazado_130316" data-name="Trazado 130316" d="M3201.041,1598.9a1.439,1.439,0,0,0-1.311-1.049h-34.212a.794.794,0,0,0-.787,1.049,1.438,1.438,0,0,0,1.31,1.049h34.213A.8.8,0,0,0,3201.041,1598.9Z" transform="translate(-3162.686 -1589.785)" fill="#6284ac"/>
          <path id="Trazado_130317" data-name="Trazado 130317" d="M3175.532,1605.651h-8.071a.794.794,0,0,0-.787,1.049h0a1.438,1.438,0,0,0,1.311,1.049h8.072a.8.8,0,0,0,.788-1.049A1.438,1.438,0,0,0,3175.532,1605.651Z" transform="translate(-3163.503 -1593.063)" fill="#6284ac"/>
        </g>
        <g id="Grupo_56951" data-name="Grupo 56951" transform="translate(37.451 136.704)">
          <g id="Grupo_56949" data-name="Grupo 56949" transform="translate(13.499 7.737)">
            <path id="Trazado_130318" data-name="Trazado 130318" d="M2750.567,1589.787a1.188,1.188,0,0,0,1.181-1.573h0a2.149,2.149,0,0,0-1.965-1.573h-69.729a1.189,1.189,0,0,0-1.181,1.573h0a2.148,2.148,0,0,0,1.965,1.573Z" transform="translate(-2678.824 -1586.641)" fill="#a7adb3"/>
            <path id="Trazado_130319" data-name="Trazado 130319" d="M2752.814,1598.8a1.189,1.189,0,0,0,1.181-1.573h0a2.15,2.15,0,0,0-1.965-1.573H2682.3a1.188,1.188,0,0,0-1.181,1.573h0a2.15,2.15,0,0,0,1.965,1.573Z" transform="translate(-2679.769 -1590.43)" fill="#a7adb3"/>
            <path id="Trazado_130320" data-name="Trazado 130320" d="M2754.376,1605.064h-69.728a1.188,1.188,0,0,0-1.181,1.573,2.148,2.148,0,0,0,1.965,1.573h69.729a1.188,1.188,0,0,0,1.181-1.573A2.149,2.149,0,0,0,2754.376,1605.064Z" transform="translate(-2680.756 -1594.387)" fill="#a7adb3"/>
            <path id="Trazado_130321" data-name="Trazado 130321" d="M2905.843,1589.787a1.188,1.188,0,0,0,1.181-1.573h0a2.149,2.149,0,0,0-1.965-1.573H2835.33a1.189,1.189,0,0,0-1.181,1.573h0a2.149,2.149,0,0,0,1.965,1.573Z" transform="translate(-2744.113 -1586.641)" fill="#a7adb3"/>
            <path id="Trazado_130322" data-name="Trazado 130322" d="M2908.09,1598.8a1.189,1.189,0,0,0,1.181-1.573h0a2.149,2.149,0,0,0-1.965-1.573h-69.729a1.188,1.188,0,0,0-1.181,1.573h0a2.149,2.149,0,0,0,1.965,1.573Z" transform="translate(-2745.058 -1590.43)" fill="#a7adb3"/>
            <path id="Trazado_130323" data-name="Trazado 130323" d="M2909.652,1605.064h-69.729a1.188,1.188,0,0,0-1.18,1.573,2.147,2.147,0,0,0,1.964,1.573h69.73a1.188,1.188,0,0,0,1.181-1.573A2.149,2.149,0,0,0,2909.652,1605.064Z" transform="translate(-2746.044 -1594.387)" fill="#a7adb3"/>
            <path id="Trazado_130324" data-name="Trazado 130324" d="M3056.342,1589.787a1.188,1.188,0,0,0,1.18-1.573h0a2.149,2.149,0,0,0-1.965-1.573h-69.729a1.188,1.188,0,0,0-1.18,1.573h0a2.147,2.147,0,0,0,1.965,1.573Z" transform="translate(-2807.393 -1586.641)" fill="#a7adb3"/>
            <path id="Trazado_130325" data-name="Trazado 130325" d="M3058.588,1598.8a1.189,1.189,0,0,0,1.181-1.573h0a2.149,2.149,0,0,0-1.966-1.573h-69.729a1.189,1.189,0,0,0-1.181,1.573h0a2.15,2.15,0,0,0,1.965,1.573Z" transform="translate(-2808.337 -1590.43)" fill="#a7adb3"/>
            <path id="Trazado_130326" data-name="Trazado 130326" d="M3062.115,1606.637a2.148,2.148,0,0,0-1.965-1.573h-69.73a1.188,1.188,0,0,0-1.181,1.573,2.15,2.15,0,0,0,1.965,1.573h69.729A1.188,1.188,0,0,0,3062.115,1606.637Z" transform="translate(-2809.323 -1594.387)" fill="#a7adb3"/>
          </g>
          <g id="Grupo_56950" data-name="Grupo 56950">
            <path id="Trazado_130327" data-name="Trazado 130327" d="M2935.313,1603.788h-268.9a5.878,5.878,0,0,1-5.377-4.29l-5.37-21.537a3.837,3.837,0,0,1,.609-3.323,3.611,3.611,0,0,1,2.928-1.348h268.9a5.879,5.879,0,0,1,5.377,4.29l5.37,21.537a3.838,3.838,0,0,1-.609,3.323A3.611,3.611,0,0,1,2935.313,1603.788ZM2659.2,1574.868a2.072,2.072,0,0,0-1.685.742,2.252,2.252,0,0,0-.321,1.971l5.37,21.537a4.278,4.278,0,0,0,3.846,3.094h268.9a2.071,2.071,0,0,0,1.685-.742,2.252,2.252,0,0,0,.321-1.971l-5.369-21.537a4.28,4.28,0,0,0-3.847-3.094Z" transform="translate(-2655.531 -1573.291)" fill="#a7adb3"/>
          </g>
        </g>
      </g>
    </g>
    <g id="Grupo_56954" data-name="Grupo 56954" transform="translate(2783.176 1259.83)">
      <path id="Trazado_130328" data-name="Trazado 130328" d="M3220.979,1386.676s25.991,25.579,27.18,35.225-11.788,24.734-11.788,24.734Z" transform="translate(-3165.554 -1335.812)" fill="#f5ca56"/>
      <path id="Trazado_130329" data-name="Trazado 130329" d="M3180.557,1841.933s-.843,13.6-3.474,13.793c-.35.026-13.344.026-13.344.026l-16.586-.1s.108-4,4.957-4.841,12.964-4.253,15.9-10.661C3171.1,1833.412,3180.557,1841.933,3180.557,1841.933Z" transform="translate(-3134.513 -1525.393)" fill="#163560"/>
      <path id="Trazado_130330" data-name="Trazado 130330" d="M3244.3,1841.933s-.843,13.6-3.473,13.793c-.35.026-13.344.026-13.344.026l-16.587-.1s.109-4,4.957-4.841,12.964-4.253,15.9-10.661C3234.848,1833.412,3244.3,1841.933,3244.3,1841.933Z" transform="translate(-3161.317 -1525.393)" fill="#163560"/>
      <path id="Trazado_130331" data-name="Trazado 130331" d="M3173.095,1577.845s4.339,27.745,20.521,77,18.389,70.581,18.389,70.581l17.36-.487s.148-53.827-7.31-78.594-1.609-89.288-1.609-89.288Z" transform="translate(-3145.42 -1407.45)" fill="#163560"/>
      <path id="Trazado_130332" data-name="Trazado 130332" d="M3158.508,1559.676a673.29,673.29,0,0,0,6.62,93.146c7.233,51.336,4.782,73.127,4.782,73.127l17.325.576s10.354-51.355,7.386-77.05,14.179-88.17,14.179-88.17Z" transform="translate(-3139.282 -1408.553)" fill="#1c468a"/>
      <path id="Trazado_130333" data-name="Trazado 130333" d="M3201.895,1375.85l-8.172,6.052-11.81-2.486c.164-1.077.943-5.54,1.653-9.584.043-.238.086-.476.126-.71.608-3.44,1.133-6.4,1.133-6.4l11.03-5.5,4.113-2.049c-.011.072-.319,3.818-.362,4.365A35.32,35.32,0,0,0,3201.895,1375.85Z" transform="translate(-3149.128 -1322.569)" fill="#ffb27d"/>
      <path id="Trazado_130334" data-name="Trazado 130334" d="M3179.466,1382.491c.259-.109,16.065-4.774,17.782-4.207s2.734,3.889,2.734,3.889l-25.854,5.845S3176.163,1383.881,3179.466,1382.491Z" transform="translate(-3145.855 -1332.264)" fill="#f7d578"/>
      <path id="Trazado_130335" data-name="Trazado 130335" d="M3213.306,1491.306c-2.679,12.223-47.27,13.672-58.764,2.578-1.308-1.264-1.372-7.149-.879-15.082.964-15.5,4.062-38.814,4.182-50.726a94.3,94.3,0,0,1,1.9-16.978,137.854,137.854,0,0,1,5.656-20.322s21.78-7.041,25.855-5.844C3210.891,1390.7,3215.985,1479.083,3213.306,1491.306Z" transform="translate(-3137.131 -1335.021)" fill="#f5ca56"/>
      <path id="Trazado_130336" data-name="Trazado 130336" d="M3153.869,1496.207c.964-15.5,4.061-38.814,4.182-50.726a94.346,94.346,0,0,1,1.9-16.978l13.1-2.312S3185.865,1478.511,3153.869,1496.207Z" transform="translate(-3137.337 -1352.427)" fill="#f7d578"/>
      <path id="Trazado_130337" data-name="Trazado 130337" d="M3163.4,1508.25a3.084,3.084,0,0,1-.982,3.568c-1.876,1.433-3.092,3.755-2.663,5.452s4.544,4.465,5.97,4.019,4.328-2.682,4.016-3.577,1.952-7.854-1.524-10.533S3163.4,1508.25,3163.4,1508.25Z" transform="translate(-3139.777 -1386.074)" fill="#ffb27d"/>
      <path id="Trazado_130338" data-name="Trazado 130338" d="M3163.593,1390.433s-12.752,1.968-22.933,16.971-16.879,26.159-15,31.566,18.971,24.162,21.918,24.162,7.7-2.144,7.972-6.966c0,0-12.036-18.039-9.665-20.741,1.013-1.154,15.626-13.017,17.712-7.659C3167.045,1436.633,3163.593,1390.433,3163.593,1390.433Z" transform="translate(-3125.342 -1337.392)" fill="#f5ca56"/>
      <path id="Trazado_130339" data-name="Trazado 130339" d="M3199.978,1361.2c-2.422,4.636-11.448,8.644-15.213,10.117.043-.238.086-.476.126-.71.608-3.44,1.133-6.4,1.133-6.4l11.03-5.5C3199.493,1358.678,3200.977,1359.294,3199.978,1361.2Z" transform="translate(-3150.328 -1324.055)" fill="#fca56b"/>
      <path id="Trazado_130340" data-name="Trazado 130340" d="M3175.884,1343.326s19.9,6.208,23.574-6.244,8.719-20.038-3.831-24.528-16.433-.471-18.67,3.387S3170.8,1341.39,3175.884,1343.326Z" transform="translate(-3145.547 -1303.813)" fill="#ffb27d"/>
      <path id="Trazado_130341" data-name="Trazado 130341" d="M3183.6,1310.313s1.149,14.949,4.158,14.274,5.736-1.18,5.259,3.333-4.685,9.756,4.565,10.475,22.758-23.983,20.254-28.617C3210.606,1296.408,3173.128,1294.015,3183.6,1310.313Z" transform="translate(-3149.065 -1298.909)" fill="#163560"/>
    </g>
    <g id="Grupo_56957" data-name="Grupo 56957" transform="translate(2905.748 1280.294)">
      <g id="Grupo_56955" data-name="Grupo 56955" transform="translate(24.619 52.761)">
        <path id="Trazado_130342" data-name="Trazado 130342" d="M3407.091,1554.35s-7.633,1.96-12.485.5-13.2.939-14.548,2.708-.851,2.472,1.549,3.083,10.9,4.237,16.489,2.138,12.876-2.175,12.876-2.175Z" transform="translate(-3379.324 -1479.538)" fill="#e49963"/>
        <path id="Trazado_130343" data-name="Trazado 130343" d="M3489.058,1433.768s-8.574,60.942-22.772,66.4c-7.006,2.693-37.967,8.8-47.126,9.412,0,0-2.243-1.82-1.7-9.229,0,0,32.438-11.909,37.047-18.386,6.858-9.639-4.257-39.378,4.349-48.431S3481.959,1420.592,3489.058,1433.768Z" transform="translate(-3395.324 -1425.26)" fill="#7dccd4"/>
      </g>
      <path id="Trazado_130344" data-name="Trazado 130344" d="M3508.324,1774.88v-13.4h20.918a1.029,1.029,0,0,0,1.026-1.026v-2.129a1.029,1.029,0,0,0-1.026-1.026h-20.918V1681.66a3.871,3.871,0,0,0-3.859-3.859h-4.14a3.87,3.87,0,0,0-3.858,3.859V1757.3h-20.919a1.029,1.029,0,0,0-1.026,1.026v2.129a1.029,1.029,0,0,0,1.026,1.026h20.919v13.4c-15.137,1.144-27.262,6.6-30.664,13.636h73.185C3535.586,1781.477,3523.46,1776.024,3508.324,1774.88Z" transform="translate(-3391.067 -1478.684)" fill="#2b478b"/>
      <path id="Trazado_130345" data-name="Trazado 130345" d="M3473.5,1635.523a106.767,106.767,0,0,1-8.376,11.984c-9.215,11.634-19.247,21.226-21,30.294a40.908,40.908,0,0,1-1.62,5.8c-.729,2.076-1.632,4.261-2.673,6.519-3.91,8.495-9.759,18.013-15.6,26.665-10.094,14.957-19.586,27.438-19.586,27.438l-17.406-.742c.7-1.744,8.289-22.4,18.445-47.634,4.125-10.246,8.51-21.143,12.741-31.653q.846-2.1,1.686-4.186c1.293-3.217,2.566-6.383,3.809-9.466,9.536-23.7,17.132-42.568,17.132-42.568s38.115-14.438,42.073-5.083C3486.393,1610.609,3483.735,1618.166,3473.5,1635.523Z" transform="translate(-3358.035 -1445.862)" fill="#163560"/>
      <path id="Trazado_130346" data-name="Trazado 130346" d="M3390.642,1840.239s-.852,14.433-3.631,14.638c-.37.027-31.79,0-31.79,0s.25-4.365,5.372-5.257,13.694-4.492,16.8-11.261C3380.653,1831.239,3390.642,1840.239,3390.642,1840.239Z" transform="translate(-3344.571 -1545.041)" fill="#163560"/>
      <path id="Trazado_130347" data-name="Trazado 130347" d="M3479.279,1772.785s12.108,7.78,10.932,10.307c-.155.336-6.847,12.32-6.847,12.32l-8.63,15.248s-3.63-2.158-1.913-7.065,2.753-14.145-1.644-20.154C3466.551,1777.119,3479.279,1772.785,3479.279,1772.785Z" transform="translate(-3392.901 -1518.621)" fill="#163560"/>
      <path id="Trazado_130348" data-name="Trazado 130348" d="M3419.128,1601.842s-48.143,29.966-53.484,49.993,63.641,62.75,63.641,62.75,7.566-6.676,8.9-11.571c0,0-31.18-37.355-37.943-45.729-4.154-5.143,61.418-17.8,69.429-30.264s5.142-22.945,5.142-22.945Z" transform="translate(-3348.829 -1446.746)" fill="#1c468a"/>
      <rect id="Rect치ngulo_30780" data-name="Rect치ngulo 30780" width="105.034" height="26.704" rx="6.144" transform="translate(58.812 193.529)" fill="#a0a8b2"/>
      <path id="Trazado_130349" data-name="Trazado 130349" d="M3513.681,1406.47s-19,10.621-30.462,7.657a27.054,27.054,0,0,1,7.29-6.6c-.251-1.115-.47-2.165-.659-3.142a74.829,74.829,0,0,1-1.293-8.853l8.753-7.842,5.886,1.247c.113.578.238,1.139.378,1.69C3506.3,1401.513,3513.681,1406.47,3513.681,1406.47Z" transform="translate(-3398.389 -1356.7)" fill="#e49963"/>
      <path id="Trazado_130350" data-name="Trazado 130350" d="M3513.961,1471.975c-1.642,22.082.518,55.661-1.345,61.477-1.609,5.019-19.921,2.035-27.232.362-2.705-.622-5.983-1.507-9.366-2.554-9.441-2.924-19.729-7.1-20.834-10.2a2.753,2.753,0,0,1-.1-.356v-.005c-.018-.078-.032-.156-.042-.232a2.921,2.921,0,0,1,.062-1.061c.368-1.579,1.784-3.288,1.952-7.2.186-4.366.159-9.509.324-15.038.008-.624.016-1.3.083-1.922l0-.227c0-.119.005-.235.008-.354.16-6.166.484-12.651.856-19.079.237-4.04.513-8.04.828-11.871.823-9.892,1.933-18.687,3.4-24.246,2.4-9.066,7.692-14.978,12.511-19.311l3.483-2.989a20.135,20.135,0,0,0,12.643-1.685c4.5-2.136,6.052-3.666,6.836-3.089C3508.424,1420.415,3515.9,1444.984,3513.961,1471.975Z" transform="translate(-3386.532 -1367.039)" fill="#a8dde2"/>
      <path id="Trazado_130351" data-name="Trazado 130351" d="M3476.019,1579.3c-9.441-2.924-19.729-7.1-20.834-10.2a2.753,2.753,0,0,1-.1-.356v-.005a.719.719,0,0,0-.042-.232,2.922,2.922,0,0,1,.062-1.061c.368-1.579,1.784-3.288,1.952-7.2.186-4.366.159-9.508.324-15.038.008-.624.016-1.3.083-1.922l0-.227c0-.119.005-.235.008-.354l35.664-16.174S3495.192,1555.278,3476.019,1579.3Z" transform="translate(-3386.532 -1415.082)" fill="#7dccd4"/>
      <path id="Trazado_130352" data-name="Trazado 130352" d="M3507.445,1390.622c-1.3,3.275-5.175,11-13.723,13.758a74.7,74.7,0,0,1-1.293-8.853l8.752-7.842,5.886,1.247C3507.181,1389.51,3507.306,1390.072,3507.445,1390.622Z" transform="translate(-3402.262 -1356.7)" fill="#d68d5d"/>
      <path id="Trazado_130353" data-name="Trazado 130353" d="M3483.235,1378.415s18.782,2.118,19.921-9.6,4.331-19.334-7.613-21.182-14.711,2.4-16.042,6.214S3478.379,1377.562,3483.235,1378.415Z" transform="translate(-3396.531 -1339.672)" fill="#e49963"/>
      <path id="Trazado_130354" data-name="Trazado 130354" d="M3502.436,1364.172s-1.191-15.552-18.288-17.164c-11.71-1.1-5.181-11.182-3.933-12.79,0,0,8.972,1.23,18.168,2.749C3517.686,1340.158,3504.332,1361.751,3502.436,1364.172Z" transform="translate(-3395.891 -1334.219)" fill="#2b478b"/>
      <path id="Trazado_130355" data-name="Trazado 130355" d="M3398.26,1546.148l-46.54.994-13.232-40.722-1.644.534L3350.832,1550l47.489-1.014Z" transform="translate(-3336.844 -1406.624)" fill="#4a75cb"/>
      <g id="Grupo_56956" data-name="Grupo 56956" transform="translate(29.234 56.674)">
        <path id="Trazado_130356" data-name="Trazado 130356" d="M3414.368,1570.516s-7.371,2.79-12.354,1.873-13.019,2.389-14.161,4.3-.573,2.551,1.88,2.893,11.3,3.01,16.624.308,12.557-3.582,12.557-3.582Z" transform="translate(-3387.289 -1490.248)" fill="#e49963"/>
        <path id="Trazado_130357" data-name="Trazado 130357" d="M3488.233,1439.107s-1.8,61.516-15.313,68.506c-6.666,3.449-36.766,12.931-45.8,14.55,0,0-2.43-1.561-2.7-8.985,0,0,30.927-15.413,34.794-22.358,5.754-10.336-8.573-38.668-1.018-48.614S3479.724,1426.794,3488.233,1439.107Z" transform="translate(-3402.899 -1432.011)" fill="#a8dde2"/>
      </g>
    </g>
  </g>
</svg>
