<svg xmlns="http://www.w3.org/2000/svg" width="121" height="121" viewBox="0 0 121 121">
  <g id="Grupo_56960" data-name="Grupo 56960" transform="translate(-1741.53 -2011.563)">
    <circle id="Elipse_4366" data-name="Elipse 4366" cx="60.5" cy="60.5" r="60.5" transform="translate(1741.53 2011.562)" fill="#26aab7"/>
    <g id="Grupo_56959" data-name="Grupo 56959" transform="translate(1764.534 2034.436)">
      <path id="Trazado_130362" data-name="Trazado 130362" d="M1920.918,2317.491a12.436,12.436,0,0,0-4.146-2.745,8.619,8.619,0,1,0-9.3,0,12.482,12.482,0,0,0-7.583,9.252,14.8,14.8,0,0,0-7.511-6.194,10.116,10.116,0,1,0-10.149,0,14.789,14.789,0,0,0-7.513,6.2,12.461,12.461,0,0,0-7.581-9.267,8.619,8.619,0,1,0-9.3,0,12.46,12.46,0,0,0-7.8,11.54v1.1a1.135,1.135,0,0,0,.486.931,20.939,20.939,0,0,0,22.244,1.052,14.753,14.753,0,0,0-.172,2.249v1.315a1.136,1.136,0,0,0,.485.931,24.725,24.725,0,0,0,14.222,4.46,24.985,24.985,0,0,0,5.96-.719,1.135,1.135,0,0,0-.542-2.2,22.709,22.709,0,0,1-5.418.653,22.469,22.469,0,0,1-12.437-3.722v-.714a12.437,12.437,0,1,1,24.874,0v.714a22.181,22.181,0,0,1-2.309,1.334,1.135,1.135,0,1,0,1.014,2.031,24.6,24.6,0,0,0,3.08-1.833,1.134,1.134,0,0,0,.485-.931v-1.315a14.924,14.924,0,0,0-.17-2.248,20.941,20.941,0,0,0,22.242-1.052,1.135,1.135,0,0,0,.485-.931v-1.1a12.363,12.363,0,0,0-3.645-8.8Zm-64.789-9.993a6.349,6.349,0,1,1,6.349,6.349A6.356,6.356,0,0,1,1856.129,2307.5Zm16.524,19.286a18.676,18.676,0,0,1-20.35,0v-.493a10.175,10.175,0,1,1,20.35,0Zm6.8-17.718a7.846,7.846,0,1,1,7.846,7.846A7.855,7.855,0,0,1,1879.452,2309.065Zm26.316-1.567a6.349,6.349,0,1,1,6.349,6.349A6.356,6.356,0,0,1,1905.769,2307.5Zm16.524,19.286a18.676,18.676,0,0,1-20.35,0v-.493a10.175,10.175,0,0,1,20.35,0v.493Z" transform="translate(-1850.033 -2260.836)" fill="#fff"/>
      <path id="Trazado_130363" data-name="Trazado 130363" d="M1976.7,2197.5a1.135,1.135,0,0,0,1.135,1.135h4.959l3.471,3.875a1.135,1.135,0,0,0,1.691,0l3.471-3.875h14.035l5.82,4.049a1.135,1.135,0,0,0,1.783-.932v-3.117h4.841a1.135,1.135,0,0,0,1.135-1.135v-13.754a1.135,1.135,0,1,0-2.27,0v12.619h-4.842a1.135,1.135,0,0,0-1.135,1.135v2.08l-4.329-3.012a1.135,1.135,0,0,0-.648-.2h-14.9a1.134,1.134,0,0,0-.846.378l-2.964,3.309-2.964-3.309a1.135,1.135,0,0,0-.845-.378h-5.466a1.135,1.135,0,0,0-1.135,1.135Z" transform="translate(-1949.842 -2169.216)" fill="#fff"/>
      <path id="Trazado_130364" data-name="Trazado 130364" d="M1876.325,2148.863h4.841v3.118a1.135,1.135,0,0,0,1.783.932l5.82-4.049h4.13a1.135,1.135,0,1,0,0-2.27h-4.486a1.136,1.136,0,0,0-.648.2l-4.33,3.012v-2.08a1.135,1.135,0,0,0-1.135-1.135h-4.841v-24.875h59.323v7.308a1.135,1.135,0,1,0,2.27,0v-8.443a1.135,1.135,0,0,0-1.135-1.135h-61.593a1.135,1.135,0,0,0-1.135,1.135v27.145a1.135,1.135,0,0,0,1.135,1.135Z" transform="translate(-1869.856 -2119.448)" fill="#fff"/>
      <path id="Trazado_130365" data-name="Trazado 130365" d="M1997.162,2170.3a1.135,1.135,0,0,0,.508-.12l10.355-5.177a1.135,1.135,0,0,0,0-2.031l-10.355-5.177a1.135,1.135,0,0,0-1.643,1.015v10.355a1.135,1.135,0,0,0,1.135,1.135Zm1.135-9.654,6.682,3.341-6.682,3.341Z" transform="translate(-1965.074 -2149.572)" fill="#a8dde2"/>
    </g>
    <path id="Trazado_130366" data-name="Trazado 130366" d="M1878.787,2315.936a6.349,6.349,0,1,1,6.349,6.349A6.356,6.356,0,0,1,1878.787,2315.936Z" transform="translate(-108.156 -234.839)" fill="#a8dde2"/>
    <path id="Trazado_130367" data-name="Trazado 130367" d="M1881.091,2390.857a18.676,18.676,0,0,1-20.35,0v-.493a10.175,10.175,0,1,1,20.35,0Z" transform="translate(-93.936 -290.474)" fill="#a8dde2"/>
    <circle id="Elipse_4367" data-name="Elipse 4367" cx="7.846" cy="7.846" r="7.846" transform="translate(1793.953 2074.818)" fill="#a8dde2"/>
    <circle id="Elipse_4368" data-name="Elipse 4368" cx="6.349" cy="6.349" r="6.349" transform="translate(1820.27 2074.748)" fill="#a8dde2"/>
    <path id="Trazado_130368" data-name="Trazado 130368" d="M2115.225,2390.857a18.676,18.676,0,0,1-20.35,0v-.493a10.175,10.175,0,0,1,20.35,0v.493Z" transform="translate(-278.431 -290.474)" fill="#a8dde2"/>
    <path id="Trazado_130369" data-name="Trazado 130369" d="M1992.243,2407.092a23.393,23.393,0,0,1-25.489,0v-.617a12.744,12.744,0,0,1,25.489,0Z" transform="translate(-177.473 -301.145)" fill="#a8dde2"/>
  </g>
</svg>
