<svg xmlns="http://www.w3.org/2000/svg" width="117" height="117" viewBox="0 0 117 117">
  <g id="Grupo_56975" data-name="Grupo 56975" transform="translate(-680.465 -4680.125)">
    <circle id="Elipse_4375" data-name="Elipse 4375" cx="58.5" cy="58.5" r="58.5" transform="translate(680.465 4680.125)" fill="#26aab7"/>
    <g id="Grupo_56974" data-name="Grupo 56974" transform="translate(702.939 4693.773)">
      <path id="Trazado_130401" data-name="Trazado 130401" d="M863.527,4793.519a26.442,26.442,0,0,0-23.475,13.7,1.314,1.314,0,0,0,2.3,1.272,23.78,23.78,0,1,1,36.041,29.735c-.3.249-.6.519-.9.8a16.52,16.52,0,0,0-5.111,11.853v1.95h-4.555v-7.127a1.314,1.314,0,0,0-2.628,0v7.127H860.91v-16H865.2v3.146a1.314,1.314,0,0,0,2.628,0v-4.461a1.314,1.314,0,0,0-1.314-1.313H864.5v-2.993a4.87,4.87,0,0,0,4.725-4.862v-1.812a3.863,3.863,0,0,0-2.677-3.684l-5.913-1.92a1.243,1.243,0,0,1-.86-1.185v-2.594a1.818,1.818,0,0,1,1.816-1.816h3.19a1.818,1.818,0,0,1,1.816,1.816,1.314,1.314,0,0,0,2.628,0,4.449,4.449,0,0,0-4.444-4.444H864.5v-2.888a1.314,1.314,0,1,0-2.628,0v2.888h-.281a4.449,4.449,0,0,0-4.444,4.444v2.594a3.865,3.865,0,0,0,2.677,3.684l5.913,1.92a1.242,1.242,0,0,1,.86,1.185v1.812a2.24,2.24,0,0,1-2.237,2.237h-2.347a2.24,2.24,0,0,1-2.237-2.237,1.314,1.314,0,0,0-2.628,0,4.87,4.87,0,0,0,4.725,4.862v2.993H859.6a1.314,1.314,0,0,0-1.314,1.313v17.315H853.99v-1.952a16.327,16.327,0,0,0-5.955-12.611,23.776,23.776,0,0,1-7.859-24.354,1.314,1.314,0,0,0-2.542-.668,26.406,26.406,0,0,0,8.726,27.048,13.706,13.706,0,0,1,5,10.585v10.887a21.308,21.308,0,0,0,.419,3.114,11.824,11.824,0,0,0,22.814,0,21.315,21.315,0,0,0,.419-3.113v-10.886a13.882,13.882,0,0,1,4.3-9.957c.249-.239.5-.465.756-.675a26.416,26.416,0,0,0-16.545-46.73Zm-9.537,61.973h18.4v2.389h-18.4Zm9.2,15.474a9.209,9.209,0,0,1-8.281-5.2h2.916a1.314,1.314,0,0,0,0-2.628h-3.73a9.207,9.207,0,0,1-.1-1.373v-1.259h18.4v1.259a9.24,9.24,0,0,1-.1,1.373H863.55a1.314,1.314,0,0,0,0,2.628h7.918a9.209,9.209,0,0,1-8.281,5.2Z" transform="translate(-827.163 -4783.89)" fill="#fff"/>
      <path id="Trazado_130402" data-name="Trazado 130402" d="M960.377,4753.821a1.314,1.314,0,0,0,1.314-1.314v-4.578a1.314,1.314,0,1,0-2.628,0v4.578A1.314,1.314,0,0,0,960.377,4753.821Z" transform="translate(-924.352 -4746.615)" fill="#a8dde2"/>
      <path id="Trazado_130403" data-name="Trazado 130403" d="M843.109,4801.627a1.314,1.314,0,1,0,1.858-1.859l-3.237-3.236a1.314,1.314,0,0,0-1.858,1.858Z" transform="translate(-829.32 -4785.98)" fill="#a8dde2"/>
      <path id="Trazado_130404" data-name="Trazado 130404" d="M1065.112,5019.912a1.314,1.314,0,0,0-1.858,1.859l3.237,3.237a1.314,1.314,0,0,0,1.859-1.859Z" transform="translate(-1006.851 -4963.509)" fill="#a8dde2"/>
      <path id="Trazado_130405" data-name="Trazado 130405" d="M795.849,4915.723h-4.578a1.314,1.314,0,0,0,0,2.628h4.578a1.314,1.314,0,1,0,0-2.628Z" transform="translate(-789.957 -4881.012)" fill="#a8dde2"/>
      <path id="Trazado_130406" data-name="Trazado 130406" d="M1111.759,4915.723h-4.578a1.314,1.314,0,1,0,0,2.628h4.578a1.314,1.314,0,1,0,0-2.628Z" transform="translate(-1041.022 -4881.012)" fill="#a8dde2"/>
      <path id="Trazado_130407" data-name="Trazado 130407" d="M843.109,5019.912l-3.237,3.237a1.314,1.314,0,0,0,1.858,1.859l3.237-3.237a1.314,1.314,0,0,0-1.858-1.859Z" transform="translate(-829.32 -4963.509)" fill="#a8dde2"/>
      <path id="Trazado_130408" data-name="Trazado 130408" d="M1064.183,4802.011a1.309,1.309,0,0,0,.929-.385l3.237-3.236a1.314,1.314,0,0,0-1.858-1.859l-3.237,3.237a1.314,1.314,0,0,0,.929,2.243Z" transform="translate(-1006.85 -4785.979)" fill="#a8dde2"/>
    </g>
    <rect id="Rectángulo_30786" data-name="Rectángulo 30786" width="18.396" height="2.389" transform="translate(729.766 4765.375)" fill="#a8dde2"/>
    <path id="Trazado_130409" data-name="Trazado 130409" d="M929.851,5130.346a9.21,9.21,0,0,1-8.281-5.2h2.916a1.314,1.314,0,0,0,0-2.628h-3.73a9.222,9.222,0,0,1-.1-1.374v-1.258h18.4v1.258a9.255,9.255,0,0,1-.1,1.374h-8.733a1.314,1.314,0,0,0,0,2.628h7.918a9.209,9.209,0,0,1-8.281,5.2Z" transform="translate(-190.887 -349.497)" fill="#a8dde2"/>
  </g>
</svg>
