<svg xmlns="http://www.w3.org/2000/svg" width="150.999" height="128" viewBox="0 0 150.999 128">
  <g id="Grupo_57602" data-name="Grupo 57602" transform="translate(-568 -2549.112)">
    <g id="Unión_7" data-name="Unión 7" transform="translate(11502.999 14399.524) rotate(180)" fill="none">
      <path d="M10808.572,11800.567l-24.572-14.156,24.572-14.156a64,64,0,1,1,0,28.313Z" stroke="none"/>
      <path d="M 10871 11848.412109375 C 10879.37109375 11848.412109375 10887.490234375 11846.7734375 10895.1328125 11843.541015625 C 10898.8056640625 11841.9873046875 10902.3486328125 11840.0634765625 10905.6630859375 11837.82421875 C 10908.9462890625 11835.6064453125 10912.0341796875 11833.05859375 10914.83984375 11830.2529296875 C 10917.646484375 11827.4462890625 10920.193359375 11824.3583984375 10922.412109375 11821.0751953125 C 10924.6513671875 11817.7607421875 10926.57421875 11814.2177734375 10928.1279296875 11810.5439453125 C 10931.3603515625 11802.9013671875 10932.9990234375 11794.7822265625 10932.9990234375 11786.4111328125 C 10932.9990234375 11778.041015625 10931.3603515625 11769.921875 10928.1279296875 11762.279296875 C 10926.57421875 11758.6064453125 10924.6513671875 11755.0634765625 10922.412109375 11751.7490234375 C 10920.193359375 11748.4658203125 10917.646484375 11745.3779296875 10914.83984375 11742.572265625 C 10912.0341796875 11739.765625 10908.9462890625 11737.2177734375 10905.6630859375 11735 C 10902.3486328125 11732.7607421875 10898.8056640625 11730.837890625 10895.1328125 11729.2841796875 C 10887.490234375 11726.05078125 10879.37109375 11724.412109375 10871 11724.412109375 C 10863.7763671875 11724.412109375 10856.701171875 11725.642578125 10849.970703125 11728.0693359375 C 10843.4658203125 11730.4140625 10837.4296875 11733.8193359375 10832.0302734375 11738.1884765625 C 10826.6767578125 11742.5205078125 10822.1083984375 11747.669921875 10818.4521484375 11753.4931640625 C 10814.728515625 11759.423828125 10812.0615234375 11765.884765625 10810.5234375 11772.6953125 L 10810.330078125 11773.55078125 L 10809.5703125 11773.98828125 L 10788.0068359375 11786.4111328125 L 10810.330078125 11799.271484375 L 10810.5234375 11800.126953125 C 10812.0615234375 11806.9384765625 10814.7294921875 11813.3994140625 10818.4521484375 11819.330078125 C 10822.1083984375 11825.154296875 10826.6767578125 11830.3037109375 10832.0302734375 11834.6357421875 C 10837.4296875 11839.005859375 10843.4658203125 11842.41015625 10849.970703125 11844.7548828125 C 10856.701171875 11847.181640625 10863.7763671875 11848.412109375 10871 11848.412109375 M 10871 11850.412109375 C 10840.5185546875 11850.412109375 10815.015625 11829.1025390625 10808.572265625 11800.5673828125 L 10784 11786.4111328125 L 10808.572265625 11772.2548828125 C 10815.015625 11743.72265625 10840.5185546875 11722.412109375 10871 11722.412109375 C 10906.3466796875 11722.412109375 10934.9990234375 11751.0673828125 10934.9990234375 11786.4111328125 C 10934.9990234375 11821.7578125 10906.3466796875 11850.412109375 10871 11850.412109375 Z" stroke="none" fill="#7d70b0"/>
    </g>
    <g id="_043-global" data-name="043-global" transform="translate(576.137 2548.397)">
      <path id="Trazado_129957" data-name="Trazado 129957" d="M29.174,199.161a31.656,31.656,0,0,0-7.057,18.865H25.1a31.624,31.624,0,0,1,5.786-17.182Q30,200.035,29.174,199.161Z" transform="translate(-9.861 -143.478)" fill="#d4e1f4"/>
      <path id="Trazado_129958" data-name="Trazado 129958" d="M25.1,312.412H22.117a31.656,31.656,0,0,0,7.057,18.865q.827-.875,1.71-1.683A31.624,31.624,0,0,1,25.1,312.412Z" transform="translate(-9.861 -235.628)" fill="#d4e1f4"/>
      <path id="Trazado_129959" data-name="Trazado 129959" d="M81.576,422.233a31.906,31.906,0,0,1-12.1-7.923q-.813.758-1.579,1.575a31.8,31.8,0,0,0,17.475,9.606A29.918,29.918,0,0,1,81.576,422.233Z" transform="translate(-47.116 -318.54)" fill="#d4e1f4"/>
      <path id="Trazado_129960" data-name="Trazado 129960" d="M81.364,141.98a29.943,29.943,0,0,1,4.02-3.48,31.8,31.8,0,0,0-17.477,9.607c.571.612,1.166,1.2,1.778,1.757a31.923,31.923,0,0,1,11.679-7.883Z" transform="translate(-47.12 -94.119)" fill="#d4e1f4"/>
      <path id="Trazado_129961" data-name="Trazado 129961" d="M18.306,179.98a1.113,1.113,0,0,0,.224.269c.016.014.032.026.049.039a33.978,33.978,0,0,0,24.455,11.461.974.974,0,0,0,.312.007c.233,0,.467.009.7.009s.468,0,.7-.009a.976.976,0,0,0,.312-.007,33.978,33.978,0,0,0,24.462-11.469c.012-.01.026-.017.037-.027a1.115,1.115,0,0,0,.227-.272A33.9,33.9,0,0,0,78.1,157.716a1.118,1.118,0,0,0-1.118-1.118H63.947a48.417,48.417,0,0,0-.737-7.483,1.118,1.118,0,1,0-2.2.4,46.149,46.149,0,0,1,.7,7.087H45.165v-8.241a33.414,33.414,0,0,0,12.623-2.832,1.118,1.118,0,1,0-.9-2.047,31.192,31.192,0,0,1-11.723,2.642V126.18a28.807,28.807,0,0,1,12.338,12.7,1.118,1.118,0,1,0,1.992-1.016,31.728,31.728,0,0,0-9.679-11.447,31.5,31.5,0,0,1,13.24,5.782,1.118,1.118,0,1,0,1.337-1.792,33.739,33.739,0,0,0-19.338-6.728,1.115,1.115,0,0,0-.278-.008q-.363-.008-.728-.008c-.24,0-.478,0-.717.009a1.11,1.11,0,0,0-.288.007,33.977,33.977,0,0,0-24.464,11.462c-.016.013-.033.025-.049.038a1.118,1.118,0,0,0-.224.268,33.986,33.986,0,0,0,0,44.528Zm1.007-42.247a33.984,33.984,0,0,0,6.993,5.662,45.8,45.8,0,0,0-2.156,13.2H12.256a31.656,31.656,0,0,1,7.057-18.865ZM42.929,189.25a29.617,29.617,0,0,1-13.9-16.2,31.754,31.754,0,0,1,13.9-3.733Zm2.236-19.939a31.375,31.375,0,0,1,13.909,3.707,29.624,29.624,0,0,1-13.909,16.232Zm-2.236-2.231a33.978,33.978,0,0,0-14.635,3.831,43.74,43.74,0,0,1-1.908-12.078H42.93Zm-18.779-8.247a45.8,45.8,0,0,0,2.155,13.2,33.98,33.98,0,0,0-6.993,5.662,31.656,31.656,0,0,1-7.057-18.865Zm-3.365,20.56a31.75,31.75,0,0,1,6.288-5.2A32.56,32.56,0,0,0,38.261,189a31.8,31.8,0,0,1-17.475-9.606ZM49.833,189a32.57,32.57,0,0,0,11.2-14.842,31.4,31.4,0,0,1,6.279,5.232A31.793,31.793,0,0,1,49.833,189Zm18.952-11.306A33.637,33.637,0,0,0,61.8,172a45.808,45.808,0,0,0,2.145-13.17H75.838a31.656,31.656,0,0,1-7.053,18.86Zm-7.077-18.86a43.751,43.751,0,0,1-1.9,12.042,33.593,33.593,0,0,0-14.646-3.8v-8.241ZM26.386,156.6a43.734,43.734,0,0,1,1.908-12.077,33.961,33.961,0,0,0,14.634,3.83V156.6Zm16.543-10.485a31.742,31.742,0,0,1-13.9-3.733,29.612,29.612,0,0,1,13.9-16.2Zm-4.665-19.682a32.558,32.558,0,0,0-11.189,14.812,31.752,31.752,0,0,1-6.289-5.205,31.8,31.8,0,0,1,17.478-9.607Z" transform="translate(0 -82.05)" fill="#7d6eb2"/>
      <path id="Trazado_129962" data-name="Trazado 129962" d="M347.15,227.788a1.118,1.118,0,1,0,2.1-.764,34.005,34.005,0,0,0-1.374-3.239,1.118,1.118,0,1,0-2.01.979A31.712,31.712,0,0,1,347.15,227.788Z" transform="translate(-273.198 -163.002)" fill="#0635c9"/>
      <path id="Trazado_129963" data-name="Trazado 129963" d="M258.458,74.323a4.387,4.387,0,0,0,3.114,1.293,4.489,4.489,0,0,0,.518-.03,4.428,4.428,0,0,0,2.61-1.263l.026-.025,9.58,9.58a1.118,1.118,0,0,0,1.581,0,7.718,7.718,0,0,0,0-10.9l-4.219-4.219a40.535,40.535,0,0,1,7.822-3.852l16.962-6.167a1.118,1.118,0,0,0,.408-1.841l-7.443-7.444A7.708,7.708,0,0,0,278.666,38.7l-7.441-7.442a1.118,1.118,0,0,0-1.841.409l-6.167,16.962A40.28,40.28,0,0,1,255,62.164c-.39.425-.794.847-1.2,1.256a4.419,4.419,0,0,0,0,6.242Zm15.847.233a5.483,5.483,0,0,1,.709,6.869l-8.662-8.662a40.631,40.631,0,0,1,3.424-2.736Zm8.83-35.044A5.473,5.473,0,0,1,287.8,47.84l-7.525-7.525a5.438,5.438,0,0,1,2.856-.8ZM265.317,49.4l5.568-15.312,23.151,23.153L278.724,62.8a42.988,42.988,0,0,0-11.406,6.265l-8.262-8.262A42.483,42.483,0,0,0,265.317,49.4ZM255.378,65c.431-.431.858-.877,1.27-1.325.339-.369.668-.745.992-1.124l7.929,7.93q-1.27,1.083-2.451,2.261a2.178,2.178,0,0,1-3.08,0l-4.661-4.661A2.18,2.18,0,0,1,255.378,65Z" transform="translate(-197.325 -6.594)" fill="#26aab7"/>
      <path id="Trazado_129964" data-name="Trazado 129964" d="M428.33,54.465a1.118,1.118,0,0,0,1.455-.619A8.1,8.1,0,0,0,419.25,43.312a1.118,1.118,0,1,0,.835,2.073,5.86,5.86,0,0,1,7.625,7.625A1.118,1.118,0,0,0,428.33,54.465Z" transform="translate(-332.408 -16.189)" fill="#26aab7"/>
      <path id="Trazado_129965" data-name="Trazado 129965" d="M412.314,23.681a1.118,1.118,0,0,0,.835,2.074A9.515,9.515,0,0,1,425.53,38.136a1.118,1.118,0,1,0,2.074.836,11.751,11.751,0,0,0-15.29-15.29Z" transform="translate(-326.787 0)" fill="#26aab7"/>
    </g>
  </g>
</svg>
