<svg xmlns="http://www.w3.org/2000/svg" width="595.647" height="386" viewBox="0 0 595.647 386">
  <g id="Grupo_56873" data-name="Grupo 56873" transform="translate(-474.496 -1060.671)">
    <path id="Trazado_129733" data-name="Trazado 129733" d="M864.973,1565.786a2.683,2.683,0,0,1-3.787.25l-18.411-16.127q-3.448-.029-6.947-.03c-.723,0-1.441,0-2.161,0l-17.254,15.009a2.683,2.683,0,0,1-3.522-4.049l12.526-10.9c-57.792.725-103.068,7.43-103.068,15.6,0,8.65,50.806,15.662,113.478,15.662s113.479-7.012,113.479-15.662c0-7.937-42.785-14.495-98.259-15.521L864.723,1562A2.684,2.684,0,0,1,864.973,1565.786Z" transform="translate(-100.465 -198.295)" fill="#eadeff"/>
    <path id="Trazado_129734" data-name="Trazado 129734" d="M535.415,1646.3c-15.716,0-28.456-3.334-28.456-7.448v2.979c0,4.113,12.74,7.447,28.456,7.447s28.456-3.334,28.456-7.447v-2.979C563.871,1642.963,551.131,1646.3,535.415,1646.3Z" transform="translate(-13.158 -234.359)" fill="#805b88"/>
    <path id="Trazado_129735" data-name="Trazado 129735" d="M599.179,1526.847l.62-.128-.557-.091Z" transform="translate(-50.539 -188.871)" fill="#be0932"/>
    <path id="Trazado_129736" data-name="Trazado 129736" d="M539.561,1630.021a3.807,3.807,0,0,1-3.808,3.808h-.676a3.808,3.808,0,0,1-3.808-3.808v-3.56c-13.75.525-24.31,3.623-24.31,7.367,0,4.113,12.74,7.448,28.456,7.448s28.456-3.334,28.456-7.448c0-3.744-10.56-6.842-24.31-7.367Z" transform="translate(-13.158 -229.337)" fill="#4f394f"/>
    <path id="Trazado_129737" data-name="Trazado 129737" d="M547.84,1585.035v3.56a3.807,3.807,0,0,0,3.808,3.808h.676a3.807,3.807,0,0,0,3.808-3.808v-63.2c-2.632-.337-5.435-.717-8.291-1.135Z" transform="translate(-29.729 -187.911)" fill="#805b88"/>
    <path id="Trazado_129738" data-name="Trazado 129738" d="M637.932,1413.375c13.006,7.287,17.465,20.284,18.917,29.917,3.66,2.216,6.377,3.953,7.59,4.86.222-6.572-.437-29.6-19.547-40.312a118.738,118.738,0,0,0-16.485-7.694,71.41,71.41,0,0,1-3.868,6.743A121.162,121.162,0,0,1,637.932,1413.375Z" transform="translate(-60.818 -137.602)" fill="#5e5385"/>
    <path id="Trazado_129739" data-name="Trazado 129739" d="M632.877,1417.972a121.136,121.136,0,0,0-13.393-6.486,43.857,43.857,0,0,1-7.415,8.994,31.712,31.712,0,0,1,.265,5.823q1.092.5,2.205,1.047c12.232,5.99,27.849,14.842,37.256,20.538C650.342,1438.256,645.883,1425.259,632.877,1417.972Z" transform="translate(-55.764 -142.199)" fill="#7d6eb2"/>
    <path id="Trazado_129740" data-name="Trazado 129740" d="M631.095,1367.846a54.5,54.5,0,0,0,2.808-10.989,28.233,28.233,0,0,0,4.262-3.163c-9.1-2.191-9.083-11.305-8.979-13.184-.781-2.006-3.557-1.04-3.557-1.04s1.208,1.469,1.07,6.907a12.515,12.515,0,0,0,3.055,8.662s-.152.285-.857,1.444c-1.647,1.561-3.7,3.671-5.867,5.994C625.039,1365.218,627.982,1366.764,631.095,1367.846Z" transform="translate(-60.207 -112.914)" fill="#e48d83"/>
    <path id="Trazado_129741" data-name="Trazado 129741" d="M659.055,1651.218a46.988,46.988,0,0,1-7.65.476,14.182,14.182,0,0,1-4.8-.736,22.5,22.5,0,0,1-4.4-2.593c-1.782-1.206-3.46-2.531-5.159-3.83q-.866-.662-1.723-1.335c-.466-.366-1.2-.749-1.426-1.3l.514,8.854s7.976,3.6,11.553,3.84a78.086,78.086,0,0,0,12.914-.887c.86-.274.713-2.773.713-2.773A.66.66,0,0,1,659.055,1651.218Z" transform="translate(-64.614 -235.595)" fill="#4f394f"/>
    <path id="Trazado_129742" data-name="Trazado 129742" d="M636.579,1614.636a28.473,28.473,0,0,0,1.55,5.393c-.045.036-.092.07-.137.106a3.108,3.108,0,0,1,.63.635c3.312,4.729,4.164,11.351,10.479,13.5a12.047,12.047,0,0,1,1.955-1.876,18.941,18.941,0,0,1-2.777-4.245c-1.256-2.455-2.013-4.869-3.205-7.012h0l.143-7.1A19.133,19.133,0,0,1,636.579,1614.636Z" transform="translate(-65.699 -224.304)" fill="#e48d83"/>
    <path id="Trazado_129743" data-name="Trazado 129743" d="M647.643,1638.426c-6.315-2.153-7.167-8.774-10.479-13.5a3.106,3.106,0,0,0-.63-.635c-2.916,2.421-4.44,7.045-3,10.474.231.551.96.934,1.426,1.3q.856.673,1.723,1.335c1.7,1.3,3.376,2.624,5.159,3.83a22.5,22.5,0,0,0,4.4,2.593,14.182,14.182,0,0,0,4.8.736,46.988,46.988,0,0,0,7.65-.476.66.66,0,0,0,.543-.282.806.806,0,0,0,.008-.511,7.369,7.369,0,0,0-.621-2.024c-.821-1.526-2.555-2.131-4.159-2.388a10.479,10.479,0,0,1-4.2-1.819,5.15,5.15,0,0,1-.654-.5A12.036,12.036,0,0,0,647.643,1638.426Z" transform="translate(-64.241 -228.456)" fill="#ff8b00"/>
    <path id="Trazado_129744" data-name="Trazado 129744" d="M698.6,1629.359a47.088,47.088,0,0,1-7.558,1.28,14.182,14.182,0,0,1-4.849-.225,22.523,22.523,0,0,1-4.644-2.115c-1.9-1.011-3.707-2.151-5.533-3.264q-.931-.566-1.854-1.145c-.5-.315-1.268-.62-1.555-1.143l1.445,8.751s8.312,2.739,11.894,2.6a78.2,78.2,0,0,0,12.748-2.244c.827-.364.416-2.833.416-2.833A.661.661,0,0,1,698.6,1629.359Z" transform="translate(-80.304 -227.831)" fill="#4f394f"/>
    <path id="Trazado_129745" data-name="Trazado 129745" d="M674.829,1598.6c3.792,4.353,5.338,10.849,11.845,12.323a12.021,12.021,0,0,1,1.746-2.072,18.942,18.942,0,0,1-3.209-3.929c-1.54-2.357-2.559-4.724-4.017-6.758h0l.375-9.909a.519.519,0,0,1-.04.045,8.762,8.762,0,0,1-9.8,1.415c.86,3.064,2.031,6.561,2.4,8.328l.007-.008A3.089,3.089,0,0,1,674.829,1598.6Z" transform="translate(-79.947 -213.849)" fill="#e48d83"/>
    <path id="Trazado_129746" data-name="Trazado 129746" d="M673.555,1616.574q.922.578,1.854,1.145c1.826,1.113,3.634,2.253,5.533,3.264a22.514,22.514,0,0,0,4.644,2.115,14.182,14.182,0,0,0,4.849.225,47.06,47.06,0,0,0,7.557-1.28.661.661,0,0,0,.51-.338.8.8,0,0,0-.046-.509,7.366,7.366,0,0,0-.831-1.946c-.977-1.431-2.765-1.851-4.388-1.936a10.47,10.47,0,0,1-4.369-1.365,5.142,5.142,0,0,1-.7-.433,12.021,12.021,0,0,0-1.746,2.072c-6.507-1.474-8.053-7.97-11.845-12.323a3.091,3.091,0,0,0-.693-.565l-.007.008c-2.64,2.716-3.663,7.469-1.875,10.725C672.288,1615.955,673.053,1616.259,673.555,1616.574Z" transform="translate(-79.693 -220.516)" fill="#ff8b00"/>
    <path id="Trazado_129747" data-name="Trazado 129747" d="M637.633,1484.4a.548.548,0,0,0,.04-.045c1.553-1.794,6.673-32.887,6.727-54.42a8.666,8.666,0,0,0,0-1.018v-.013h0a11.45,11.45,0,0,0-4.03-7.776,2.762,2.762,0,0,0-.7-.627c-1.214-.906-3.93-2.643-7.59-4.86-9.406-5.7-25.024-14.549-37.255-20.538q-1.112-.545-2.205-1.047a31.71,31.71,0,0,0-.265-5.823,49.02,49.02,0,0,0-6.454-17.758q-.379-.622-.771-1.235c-.187-.292-1.728-2.327-1.012-2.561,2.737-.9,3.909-4.079,3.809-6.52-.081-1.969-.626-4.311-2.171-5.671-2.254-1.984-6.012-13.141-6.012-13.141a28.337,28.337,0,0,0-1.306-5.621.859.859,0,0,0-.186-.272c-1.986-1.6-7.36-2.6-10.888-3.218h0c-.654-.115-1.238-.215-1.732-.306.1.466-.756,1.686-2.2,2.782.069.108.139.215.207.324q.5.794.983,1.6c.027.046.053.093.08.139q.441.747.861,1.5.11.2.218.4.392.716.768,1.44c.041.08.083.158.124.238q.447.871.871,1.754l.065.139q.383.8.746,1.616l.141.316q.385.872.75,1.752h0q.366.887.709,1.782c.018.047.036.094.054.141q.291.763.566,1.531c.052.145.1.291.154.436q.227.648.444,1.3c.051.154.1.307.153.462q.277.849.538,1.7c4.657,15.323,8.419,31.428,16.463,44.977-2.2,1.545-4.963,3.488-7.532,5.294-.436.306-.881.6-1.327.884l.639.432c1.019.326,2.213,1.468,3.244,4.576l2.162,5.331c.036.107.571,1.953.952,3.319,7.383,3.308,35.048,11.765,38.17,14.808l.007,0a10.474,10.474,0,0,1,5.568,8.929c.308,9.566-2.9,23.713-6.02,35.4a60.556,60.556,0,0,0,3.108,8.291,5.868,5.868,0,0,0,.535.287A8.762,8.762,0,0,0,637.633,1484.4Z" transform="translate(-36.049 -109.952)" fill="#ff8b00"/>
    <path id="Trazado_129748" data-name="Trazado 129748" d="M644.352,1500.572a10.473,10.473,0,0,0-5.568-8.929l-.007,0c-3.123-3.042-30.787-11.5-38.17-14.808.215.771.382,1.39.381,1.454l-.077,5.863a.465.465,0,0,1-.751.361,3.265,3.265,0,0,1-.829-1.023c-.058,1.368-.188,2.721-.3,3.989a.39.39,0,0,1-.323.355,55.364,55.364,0,0,1,.95,14.628,3.921,3.921,0,0,1-1.34,3.887c.191.033.382.067.573.1l.557.091c9.289,1.508,18.4,2.042,24.193,4.609-13.749,22.407-5.625,47.3-5.625,47.3a25.183,25.183,0,0,0,3.052.579,19.133,19.133,0,0,0,8.638-.591,8.737,8.737,0,0,0,3.092-1.858c-.283-.685,2.581-9.54,5.53-20.6C641.449,1524.285,644.66,1510.138,644.352,1500.572Z" transform="translate(-50.191 -168.686)" fill="#ffbd00"/>
    <path id="Trazado_129749" data-name="Trazado 129749" d="M597.643,1478.6c-.032-.1-.064-.191-.1-.285Z" transform="translate(-49.877 -169.289)" fill="#ffbd00"/>
    <path id="Trazado_129750" data-name="Trazado 129750" d="M589.972,1343.935s3.758,11.157,6.012,13.141c1.544,1.359,2.09,3.7,2.171,5.671.1,2.441-1.072,5.62-3.809,6.52-.715.234.825,2.269,1.012,2.561q.392.614.771,1.235a49.02,49.02,0,0,1,6.454,17.758,43.857,43.857,0,0,0,7.415-8.994,71.428,71.428,0,0,0,3.868-6.744,70.038,70.038,0,0,0,3.3-7.611c-3.113-1.082-6.055-2.628-8.065-5.368-1.821,1.95-3.726,4.05-5.549,6.1h0v0c-.26-10.784-7.535-27.13-14.887-29.89A28.344,28.344,0,0,1,589.972,1343.935Z" transform="translate(-46.278 -112.539)" fill="#ffbd00"/>
    <path id="Trazado_129751" data-name="Trazado 129751" d="M538.15,1386.343l17.79,14.205,2.938,1.986a80.191,80.191,0,0,1-4.288-13.056q-.4-1.666-.78-3.324-.1-.449-.208-.9-.317-1.37-.627-2.735l-.121-.529q-.866-3.81-1.714-7.575-.21-.928-.421-1.852t-.426-1.861q-.257-1.12-.518-2.237-.15-.646-.3-1.289-.233-.989-.469-1.974c-.1-.4-.19-.8-.287-1.192q-.349-1.436-.707-2.866c-.092-.366-.186-.731-.279-1.1q-.259-1.016-.524-2.028-.156-.6-.314-1.191-.341-1.277-.694-2.549c-.09-.327-.183-.653-.275-.979q-.342-1.209-.7-2.414c-.11-.373-.222-.746-.335-1.12-.263-.875-.53-1.75-.807-2.621-.051-.162-.1-.324-.155-.485q-.438-1.367-.9-2.726c-.07-.206-.138-.412-.209-.618q-.492-1.433-1.013-2.859l-.233-.634c-.293-.791-.6-1.579-.9-2.367-2.075-.137-4.321-1.142-6.472-3.691-.777.022-1.612.06-2.481.136h0c-2.759-.178-6.8.077-9.406,1.67l0,.012a8.366,8.366,0,0,1,1.869-.632C530.765,1334.512,538.147,1354.23,538.15,1386.343Z" transform="translate(-19.38 -110.696)" fill="#ff8b00"/>
    <path id="Trazado_129752" data-name="Trazado 129752" d="M559.871,1357.746c.083.273.163.547.245.819q.169.56.335,1.12.356,1.2.7,2.414c.092.326.185.652.275.979q.353,1.272.694,2.549.159.6.314,1.191.266,1.013.524,2.028c.093.366.187.73.279,1.1q.359,1.43.707,2.866c.1.4.191.8.287,1.192q.236.986.469,1.974.153.644.3,1.289.26,1.117.518,2.237.214.929.426,1.861t.421,1.852q.854,3.765,1.714,7.575l.121.529q.31,1.365.627,2.735l.208.9q.385,1.658.78,3.323a80.186,80.186,0,0,0,4.288,13.056l3.921,2.65c.446-.288.891-.578,1.327-.884,2.569-1.807,5.332-3.749,7.532-5.294-8.045-13.548-11.806-29.654-16.463-44.977q-.259-.855-.538-1.7c-.05-.155-.1-.308-.153-.462q-.217-.65-.444-1.3-.077-.218-.154-.436-.276-.768-.565-1.531c-.018-.047-.035-.094-.054-.141q-.343-.9-.709-1.782h0A27.309,27.309,0,0,1,559.871,1357.746Z" transform="translate(-34.606 -119.495)" fill="#fff"/>
    <path id="Trazado_129753" data-name="Trazado 129753" d="M548.049,1328.854h.007q.461,1.181.9,2.367l.233.634q.52,1.426,1.013,2.859c.071.206.139.411.209.618q.46,1.36.9,2.727c.052.161.1.323.155.485q.285.9.562,1.8a27.309,27.309,0,0,0,7.932-2.272h0c-.242-.588-.494-1.172-.75-1.752l-.141-.316q-.364-.812-.746-1.616l-.065-.139q-.424-.884-.871-1.754c-.041-.08-.083-.158-.124-.238q-.375-.724-.768-1.44-.108-.2-.218-.4-.422-.757-.861-1.5c-.027-.046-.053-.093-.08-.139q-.48-.807-.983-1.6c-.068-.108-.138-.216-.207-.323,1.446-1.1,2.3-2.316,2.2-2.782a.348.348,0,0,0-.011-.059c-1.556-1.658-2.184-4.815-2.433-6.85a32.667,32.667,0,0,1-4.69-.832,10.91,10.91,0,0,1-6.238-3.789,2.781,2.781,0,0,1-2.458.425c.2,3.238.535,7.638,1.066,12.2h0C543.728,1327.712,545.975,1328.717,548.049,1328.854Z" transform="translate(-26.759 -102.093)" fill="#c76b5d"/>
    <path id="Trazado_129754" data-name="Trazado 129754" d="M536.791,1279.061l-.02.023c.557.435,4.28,3.851,2.9,16.192l-.719-2.075s-6.643-4.8-7.737-1.824c-.985,2.678,4.018,7.564,8.048,6.886-.038.237-.072.467-.114.71a10.91,10.91,0,0,0,6.238,3.789,32.667,32.667,0,0,0,4.69.832,23.875,23.875,0,0,0,9.127-1.46,85.749,85.749,0,0,0-1.389-14.425,3.839,3.839,0,0,1-.4-.073.716.716,0,1,1-1.331.158c-.236.068-.4.128-.4.128.183-.241.734-1.258,1.339-1.2a3.917,3.917,0,0,1,.633.147q-.167-.808-.357-1.6a.424.424,0,0,1-.288-.018,3.2,3.2,0,0,0-1.8.026c-.528.088-.753-.719-.223-.808a4.838,4.838,0,0,1,2.105-.062q-.331-1.294-.728-2.53C549.442,1283.149,537.871,1279.418,536.791,1279.061Zm13.115,10.533a.716.716,0,0,1-1.369-.422,4.457,4.457,0,0,1-3.444.42c1.484-.1,2.8-1.128,3.62-1.442s2.03.386,2.389.53c0,0-.714.046-1.407.161A.717.717,0,0,1,549.906,1289.594Zm-5.334-.727c.424-2.092,2.868-2.9,4.735-3.318.526-.117.749.69.223.807-1.527.34-3.8,1.008-4.151,2.733C545.272,1289.619,544.465,1289.394,544.572,1288.868Zm-11.157,4.183c-.532.083-.759-.73-.224-.814a4.966,4.966,0,0,1,4.685,1.744c.341.417-.253,1.017-.6.6A4.122,4.122,0,0,0,533.415,1293.051Zm23.766,5c-.2.536-1.432,1.2-3.032,1.233a7.1,7.1,0,0,1-3.344-1.089,20.518,20.518,0,0,0,2.078-.968c.794-.455,1.827-1.673,2.724-1.208.64-.615,1.335.177,1.335.177a.419.419,0,0,1,.035.04.693.693,0,0,1-.235,1.038l.027,0S557.377,1297.516,557.181,1298.052Zm-3.915-12.38a15.682,15.682,0,0,0,3.651,6.088,3.661,3.661,0,0,1,.742.954.923.923,0,0,1,.058.718,1.019,1.019,0,0,1-.584.526c-.641.266-2.012.82-2.574.153a1.734,1.734,0,0,1-.291-.633c-.693-2.288-1.357-4.584-2.032-6.876a2.419,2.419,0,0,1-.076-.425c-.037-.4.222-1.52.855-.945A1.091,1.091,0,0,1,553.266,1285.671Z" transform="translate(-22.941 -88.522)" fill="#e48d83"/>
    <path id="Trazado_129755" data-name="Trazado 129755" d="M566.517,1290.271a2.419,2.419,0,0,0,.076.425c.675,2.292,1.339,4.589,2.032,6.876a1.734,1.734,0,0,0,.291.633c.562.667,1.934.113,2.574-.154a1.018,1.018,0,0,0,.585-.526.923.923,0,0,0-.058-.718,3.66,3.66,0,0,0-.742-.954,15.682,15.682,0,0,1-3.651-6.088,1.091,1.091,0,0,0-.252-.441C566.738,1288.751,566.48,1289.867,566.517,1290.271Z" transform="translate(-37.298 -92.617)" fill="#c76b5d"/>
    <path id="Trazado_129756" data-name="Trazado 129756" d="M554.561,1293.506c.35-1.724,2.624-2.393,4.151-2.733.526-.117.3-.925-.223-.808-1.867.416-4.311,1.226-4.735,3.318C553.646,1293.809,554.454,1294.034,554.561,1293.506Z" transform="translate(-32.122 -92.937)" fill="#4f3b51"/>
    <path id="Trazado_129757" data-name="Trazado 129757" d="M571.059,1288.041c-.531.088-.305.9.223.808a3.2,3.2,0,0,1,1.8-.026.424.424,0,0,0,.288.018c.337-.09.525-.571.134-.741a2.585,2.585,0,0,0-.344-.12A4.838,4.838,0,0,0,571.059,1288.041Z" transform="translate(-39.018 -92.098)" fill="#4f3b51"/>
    <path id="Trazado_129758" data-name="Trazado 129758" d="M570.206,1308.67l-.027,0a.693.693,0,0,0,.235-1.038.425.425,0,0,0-.035-.04s-.7-.793-1.335-.177c-.9-.464-1.929.753-2.724,1.208a20.484,20.484,0,0,1-2.078.968,7.1,7.1,0,0,0,3.344,1.089c1.6-.037,2.836-.7,3.031-1.233S570.206,1308.67,570.206,1308.67Z" transform="translate(-36.378 -99.922)" fill="#ff6700"/>
    <path id="Trazado_129759" data-name="Trazado 129759" d="M558.256,1294.291c-.82.314-2.136,1.343-3.62,1.442a4.457,4.457,0,0,0,3.444-.42.716.716,0,1,0,1.158-.331c.693-.115,1.407-.161,1.407-.161C560.285,1294.677,559.075,1293.977,558.256,1294.291Z" transform="translate(-32.484 -94.663)" fill="#4f394f"/>
    <path id="Trazado_129760" data-name="Trazado 129760" d="M572.444,1293.14s.168-.06.4-.128a.715.715,0,1,0,1.331-.158,3.837,3.837,0,0,0,.4.073,1.969,1.969,0,0,0,1.885-.676,3.429,3.429,0,0,1-2.05-.164,3.9,3.9,0,0,0-.633-.147C573.178,1291.882,572.627,1292.9,572.444,1293.14Z" transform="translate(-39.702 -93.742)" fill="#4f394f"/>
    <path id="Trazado_129761" data-name="Trazado 129761" d="M583.779,1528.71c-1.009-.1-2.973-.3-5.58-.586A34.868,34.868,0,0,0,583.779,1528.71Z" transform="translate(-42.035 -189.477)" fill="#be0932"/>
    <path id="Trazado_129762" data-name="Trazado 129762" d="M555.17,1460.982a55.363,55.363,0,0,0-.95-14.628.389.389,0,0,1-.364-.092.449.449,0,0,1-.147-.076,3.425,3.425,0,0,1-1.051-1.517c0,.24-.007.479,0,.72a.377.377,0,0,1-.563.328.443.443,0,0,1-.341-.094,4.606,4.606,0,0,1-1.475-2.128s-.431-4.723-1.514-6.074a42.062,42.062,0,0,1-3-5.36,7.8,7.8,0,0,1-.928-5.452,82.3,82.3,0,0,1-9.677-2.105c-8.51-2.43-19.443-8.808-22.5-16.812h-.005s-6.776-17.434-9.016-32.925c-2.039-.669-4.9-.185-8.853,2.98-10.92,8.737-4.161,33.915-4.161,33.915l.491-.007-.008.026c2.779.147,17.507,1.444,37.658,12.735,21.759,12.192,19.6,40.365,19.45,42.021,2.872-.068,4.594-.728,5.614-1.569A3.921,3.921,0,0,0,555.17,1460.982Z" transform="translate(-5.7 -127.21)" fill="#5e5385"/>
    <path id="Trazado_129763" data-name="Trazado 129763" d="M523.066,1415.645c-20.151-11.291-34.879-12.587-37.658-12.735l.008-.026-.491.007s-6.759-25.178,4.161-33.915c3.956-3.165,6.814-3.649,8.853-2.98a50.35,50.35,0,0,1-.454-13.131c-23.946,6.467-22.985,27.872-22.985,35.689,0,8.629,4.462,55.064,12.907,58.518,3.758,3.132,17.757,5.821,30.7,7.716,2.856.418,5.659.8,8.291,1.135,3.711.476,7.076.866,9.762,1.163,2.607.288,4.571.487,5.58.586l.765.074s0-.028.007-.078C542.664,1456.01,544.825,1427.837,523.066,1415.645Z" transform="translate(0 -118.438)" fill="#7d6eb2"/>
    <path id="Trazado_129764" data-name="Trazado 129764" d="M513.438,1359.059c2.24,15.49,9.016,32.925,9.016,32.925h.005c3.055,8,13.989,14.382,22.5,16.812.143-.387.288-.766.425-1.136,1.021-2.844,3.5-6.1,6.676-6.307l-17.79-14.205c0-32.112-7.385-51.831-13.973-51.388a8.371,8.371,0,0,0-1.869.632c-3.225,1.528-4.861,5.012-5.442,9.537A50.348,50.348,0,0,0,513.438,1359.059Z" transform="translate(-15.498 -111.501)" fill="#ffbd00"/>
    <path id="Trazado_129765" data-name="Trazado 129765" d="M595.23,1479.888a14.749,14.749,0,0,0-1.181-4.617c-.2-.456-.863-.062-.668.391,1.495,3.465.917,6.853.975,10.489a.353.353,0,0,0,.211.328.377.377,0,0,0,.563-.328c0-.241,0-.48,0-.72A49.373,49.373,0,0,0,595.23,1479.888Z" transform="translate(-48.174 -167.972)" fill="#f0a694"/>
    <path id="Trazado_129766" data-name="Trazado 129766" d="M597.476,1474.99c-.228-.443-.9-.052-.668.391,1.685,3.278,1.125,7.705.82,11.268a.323.323,0,0,0,.087.264.417.417,0,0,0,.687-.264c.108-1.268.238-2.62.3-3.988A15.38,15.38,0,0,0,597.476,1474.99Z" transform="translate(-49.559 -167.861)" fill="#f0a694"/>
    <path id="Trazado_129767" data-name="Trazado 129767" d="M576.963,1448.054l-2.938-1.986c-3.171.207-5.655,3.463-6.676,6.307-.137.369-.282.749-.425,1.136a82.3,82.3,0,0,0,9.677,2.105,7.8,7.8,0,0,0,.928,5.452,42.068,42.068,0,0,0,3,5.36c1.083,1.351,1.514,6.074,1.514,6.074a4.606,4.606,0,0,0,1.475,2.128.444.444,0,0,0,.341.094.353.353,0,0,1-.211-.328c-.058-3.636.52-7.024-.975-10.489-.2-.453.472-.846.668-.391a14.748,14.748,0,0,1,1.181,4.617,49.344,49.344,0,0,1-.1,5.543,3.425,3.425,0,0,0,1.051,1.517.449.449,0,0,0,.147.076.322.322,0,0,1-.087-.264c.3-3.563.865-7.99-.82-11.268-.228-.442.44-.834.668-.391a15.38,15.38,0,0,1,1.223,7.67,3.266,3.266,0,0,0,.829,1.023.465.465,0,0,0,.751-.361l.077-5.863c0-.064-.166-.683-.381-1.454-.381-1.366-.916-3.212-.952-3.319l-2.162-5.331c-1.031-3.108-2.225-4.25-3.244-4.576l-.639-.432Zm8.171,17.192c.033.093.065.188.1.285Z" transform="translate(-37.465 -156.216)" fill="#c76b5d"/>
    <path id="Trazado_129768" data-name="Trazado 129768" d="M642.347,1352.556a15.959,15.959,0,0,0,1.607.308c11.9,1.607,12.228-13.835,12.228-13.835-.97-2.4-9.505-2.688-12.474-2.581-9.719.353-10.314,2.581-10.314,2.581s-.013.125-.025.343C633.264,1341.251,633.247,1350.365,642.347,1352.556Zm2.5-14.947c5.785,0,10.475.964,10.475,2.153s-4.69,2.152-10.475,2.152-10.475-.963-10.475-2.152S639.064,1337.609,644.85,1337.609Z" transform="translate(-64.389 -111.775)" fill="#fff"/>
    <ellipse id="Elipse_4340" data-name="Elipse 4340" cx="10.475" cy="2.153" rx="10.475" ry="2.153" transform="translate(569.986 1225.834)" fill="#c76b5d"/>
    <path id="Trazado_129769" data-name="Trazado 129769" d="M531.258,1287.371c.042-.243.076-.473.114-.71-4.029.678-9.033-4.207-8.047-6.886,1.094-2.974,7.737,1.824,7.737,1.824l.719,2.075c1.377-12.341-2.347-15.757-2.9-16.192l.02-.022c1.08.357,12.651,4.088,19.568,2.812.356-.065.7-.14,1.034-.234.753-8.072-7.188-15.663-18.274-12.641a10.047,10.047,0,1,0-12.1,12.808c-2.2,8.707,5.121,16.627,9.673,17.591A2.782,2.782,0,0,0,531.258,1287.371Z" transform="translate(-15.046 -76.922)" fill="#4f394f"/>
    <path id="Trazado_129770" data-name="Trazado 129770" d="M538.5,1303.514c.344.421.938-.179.6-.6a4.966,4.966,0,0,0-4.685-1.744c-.535.084-.307.9.224.814A4.121,4.121,0,0,1,538.5,1303.514Z" transform="translate(-24.163 -97.458)" fill="#ffb9a8"/>
    <path id="Trazado_129771" data-name="Trazado 129771" d="M897.075,1465.193a8.313,8.313,0,0,0,.055.892l-10.626,9.243-12.526,10.9a2.683,2.683,0,1,0,3.522,4.049l17.254-15.009,4.555-3.962,4.553,3.988,18.411,16.126a2.683,2.683,0,1,0,3.536-4.036L912.134,1475.4l-10.493-9.191a8.376,8.376,0,0,0,.072-1.165l-.931-99.226-4.494-.026Z" transform="translate(-161.552 -123.678)" fill="#805b88"/>
    <path id="Trazado_129772" data-name="Trazado 129772" d="M914,1064.827c-.022-2.308-.963-4.156-2.117-4.156-1.182,0-2.135,1.937-2.117,4.3l.262,33.08,4.284.049Z" transform="translate(-176.432)" fill="#805b88"/>
    <path id="Trazado_129773" data-name="Trazado 129773" d="M943.327,1260.5l-206.168-1.145V1127.511l208.342,2.3-1.3,78.35c1.321.3,2.736.62,4.267.976l1,.237L950.833,1124l-108.972-1.251-4.284-.049-106.553-1.223v144.664l107.693.622,4.494.026,105.328.608.7-43.518q-2.662-.874-5.268-1.912Z" transform="translate(-103.981 -24.647)" fill="#4f394f"/>
    <path id="Trazado_129774" data-name="Trazado 129774" d="M741.339,1131.624v131.841l206.168,1.145.641-38.529c-2.261-.9-4.494-1.865-6.693-2.891a183.551,183.551,0,0,1-21.329-11.154c-1.467,2.121-4.4,3.871-10.248,2.634l-5.476-.651c-.494-.058-2.573-.485-2.841-.919-.949-1.536,3.836-.874,6.657-.367-.068-.14-.128-.283-.182-.427l-8.571-1.575a1.1,1.1,0,0,1-.871-.8c-.5-2.05,6.249-.879,9.074-.3.011-.2.027-.393.051-.588l-9.252-1.547a.942.942,0,0,1-.778-.753c-.429-2.493,10.69-.343,10.69-.343h0c.08-.221.163-.434.247-.635l-8.656-1.285a1.5,1.5,0,0,1-1.117-.777c-1.322-2.548,11.255-.065,11.255-.065h0c.974-.042,3.474-.127,5.424,0-1.048-1.912-2.3-4.844-.793-5.881.419,1.1,2.55,3.55,4.5,5.383a7.14,7.14,0,0,1,1.775,3.335l6.513,1.453c6.638,1.483,11.181,2.179,20.852,4.347l1.3-78.35Zm72.367,104.726H791.739v-11.212h22.733Zm5.021-24.281-11.841-.294-.918,4.5h1.726l-2.812,4.587-3.157-4.735h1.448a39.637,39.637,0,0,0,0-4.44l-.068-3.161h15.622Zm38.968,35.494H835.728V1236.35h22.733Zm-12.8-24.913h3.731a39.783,39.783,0,0,0,0,4.44h1.449l-3.157,4.735-2.812-4.588h1.727Zm25.628-6.042h-49.45V1205.4h51.175Zm-26.057-24.86H848.2a39.622,39.622,0,0,0,0,4.44h1.448l-3.157,4.736-2.812-4.588h1.726Zm26.057-4.473h-49.45v-11.212h51.175Zm19.3,28.849h1.448l-3.157,4.735-2.812-4.587h1.726l-.918-4.5-11.842.294v-3.546H889.9l-.068,3.161A39.622,39.622,0,0,0,889.828,1216.124Zm9.83,7.959-.767,11.212H876.925v-11.212Zm6.4-54.062H790.061l-7.076-20.622H910.346Z" transform="translate(-108.162 -28.76)" fill="#fff"/>
    <path id="Trazado_129775" data-name="Trazado 129775" d="M866.51,1173.6a6.669,6.669,0,0,0-2.029-.4l-.15,3.976a6.688,6.688,0,0,0,2.089-.464q1.333-.547,1.333-1.572A1.656,1.656,0,0,0,866.51,1173.6Z" transform="translate(-158.015 -45.614)" fill="#26aab7"/>
    <path id="Trazado_129776" data-name="Trazado 129776" d="M963.427,1174.383q0-1.43-2.725-1.43-.293,0-.577.019t-.569.056l.187,3.077Q963.427,1175.836,963.427,1174.383Z" transform="translate(-196.614 -45.512)" fill="#26aab7"/>
    <path id="Trazado_129777" data-name="Trazado 129777" d="M852.911,1178.728l1.819-.352-1.318-3.736Z" transform="translate(-153.386 -46.196)" fill="#26aab7"/>
    <path id="Trazado_129778" data-name="Trazado 129778" d="M984.371,1174.64l-.5,4.088,1.82-.352Z" transform="translate(-206.469 -46.196)" fill="#26aab7"/>
    <path id="Trazado_129779" data-name="Trazado 129779" d="M811.372,1161.514l7.076,20.622H934.441l4.293-20.622Zm19.408,15.255-.456-8.393-1.446,8.011-1.34-.023-.891-7.09-1.026,7.1-2.134-.314,1.355-10,2.3.285,1.176,6.836,1.176-6.746,3.167.24.389,10.2Zm18.112.517q-3.085-.172-4.013-1.168a4.994,4.994,0,0,1-.891-1.864c-.28.07-.582.13-.906.18l-.1,2.441-1.954-.037.019-.421-2,.263-.689-2.006-2.479.524-.2,1.745-2.238-.083,1.827-10.13,2.021-.075,3.787,9.252.429-9.283a16.732,16.732,0,0,1,4.462.809q2.92,1.033,2.92,3.054,0,1.947-2.86,3.1a2.5,2.5,0,0,0,.906,1.572,3.1,3.1,0,0,0,1.678.36c.09,0,.183,0,.281-.011s.2-.016.3-.027Zm6.611-.808-3.811-3.764.359,4.16-1.752.194-.958-10.063,1.789-.3.4,4.228,2.658-4.579,2.1.217-3.017,5.118,4.088,3.434Zm2.306.591-.793-10.048,6.544-.756.165,2.126-4.47.524.233,2.141,2.807-.3.157,1.834-3.324.322.165,2.006,4.807-.561.127,1.977Zm13.762-8.056-2.755-.135-.412,8-2.059-.016.464-8.1-2.508-.255.038-2.006,7.352.509Zm2.479,7.9-2.014-.218.45-10.093,2.081.187Zm47.342-10.108,2.748,6.708-.554-6.911,2.276.015.8,9.966-2.306.217-3.137-7.323.359,7.465-2.119-.03-.5-10.041Zm-27.92,4.821,4.656-.3-.246-4.5c.225-.02.45-.034.678-.041s.46-.011.7-.011a13.646,13.646,0,0,1,3.8.457,3.473,3.473,0,0,1,2.325,1.594l-.206-2.118,1.879-.112.7,8.176,3.744-.457.08,1.028,1.552-8.605,2.021-.075,3.984,9.733-2.224.292-.689-2.006-2.479.524-.2,1.745-2.239-.083.11-.608-5.253.624-.648-6.667a3.674,3.674,0,0,1-2.041,2.092,14.38,14.38,0,0,1-3.294,1.212l.232,3.362-1.984-.037-.2-3.722v.053l-4.755.232Zm-6.724-4.245a17.683,17.683,0,0,1,5.294-.7l-.269,2.366a13.375,13.375,0,0,0-2.7-.27q-3.744,0-3.744,2.171,0,1.252,1.708,2.247a11.035,11.035,0,0,0,2.725,1.1l.18-1.482-1.356-.24.008-1.625,3.3.464-.6,5.466a19.7,19.7,0,0,1-2.561-.839,17.5,17.5,0,0,1-2.314-1.145q-3.13-1.827-3.13-3.968Q883.3,1168.451,886.748,1167.38Zm-9.149-.576,2.748,6.708-.554-6.911,2.276.015.8,9.966-2.306.217-3.137-7.323.359,7.465-2.119-.03-.5-10.041Z" transform="translate(-136.549 -40.876)" fill="#26aab7"/>
    <path id="Trazado_129780" data-name="Trazado 129780" d="M837.751,1169.538l-1.176,6.746-1.176-6.836-2.3-.285-1.355,10,2.134.314,1.026-7.1.891,7.09,1.34.022,1.445-8.011.457,8.393,2.269.1-.389-10.2Z" transform="translate(-144.807 -43.976)" fill="#fff"/>
    <path id="Trazado_129781" data-name="Trazado 129781" d="M863.636,1179a3.1,3.1,0,0,1-1.678-.36,2.5,2.5,0,0,1-.906-1.572q2.86-1.153,2.86-3.1,0-2.021-2.92-3.054a16.732,16.732,0,0,0-4.462-.809l-.429,9.283-3.787-9.252-2.021.075-1.827,10.13,2.238.083.2-1.745,2.479-.524.689,2.006,2-.263-.019.42,1.954.037.1-2.441c.325-.05.626-.11.906-.18a4.993,4.993,0,0,0,.891,1.864q.929,1,4.013,1.168l.285-1.8c-.1.011-.2.019-.3.027S863.726,1179,863.636,1179Zm-12.527-2.112.5-4.088,1.318,3.736Zm8.88-1.43a6.692,6.692,0,0,1-2.089.465l.15-3.976a6.665,6.665,0,0,1,2.029.4,1.655,1.655,0,0,1,1.243,1.542Q861.322,1174.914,859.99,1175.461Z" transform="translate(-151.585 -44.359)" fill="#fff"/>
    <path id="Trazado_129782" data-name="Trazado 129782" d="M882.163,1169.871l-2.1-.217-2.658,4.579-.4-4.227-1.789.3.958,10.063,1.752-.194-.36-4.16,3.811,3.764,1.849-1.354-4.088-3.434Z" transform="translate(-162.43 -44.175)" fill="#fff"/>
    <path id="Trazado_129783" data-name="Trazado 129783" d="M890.4,1178.158l-.165-2.007,3.324-.322-.157-1.834-2.807.3-.232-2.141,4.47-.524-.165-2.126-6.544.756.794,10.048,6.417-.734-.127-1.976Z" transform="translate(-167.661 -44.114)" fill="#fff"/>
    <path id="Trazado_129784" data-name="Trazado 129784" d="M900.416,1169.894l-.038,2.006,2.508.255-.464,8.1,2.059.015.412-8,2.755.135.12-2.006Z" transform="translate(-172.627 -44.272)" fill="#fff"/>
    <path id="Trazado_129785" data-name="Trazado 129785" d="M913.385,1180.163l2.014.217.517-10.123-2.081-.187Z" transform="translate(-177.899 -44.344)" fill="#fff"/>
    <path id="Trazado_129786" data-name="Trazado 129786" d="M921.269,1180.41l-.359-7.465,3.137,7.323,2.306-.217-.8-9.966-2.276-.015.554,6.911-2.748-6.709-2.433.067.5,10.04Z" transform="translate(-180.032 -44.344)" fill="#fff"/>
    <path id="Trazado_129787" data-name="Trazado 129787" d="M935.452,1178.41a17.517,17.517,0,0,0,2.314,1.145,19.7,19.7,0,0,0,2.561.839l.6-5.466-3.3-.464-.008,1.625,1.356.24-.18,1.482a11.031,11.031,0,0,1-2.725-1.1q-1.708-1-1.708-2.247,0-2.171,3.744-2.171a13.384,13.384,0,0,1,2.7.27l.269-2.366a17.683,17.683,0,0,0-5.294.7q-3.452,1.071-3.451,3.542Q932.322,1176.582,935.452,1178.41Z" transform="translate(-185.575 -44.395)" fill="#fff"/>
    <path id="Trazado_129788" data-name="Trazado 129788" d="M954.187,1176.573l.2,3.722,1.984.037-.233-3.362a14.383,14.383,0,0,0,3.294-1.213,3.674,3.674,0,0,0,2.041-2.092l.648,6.667,5.253-.624-.11.608,2.239.083.2-1.745,2.479-.524.689,2.006,2.224-.292-3.984-9.734-2.021.075-1.552,8.605-.08-1.028-3.744.457-.7-8.176-1.879.112.206,2.118a3.472,3.472,0,0,0-2.325-1.594,13.647,13.647,0,0,0-3.8-.457c-.239,0-.473,0-.7.011s-.453.021-.678.041l.246,4.5-4.656.3v1.775l4.755-.232Zm16.226-3.8,1.318,3.736-1.82.352Zm-14.391-.984q.285-.019.577-.019,2.724,0,2.725,1.43,0,1.452-3.684,1.722l-.187-3.077Q955.737,1171.812,956.022,1171.793Z" transform="translate(-192.51 -44.334)" fill="#fff"/>
    <path id="Trazado_129789" data-name="Trazado 129789" d="M994.913,1180.41l-.359-7.465,3.137,7.323,2.306-.217-.8-9.966-2.276-.015.554,6.911-2.748-6.709-2.433.067.5,10.04Z" transform="translate(-209.883 -44.344)" fill="#fff"/>
    <path id="Trazado_129790" data-name="Trazado 129790" d="M916.253,1241.9l3.157-4.736h-1.448a39.622,39.622,0,0,1,0-4.44H914.23l.937,4.588h-1.726Z" transform="translate(-177.921 -69.742)" fill="#805b88"/>
    <path id="Trazado_129791" data-name="Trazado 129791" d="M916.974,1293.87l3.157-4.735h-1.449a39.785,39.785,0,0,1,0-4.44h-3.731l.937,4.587h-1.727Z" transform="translate(-178.214 -90.806)" fill="#805b88"/>
    <path id="Trazado_129792" data-name="Trazado 129792" d="M875.431,1206.353v11.212h49.45l1.725-11.212Z" transform="translate(-162.515 -59.051)" fill="#26aab7"/>
    <path id="Trazado_129793" data-name="Trazado 129793" d="M875.431,1255.68v11.212h49.45l1.725-11.212Z" transform="translate(-162.515 -79.045)" fill="#26aab7"/>
    <path id="Trazado_129794" data-name="Trazado 129794" d="M826.093,1300.092H848.06l.766-11.212H826.093Z" transform="translate(-142.516 -92.502)" fill="#26aab7"/>
    <path id="Trazado_129795" data-name="Trazado 129795" d="M900.067,1307.735v11.212h21.967l.766-11.212Z" transform="translate(-172.5 -100.145)" fill="#26aab7"/>
    <path id="Trazado_129796" data-name="Trazado 129796" d="M969.345,1298.318h21.966l.767-11.212H969.345Z" transform="translate(-200.581 -91.783)" fill="#26aab7"/>
    <path id="Trazado_129797" data-name="Trazado 129797" d="M980.508,1260.94H964.886v3.546l11.842-.294.918,4.5h-1.726l2.812,4.587,3.157-4.735H980.44a39.622,39.622,0,0,1,0-4.44Z" transform="translate(-198.774 -81.177)" fill="#805b88"/>
    <path id="Trazado_129798" data-name="Trazado 129798" d="M844.334,1264.1a39.637,39.637,0,0,1,0,4.44h-1.448l3.157,4.735,2.812-4.587h-1.726l.918-4.5,11.841.294v-3.546H844.266Z" transform="translate(-149.323 -81.177)" fill="#805b88"/>
    <path id="Trazado_129799" data-name="Trazado 129799" d="M1238.913,1245.357c.088.018.172.041.258.061-.137-.046-.274-.092-.419-.138l.16.078Z" transform="translate(-309.783 -74.829)" fill="#fff"/>
    <path id="Trazado_129800" data-name="Trazado 129800" d="M1142.585,1249.287l.928-2.552c-3.606,1.588-6.991,4.09-10.345,5.805-3.325,1.7-14.451,7.9-19.556,10.631,4.217,1.187,8.1,2.432,9.261,3.268,1.781,1.28,3.087,3.719,2.392,5.968-.69,2.231-3.275,3.936-5.389,4.613-4.107,1.316-8.653.364-12.809-.766h0c2.643,4.02,13.291,3.614,16.659,2.151a174.919,174.919,0,0,1,16.917-6l-.41-3.9A43.075,43.075,0,0,1,1142.585,1249.287Z" transform="translate(-256.405 -75.419)" fill="#604561"/>
    <path id="Trazado_129801" data-name="Trazado 129801" d="M1212.205,1215.487a16.39,16.39,0,0,1-1.8,3.742c.051.175.1.354.152.535a1.2,1.2,0,0,0,.726.041c2.847-.568,4.536-4.826,5.434-8.155C1215.519,1213.49,1213.762,1215.175,1212.205,1215.487Z" transform="translate(-298.294 -61.198)" fill="#4f394f"/>
    <path id="Trazado_129802" data-name="Trazado 129802" d="M1198.775,1234.7c.295.593.552,1.1.692,1.365a.438.438,0,0,1,.008.4l-.034.071c.743.057,1.7.18,2.581.306l-.006-.01a.46.46,0,0,1,.1-.573l5.121-4.417c-.093-.8-.237-1.647-.412-2.512-.3-1.486-.689-3.016-1.077-4.4-.051-.181-.1-.36-.152-.535a14.547,14.547,0,0,1-7,5.579c-.013.217-.026.452-.035.7A19,19,0,0,0,1198.775,1234.7Z" transform="translate(-293.483 -66.364)" fill="#c76b5d"/>
    <path id="Trazado_129803" data-name="Trazado 129803" d="M1196.859,1211.583a16.387,16.387,0,0,0,1.8-3.742c1.557-.312,3.314-2,4.515-3.837,1.054-1.616,1.674-3.345,1.355-4.362a1.163,1.163,0,0,0-.734-.786,4.219,4.219,0,0,0-3.918.992h0c-.006,0-7.661-1.325-8.426-7.062-4.7,1.928-10.531,1.722-14.367,1.264-.037.305-.071.615-.1.936,0,0,.061,1.659.357,4.192a.394.394,0,0,1,.077-.027,8.02,8.02,0,0,1,3.969.471c.5.191.28,1-.221.8a7.524,7.524,0,0,0-3.727-.443c.593,4.63,1.931,11.595,4.9,17.009a2.782,2.782,0,0,0,2.867,1.415,21.6,21.6,0,0,0,4.646-1.245A14.548,14.548,0,0,0,1196.859,1211.583Zm-16.056-7.877a.727.727,0,1,1,.1-1.022A.726.726,0,0,1,1180.8,1203.706Zm19.268-2.167a4.027,4.027,0,0,1,2.74-1.436c.533.036.535.87,0,.833-.84-.057-1.779.777-2.309,1.358-.02.021-.035.045-.054.067a2.3,2.3,0,0,1,1.176.531c.41.347-.182.934-.589.589a1.351,1.351,0,0,0-1.2-.266,5.813,5.813,0,0,0-.548,1.276.417.417,0,0,1-.8-.221A6.394,6.394,0,0,1,1200.071,1201.539Zm-12.591-1.071a10.92,10.92,0,0,1,6.386.381c.5.184.282.99-.221.8a10.118,10.118,0,0,0-5.943-.381C1187.179,1201.394,1186.958,1200.591,1187.48,1200.468Zm2.649,4.126a.726.726,0,1,1,.1-1.022A.727.727,0,0,1,1190.128,1204.594Zm-7.8,5.576a.909.909,0,0,1-.2-.684,3.636,3.636,0,0,1,.356-1.14,15.485,15.485,0,0,0,1.266-6.9,1.076,1.076,0,0,1,.08-.495c.386-.751,1.012.19,1.118.577a2.323,2.323,0,0,1,.077.42c.171,2.354.353,4.707.5,7.063a1.71,1.71,0,0,1-.049.687c-.288.81-1.749.775-2.433.75A1.007,1.007,0,0,1,1182.332,1210.169Zm8.119,2.319a11.526,11.526,0,0,1-7.481.7c-.522-.124-.3-.927.222-.8a10.589,10.589,0,0,0,6.839-.618C1190.518,1211.553,1190.941,1212.271,1190.452,1212.488Z" transform="translate(-284.745 -53.551)" fill="#e48d83"/>
    <path id="Trazado_129804" data-name="Trazado 129804" d="M1189,1215.078a1.709,1.709,0,0,0,.049-.687c-.152-2.356-.334-4.709-.5-7.063a2.31,2.31,0,0,0-.077-.42c-.106-.387-.732-1.328-1.118-.577a1.078,1.078,0,0,0-.08.495,15.485,15.485,0,0,1-1.266,6.9,3.637,3.637,0,0,0-.356,1.14.909.909,0,0,0,.2.684,1.007,1.007,0,0,0,.723.283C1187.25,1215.853,1188.711,1215.889,1189,1215.078Z" transform="translate(-288.256 -58.927)" fill="#c76b5d"/>
    <path id="Trazado_129805" data-name="Trazado 129805" d="M1197.357,1210.642a.726.726,0,1,0,1.022.1A.727.727,0,0,0,1197.357,1210.642Z" transform="translate(-292.896 -60.722)" fill="#4f394f"/>
    <path id="Trazado_129806" data-name="Trazado 129806" d="M1181.675,1209.149a.727.727,0,1,0,1.023.1A.726.726,0,0,0,1181.675,1209.149Z" transform="translate(-286.54 -60.117)" fill="#4f394f"/>
    <path id="Trazado_129807" data-name="Trazado 129807" d="M1213.933,1209.475a5.8,5.8,0,0,1,.548-1.276,1.351,1.351,0,0,1,1.2.266c.407.344,1-.243.589-.589a2.3,2.3,0,0,0-1.176-.531c.019-.021.034-.045.054-.067.531-.582,1.469-1.415,2.309-1.358.535.037.533-.8,0-.833a4.027,4.027,0,0,0-2.74,1.436,6.4,6.4,0,0,0-1.586,2.731A.417.417,0,0,0,1213.933,1209.475Z" transform="translate(-299.389 -58.536)" fill="#fba"/>
    <path id="Trazado_129808" data-name="Trazado 129808" d="M1165.247,1609.1l-.012-.206c-.988.163-1.732.464-1.93.986a5.474,5.474,0,0,1-1.77,1.921,14.909,14.909,0,0,1,4.005,4.79c.457.752-.721,1.436-1.177.688a12.409,12.409,0,0,0-4.025-4.631c-.367.241-.759.482-1.171.723a12.742,12.742,0,0,1,3.32,4.489c.351.8-.823,1.488-1.177.687a11.914,11.914,0,0,0-3.419-4.471c-.378.2-.768.392-1.166.582a16.047,16.047,0,0,1,2.856,4.493c.408.776-.768,1.464-1.176.687-.774-1.472-1.479-3.384-2.848-4.415a.746.746,0,0,1-.157-.165c-.474.2-.954.4-1.438.581a26.677,26.677,0,0,1-3.723,1.122,7.9,7.9,0,0,0-4.963,3.064c9.671,3.791,20.216,1.944,29.848-1.473-.68-3.764-2.31-9.457-2.31-9.457s-.259-.036-.686-.084a1.314,1.314,0,0,1-.217.58C1167.633,1612.169,1165.247,1609.1,1165.247,1609.1Z" transform="translate(-271.894 -222.214)" fill="#855d89"/>
    <path id="Trazado_129809" data-name="Trazado 129809" d="M1144.491,1626.6a6.534,6.534,0,0,0-1.154,2.614c2.4,4.758,30.728.694,31.237-1.091a7.8,7.8,0,0,0-.166-2.6c-.022-.129-.045-.261-.07-.395C1164.707,1628.548,1154.162,1630.4,1144.491,1626.6Z" transform="translate(-271.107 -228.798)" fill="#4f394f"/>
    <path id="Trazado_129810" data-name="Trazado 129810" d="M1178.33,1600.045l.3,5.26.012.206s2.385,3.073,6.666.49a1.314,1.314,0,0,0,.217-.58,34.21,34.21,0,0,0,.391-5.365A15.921,15.921,0,0,1,1178.33,1600.045Z" transform="translate(-285.291 -218.629)" fill="#e48d83"/>
    <path id="Trazado_129811" data-name="Trazado 129811" d="M1214.46,1618.273l-.066-.847c-.693.192-1.194.478-1.342.9a4.866,4.866,0,0,1-1.444,1.72,12.042,12.042,0,0,1,5.314,5.018c.426.768-.752,1.455-1.177.688a10.654,10.654,0,0,0-5.308-4.76c-.011,0-.02-.011-.031-.017-.312.22-.645.442-.994.664a8.08,8.08,0,0,1,3.768,4.774c.311.822-1.007,1.175-1.314.362-.665-1.762-1.674-3.543-3.589-4.123a.681.681,0,0,1-.284-.167q-.527.3-1.084.584a9.308,9.308,0,0,1,3.055,3.961c.391.783-.785,1.472-1.176.688-.731-1.465-1.493-2.976-3.02-3.739a.629.629,0,0,1-.256-.225c-.764.353-1.544.686-2.328.98a25.569,25.569,0,0,1-3.045.946,7.793,7.793,0,0,0-5.154,3.569c9.823,3.546,20.518,1.051,30.015-2.754-.784-3.745-2.456-9.154-2.456-9.154s-.423-.05-1.091-.106a3.171,3.171,0,0,1-.319,1.386C1216.906,1621.293,1214.46,1618.273,1214.46,1618.273Z" transform="translate(-292.042 -225.596)" fill="#855d89"/>
    <path id="Trazado_129812" data-name="Trazado 129812" d="M1194.41,1635.557a6.346,6.346,0,0,0-.843,2.235c2.5,4.707,30.736.049,31.208-1.747a9.447,9.447,0,0,0-.321-3.1c-.01-.046-.019-.092-.029-.139C1214.927,1636.608,1204.233,1639.1,1194.41,1635.557Z" transform="translate(-291.467 -231.907)" fill="#4f394f"/>
    <path id="Trazado_129813" data-name="Trazado 129813" d="M1226.818,1606.706l.479,6.167.066.847s2.447,3.02,6.673.344a3.17,3.17,0,0,0,.319-1.385,60.835,60.835,0,0,0,.147-6.68A19.184,19.184,0,0,1,1226.818,1606.706Z" transform="translate(-304.945 -221.043)" fill="#e48d83"/>
    <path id="Trazado_129814" data-name="Trazado 129814" d="M1162.371,1618.977c1.369,1.031,2.074,2.944,2.848,4.416.408.776,1.584.089,1.176-.687a16.047,16.047,0,0,0-2.856-4.493,6.044,6.044,0,0,0-.48-.412c-.635-.478-1.248.446-.844,1.012A.742.742,0,0,0,1162.371,1618.977Z" transform="translate(-278.706 -225.772)" fill="#fff"/>
    <path id="Trazado_129815" data-name="Trazado 129815" d="M1169.6,1621.193c.354.8,1.528.108,1.177-.687a12.743,12.743,0,0,0-3.32-4.489c-.172-.149-.347-.3-.527-.437-.684-.531-1.656.426-.964.964.074.057.143.119.215.178A11.916,11.916,0,0,1,1169.6,1621.193Z" transform="translate(-280.183 -224.863)" fill="#fff"/>
    <path id="Trazado_129816" data-name="Trazado 129816" d="M1174.363,1618.943a.682.682,0,0,0,1.177-.688,14.905,14.905,0,0,0-4.005-4.79c-.185-.127-.369-.254-.568-.367a.682.682,0,0,0-.687,1.177c.02.012.038.026.058.037A12.408,12.408,0,0,1,1174.363,1618.943Z" transform="translate(-281.893 -223.882)" fill="#fff"/>
    <path id="Trazado_129817" data-name="Trazado 129817" d="M1212.884,1627.717c1.527.763,2.289,2.275,3.02,3.739.391.785,1.567.1,1.176-.687a9.308,9.308,0,0,0-3.055-3.961,5.028,5.028,0,0,0-.454-.268.709.709,0,0,0-.944.951A.629.629,0,0,0,1212.884,1627.717Z" transform="translate(-299.159 -229.337)" fill="#fff"/>
    <path id="Trazado_129818" data-name="Trazado 129818" d="M1217.013,1625.424c1.915.58,2.923,2.361,3.589,4.123.307.813,1.625.46,1.314-.362a8.079,8.079,0,0,0-3.768-4.774,5.589,5.589,0,0,0-.772-.3c-.722-.219-1.086.717-.646,1.148A.679.679,0,0,0,1217.013,1625.424Z" transform="translate(-300.779 -228.37)" fill="#fff"/>
    <path id="Trazado_129819" data-name="Trazado 129819" d="M1225.971,1627.378c.425.767,1.6.08,1.177-.688a12.043,12.043,0,0,0-5.314-5.018c-.265-.13-.532-.256-.808-.368-.8-.326-1.152.947-.394,1.3.011.005.02.012.031.017A10.656,10.656,0,0,1,1225.971,1627.378Z" transform="translate(-302.267 -227.225)" fill="#fff"/>
    <path id="Trazado_129820" data-name="Trazado 129820" d="M1213.063,1308.951a12.547,12.547,0,0,1-1.275,5.981c1.236.057.95,1.7.717,2.9-.345,1.778-1.161,3.592-3.042,4.132-1.493.428-4.067.655-5.278-.565a2.2,2.2,0,0,1-.66-1.336,1.806,1.806,0,0,1-1.728-1.494c0-.01,0-.02,0-.03a2.154,2.154,0,0,1-1.943-2.072c-.66-.1-1.383-.321-1.689-1.8a1.613,1.613,0,0,1-.031-.418,10.659,10.659,0,0,1,3.789-6.665,15.983,15.983,0,0,1,5.87-2.32c2.135-3.267,4.454-7.2,6.729-11.22-.245-12.24-.463-22.29-.463-22.29l.033-.766-.3-.115a8.623,8.623,0,0,1-5-4.281,28.385,28.385,0,0,1-2.759-19.111c.142-.668,1.044-4.7,1.952-4.525l-.16-.078c-3.95-1.9-8.537-3.637-11.124-3.039a.451.451,0,0,1-.011.278c-.164,4.356-2.155,58.733-.8,84.853-6.755.346-14.385-.856-19.44-3.156-2.712-46.383,2.448-72.806,4.224-80.257l-.133-.807a.437.437,0,0,1,.055-.3l.648-1.1a34.58,34.58,0,0,0-13.4,3.246l-1.882,1.138,0,.007-.928,2.552a43.073,43.073,0,0,0-2.352,19.224l.41,3.9,4.32,41s-.723,5.942-1.473,12.257l-.028.018s0,.1-.008.281c-.8,6.73-1.62,13.784-1.624,14.45,0,.264.625.731,1.6,1.2.155,9.78.658,23.138,2.052,37.4l1.588,77.127a17.946,17.946,0,0,0,2.379.688,15.921,15.921,0,0,0,7.587.011,9.565,9.565,0,0,0,2.458-1.075c2.17-1.277,5.269-49.32,1.389-71.449l2.8-36.654.039-2.162a10.9,10.9,0,0,0,4.115.425s1.079,33.83,2.753,41.973v0l3.613,72.558a29.268,29.268,0,0,0,4.075.617,19.187,19.187,0,0,0,7.684-.707,9.683,9.683,0,0,0,1.013-.421c2.1-1.151,3.737-48.4-.353-68.992.122-1.72,2.306-32.654,2.981-48.966,1.782-.524,3-1.117,3.1-1.515.143-.6-.09-15.166-.377-30.437q-.887.849-1.787,1.689A.379.379,0,0,1,1213.063,1308.951Z" transform="translate(-278.851 -72.426)" fill="#4f394f"/>
    <path id="Trazado_129821" data-name="Trazado 129821" d="M1237.283,1245.407c-.909-.178-1.81,3.857-1.952,4.525a28.385,28.385,0,0,0,2.759,19.111,8.623,8.623,0,0,0,5,4.282l.3.115c4.544,1.781,7.418,2.787,10.835,4.281.572-.99,1.067-1.812,1.464-2.415a16.906,16.906,0,0,1,3.335-3.942c2.763-1.754,9-2,10.4,2.495.549,1.761-.527,4.859-2.785,8.75a4.6,4.6,0,0,0,3.25-2.018c6.113-8.2-3.073-17.806-9.744-22.032-3.929-2.488-8.221-4.342-12-7.084-3.258-2.363-6.576-5.112-10.6-6.007-.086-.02-.171-.043-.258-.061Z" transform="translate(-308.154 -74.878)" fill="#604561"/>
    <path id="Trazado_129822" data-name="Trazado 129822" d="M1255.887,1307.924a80.075,80.075,0,0,0,5.768-8.418c2.258-3.891,3.334-6.989,2.785-8.75-1.4-4.491-7.635-4.249-10.4-2.495a16.9,16.9,0,0,0-3.335,3.942c-.4.6-.892,1.425-1.464,2.415-2.451,4.239-6.354,11.623-10.4,18.776-2.275,4.017-4.593,7.953-6.729,11.22a15.985,15.985,0,0,0-5.87,2.32,10.659,10.659,0,0,0-3.789,6.665,1.623,1.623,0,0,0,.031.418c.306,1.479,1.029,1.7,1.69,1.8,0-.005,0-.01,0-.015-.02-1.2.785-2.647,1.186-3.75.169-.466.919-.263.747.206-.245.674-.481,1.352-.723,2.028-.114.32-.263.647-.347.976a1.4,1.4,0,0,0,1.06,1.834,13.179,13.179,0,0,1,1.286-3.008c.184-.458.934-.257.747.206-.238.593-.562,1.132-.846,1.7-.368.74-.811,2.847.595,2.66a11.324,11.324,0,0,1,1.409-3.114c.235-.441.9-.049.67.391-.67,1.254-1.862,2.842-.9,4.268.6.89,2.546.593,3.457.514a3.288,3.288,0,0,0,3-1.887c.252-.5,1.336-3.825.191-3.709a26.5,26.5,0,0,1-2.587,4.009c-.3.39-.974,0-.67-.391,2.24-2.9,4.412-6.656,4.164-10.436-.027-.412.492-.476.694-.209q.9-.839,1.787-1.689c2.514-2.405,4.936-4.857,7.222-7.3l.135-12.864C1246.5,1306.769,1250.139,1307.344,1255.887,1307.924Z" transform="translate(-303.174 -91.775)" fill="#e48d83"/>
    <path id="Trazado_129823" data-name="Trazado 129823" d="M1227.289,1365.728c0,.01,0,.02,0,.03a1.807,1.807,0,0,0,1.728,1.495,2.2,2.2,0,0,0,.66,1.336c1.211,1.22,3.786.993,5.278.565,1.881-.539,2.7-2.354,3.042-4.132.233-1.2.519-2.844-.717-2.9a12.547,12.547,0,0,0,1.275-5.98.38.38,0,0,0-.081-.209c-.2-.266-.721-.2-.694.209.249,3.78-1.924,7.534-4.164,10.436-.3.395.369.781.67.391a26.5,26.5,0,0,0,2.587-4.009c1.145-.115.061,3.2-.191,3.709a3.289,3.289,0,0,1-3,1.887c-.911.078-2.857.375-3.457-.514-.962-1.427.23-3.014.9-4.269.235-.44-.434-.832-.67-.391a11.322,11.322,0,0,0-1.409,3.114c-1.406.187-.963-1.92-.595-2.66.283-.57.607-1.109.846-1.7.186-.463-.564-.664-.748-.206a13.187,13.187,0,0,0-1.286,3.008,1.4,1.4,0,0,1-1.06-1.834c.084-.329.234-.656.347-.976.241-.676.477-1.354.722-2.029.171-.47-.578-.672-.747-.206-.4,1.1-1.206,2.554-1.186,3.749,0,.005,0,.01,0,.016A2.154,2.154,0,0,0,1227.289,1365.728Z" transform="translate(-304.348 -119.615)" fill="#f2a796"/>
    <path id="Trazado_129824" data-name="Trazado 129824" d="M1197.128,1244.81l-2.048,4.266c.017.2.054.336.118.376a6.239,6.239,0,0,0,1.208.324c-2.655,10.347-3.573,49.237-3.573,49.237l2.729,3.819,4.388-3.124.52-49.365h0a1.536,1.536,0,0,0,.839-.108,3.488,3.488,0,0,0,.517-1.321l-2.118-3.8C1198.833,1244.99,1197.871,1244.867,1197.128,1244.81Z" transform="translate(-291.17 -74.639)" fill="#b89841"/>
    <path id="Trazado_129825" data-name="Trazado 129825" d="M1189.617,1237.754a.437.437,0,0,0-.055.3l.133.807c-1.776,7.451-6.936,33.874-4.224,80.257,5.055,2.3,12.685,3.5,19.44,3.156-1.359-26.119.632-80.5.8-84.853a.451.451,0,0,0,.011-.278l-1.145-3.626a.459.459,0,0,0-.412-.32v0a21.457,21.457,0,0,0-2.946-.5c.174.866.319,1.717.411,2.512l-5.121,4.417a.46.46,0,0,0-.1.573l.006.011,2.118,3.8a3.489,3.489,0,0,1-.517,1.321,1.537,1.537,0,0,1-.839.108h0l-.52,49.365-4.388,3.124-2.729-3.819s.918-38.89,3.573-49.237a6.237,6.237,0,0,1-1.208-.323c-.065-.041-.1-.181-.118-.376l2.048-4.266.035-.071a.438.438,0,0,0-.008-.4c-.139-.26-.4-.771-.692-1.365a18.99,18.99,0,0,1-.216-4.028,8.318,8.318,0,0,0-1.814,1.174h0a.43.43,0,0,0-.083.1l-.787,1.338Z" transform="translate(-287.873 -69.726)" fill="#fff"/>
    <path id="Trazado_129826" data-name="Trazado 129826" d="M1194.654,1206.3a10.118,10.118,0,0,1,5.943.381c.5.186.721-.619.221-.8a10.92,10.92,0,0,0-6.386-.381C1193.911,1205.619,1194.131,1206.422,1194.654,1206.3Z" transform="translate(-291.697 -58.579)" fill="#4f394f"/>
    <path id="Trazado_129827" data-name="Trazado 129827" d="M1181.194,1204.716c.5.193.718-.613.221-.8a8.02,8.02,0,0,0-3.969-.471.394.394,0,0,0-.077.027c-.44.141-.424.873.077.807l.021,0A7.524,7.524,0,0,1,1181.194,1204.716Z" transform="translate(-284.774 -57.842)" fill="#4f394f"/>
    <path id="Trazado_129828" data-name="Trazado 129828" d="M1193.91,1224.68a10.59,10.59,0,0,1-6.839.618c-.522-.124-.744.68-.222.8a11.526,11.526,0,0,0,7.481-.7C1194.82,1225.183,1194.4,1224.465,1193.91,1224.68Z" transform="translate(-288.624 -66.463)" fill="#fba"/>
    <path id="Trazado_129829" data-name="Trazado 129829" d="M1078.2,1275.438c2.114-.677,4.7-2.382,5.389-4.613.7-2.25-.611-4.688-2.392-5.968-1.163-.836-5.044-2.081-9.261-3.268-4.487-1.263-9.344-2.458-11.719-3.025l-1-.237c-1.531-.357-2.946-.68-4.267-.976-9.672-2.168-14.214-2.865-20.852-4.348l-6.513-1.453a7.141,7.141,0,0,0-1.775-3.335c-1.949-1.833-4.081-4.28-4.5-5.383-1.5,1.037-.255,3.969.793,5.881-1.95-.13-4.45-.045-5.424,0h0s-12.577-2.483-11.255.065a1.5,1.5,0,0,0,1.117.777l8.656,1.285c-.084.2-.167.415-.247.635h0s-11.119-2.151-10.69.343a.942.942,0,0,0,.778.753l9.252,1.547c-.024.195-.04.391-.051.588-2.825-.574-9.578-1.746-9.074.3a1.1,1.1,0,0,0,.871.8l8.571,1.575c.054.144.114.287.182.427-2.821-.506-7.606-1.169-6.657.367.269.435,2.348.861,2.841.919l5.476.651c5.852,1.237,8.781-.513,10.248-2.634a183.55,183.55,0,0,0,21.329,11.154c2.2,1.025,4.432,1.995,6.693,2.891q2.607,1.032,5.268,1.912c1.072.353,2.148.688,3.233,1,.709.2,1.435.406,2.173.607C1069.543,1275.8,1074.089,1276.754,1078.2,1275.438Z" transform="translate(-214.727 -73.837)" fill="#e48d83"/>
    <path id="Trazado_129830" data-name="Trazado 129830" d="M1188.686,1181.012c.765,5.737,8.42,7.061,8.426,7.062h0a4.218,4.218,0,0,1,3.918-.992,1.163,1.163,0,0,1,.734.785c1.314-3.875,2.536-10.948-1.216-13.9a8.3,8.3,0,0,0-4.111-1.311v0s-4.726-13.744-18.856-7.1c-4.675,1.917-7.869,10.733-7.358,16.036a39.023,39.023,0,0,0,4.1.688C1178.155,1182.733,1183.983,1182.939,1188.686,1181.012Z" transform="translate(-281.983 -41.777)" fill="#4f394f"/>
    <path id="Trazado_129831" data-name="Trazado 129831" d="M1385.62,1285.508a5.636,5.636,0,0,0,.582-1.078l-.833,1.227.206-.073C1385.591,1285.56,1385.6,1285.533,1385.62,1285.508Z" transform="translate(-369.212 -90.698)" fill="#4f394f"/>
    <path id="Trazado_129832" data-name="Trazado 129832" d="M1434.411,1337.852q-.548-.621-1.094-1.244-1.111-1.267-2.219-2.537a62.186,62.186,0,0,0-3.01,12.581,5.831,5.831,0,0,0-.033.972,107.76,107.76,0,0,0,2.026,15.876c1.6-1.873,3.18-3.727,4.676-5.49C1434.675,1351.59,1434.565,1344.758,1434.411,1337.852Z" transform="translate(-386.511 -110.82)" fill="#4f394f"/>
    <path id="Trazado_129833" data-name="Trazado 129833" d="M1437.872,1406.9c-.011-3.15-.028-6.724-.056-10.608q-1.248,1.011-2.537,2.023C1436.12,1401.411,1437.008,1404.3,1437.872,1406.9Z" transform="translate(-389.443 -136.042)" fill="#4f394f"/>
    <path id="Trazado_129834" data-name="Trazado 129834" d="M1380.378,1247.753a30.389,30.389,0,0,1-6.121.333,83.285,83.285,0,0,1-2.664-14.773,3.061,3.061,0,0,0,.337-.008c.13-.011.254-.02.372-.027a.712.712,0,1,0,1.373,0,1.763,1.763,0,0,1,.775.172s-.285-1.16-2.521-1.231c-.144,0-.28-.011-.411-.02-.011-.185-.018-.369-.027-.554a.367.367,0,0,0,.273-.124c.4-.425,1.273-.416,1.813-.5s.3-.883-.221-.8a4.886,4.886,0,0,0-1.9.489c-.025-.871-.024-1.73,0-2.575,5.53-.536,13.021-4.936,16.249-6.984.573,2.556,2.461,9.876,5.643,11.7,1.623-1.668,4.114-3.724,5.3-2.1,1.72,2.351-2.007,8.693-6.189,8.729-.025.058-.051.121-.075.177a10.8,10.8,0,0,1-1.413,2.386c-.148,2.321-.3,5.411-.358,8.735-.021,1.318-.02,2.672,0,4.029l9.627,1.7-.009.294c6.095.609,7.305,2.613,8.557,3.276a.5.5,0,0,1,.175.207,4.285,4.285,0,0,1,.629.069c-.777-17.349-1.97-31.9-3.8-37.094a17.114,17.114,0,0,0-4.191-6.61c-4.61-4.475-8.017-2.61-8.017-2.61-.221-.089-.433-.162-.638-.226-1.688-1.425-4.267-2.516-8.216-2.55-11.6-.1-17.238,9.364-14.33,16.893l.224,3.95a3.65,3.65,0,0,1-1.612-.516,3.2,3.2,0,0,0,1.67,1.552l1.365,24.1,7.524-2.465A17.656,17.656,0,0,0,1380.378,1247.753Z" transform="translate(-362.582 -61.04)" fill="#4f394f"/>
    <path id="Trazado_129835" data-name="Trazado 129835" d="M1354.058,1292.428a1.9,1.9,0,0,0-.208.074c-2.646,1.13-8.079,11.112-12.585,20.212,3.266.184,6.5.36,9.639.526C1352.608,1301.865,1353.915,1293.359,1354.058,1292.428Z" transform="translate(-351.335 -93.94)" fill="#58ffd4"/>
    <path id="Trazado_129836" data-name="Trazado 129836" d="M1357.661,1310.008l0-.008a20.965,20.965,0,0,0,1.158-1.89v0l14.6-21.508.644-.949.833-1.227-7.524,2.465-6.729,2.2-.014.088c-.143.931-1.449,9.437-3.154,20.812Z" transform="translate(-357.905 -90.698)" fill="#00e0b1"/>
    <path id="Trazado_129837" data-name="Trazado 129837" d="M1395.935,1555.728c.532,21.424,3.577,45.831,4,48.617l.671,14c-1.393,2.607-2.128,5.579-3.479,8.633a21.894,21.894,0,0,1-2.748,4.836,12.461,12.461,0,0,1,2.049,2c6.427-2.663,7.144-10.057,10.429-15.455a3.439,3.439,0,0,1,.631-.732c-.052-.043-.106-.082-.158-.124a109.379,109.379,0,0,0,1.038-14.689l.049-.071s3.27-31.732,1.519-52.136q-.149-1.731-.35-3.341c-2.4,1.887-7.757,3.078-13.728,3.517C1395.867,1552.408,1395.894,1554.058,1395.935,1555.728Z" transform="translate(-372.864 -197.237)" fill="#ffd6ca"/>
    <path id="Trazado_129838" data-name="Trazado 129838" d="M1358.6,1553.049c1.726,19.15,5.188,40.147,5.927,42.669h0l1.544,11.808c-1.487,2.669-2.228,5.737-3.624,8.893a21.875,21.875,0,0,1-2.748,4.836,12.483,12.483,0,0,1,2.049,2c6.427-2.664,7.144-10.057,10.429-15.455a3.451,3.451,0,0,1,.631-.732c-.023-.02-.048-.037-.072-.057.168-3.305-.011-9.863-.139-13.052h0s.824-21.534-.253-37.9c-.114-1.736-.252-3.409-.412-5-5.891-.331-11.223-1.416-13.762-3.308Q1358.364,1550.365,1358.6,1553.049Z" transform="translate(-358.189 -197.435)" fill="#ffd6ca"/>
    <path id="Trazado_129839" data-name="Trazado 129839" d="M1377.147,1299.292c.647,2.441,2.994,4.695,5.291,4.769,8.578.4,8.344-11.1,10.489-17.569.2-.654.425-1.4.72-2.118l.083-2.642h.008c-.018-1.357-.02-2.712,0-4.029a11.768,11.768,0,0,1-11.042,4,5.628,5.628,0,0,1-.582,1.077c-.017.025-.029.052-.045.077l-.206.073-.644.949a5.858,5.858,0,0,1-.463,1.009C1378.075,1289.279,1375.739,1294.165,1377.147,1299.292Z" transform="translate(-365.708 -87.972)" fill="#ffd6ca"/>
    <path id="Trazado_129840" data-name="Trazado 129840" d="M1407.907,1390.4l.011,1.727.145-.018Q1407.985,1391.253,1407.907,1390.4Z" transform="translate(-378.348 -133.652)" fill="#fff"/>
    <path id="Trazado_129841" data-name="Trazado 129841" d="M1385.251,1290.7c-2.145,6.464-1.911,17.966-10.489,17.569-2.3-.074-4.644-2.328-5.291-4.769-1.408-5.127.928-10.013,3.611-14.4a5.877,5.877,0,0,0,.463-1.009l-14.6,21.508v0a20.949,20.949,0,0,1-1.158,1.89l0,.008c12.319.651,23,1.139,27.415,1.336l.768-24.243C1385.677,1289.306,1385.446,1290.048,1385.251,1290.7Z" transform="translate(-358.033 -92.182)" fill="#fff"/>
    <path id="Trazado_129842" data-name="Trazado 129842" d="M1397.811,1271.751c.053-3.323.21-6.414.358-8.735a10.707,10.707,0,0,1-3.464,2.894,20.836,20.836,0,0,1-7.13,2.822,17.654,17.654,0,0,1-.806,7.018A11.768,11.768,0,0,0,1397.811,1271.751Z" transform="translate(-369.78 -82.018)" fill="#ffc0b5"/>
    <path id="Trazado_129843" data-name="Trazado 129843" d="M1392.624,1248.78a10.8,10.8,0,0,0,1.413-2.386c.024-.056.05-.119.075-.177,4.182-.036,7.909-6.378,6.189-8.729-1.187-1.622-3.678.434-5.3,2.1-3.182-1.819-5.07-9.139-5.643-11.7-3.228,2.048-10.719,6.447-16.249,6.984-.027.844-.027,1.7,0,2.575a4.885,4.885,0,0,1,1.9-.489c.524-.082.747.719.221.8s-1.415.075-1.813.5a.367.367,0,0,1-.273.124c.009.185.016.369.027.554.132.008.268.015.412.02,2.235.071,2.521,1.231,2.521,1.231a1.763,1.763,0,0,0-.775-.172.712.712,0,1,1-1.373,0c-.118.007-.241.016-.372.027a3.061,3.061,0,0,1-.337.008,83.285,83.285,0,0,0,2.664,14.773,30.39,30.39,0,0,0,6.121-.333,20.838,20.838,0,0,0,7.13-2.822A10.707,10.707,0,0,0,1392.624,1248.78Zm6.047-9.942c.531-.063.525.768,0,.831a4.059,4.059,0,0,0-3.243,2.5c-.208.491-.924.067-.718-.419A4.868,4.868,0,0,1,1398.671,1238.838Zm-17.886-2.4c1.9-.105,4.414-.021,5.386,1.864.245.475-.472.894-.718.419-.806-1.563-3.113-1.539-4.668-1.452C1380.25,1237.3,1380.253,1236.471,1380.785,1236.442Zm2.3,3.507c2.2.394,2.984-.011,2.984-.011a3.038,3.038,0,0,1-2.862,1.156.711.711,0,1,1-1.115-.292c-1.368-.333-1.729-.172-1.729-.172S1380.881,1239.554,1383.083,1239.948Zm-7.428,6.577a1,1,0,0,1-.7-.338.908.908,0,0,1-.14-.7,3.606,3.606,0,0,1,.444-1.1,15.442,15.442,0,0,0,1.8-6.754,1.072,1.072,0,0,1,.118-.485c.444-.716.991.269,1.066.662a2.3,2.3,0,0,1,.043.423c-.016,2.353-.022,4.707-.057,7.06a1.711,1.711,0,0,1-.1.679C1377.783,1246.757,1376.334,1246.605,1375.655,1246.526Zm.81,3.423c-.491-.2-.276-1,.221-.8a7.987,7.987,0,0,0,5.458.221c.513-.159.73.643.221.8A8.716,8.716,0,0,1,1376.465,1249.949Zm3.462,2.044a1.269,1.269,0,0,0-1.154.058c-.468.26-.887-.457-.419-.717a2.151,2.151,0,0,1,1.992-.059C1380.833,1251.5,1380.41,1252.215,1379.927,1251.993Z" transform="translate(-364.234 -67.782)" fill="#ffd6ca"/>
    <path id="Trazado_129844" data-name="Trazado 129844" d="M1408.333,1423.345a22.487,22.487,0,0,1-.234-2.739l.038,5.985A7.434,7.434,0,0,0,1408.333,1423.345Z" transform="translate(-378.426 -145.896)" fill="#00e0b1"/>
    <path id="Trazado_129845" data-name="Trazado 129845" d="M1408.617,1432.611c-.139.488-.272,1-.371,1.492C1408.361,1433.678,1408.493,1433.16,1408.617,1432.611Z" transform="translate(-378.485 -150.762)" fill="#00e0b1"/>
    <path id="Trazado_129846" data-name="Trazado 129846" d="M1393.929,1450.646a.864.864,0,0,1-.447-.328.191.191,0,0,0,.128-.027s-.692-5.562-1.487-12.235l-.388.781a.435.435,0,0,1-.781,0,2.978,2.978,0,0,1-.242-.778c-.287.526-.576,1.044-.854,1.556-.32.588-.576,1.62-1.407,1.5-.684-.1-.921-.78-1-1.455a.311.311,0,0,1-.393.164.324.324,0,0,1-.036,0,1.734,1.734,0,0,1-.359-.1l.123,19.422-28.615-2.772c-2.641,20.869-4.334,41.928-2.137,46.124a5.015,5.015,0,0,0,.863.8c2.539,1.892,7.871,2.977,13.762,3.308a72.375,72.375,0,0,0,9.248-.082c5.971-.439,11.328-1.631,13.728-3.517a3.323,3.323,0,0,0,1.267-1.733c1.5-5.926,8.961-40.4,10.257-58.113C1401.274,1446.943,1396.324,1451.149,1393.929,1450.646Z" transform="translate(-356.912 -152.969)" fill="#00e0b1"/>
    <path id="Trazado_129847" data-name="Trazado 129847" d="M1408.163,1418.209l0,.018a.233.233,0,0,1,.018-.024Z" transform="translate(-378.451 -144.922)" fill="#00e0b1"/>
    <path id="Trazado_129848" data-name="Trazado 129848" d="M1408.821,1417.911l-.068.029a.45.45,0,0,1,.068.011Z" transform="translate(-378.691 -144.803)" fill="#00e0b1"/>
    <path id="Trazado_129849" data-name="Trazado 129849" d="M1379.3,1252.109a1.711,1.711,0,0,0,.1-.679c.035-2.353.041-4.707.057-7.06a2.3,2.3,0,0,0-.043-.423c-.075-.393-.623-1.378-1.066-.662a1.072,1.072,0,0,0-.118.485,15.442,15.442,0,0,1-1.8,6.754,3.606,3.606,0,0,0-.444,1.1.908.908,0,0,0,.14.7,1,1,0,0,0,.7.338C1377.5,1252.74,1378.952,1252.892,1379.3,1252.109Z" transform="translate(-365.404 -73.917)" fill="#ffc0b5"/>
    <path id="Trazado_129850" data-name="Trazado 129850" d="M1385.759,1243.079c1.555-.087,3.862-.111,4.668,1.452.246.475.963.055.718-.419-.972-1.886-3.488-1.97-5.386-1.864C1385.228,1242.278,1385.224,1243.109,1385.759,1243.079Z" transform="translate(-369.208 -73.588)" fill="#4f394f"/>
    <path id="Trazado_129851" data-name="Trazado 129851" d="M1384.479,1264.636c.509-.158.292-.96-.221-.8a7.987,7.987,0,0,1-5.458-.221c-.5-.2-.712.6-.221.8A8.716,8.716,0,0,0,1384.479,1264.636Z" transform="translate(-366.347 -82.248)" fill="#fba"/>
    <path id="Trazado_129852" data-name="Trazado 129852" d="M1383.8,1267.065a2.151,2.151,0,0,0-1.992.059c-.467.26-.049.978.419.717a1.269,1.269,0,0,1,1.154-.058C1383.861,1268.005,1384.284,1267.289,1383.8,1267.065Z" transform="translate(-367.685 -83.572)" fill="#fba"/>
    <path id="Trazado_129853" data-name="Trazado 129853" d="M1409.423,1249.21c-.206.486.51.911.718.419a4.059,4.059,0,0,1,3.243-2.5c.524-.062.531-.894,0-.831A4.868,4.868,0,0,0,1409.423,1249.21Z" transform="translate(-378.947 -75.24)" fill="#fba"/>
    <path id="Trazado_129854" data-name="Trazado 129854" d="M1450.654,1326.836c-.355-3.021-2.885-6.26-4.383-8.84q-2.766-4.762-5.868-9.32c-3.214-4.72-5.215-11.777-10.191-15.986a5.621,5.621,0,0,0-2.6-1.3,4.286,4.286,0,0,0-.629-.069.5.5,0,0,0-.175-.207c-1.252-.664-2.462-2.667-8.557-3.276l-.981,34.491s-3.847,28.814-3.8,32.755c0,.383.046,1.019.114,1.849,3.141-3.523,6.918-7.891,10.582-12.175a107.727,107.727,0,0,1-2.025-15.876,5.831,5.831,0,0,1,.033-.972,62.194,62.194,0,0,1,3.01-12.581q1.106,1.272,2.219,2.537.546.623,1.094,1.244c2.718,3.088,5.452,6.18,7.918,9.471a5.22,5.22,0,0,1,.506,1.12l.733-.869a8.875,8.875,0,0,1,2.945-2.279c2.922-1.4,8.388-3.345,9.24,1.236.34,1.826-1.064,4.644-3.734,8.052a14.518,14.518,0,0,0,2.184-1.155C1450.542,1332.619,1450.978,1329.074,1450.654,1326.836Z" transform="translate(-380.606 -92.081)" fill="#58ffd4"/>
    <path id="Trazado_129855" data-name="Trazado 129855" d="M1420.61,1405.264a14.526,14.526,0,0,1-.288,4.882l-.707,7.745a1.461,1.461,0,0,1-.142.473l-2.059,4.145c.795,6.673,1.487,12.235,1.487,12.235a.191.191,0,0,1-.128.027.862.862,0,0,0,.447.328c2.4.5,7.345-3.7,11.23-7.492.989-.965,1.91-1.9,2.7-2.73a6.021,6.021,0,0,0,1.223-6.444c-.976-2.389-2.327-5.892-3.742-10.15-.865-2.6-1.753-5.492-2.593-8.585C1425.654,1401.567,1423.166,1403.432,1420.61,1405.264Z" transform="translate(-382.201 -137.421)" fill="#58ffd4"/>
    <path id="Trazado_129856" data-name="Trazado 129856" d="M1416.775,1428.414c.006-.047.011-.093.017-.139Z" transform="translate(-381.942 -149.004)" fill="#58ffd4"/>
    <path id="Trazado_129857" data-name="Trazado 129857" d="M1402.769,1686.446q-.862.785-1.735,1.557c-1.711,1.516-3.4,3.061-5.2,4.477a23.387,23.387,0,0,1-4.447,3.07,13.645,13.645,0,0,1-4.9,1.024,44.534,44.534,0,0,1-7.857-.2.647.647,0,0,1-.563-.291s-.092,2.783.8,3.051a73.884,73.884,0,0,0,13.266.428c3.662-.42,11.758-4.764,11.758-4.764l.319-9.859C1403.977,1685.561,1403.238,1686.019,1402.769,1686.446Z" transform="translate(-366.25 -253.04)" fill="#4f394f"/>
    <path id="Trazado_129858" data-name="Trazado 129858" d="M1400.208,1666.321c-3.285,5.4-4,12.791-10.429,15.455a12.465,12.465,0,0,0-2.049-2,5.507,5.507,0,0,1-.658.589,10.6,10.6,0,0,1-4.265,2.2,5.635,5.635,0,0,0-4.209,2.832,8.839,8.839,0,0,0-.59,2.275.962.962,0,0,0,.021.567.647.647,0,0,0,.563.291,44.522,44.522,0,0,0,7.857.2,13.643,13.643,0,0,0,4.9-1.024,23.387,23.387,0,0,0,4.447-3.07c1.8-1.416,3.489-2.96,5.2-4.477q.872-.772,1.735-1.557c.47-.426,1.208-.884,1.432-1.506,1.392-3.871-.28-8.944-3.328-11.508A3.439,3.439,0,0,0,1400.208,1666.321Z" transform="translate(-366.215 -245.197)" fill="#00e0b1"/>
    <path id="Trazado_129859" data-name="Trazado 129859" d="M1369.136,1668.352q-.863.784-1.735,1.557c-1.711,1.516-3.4,3.061-5.2,4.477a23.379,23.379,0,0,1-4.446,3.07,13.651,13.651,0,0,1-4.9,1.024,44.46,44.46,0,0,1-7.857-.2.647.647,0,0,1-.563-.291s-.092,2.784.8,3.051a73.838,73.838,0,0,0,13.265.428c3.662-.42,11.758-4.764,11.758-4.764l.318-9.86C1370.344,1667.467,1369.605,1667.925,1369.136,1668.352Z" transform="translate(-352.617 -245.706)" fill="#4f394f"/>
    <path id="Trazado_129860" data-name="Trazado 129860" d="M1366.575,1648.227c-3.285,5.4-4,12.791-10.429,15.455a12.478,12.478,0,0,0-2.049-2,5.461,5.461,0,0,1-.659.589,10.6,10.6,0,0,1-4.266,2.2,5.634,5.634,0,0,0-4.209,2.832,8.832,8.832,0,0,0-.59,2.275.962.962,0,0,0,.021.567.647.647,0,0,0,.563.291,44.437,44.437,0,0,0,7.857.2,13.651,13.651,0,0,0,4.9-1.024,23.374,23.374,0,0,0,4.446-3.07c1.8-1.416,3.489-2.96,5.2-4.477q.873-.773,1.735-1.557c.47-.427,1.208-.885,1.432-1.506,1.392-3.871-.279-8.944-3.328-11.507A3.457,3.457,0,0,0,1366.575,1648.227Z" transform="translate(-352.582 -237.863)" fill="#00e0b1"/>
    <path id="Trazado_129861" data-name="Trazado 129861" d="M1404.749,1284.48h-.008l-.083,2.641-.768,24.243c1.391.063,2.16.1,2.16.1l.229,36.007q.078.853.156,1.71l-.145.018.061,9.677a25.953,25.953,0,0,1,2.876-2.763l.478-.535c-.068-.83-.109-1.466-.114-1.849-.052-3.941,3.8-32.755,3.8-32.755l.981-34.492.009-.294Z" transform="translate(-376.72 -90.718)" fill="#00e0b1"/>
    <path id="Trazado_129862" data-name="Trazado 129862" d="M1387.049,1248.958a.712.712,0,1,0,1.115.292,3.038,3.038,0,0,0,2.862-1.156s-.782.406-2.984.011-2.722.68-2.722.68S1385.681,1248.625,1387.049,1248.958Z" transform="translate(-369.192 -75.939)" fill="#4f394f"/>
    <path id="Trazado_129863" data-name="Trazado 129863" d="M1348.688,1391.58c-1.817-.735-.541-4.194-.192-5.47.056-.2.106-.4.153-.584l-.038-5.985q-.018-.549-.023-1.1a6.956,6.956,0,0,1-1.614,2.848c-.806.959-2.033.984-1.823.3.458-.64,1.285-4.2,1.639-5.8a4.82,4.82,0,0,1,.554-1.513c.427-.451.835-.886,1.225-1.3l-.061-9.677-.011-1.728-.228-36.007s-.769-.033-2.16-.1c-4.413-.2-15.1-.685-27.415-1.335l-.187-.01c-3.134-.166-6.373-.342-9.639-.526-13.824-.78-28.149-1.709-37.217-2.625-5.747-.58-9.383-1.155-9.438-1.684l-.135,12.864-.141,13.48a1.685,1.685,0,0,1,1.4,1.6,1.647,1.647,0,0,1-1.414,1.842c-.01,0-.018,0-.027,0l-.03,2.908a1.751,1.751,0,0,1-.036,3.425v.16a1.747,1.747,0,0,1-.036,3.431l0,.223a1.807,1.807,0,0,1-.036,3.438l-.418,39.861,58.858,5.7,28.615,2.772Zm-83.762,7.865.762-74.911c.246,2.326,78.542,5.684,78.542,5.684l.53,76.89Z" transform="translate(-318.938 -104.83)" fill="#4f394f"/>
    <path id="Trazado_129864" data-name="Trazado 129864" d="M1309.755,1350.263a8.64,8.64,0,0,0-1.976-.915l.1,4.377a5.844,5.844,0,0,0,2.059-.246q1.256-.43,1.135-1.487A2.52,2.52,0,0,0,1309.755,1350.263Z" transform="translate(-337.762 -117.012)" fill="#fff"/>
    <path id="Trazado_129865" data-name="Trazado 129865" d="M1346.675,1333.789s-78.3-3.358-78.542-5.684l-.762,74.911,79.834,7.663Zm-29.444,32.475c.277-.039,3.368-7.668,4.333-7.839s19.1.94,19.1.94v1.291l-18.245-.752-3.695,6.867Zm2.467-25.771,2.763,5.446-1.061-5.5,1.786.12,1.532,7.933-1.788.063-3.123-5.95.959,5.931-1.664-.124-1.3-7.979Zm-6.192.078a12.939,12.939,0,0,1,4.086-.306l0,1.862a11.075,11.075,0,0,0-2.137-.342q-2.935-.178-2.738,1.542a2.756,2.756,0,0,0,1.542,1.861,10.338,10.338,0,0,0,2.236,1l.007-1.166-1.084-.255-.141-1.287,2.63.525.026,4.3a18.055,18.055,0,0,1-2.083-.786,16.953,16.953,0,0,1-1.918-1.017q-2.619-1.6-2.813-3.293Q1310.9,1341.254,1313.506,1340.57Zm-2.687,7.336-1.6-.268-.563-7.975,1.648.247Zm-7.063-8.087a12.078,12.078,0,0,1,3.234-.41l.137,1.811a15.279,15.279,0,0,0-2.141.029q-1.653.177-1.583.787a1,1,0,0,0,.212.479,1.949,1.949,0,0,0,1.339.541q1.689.2,1.877.255a2.21,2.21,0,0,1,1.487,1.074,2.483,2.483,0,0,1,.267.865q.163,1.423-2.088,2.023a11.876,11.876,0,0,1-3.319.329l-.344-1.576q.289.036.477.047.317.019,1.381,0a6.122,6.122,0,0,0,1.354-.141q.89-.218.816-.864a.874.874,0,0,0-.2-.436,1.91,1.91,0,0,0-1.276-.448,14.626,14.626,0,0,1-1.855-.272,2.332,2.332,0,0,1-1.485-1.156,2.675,2.675,0,0,1-.272-.9Q1301.617,1340.433,1303.757,1339.82Zm-9.329,32.274-1.8-5.623-16.585-2.288v-1.138l17.485,2.227,2.519,6.471Zm-.386-26.006a11.824,11.824,0,0,1-3.955.532l-.224-8.019a16.931,16.931,0,0,1,2,.7,14.448,14.448,0,0,1,1.83.935q2.483,1.482,2.675,3.161Q1296.578,1345.24,1294.041,1346.088Zm1.707-6.877,5.061-.288.322,1.692-3.457.2.376,1.708,2.173-.1.29,1.46-2.577.1.311,1.6,3.717-.216.279,1.572-4.963.276Zm3.457,41.69c-1.758-16.487,1.278-16.417,3.476-16.939,1.4-.332,1.471-2.412,1.339-3.884l-.425-.068-.5-3.068,6,.874-.318,3.019-.373-.06c0,.361.01.786.033,1.285a3.73,3.73,0,0,0,2.115,3.031c8.162,4.068,5.743,25.344,5.071,31.029-4.2,3.324-14.861-1.253-14.861-1.253S1300.963,1397.387,1299.206,1380.9Zm43.457,4.17-19.1-.92-2.812,3.824-1.159-1.05,3.355-4.444,19.716.792Z" transform="translate(-321.383 -108.401)" fill="#fff"/>
    <path id="Trazado_129866" data-name="Trazado 129866" d="M1445.293,1353.068c-.851-4.581-6.318-2.639-9.24-1.236a8.874,8.874,0,0,0-2.945,2.279l-.733.869c-1.788,2.122-4.718,5.605-8.08,9.567-1.5,1.763-3.074,3.617-4.676,5.49-3.664,4.285-7.442,8.652-10.582,12.175l-.478.535a25.964,25.964,0,0,0-2.876,2.763c-.39.413-.8.848-1.225,1.3a4.822,4.822,0,0,0-.554,1.513c-.354,1.6-1.181,5.159-1.639,5.8-.209.681,1.017.656,1.823-.3a6.958,6.958,0,0,0,1.614-2.849c0-.035,0-.07,0-.105a.36.36,0,0,1,.061-.2l0-.018.016-.007a.388.388,0,0,1,.334-.145l.068-.029v.04a.355.355,0,0,1,.3.36,30.312,30.312,0,0,0,.172,3.262,8.744,8.744,0,0,1,.219,2.7c-.073.412-.392,1.344-.687,2.384-.124.549-.256,1.067-.371,1.492-.242,1.194-.289,2.278.256,2.645,1.415-2.97,3.137-5.535,3.277-8.957.02-.5.8-.5.778,0-.131,3.2-1.551,5.664-2.907,8.374a.355.355,0,0,1,.108.263c0,.355-.076,1.695.493,1.7-.206,0,.187-.527.275-.687q.773-1.4,1.487-2.822c1-1.982,1.95-3.9,1.889-6.168a.389.389,0,0,1,.778,0c.071,2.634-1.134,5.089-2.394,7.4a2.98,2.98,0,0,0,.242.778.436.436,0,0,0,.781,0l.388-.781,2.059-4.145a1.461,1.461,0,0,0,.141-.473l.707-7.745a14.527,14.527,0,0,0,.288-4.882c2.557-1.832,5.045-3.7,7.428-5.566q1.291-1.013,2.537-2.024c7.327-5.939,13.445-11.78,17.135-16.49C1444.229,1357.712,1445.632,1354.894,1445.293,1353.068Zm-34.392,43.56c-.005.046-.011.092-.017.139Z" transform="translate(-376.051 -117.357)" fill="#ffd6ca"/>
    <path id="Trazado_129867" data-name="Trazado 129867" d="M1407.735,1422.272a7.433,7.433,0,0,1-.2,3.246c-.047.187-.1.38-.153.584-.349,1.276-1.626,4.735.192,5.47a1.738,1.738,0,0,0,.359.1.322.322,0,0,0,.036,0,.311.311,0,0,0,.393-.164c.082.675.318,1.355,1,1.455.831.122,1.087-.911,1.407-1.5.278-.511.568-1.03.854-1.556,1.26-2.31,2.464-4.765,2.394-7.4a.389.389,0,0,0-.778,0c.061,2.266-.89,4.186-1.889,6.168q-.717,1.425-1.487,2.822c-.089.16-.481.685-.275.687-.569-.007-.493-1.347-.493-1.7a.355.355,0,0,0-.107-.263c1.356-2.71,2.776-5.173,2.907-8.374.021-.5-.758-.5-.778,0-.14,3.422-1.863,5.987-3.277,8.957-.545-.367-.5-1.451-.256-2.645.1-.493.232-1,.371-1.492.295-1.04.614-1.972.687-2.384a8.736,8.736,0,0,0-.219-2.7,30.345,30.345,0,0,1-.172-3.262.355.355,0,0,0-.3-.36.448.448,0,0,0-.068-.011.387.387,0,0,0-.334.145.225.225,0,0,0-.018.024.36.36,0,0,0-.061.2c0,.035,0,.07,0,.105q0,.547.023,1.1A22.489,22.489,0,0,0,1407.735,1422.272Z" transform="translate(-377.828 -144.823)" fill="#fba"/>
    <path id="Trazado_129868" data-name="Trazado 129868" d="M1262.6,1365.188a1.685,1.685,0,0,0-1.4-1.6,1.423,1.423,0,0,0-.268-.01,1.742,1.742,0,0,0,.231,3.452c.009,0,.017,0,.027,0A1.647,1.647,0,0,0,1262.6,1365.188Z" transform="translate(-318.195 -122.779)" fill="#ffd6ca"/>
    <path id="Trazado_129869" data-name="Trazado 129869" d="M1262.416,1375.969a1.67,1.67,0,0,0-1.369-1.71,1.443,1.443,0,0,0-.184-.02,1.741,1.741,0,0,0,0,3.462,1.357,1.357,0,0,0,.148-.017A1.664,1.664,0,0,0,1262.416,1375.969Z" transform="translate(-318.115 -127.101)" fill="#ffd6ca"/>
    <path id="Trazado_129870" data-name="Trazado 129870" d="M1262.4,1382a1.664,1.664,0,0,0-1.4-1.714,1.332,1.332,0,0,0-.155-.017,1.741,1.741,0,0,0,0,3.462c.04,0,.078-.01.118-.013A1.66,1.66,0,0,0,1262.4,1382Z" transform="translate(-318.11 -129.547)" fill="#ffd6ca"/>
    <path id="Trazado_129871" data-name="Trazado 129871" d="M1262.348,1388.154a1.608,1.608,0,0,0-1.233-1.717,1.071,1.071,0,0,0-.108-.014,1.787,1.787,0,0,0,0,3.461c.024,0,.048-.008.072-.01A1.6,1.6,0,0,0,1262.348,1388.154Z" transform="translate(-318.26 -132.04)" fill="#ffd6ca"/>
    <path id="Trazado_129872" data-name="Trazado 129872" d="M1336.958,1417.915c.671-5.685,3.091-26.962-5.071-31.029a3.73,3.73,0,0,1-2.115-3.031c-.023-.5-.032-.924-.033-1.285l-4.377-.7c.132,1.472.059,3.552-1.339,3.884-2.2.522-5.234.452-3.476,16.939s1.55,13.969,1.55,13.969S1332.761,1421.239,1336.958,1417.915Zm-13.835-8.429c-.3-.153-.838-16.2-.838-16.2l2.7.378s.155-3.042,3.068-2.957a4.742,4.742,0,0,1,4.026,2.876l2.859.293,1.2,17.257A21.138,21.138,0,0,1,1323.124,1409.486Z" transform="translate(-342.724 -130.195)" fill="#00e0b1"/>
    <path id="Trazado_129873" data-name="Trazado 129873" d="M1337.675,1417.152l-1.2-17.257-2.859-.293a4.742,4.742,0,0,0-4.026-2.876c-2.913-.086-3.068,2.957-3.068,2.957l-2.7-.378s.535,16.049.838,16.2A21.137,21.137,0,0,0,1337.675,1417.152Zm-7.409-17.482c3.04,5.356.369,7.747.369,7.747C1329.527,1406.7,1328.351,1402.926,1330.266,1399.67Zm.394,8.52c.071-1,1.658-2.955,4.745-3.665a5.31,5.31,0,0,1-4.707,3.989.755.755,0,0,1-.018-.076.506.506,0,0,1-.02.13,8.459,8.459,0,0,1-5.128-5.269C1328.656,1404.8,1330.435,1407.127,1330.66,1408.19Zm.043.849c0,.007.01.014.012.021s-2.268.585-5.256-1.648c2.562-.115,4.795.963,5.2,1.561.277-.509,2.48-1.057,5.146-.247A5.975,5.975,0,0,1,1330.7,1409.04Z" transform="translate(-344.267 -136.215)" fill="#fff"/>
    <path id="Trazado_129874" data-name="Trazado 129874" d="M1334.329,1409.425s2.671-2.39-.369-7.747C1332.046,1404.934,1333.221,1408.711,1334.329,1409.425Z" transform="translate(-347.962 -138.223)" fill="#00b78e"/>
    <path id="Trazado_129875" data-name="Trazado 129875" d="M1331.776,1416.254c-.409-.6-2.642-1.676-5.2-1.561,2.988,2.232,5.256,1.648,5.256,1.648s-.01-.014-.012-.021a5.974,5.974,0,0,0,5.107-.313C1334.256,1415.2,1332.052,1415.745,1331.776,1416.254Z" transform="translate(-345.38 -143.496)" fill="#00b78e"/>
    <path id="Trazado_129876" data-name="Trazado 129876" d="M1331.82,1413.05a.505.505,0,0,0,.02-.13.75.75,0,0,0,.018.075,5.309,5.309,0,0,0,4.707-3.989c-3.086.71-4.673,2.665-4.745,3.666-.225-1.063-2-3.395-5.129-4.891A8.459,8.459,0,0,0,1331.82,1413.05Z" transform="translate(-345.428 -140.697)" fill="#00b78e"/>
    <path id="Trazado_129877" data-name="Trazado 129877" d="M1333.119,1380.491l.318-3.019-6-.874.5,3.068.425.068,4.377.7Z" transform="translate(-345.732 -128.058)" fill="#4f3b51"/>
    <path id="Trazado_129878" data-name="Trazado 129878" d="M1309.023,1347.394a14.447,14.447,0,0,0-1.83-.935,16.931,16.931,0,0,0-2-.7l.224,8.019a11.821,11.821,0,0,0,3.955-.531q2.537-.847,2.327-2.687Q1311.506,1348.876,1309.023,1347.394Zm-.129,4.628a5.845,5.845,0,0,1-2.059.246l-.1-4.377a8.642,8.642,0,0,1,1.976.915,2.52,2.52,0,0,1,1.323,1.729Q1310.15,1351.592,1308.894,1352.022Z" transform="translate(-336.713 -115.555)" fill="#00e0b1"/>
    <path id="Trazado_129879" data-name="Trazado 129879" d="M1321.309,1352.734l-3.717.216-.311-1.6,2.577-.1-.29-1.461-2.174.1-.376-1.708,3.456-.2-.322-1.693-5.061.288,1.533,8,4.963-.276Z" transform="translate(-340.726 -115.775)" fill="#00e0b1"/>
    <path id="Trazado_129880" data-name="Trazado 129880" d="M1325.5,1350.456a2.333,2.333,0,0,0,1.485,1.156,14.611,14.611,0,0,0,1.855.272,1.91,1.91,0,0,1,1.276.448.873.873,0,0,1,.2.436q.074.647-.816.864a6.121,6.121,0,0,1-1.354.142q-1.064.024-1.381,0-.188-.011-.477-.047l.344,1.576a11.881,11.881,0,0,0,3.319-.329q2.251-.6,2.088-2.024a2.483,2.483,0,0,0-.267-.865,2.209,2.209,0,0,0-1.487-1.074q-.187-.053-1.877-.255a1.949,1.949,0,0,1-1.339-.541,1,1,0,0,1-.212-.479q-.07-.61,1.583-.787a15.3,15.3,0,0,1,2.141-.029l-.137-1.811a12.078,12.078,0,0,0-3.234.41q-2.139.613-1.977,2.03A2.677,2.677,0,0,0,1325.5,1350.456Z" transform="translate(-344.829 -116.107)" fill="#00e0b1"/>
    <path id="Trazado_129881" data-name="Trazado 129881" d="M1337.363,1355.517l1.6.268-.513-8-1.649-.247Z" transform="translate(-349.525 -116.28)" fill="#00e0b1"/>
    <path id="Trazado_129882" data-name="Trazado 129882" d="M1343.744,1354.769a16.974,16.974,0,0,0,1.918,1.017,18.043,18.043,0,0,0,2.083.786l-.026-4.3-2.63-.525.142,1.287,1.084.255-.006,1.166a10.34,10.34,0,0,1-2.236-1,2.757,2.757,0,0,1-1.542-1.861q-.2-1.72,2.738-1.542a11.072,11.072,0,0,1,2.137.342l0-1.862a12.942,12.942,0,0,0-4.086.306q-2.609.684-2.385,2.642Q1341.125,1353.172,1343.744,1354.769Z" transform="translate(-351.193 -116.666)" fill="#00e0b1"/>
    <path id="Trazado_129883" data-name="Trazado 129883" d="M1353.473,1356.81l1.664.125-.959-5.931,3.123,5.951,1.788-.062-1.531-7.934-1.786-.12,1.061,5.5-2.762-5.446-1.9-.062Z" transform="translate(-355.755 -116.803)" fill="#00e0b1"/>
    <path id="Trazado_129884" data-name="Trazado 129884" d="M1374.651,1381.31v-1.291s-18.135-1.111-19.1-.94-4.057,7.8-4.333,7.839l1.495.507,3.695-6.867Z" transform="translate(-355.369 -129.056)" fill="#00e0b1"/>
    <path id="Trazado_129885" data-name="Trazado 129885" d="M1281.96,1386.859V1388l16.585,2.288,1.8,5.623,1.623-.351-2.519-6.471Z" transform="translate(-327.296 -132.217)" fill="#00e0b1"/>
    <path id="Trazado_129886" data-name="Trazado 129886" d="M1358.542,1419.544l-3.356,4.445,1.159,1.049,2.812-3.824,19.1.92v-1.8Z" transform="translate(-356.978 -145.465)" fill="#00e0b1"/>
  </g>
</svg>
