<svg xmlns="http://www.w3.org/2000/svg" width="150.999" height="128" viewBox="0 0 150.999 128">
  <g id="Grupo_57604" data-name="Grupo 57604" transform="translate(-568 -2903.112)">
    <g id="Uni칩n_9" data-name="Uni칩n 9" transform="translate(11502.999 14753.524) rotate(180)" fill="none">
      <path d="M10808.572,11800.567l-24.572-14.156,24.572-14.156a64,64,0,1,1,0,28.313Z" stroke="none"/>
      <path d="M 10871 11848.412109375 C 10879.37109375 11848.412109375 10887.490234375 11846.7734375 10895.1328125 11843.541015625 C 10898.8056640625 11841.9873046875 10902.3486328125 11840.0634765625 10905.6630859375 11837.82421875 C 10908.9462890625 11835.6064453125 10912.0341796875 11833.05859375 10914.83984375 11830.2529296875 C 10917.646484375 11827.4462890625 10920.193359375 11824.3583984375 10922.412109375 11821.0751953125 C 10924.6513671875 11817.7607421875 10926.57421875 11814.2177734375 10928.1279296875 11810.5439453125 C 10931.3603515625 11802.9013671875 10932.9990234375 11794.7822265625 10932.9990234375 11786.4111328125 C 10932.9990234375 11778.041015625 10931.3603515625 11769.921875 10928.1279296875 11762.279296875 C 10926.57421875 11758.6064453125 10924.6513671875 11755.0634765625 10922.412109375 11751.7490234375 C 10920.193359375 11748.4658203125 10917.646484375 11745.3779296875 10914.83984375 11742.572265625 C 10912.0341796875 11739.765625 10908.9462890625 11737.2177734375 10905.6630859375 11735 C 10902.3486328125 11732.7607421875 10898.8056640625 11730.837890625 10895.1328125 11729.2841796875 C 10887.490234375 11726.05078125 10879.37109375 11724.412109375 10871 11724.412109375 C 10863.7763671875 11724.412109375 10856.701171875 11725.642578125 10849.970703125 11728.0693359375 C 10843.4658203125 11730.4140625 10837.4296875 11733.8193359375 10832.0302734375 11738.1884765625 C 10826.6767578125 11742.5205078125 10822.1083984375 11747.669921875 10818.4521484375 11753.4931640625 C 10814.728515625 11759.423828125 10812.0615234375 11765.884765625 10810.5234375 11772.6953125 L 10810.330078125 11773.55078125 L 10809.5703125 11773.98828125 L 10788.0068359375 11786.4111328125 L 10810.330078125 11799.271484375 L 10810.5234375 11800.126953125 C 10812.0615234375 11806.9384765625 10814.7294921875 11813.3994140625 10818.4521484375 11819.330078125 C 10822.1083984375 11825.154296875 10826.6767578125 11830.3037109375 10832.0302734375 11834.6357421875 C 10837.4296875 11839.005859375 10843.4658203125 11842.41015625 10849.970703125 11844.7548828125 C 10856.701171875 11847.181640625 10863.7763671875 11848.412109375 10871 11848.412109375 M 10871 11850.412109375 C 10840.5185546875 11850.412109375 10815.015625 11829.1025390625 10808.572265625 11800.5673828125 L 10784 11786.4111328125 L 10808.572265625 11772.2548828125 C 10815.015625 11743.72265625 10840.5185546875 11722.412109375 10871 11722.412109375 C 10906.3466796875 11722.412109375 10934.9990234375 11751.0673828125 10934.9990234375 11786.4111328125 C 10934.9990234375 11821.7578125 10906.3466796875 11850.412109375 10871 11850.412109375 Z" stroke="none" fill="#7d70b0"/>
    </g>
    <g id="_054-like-2" data-name="054-like-2" transform="translate(574.66 2918.12)">
      <rect id="Rect치ngulo_30772" data-name="Rect치ngulo 30772" width="5.141" height="49.11" transform="translate(16.933 28.499)" fill="#d4e1f4"/>
      <path id="Trazado_129991" data-name="Trazado 129991" d="M35.337,75H30.2A7.2,7.2,0,0,0,23,82.2v1.268h5.141V82.2a7.2,7.2,0,0,1,7.2-7.2Z" transform="translate(-6.067 -57.022)" fill="#d4e1f4"/>
      <path id="Trazado_129992" data-name="Trazado 129992" d="M28.141,436.6V433H23v3.6a7.2,7.2,0,0,0,7.2,7.2h5.141A7.2,7.2,0,0,1,28.141,436.6Z" transform="translate(-6.067 -353.678)" fill="#d4e1f4"/>
      <path id="Trazado_129993" data-name="Trazado 129993" d="M50.977,63.812H23.56a7.891,7.891,0,0,0-7.882,7.882v59.974a7.891,7.891,0,0,0,7.882,7.882H50.977a7.891,7.891,0,0,0,7.882-7.882V111.106H56.8v14.051H17.734V76.149H45.665a1.028,1.028,0,0,0,0-2.056H17.734v-2.4a5.833,5.833,0,0,1,5.826-5.826H50.977A5.833,5.833,0,0,1,56.8,71.694v2.4H54.4a1.028,1.028,0,1,0,0,2.056h2.4V93.086h2.056V71.694a7.891,7.891,0,0,0-7.882-7.882Zm5.826,63.4v4.455a5.832,5.832,0,0,1-5.826,5.826H23.56a5.832,5.832,0,0,1-5.826-5.826v-4.455Z" transform="translate(0 -47.752)" fill="#7d6eb2"/>
      <path id="Trazado_129994" data-name="Trazado 129994" d="M208.334,124.84a1.028,1.028,0,0,0-1.028-1.028h-1.9a1.028,1.028,0,0,0,0,2.056h1.9a1.028,1.028,0,0,0,1.028-1.028Z" transform="translate(-156.361 -97.47)" fill="#7d6eb2"/>
      <path id="Trazado_129995" data-name="Trazado 129995" d="M124.276,450.009a3.6,3.6,0,1,0-3.6-3.6A3.6,3.6,0,0,0,124.276,450.009Zm0-5.141a1.542,1.542,0,1,1-1.542,1.542A1.542,1.542,0,0,1,124.276,444.868Z" transform="translate(-87.008 -361.808)" fill="#7d6eb2"/>
      <path id="Trazado_129996" data-name="Trazado 129996" d="M41.106,176.368h5.757a1.028,1.028,0,1,0,0-2.056H41.106a1.028,1.028,0,1,0,0,2.056Z" transform="translate(-20.219 -139.317)" fill="#7d6eb2"/>
      <path id="Trazado_129997" data-name="Trazado 129997" d="M106.007,174.312h-3.7a1.028,1.028,0,1,0,0,2.056h3.7a1.028,1.028,0,1,0,0-2.056Z" transform="translate(-70.932 -139.317)" fill="#7d6eb2"/>
      <path id="Trazado_129998" data-name="Trazado 129998" d="M165.149,176.368a1.028,1.028,0,1,0,0-2.056h-6.443a1.028,1.028,0,1,0,0,2.056Z" transform="translate(-117.668 -139.317)" fill="#7d6eb2"/>
      <path id="Trazado_129999" data-name="Trazado 129999" d="M41.106,232.368h9.87a1.028,1.028,0,1,0,0-2.056h-9.87a1.028,1.028,0,1,0,0,2.056Z" transform="translate(-20.219 -185.721)" fill="#7d6eb2"/>
      <path id="Trazado_130000" data-name="Trazado 130000" d="M129.665,230.312h-3.359a1.028,1.028,0,1,0,0,2.056h3.359a1.028,1.028,0,0,0,0-2.056Z" transform="translate(-90.82 -185.721)" fill="#7d6eb2"/>
      <path id="Trazado_130001" data-name="Trazado 130001" d="M41.106,288.368h2.467a1.028,1.028,0,1,0,0-2.056H41.106a1.028,1.028,0,1,0,0,2.056Z" transform="translate(-20.219 -232.125)" fill="#7d6eb2"/>
      <path id="Trazado_130002" data-name="Trazado 130002" d="M91.434,287.34a1.028,1.028,0,0,0-1.028-1.028h-7.3a1.028,1.028,0,0,0,0,2.056h7.3A1.028,1.028,0,0,0,91.434,287.34Z" transform="translate(-55.022 -232.125)" fill="#7d6eb2"/>
      <path id="Trazado_130003" data-name="Trazado 130003" d="M53.17,343.34a1.028,1.028,0,0,0-1.028-1.028H41.107a1.028,1.028,0,0,0,0,2.056H52.142A1.028,1.028,0,0,0,53.17,343.34Z" transform="translate(-20.22 -278.53)" fill="#7d6eb2"/>
      <path id="Trazado_130004" data-name="Trazado 130004" d="M135.094,342.312h-1.988a1.028,1.028,0,1,0,0,2.056h1.988a1.028,1.028,0,0,0,0-2.056Z" transform="translate(-96.454 -278.53)" fill="#7d6eb2"/>
      <path id="Trazado_130005" data-name="Trazado 130005" d="M41.106,384.312a1.028,1.028,0,1,0,0,2.056h9.322a1.028,1.028,0,1,0,0-2.056Z" transform="translate(-20.219 -313.333)" fill="#7d6eb2"/>
      <path id="Trazado_130006" data-name="Trazado 130006" d="M123.106,386.368h13.982a1.028,1.028,0,0,0,0-2.056H123.106a1.028,1.028,0,1,0,0,2.056Z" transform="translate(-88.168 -313.333)" fill="#7d6eb2"/>
      <path id="Trazado_130007" data-name="Trazado 130007" d="M213.931,161.131a3.459,3.459,0,0,0-3.455-3.455H199.521a.973.973,0,0,1-.969-.869,8.917,8.917,0,0,1,.514-4.084,13,13,0,0,0,.833-4.589v-.889a5.406,5.406,0,0,0-5.4-5.4,1.028,1.028,0,0,0-1.016.873l-.492,3.21a21.012,21.012,0,0,1-3.7,9.051,5.418,5.418,0,0,1-4.371,2.228h-1.3v-2.377A1.028,1.028,0,0,0,182.6,153.8h-9.285a1.028,1.028,0,0,0-1.028,1.028v23.759a1.028,1.028,0,0,0,1.028,1.028H182.6a1.028,1.028,0,0,0,1.028-1.028V176.6h1.114a13.419,13.419,0,0,1,7.082,2.019c2.5,1.551,5.286,1.679,8.16,1.679h9.142a3.608,3.608,0,0,0,2.98-5.647,3.612,3.612,0,0,0,.7-5.757,3.7,3.7,0,0,0,.045-5.262,3.442,3.442,0,0,0,1.08-2.5Zm-32.36,16.429h-7.229v-21.7h7.229Zm28.738-7.613a1.566,1.566,0,0,1,0,3.132h-5.267a1.028,1.028,0,1,0,0,2.056h4.084a1.555,1.555,0,1,1,0,3.11h-9.142c-2.565,0-5.037-.105-7.079-1.372a15.471,15.471,0,0,0-8.163-2.326h-1.114V159.263h1.3a7.481,7.481,0,0,0,6.037-3.079,23.082,23.082,0,0,0,4.064-9.944l.341-2.225a3.35,3.35,0,0,1,2.479,3.23v.889a10.954,10.954,0,0,1-.7,3.865,10.983,10.983,0,0,0-.634,5.03,3.026,3.026,0,0,0,3.013,2.7h10.956a1.4,1.4,0,1,1,0,2.8h-2.234a1.036,1.036,0,0,0-.147.012h-1.439a1.028,1.028,0,0,0,0,2.056h3.573a1.647,1.647,0,1,1,0,3.293h-3.573a1.028,1.028,0,1,0,0,2.056h3.654Z" transform="translate(-129.773 -112.413)" fill="#26aab7"/>
      <path id="Trazado_130008" data-name="Trazado 130008" d="M371.712,110.743a5.782,5.782,0,0,0-5.666-5,7.622,7.622,0,0,0-3.943,1.233,7.428,7.428,0,0,0-3.985-1.276c-2.848,0-5.065,1.985-5.647,5.055-.8,4.172,1.661,9.679,8.964,12.577l.062.022a1.739,1.739,0,0,0,1.191,0c.023-.008.046-.016.069-.026,7.3-2.957,9.757-8.448,8.956-12.576A.029.029,0,0,0,371.712,110.743Zm-9.622,10.266c-5.852-2.409-7.869-6.642-7.262-9.805a3.4,3.4,0,0,1,3.29-3.106,5.646,5.646,0,0,1,3.257,1.287,1.2,1.2,0,0,0,1.422.009,5.81,5.81,0,0,1,3.249-1.254,3.43,3.43,0,0,1,3.313,3.072C369.963,114.335,367.943,118.551,362.091,121.009Z" transform="translate(-278.963 -82.461)" fill="#26aab7"/>
      <path id="Trazado_130009" data-name="Trazado 130009" d="M418.309,10.414a4.857,4.857,0,0,0-4.768-4.194,6.261,6.261,0,0,0-3.151.945,6.105,6.105,0,0,0-3.19-.979,4.83,4.83,0,0,0-4.753,4.239c-.659,3.435,1.349,7.961,7.319,10.33l.062.023a1.634,1.634,0,0,0,1.1,0l.07-.026a12.813,12.813,0,0,0,6.064-4.668,7.712,7.712,0,0,0,1.246-5.661Zm-7.934,8c-4.485-1.882-6.037-5.121-5.574-7.54a2.468,2.468,0,0,1,2.4-2.29,4.285,4.285,0,0,1,2.463.982,1.2,1.2,0,0,0,1.422.009,4.416,4.416,0,0,1,2.458-.957,2.517,2.517,0,0,1,2.416,2.265C416.418,13.27,414.863,16.494,410.376,18.414Z" transform="translate(-320.395 0)" fill="#26aab7"/>
    </g>
  </g>
</svg>
