<svg xmlns="http://www.w3.org/2000/svg" width="150.999" height="128" viewBox="0 0 150.999 128"><g transform="translate(-583.688 -3768.479)"><path d="M10808.572,11800.567l-24.572-14.156,24.572-14.156a64,64,0,1,1,0,28.313Z" transform="translate(11518.688 15618.891) rotate(180)" fill="#26aab7"/><g transform="translate(603.695 3786.485)"><path d="M18.248,74.616h3.959a1.4,1.4,0,0,0,.99-.41L38.047,59.358a4.207,4.207,0,0,0,0-5.939A4.149,4.149,0,0,0,35.3,52.25a4.066,4.066,0,0,0-3.959-3.961,4.17,4.17,0,0,0-1.211-2.79,3.948,3.948,0,0,0-1.185-.8l7.124-7.124a4.2,4.2,0,0,0,0-5.939,4.3,4.3,0,0,0-5.94,0L17.606,44.162,9.184,45.1a1.4,1.4,0,0,0-.835.4L2.41,51.438a1.4,1.4,0,0,0-.41.99v5.94a1.4,1.4,0,0,0,.41.99L17.258,74.205a1.4,1.4,0,0,0,.99.41ZM4.8,53.008l5.181-5.181,4.455-.495-3.117,3.117,1.98,1.98L32.106,33.621a1.436,1.436,0,0,1,1.98,0,1.4,1.4,0,0,1,0,1.98L19.237,50.448l1.98,1.98,4.952-4.949a1.431,1.431,0,0,1,1.978,0,1.4,1.4,0,0,1,0,1.98L23.2,54.409l1.98,1.98,4.949-4.95a1.434,1.434,0,0,1,1.98,0,1.4,1.4,0,0,1,0,1.981l-4.949,4.949,1.98,1.98L34.085,55.4a1.4,1.4,0,1,1,1.981,1.98L21.627,71.816h-2.8L4.8,57.788Z" transform="translate(0 11.378)" fill="#fff"/><path d="M40,45.4a4.2,4.2,0,0,0,4.2-4.2V23.49l5.293-6.617A1.4,1.4,0,0,0,49.8,16V7.6a1.4,1.4,0,0,0-.41-.99l-4.2-4.2A1.4,1.4,0,0,0,44.2,2h-21a1.4,1.4,0,0,0-.99.41l-2.8,2.8A1.4,1.4,0,0,0,19,6.2v21a4.181,4.181,0,0,0,7,3.107,4.134,4.134,0,0,0,5.6,0,4.068,4.068,0,0,0,4.2.834V41.2A4.2,4.2,0,0,0,40,45.4ZM34.4,28.6A1.4,1.4,0,0,1,33,27.2v-7H30.2v7a1.4,1.4,0,1,1-2.8,0v-7H24.6v7a1.4,1.4,0,0,1-2.8,0V6.779l1.98-1.98H43.618L47,8.179v7.329l-2.8,3.5V14.6H41.4V41.2a1.4,1.4,0,1,1-2.8,0v-21H35.8v7A1.4,1.4,0,0,1,34.4,28.6Z" transform="translate(6.798 0)" fill="#fff"/><path d="M59.369,36.6a4.206,4.206,0,0,0-5.939,0,4.162,4.162,0,0,0-1.209,2.753,4.134,4.134,0,0,0-3.96,3.959,4.085,4.085,0,0,0-3.56,2.378l-7.109-7.109a4.2,4.2,0,1,0-5.939,5.939L44.174,57.042l.936,8.422a1.4,1.4,0,0,0,.4.835l5.939,5.939a1.4,1.4,0,0,0,.99.41h5.94a1.4,1.4,0,0,0,.99-.41L74.217,57.39a1.4,1.4,0,0,0,.41-.99V52.441a1.4,1.4,0,0,0-.41-.99ZM71.827,55.82,57.8,69.848H53.019l-5.181-5.181-.495-4.455,3.117,3.117,1.98-1.98L33.633,42.542a1.4,1.4,0,1,1,1.98-1.98L50.46,55.41l1.98-1.98-4.949-4.952a1.4,1.4,0,0,1,0-1.978,1.436,1.436,0,0,1,1.98,0l4.95,4.949,1.98-1.98-4.95-4.949a1.4,1.4,0,1,1,1.981-1.98l4.949,4.949,1.98-1.98L55.41,40.562a1.4,1.4,0,0,1,1.98-1.981L71.827,53.02Z" transform="translate(11.366 13.346)" fill="#fff"/><path d="M10.3,20.27l2.431,1.392c.428-.746.894-1.489,1.385-2.2L11.8,17.872c-.535.778-1.042,1.586-1.508,2.4Z" transform="translate(3.317 6.347)" fill="#fff"/><path d="M7.015,31.951l2.8.093c.029-.867.093-1.74.191-2.6l-2.781-.32C7.114,30.06,7.045,31.009,7.015,31.951Z" transform="translate(2.005 10.848)" fill="#fff"/><path d="M7.474,27.918l2.748.541c.167-.85.372-1.7.607-2.53l-2.693-.766C7.88,26.065,7.657,26.992,7.474,27.918Z" transform="translate(2.189 9.263)" fill="#fff"/><path d="M17.559,12.049c-.748.565-1.485,1.169-2.189,1.8l1.865,2.089c.647-.578,1.323-1.133,2.011-1.653Z" transform="translate(5.347 4.018)" fill="#fff"/><path d="M10.915,39.282c-.247-.83-.462-1.679-.64-2.522l-2.74.574c.193.92.427,1.844.7,2.746Z" transform="translate(2.213 13.9)" fill="#fff"/><path d="M7.027,33.2c.042.942.124,1.891.242,2.82l2.778-.353c-.109-.856-.185-1.728-.223-2.593Z" transform="translate(2.01 12.426)" fill="#fff"/><path d="M8.577,23.987l2.622.982c.3-.805.641-1.613,1.012-2.4L9.676,21.379C9.274,22.233,8.905,23.112,8.577,23.987Z" transform="translate(2.63 7.749)" fill="#fff"/><path d="M16.476,16.672l-2.023-1.936c-.649.679-1.28,1.394-1.872,2.124l2.174,1.764c.545-.671,1.124-1.329,1.721-1.952Z" transform="translate(4.231 5.093)" fill="#fff"/><path d="M39.3,54.039c-.805.241-1.635.454-2.468.633l.588,2.737c.9-.194,1.807-.425,2.684-.688Z" transform="translate(13.93 20.81)" fill="#fff"/><path d="M35.768,54.8c-.837.109-1.691.189-2.539.234l.15,2.8c.919-.051,1.846-.135,2.755-.256Z" transform="translate(12.488 21.114)" fill="#fff"/><path d="M25.5,56.917c.891.239,1.8.446,2.7.612l.511-2.753c-.828-.153-1.665-.343-2.487-.563Z" transform="translate(9.397 20.879)" fill="#fff"/><path d="M32.149,57.838l.068-2.8c-.848-.021-1.7-.075-2.541-.163l-.293,2.783C30.3,57.755,31.228,57.815,32.149,57.838Z" transform="translate(10.95 21.144)" fill="#fff"/><path d="M54.224,38.671l2.7.722c.242-.908.45-1.835.617-2.753l-2.753-.5C54.636,36.984,54.445,37.835,54.224,38.671Z" transform="translate(20.884 13.652)" fill="#fff"/><path d="M43.507,9.618l-1.252,2.5c.774.387,1.538.808,2.273,1.252l1.449-2.4C45.178,10.5,44.346,10.038,43.507,9.618Z" transform="translate(16.097 3.046)" fill="#fff"/><path d="M53.961,25.38c.254.815.481,1.658.671,2.5l2.731-.615c-.208-.92-.454-1.837-.731-2.726Z" transform="translate(20.778 9.015)" fill="#fff"/><path d="M54.773,28.866c.12.845.208,1.713.26,2.581l2.794-.17c-.056-.941-.152-1.885-.282-2.805Z" transform="translate(21.103 10.586)" fill="#fff"/><path d="M57.838,32.507l-2.8-.055c-.016.864-.068,1.736-.152,2.593l2.786.273c.092-.93.146-1.876.165-2.812Z" transform="translate(21.149 12.177)" fill="#fff"/><path d="M49.283,13.439c-.711-.6-1.459-1.189-2.221-1.739l-1.635,2.272c.7.506,1.389,1.043,2.041,1.6Z" transform="translate(17.366 3.879)" fill="#fff"/><path d="M48.25,16.29c.612.611,1.2,1.252,1.762,1.9l2.13-1.815c-.606-.711-1.25-1.407-1.915-2.071Z" transform="translate(18.495 4.922)" fill="#fff"/><path d="M52.575,22.067c.384.767.744,1.563,1.068,2.362l2.595-1.047c-.351-.871-.741-1.736-1.161-2.57Z" transform="translate(20.224 7.522)" fill="#fff"/><path d="M50.653,19.011c.5.7.987,1.424,1.435,2.163l2.392-1.455c-.487-.8-1.012-1.591-1.558-2.349Z" transform="translate(19.456 6.146)" fill="#fff"/></g></g></svg>