<svg xmlns="http://www.w3.org/2000/svg" width="150.999" height="128" viewBox="0 0 150.999 128"><g transform="translate(-583.688 -4121.479)"><path d="M10808.572,11800.567l-24.572-14.156,24.572-14.156a64,64,0,1,1,0,28.313Z" transform="translate(11518.688 15971.891) rotate(180)" fill="#26aab7"/><path d="M55,21V3a1,1,0,0,0-1-1H3A1,1,0,0,0,2,3V61a1,1,0,0,0,1,1H54a1,1,0,0,0,1-1V42h7V40H55V32h2V30H51a3.013,3.013,0,0,1-2.118-.872A3.068,3.068,0,0,1,48.172,28H62V26H55Zm-2-1H44.873a4,4,0,1,0-7.746,0H29V4H53ZM26,36a3.982,3.982,0,0,0,1-.127V42H17.82a1,1,0,0,0-.933,1.361A1.79,1.79,0,0,1,17,44a2,2,0,0,1-4,0,1.79,1.79,0,0,1,.112-.639A1,1,0,0,0,12.18,42H4V22h8.77a1,1,0,0,0,.742-1.671A1.976,1.976,0,0,1,13,19a2,2,0,0,1,4,0,1.976,1.976,0,0,1-.512,1.329A1,1,0,0,0,17.23,22H27v6.127A4,4,0,1,0,26,36ZM27,4V20H18.873a4,4,0,1,0-7.746,0H4V4ZM4,44h7a4,4,0,0,0,8,0h8V60H4ZM29,60V44h8.127a4,4,0,1,0,7.746,0H53V60ZM53,26H47a1,1,0,0,0-1,1,4.995,4.995,0,0,0,5,5h2V42H43.23a1,1,0,0,0-.742,1.671A1.976,1.976,0,0,1,43,45a2,2,0,0,1-4,0,1.976,1.976,0,0,1,.512-1.329A1,1,0,0,0,38.77,42H29V34.23a1,1,0,0,0-1.671-.742A1.976,1.976,0,0,1,26,34a2,2,0,0,1,0-4,1.976,1.976,0,0,1,1.329.512A1,1,0,0,0,29,29.77V22h9.77a1,1,0,0,0,.742-1.671A1.976,1.976,0,0,1,39,19a2,2,0,1,1,4,0,1.976,1.976,0,0,1-.512,1.329A1,1,0,0,0,43.23,22H53Z" transform="translate(615.688 4153.479)" fill="#fff"/></g></svg>