<svg xmlns="http://www.w3.org/2000/svg" xmlns:xlink="http://www.w3.org/1999/xlink" width="532.904" height="376.438" viewBox="0 0 532.904 376.438">
  <defs>
    <linearGradient id="linear-gradient" y1="0.5" x2="1" y2="0.5" gradientUnits="objectBoundingBox">
      <stop offset="0" stop-color="#d1e2ff"/>
      <stop offset="1" stop-color="#ecf3ff"/>
    </linearGradient>
    <linearGradient id="linear-gradient-7" x1="-0.025" y1="1.649" x2="0.895" y2="-0.016" gradientUnits="objectBoundingBox">
      <stop offset="0" stop-color="#d0471e"/>
      <stop offset="0.22" stop-color="#d95e12"/>
      <stop offset="0.488" stop-color="#e17308"/>
      <stop offset="0.751" stop-color="#e67f02"/>
      <stop offset="1" stop-color="#e88400"/>
    </linearGradient>
    <linearGradient id="linear-gradient-8" x1="0.635" y1="0.059" x2="0.006" y2="0.964" gradientUnits="objectBoundingBox">
      <stop offset="0" stop-color="#eec9c8"/>
      <stop offset="0.25" stop-color="#edc3c2"/>
      <stop offset="0.57" stop-color="#ebb3b2"/>
      <stop offset="0.926" stop-color="#e89a98"/>
      <stop offset="1" stop-color="#e89492"/>
    </linearGradient>
    <linearGradient id="linear-gradient-9" x1="-143.086" y1="3.373" x2="-143.086" y2="4.062" gradientUnits="objectBoundingBox">
      <stop offset="0" stop-color="#e85f5a"/>
      <stop offset="1" stop-color="#eec9c8"/>
    </linearGradient>
    <linearGradient id="linear-gradient-10" x1="-95.985" y1="3.854" x2="-96.946" y2="3.802" gradientUnits="objectBoundingBox">
      <stop offset="0" stop-color="#e89492"/>
      <stop offset="0.074" stop-color="#e89a98"/>
      <stop offset="0.43" stop-color="#ebb3b2"/>
      <stop offset="0.75" stop-color="#edc3c2"/>
      <stop offset="1" stop-color="#eec9c8"/>
    </linearGradient>
    <linearGradient id="linear-gradient-11" x1="-2.789" y1="14.048" x2="-1.841" y2="12.896" gradientUnits="objectBoundingBox">
      <stop offset="0" stop-color="#fa902f"/>
      <stop offset="0.168" stop-color="#f7a02f"/>
      <stop offset="0.455" stop-color="#f3b530"/>
      <stop offset="0.735" stop-color="#f0c130"/>
      <stop offset="1" stop-color="#f0c631"/>
    </linearGradient>
    <linearGradient id="linear-gradient-12" x1="-0.024" y1="1.649" x2="0.895" y2="-0.016" xlink:href="#linear-gradient-7"/>
    <linearGradient id="linear-gradient-13" x1="-0.212" y1="0.838" x2="1.126" y2="0.247" xlink:href="#linear-gradient-11"/>
    <linearGradient id="linear-gradient-16" x1="-435.105" y1="0.516" x2="-435.968" y2="0.489" xlink:href="#linear-gradient-9"/>
    <linearGradient id="linear-gradient-17" x1="-0.134" y1="-0.314" x2="0.627" y2="0.502" xlink:href="#linear-gradient-8"/>
    <linearGradient id="linear-gradient-18" x1="0.607" y1="0.704" x2="0.782" y2="1.098" xlink:href="#linear-gradient-10"/>
    <linearGradient id="linear-gradient-19" x1="0.376" y1="0.495" x2="1.328" y2="0.51" gradientUnits="objectBoundingBox">
      <stop offset="0" stop-color="#172b36"/>
      <stop offset="1" stop-color="#325d75"/>
    </linearGradient>
    <linearGradient id="linear-gradient-20" x1="0.483" y1="0.263" x2="0.541" y2="1.092" xlink:href="#linear-gradient-10"/>
    <linearGradient id="linear-gradient-21" x1="4.842" y1="-11.651" x2="3.902" y2="-11.702" xlink:href="#linear-gradient-10"/>
    <linearGradient id="linear-gradient-22" y1="0.5" x2="1" y2="0.5" gradientUnits="objectBoundingBox">
      <stop offset="0" stop-color="#fff5dc"/>
      <stop offset="0.342" stop-color="#fff6df"/>
      <stop offset="0.672" stop-color="#fff9eb"/>
      <stop offset="0.996" stop-color="#fffefe"/>
      <stop offset="1" stop-color="#fff"/>
    </linearGradient>
    <linearGradient id="linear-gradient-23" x1="0.566" y1="0.689" x2="0.711" y2="1.063" xlink:href="#linear-gradient-10"/>
    <linearGradient id="linear-gradient-24" x1="0.388" y1="0.492" x2="1.335" y2="0.516" xlink:href="#linear-gradient-19"/>
    <linearGradient id="linear-gradient-25" x1="0.628" y1="0.508" x2="-0.423" y2="0.457" xlink:href="#linear-gradient-10"/>
  </defs>
  <g id="Grupo_56939" data-name="Grupo 56939" transform="translate(-1761.23 -729.283)">
    <path id="Trazado_130022" data-name="Trazado 130022" d="M1844.718,803.7l3.7-6.41,3.7,6.41Z" transform="translate(-6.381 -5.198)" fill="#f7d578"/>
    <path id="Trazado_130023" data-name="Trazado 130023" d="M2266.486,789.917l3.7-6.411,3.7,6.411Z" transform="translate(-38.618 -4.144)" fill="#f7d578"/>
    <path id="Trazado_130024" data-name="Trazado 130024" d="M1873.8,817.161l-3.7,6.41-3.7-6.41Z" transform="translate(-8.039 -6.717)" fill="#7dccd4"/>
    <path id="Trazado_130025" data-name="Trazado 130025" d="M1871.693,788.807l-6.41-3.7,6.41-3.7Z" transform="translate(-7.953 -3.984)" fill="#c1507f"/>
    <path id="Trazado_130026" data-name="Trazado 130026" d="M2274.3,809.607l3.7-6.411,3.7,6.411Z" transform="translate(-39.216 -5.649)" fill="#7dccd4"/>
    <path id="Trazado_130027" data-name="Trazado 130027" d="M2300.84,774.359l6.41,3.7-6.41,3.7Z" transform="translate(-41.244 -3.445)" fill="#7dccd4"/>
    <g id="Grupo_56881" data-name="Grupo 56881" transform="translate(2233.286 812.259)">
      <g id="Grupo_56875" data-name="Grupo 56875" transform="translate(17.841 3.823)">
        <path id="Trazado_130028" data-name="Trazado 130028" d="M2304.876,845.853a.458.458,0,0,1-.172-.033l-12.743-5.1a.461.461,0,0,1-.29-.428V823.727a.461.461,0,0,1,.594-.442l12.611,3.784,12.611-3.784a.463.463,0,0,1,.595.442v16.567a.461.461,0,0,1-.292.428l-12.743,5.1A.453.453,0,0,1,2304.876,845.853Zm-12.281-5.872,12.281,4.912,12.281-4.912V824.347l-12.149,3.645a.461.461,0,0,1-.265,0l-12.149-3.645Z" transform="translate(-2291.671 -823.265)" fill="#b3cdfa"/>
      </g>
      <g id="Grupo_56876" data-name="Grupo 56876" transform="translate(17.841)">
        <path id="Trazado_130029" data-name="Trazado 130029" d="M2317.62,823.872a.478.478,0,0,1-.133-.019l-12.61-3.783-12.611,3.783a.462.462,0,0,1-.265-.885l12.743-3.823a.465.465,0,0,1,.265,0l12.743,3.823a.462.462,0,0,1-.132.9Z" transform="translate(-2291.67 -819.126)" fill="#b3cdfa"/>
      </g>
      <path id="Trazado_130030" data-name="Trazado 130030" d="M2305.969,845.335V827.494l12.743-3.729v16.567Z" transform="translate(-2274.923 -819.481)" fill="#b3cdfa"/>
      <g id="Grupo_56877" data-name="Grupo 56877" transform="translate(35.682 30.584)">
        <path id="Trazado_130031" data-name="Trazado 130031" d="M2321.644,869.732a.461.461,0,0,1-.206-.049l-10.195-5.1a.463.463,0,0,1-.256-.413V852.7a.461.461,0,0,1,.624-.432l10.032,3.762,10.033-3.762a.461.461,0,0,1,.624.432v11.469a.462.462,0,0,1-.255.413l-10.195,5.1A.461.461,0,0,1,2321.644,869.732Zm-9.732-5.845,9.732,4.867,9.733-4.867V853.37l-9.57,3.589a.466.466,0,0,1-.324,0l-9.571-3.589Z" transform="translate(-2310.988 -852.241)" fill="#b3cdfa"/>
      </g>
      <g id="Grupo_56878" data-name="Grupo 56878" transform="translate(35.682 26.761)">
        <path id="Trazado_130032" data-name="Trazado 130032" d="M2331.839,852.848a.452.452,0,0,1-.162-.03l-10.033-3.762-10.032,3.762a.462.462,0,1,1-.325-.864l10.2-3.824a.465.465,0,0,1,.324,0L2332,851.954a.462.462,0,0,1-.162.894Z" transform="translate(-2310.988 -848.102)" fill="#b3cdfa"/>
      </g>
      <path id="Trazado_130033" data-name="Trazado 130033" d="M2322.526,869.213V856.47l10.195-3.729V864.21Z" transform="translate(-2276.188 -821.695)" fill="#b3cdfa"/>
      <g id="Grupo_56879" data-name="Grupo 56879" transform="translate(0 33.132)">
        <path id="Trazado_130034" data-name="Trazado 130034" d="M2288.107,881.411a.46.46,0,0,1-.146-.024l-15.292-5.1a.461.461,0,0,1-.316-.438V855.462a.461.461,0,0,1,.193-.374.453.453,0,0,1,.415-.064l15.146,5.049,15.147-5.049a.455.455,0,0,1,.416.064.46.46,0,0,1,.192.374v20.391a.462.462,0,0,1-.316.438l-15.292,5.1A.458.458,0,0,1,2288.107,881.411Zm-14.83-5.892,14.83,4.944,14.831-4.944V856.1L2288.253,861a.462.462,0,0,1-.292,0l-14.685-4.895Z" transform="translate(-2272.353 -854.999)" fill="#b3cdfa"/>
      </g>
      <g id="Grupo_56880" data-name="Grupo 56880" transform="translate(0 28.035)">
        <path id="Trazado_130035" data-name="Trazado 130035" d="M2303.4,855.5a.441.441,0,0,1-.146-.024l-15.147-5.048-15.146,5.048a.462.462,0,1,1-.292-.876l15.292-5.1a.462.462,0,0,1,.292,0l15.292,5.1a.462.462,0,0,1-.146.9Z" transform="translate(-2272.353 -849.482)" fill="#b3cdfa"/>
      </g>
      <path id="Trazado_130036" data-name="Trazado 130036" d="M2289.411,860.5v20.389l15.292-5V855.5Z" transform="translate(-2273.657 -821.906)" fill="#b3cdfa"/>
    </g>
    <path id="Trazado_130037" data-name="Trazado 130037" d="M2229.794,1003.231l-317.75-24.269c-2.083-.159-3.767-2.355-3.767-4.905V765.1c0-2.55,1.685-4.746,3.767-4.906l317.75-24.268a5.178,5.178,0,0,1,5.657,5.243V997.987A5.178,5.178,0,0,1,2229.794,1003.231Z" transform="translate(-11.239 -0.507)" fill="#ecf3ff"/>
    <path id="Trazado_130038" data-name="Trazado 130038" d="M2217.377,997.1l-317.75-24.268c-2.083-.159-3.767-2.355-3.767-4.906V758.974c0-2.551,1.684-4.747,3.767-4.906l317.75-24.269a5.178,5.178,0,0,1,5.657,5.244V991.861A5.178,5.178,0,0,1,2217.377,997.1Z" transform="translate(-10.29 -0.038)" fill="#fff"/>
    <path id="Trazado_130039" data-name="Trazado 130039" d="M2223.034,735.044a5.178,5.178,0,0,0-5.657-5.244l-317.75,24.269c-2.083.159-3.767,2.355-3.767,4.906v19.482l327.174-19.468Z" transform="translate(-10.29 -0.038)" fill="#ecf3ff"/>
    <g id="Grupo_56882" data-name="Grupo 56882" transform="translate(1885.108 729.283)">
      <path id="Trazado_130040" data-name="Trazado 130040" d="M2217.772,997.544c-.154,0-.312,0-.469-.017l-317.749-24.268c-2.312-.177-4.194-2.584-4.194-5.367V758.936c0-2.783,1.881-5.19,4.194-5.367L2217.3,729.3a5.643,5.643,0,0,1,6.155,5.7V991.823A5.642,5.642,0,0,1,2217.772,997.544Zm0-267.338c-.131,0-.264,0-.4.016l-317.748,24.269c-1.842.14-3.341,2.134-3.341,4.445V967.892c0,2.311,1.5,4.3,3.341,4.445l317.748,24.268a4.725,4.725,0,0,0,5.161-4.783V735.005A4.729,4.729,0,0,0,2217.772,730.207Z" transform="translate(-1895.36 -729.283)" fill="#252784"/>
    </g>
    <path id="Trazado_130041" data-name="Trazado 130041" d="M1907.392,768.423a2.638,2.638,0,0,1-2.159,2.78,2.244,2.244,0,0,1-2.152-2.487,2.639,2.639,0,0,1,2.152-2.779A2.242,2.242,0,0,1,1907.392,768.423Z" transform="translate(-10.842 -2.801)" fill="#c1507f"/>
    <path id="Trazado_130042" data-name="Trazado 130042" d="M1915.173,767.893a2.655,2.655,0,0,1-2.18,2.795,2.259,2.259,0,0,1-2.174-2.5,2.657,2.657,0,0,1,2.174-2.794A2.257,2.257,0,0,1,1915.173,767.893Z" transform="translate(-11.434 -2.76)" fill="#f5ca56"/>
    <path id="Trazado_130043" data-name="Trazado 130043" d="M1923.031,767.358a2.67,2.67,0,0,1-2.2,2.808,2.272,2.272,0,0,1-2.2-2.51,2.673,2.673,0,0,1,2.2-2.808A2.27,2.27,0,0,1,1923.031,767.358Z" transform="translate(-12.031 -2.718)" fill="#26aab7"/>
    <path id="Trazado_130044" data-name="Trazado 130044" d="M2107.88,776.061v21.266l127.12-5.41v-22.93Z" transform="translate(-26.496 -3.035)" fill="#ecf3ff"/>
    <path id="Trazado_130045" data-name="Trazado 130045" d="M2195.405,994.6l-87.525-6.422V805.929l87.525-3.4Z" transform="translate(-26.496 -5.598)" fill="#ecf3ff"/>
    <path id="Trazado_130046" data-name="Trazado 130046" d="M2091.425,893.147l-96.5-1.557v-109.1l96.5-5.37Z" transform="translate(-17.862 -3.656)" fill="#ecf3ff"/>
    <path id="Trazado_130047" data-name="Trazado 130047" d="M1916.666,975.3l-17.544-1.3V788.183l17.544-.977Z" transform="translate(-10.539 -4.427)" fill="#b1a8d1"/>
    <g id="Grupo_56883" data-name="Grupo 56883" transform="translate(2086.267 901.756)">
      <path id="Trazado_130048" data-name="Trazado 130048" d="M2176.22,924.708l-2.267-.055a3.162,3.162,0,0,1-3.012-3.2V919.1a3,3,0,0,1,3.012-3.074l2.267.042a3.163,3.163,0,0,1,3.031,3.2v2.359A3,3,0,0,1,2176.22,924.708Z" transform="translate(-2117.583 -916.029)" fill="#b3cdfa"/>
      <path id="Trazado_130049" data-name="Trazado 130049" d="M2188.3,924.992l-2.3-.055a3.193,3.193,0,0,1-3.052-3.224V919.35a3.032,3.032,0,0,1,3.052-3.093l2.3.043a3.192,3.192,0,0,1,3.071,3.224V921.9A3.032,3.032,0,0,1,2188.3,924.992Z" transform="translate(-2118.501 -916.047)" fill="#b3cdfa"/>
      <path id="Trazado_130050" data-name="Trazado 130050" d="M2118.116,935.4l-2.125-.066a3.045,3.045,0,0,1-2.824-3.118v-2.274a2.843,2.843,0,0,1,2.824-2.958l2.125.054a3.042,3.042,0,0,1,2.842,3.118v2.284A2.843,2.843,0,0,1,2118.116,935.4Z" transform="translate(-2113.167 -916.867)" fill="#fff"/>
      <path id="Trazado_130051" data-name="Trazado 130051" d="M2129.44,935.748l-2.152-.067a3.072,3.072,0,0,1-2.86-3.138v-2.288a2.87,2.87,0,0,1,2.86-2.978l2.152.055a3.07,3.07,0,0,1,2.878,3.139v2.3A2.869,2.869,0,0,1,2129.44,935.748Z" transform="translate(-2114.028 -916.889)" fill="#fff"/>
      <path id="Trazado_130052" data-name="Trazado 130052" d="M2140.91,936.1l-2.18-.067a3.1,3.1,0,0,1-2.9-3.16v-2.3a2.9,2.9,0,0,1,2.9-3l2.18.056a3.1,3.1,0,0,1,2.915,3.159V933.1A2.9,2.9,0,0,1,2140.91,936.1Z" transform="translate(-2114.9 -916.912)" fill="#fff"/>
      <path id="Trazado_130053" data-name="Trazado 130053" d="M2152.527,936.448l-2.207-.067a3.129,3.129,0,0,1-2.935-3.18v-2.317a2.924,2.924,0,0,1,2.935-3.016l2.207.057a3.128,3.128,0,0,1,2.954,3.18v2.329A2.923,2.923,0,0,1,2152.527,936.448Z" transform="translate(-2115.783 -916.934)" fill="#fff"/>
      <path id="Trazado_130054" data-name="Trazado 130054" d="M2164.3,936.805l-2.237-.068a3.159,3.159,0,0,1-2.973-3.2V931.2a2.951,2.951,0,0,1,2.973-3.034l2.237.057a3.158,3.158,0,0,1,2.991,3.2v2.344A2.95,2.95,0,0,1,2164.3,936.805Z" transform="translate(-2116.677 -916.957)" fill="#fff"/>
      <path id="Trazado_130055" data-name="Trazado 130055" d="M2176.22,937.167l-2.267-.07a3.188,3.188,0,0,1-3.012-3.222v-2.348a2.979,2.979,0,0,1,3.012-3.053l2.267.058a3.188,3.188,0,0,1,3.031,3.223v2.359A2.98,2.98,0,0,1,2176.22,937.167Z" transform="translate(-2117.583 -916.981)" fill="#b3cdfa"/>
      <path id="Trazado_130056" data-name="Trazado 130056" d="M2188.3,937.534l-2.3-.07a3.22,3.22,0,0,1-3.052-3.245v-2.362a3.008,3.008,0,0,1,3.052-3.073l2.3.059a3.219,3.219,0,0,1,3.071,3.245v2.375A3.008,3.008,0,0,1,2188.3,937.534Z" transform="translate(-2118.501 -917.004)" fill="#b3cdfa"/>
      <path id="Trazado_130057" data-name="Trazado 130057" d="M2118.116,947.468l-2.125-.08a3.069,3.069,0,0,1-2.824-3.136v-2.274a2.821,2.821,0,0,1,2.824-2.94l2.125.069a3.068,3.068,0,0,1,2.842,3.137v2.285A2.82,2.82,0,0,1,2118.116,947.468Z" transform="translate(-2113.167 -917.788)" fill="#fff"/>
      <path id="Trazado_130058" data-name="Trazado 130058" d="M2129.44,947.889l-2.152-.081a3.1,3.1,0,0,1-2.86-3.158v-2.288a2.846,2.846,0,0,1,2.86-2.957l2.152.069a3.1,3.1,0,0,1,2.878,3.159v2.3A2.846,2.846,0,0,1,2129.44,947.889Z" transform="translate(-2114.028 -917.816)" fill="#fff"/>
      <path id="Trazado_130059" data-name="Trazado 130059" d="M2140.91,948.315l-2.18-.082a3.126,3.126,0,0,1-2.9-3.179v-2.3a2.872,2.872,0,0,1,2.9-2.976l2.18.07a3.125,3.125,0,0,1,2.915,3.18v2.314A2.872,2.872,0,0,1,2140.91,948.315Z" transform="translate(-2114.9 -917.844)" fill="#fff"/>
      <path id="Trazado_130060" data-name="Trazado 130060" d="M2152.527,948.747l-2.207-.083a3.155,3.155,0,0,1-2.935-3.2v-2.317a2.9,2.9,0,0,1,2.935-2.994l2.207.071a3.155,3.155,0,0,1,2.954,3.2v2.328A2.9,2.9,0,0,1,2152.527,948.747Z" transform="translate(-2115.783 -917.873)" fill="#fff"/>
      <path id="Trazado_130061" data-name="Trazado 130061" d="M2164.3,949.184l-2.237-.084a3.186,3.186,0,0,1-2.973-3.221v-2.333a2.928,2.928,0,0,1,2.973-3.014l2.237.073a3.184,3.184,0,0,1,2.991,3.222v2.343A2.927,2.927,0,0,1,2164.3,949.184Z" transform="translate(-2116.677 -917.902)" fill="#fff"/>
      <path id="Trazado_130062" data-name="Trazado 130062" d="M2176.22,949.626l-2.267-.085a3.215,3.215,0,0,1-3.012-3.243v-2.348a2.956,2.956,0,0,1,3.012-3.033l2.267.074a3.214,3.214,0,0,1,3.031,3.244v2.359A2.955,2.955,0,0,1,2176.22,949.626Z" transform="translate(-2117.583 -917.932)" fill="#b3cdfa"/>
      <path id="Trazado_130063" data-name="Trazado 130063" d="M2188.3,950.075l-2.3-.086a3.247,3.247,0,0,1-3.052-3.266V944.36a2.983,2.983,0,0,1,3.052-3.051l2.3.075a3.245,3.245,0,0,1,3.071,3.266v2.374A2.983,2.983,0,0,1,2188.3,950.075Z" transform="translate(-2118.501 -917.962)" fill="#b3cdfa"/>
      <path id="Trazado_130064" data-name="Trazado 130064" d="M2118.116,959.532l-2.125-.094a3.1,3.1,0,0,1-2.824-3.157v-2.273a2.8,2.8,0,0,1,2.824-2.92l2.125.083a3.094,3.094,0,0,1,2.842,3.157v2.285A2.8,2.8,0,0,1,2118.116,959.532Z" transform="translate(-2113.167 -918.709)" fill="#fff"/>
      <path id="Trazado_130065" data-name="Trazado 130065" d="M2129.44,960.03l-2.152-.1a3.123,3.123,0,0,1-2.86-3.177V954.47a2.823,2.823,0,0,1,2.86-2.939l2.152.084a3.123,3.123,0,0,1,2.878,3.179v2.3A2.823,2.823,0,0,1,2129.44,960.03Z" transform="translate(-2114.028 -918.743)" fill="#fff"/>
      <path id="Trazado_130066" data-name="Trazado 130066" d="M2140.91,960.534l-2.18-.1a3.152,3.152,0,0,1-2.9-3.2v-2.3a2.85,2.85,0,0,1,2.9-2.956l2.18.086a3.15,3.15,0,0,1,2.915,3.2v2.314A2.849,2.849,0,0,1,2140.91,960.534Z" transform="translate(-2114.9 -918.777)" fill="#fff"/>
      <path id="Trazado_130067" data-name="Trazado 130067" d="M2152.527,961.044l-2.207-.1a3.181,3.181,0,0,1-2.935-3.22V955.41a2.876,2.876,0,0,1,2.935-2.975l2.207.087a3.18,3.18,0,0,1,2.954,3.221v2.328A2.876,2.876,0,0,1,2152.527,961.044Z" transform="translate(-2115.783 -918.812)" fill="#fff"/>
      <path id="Trazado_130068" data-name="Trazado 130068" d="M2164.3,961.562l-2.237-.1a3.212,3.212,0,0,1-2.973-3.242v-2.333a2.9,2.9,0,0,1,2.973-2.993l2.237.088a3.211,3.211,0,0,1,2.991,3.243v2.344A2.9,2.9,0,0,1,2164.3,961.562Z" transform="translate(-2116.677 -918.847)" fill="#fff"/>
      <path id="Trazado_130069" data-name="Trazado 130069" d="M2176.22,962.086l-2.267-.1a3.242,3.242,0,0,1-3.012-3.264v-2.348a2.931,2.931,0,0,1,3.012-3.012l2.267.089a3.242,3.242,0,0,1,3.031,3.265v2.359A2.931,2.931,0,0,1,2176.22,962.086Z" transform="translate(-2117.583 -918.883)" fill="#b3cdfa"/>
      <path id="Trazado_130070" data-name="Trazado 130070" d="M2188.3,962.617l-2.3-.1a3.274,3.274,0,0,1-3.052-3.287v-2.362a2.959,2.959,0,0,1,3.052-3.031l2.3.09a3.273,3.273,0,0,1,3.071,3.287v2.375A2.96,2.96,0,0,1,2188.3,962.617Z" transform="translate(-2118.501 -918.919)" fill="#b3cdfa"/>
      <path id="Trazado_130071" data-name="Trazado 130071" d="M2118.116,971.6l-2.125-.108a3.122,3.122,0,0,1-2.824-3.176v-2.273a2.776,2.776,0,0,1,2.824-2.9l2.125.1a3.119,3.119,0,0,1,2.842,3.177V968.7A2.775,2.775,0,0,1,2118.116,971.6Z" transform="translate(-2113.167 -919.63)" fill="#fff"/>
      <path id="Trazado_130072" data-name="Trazado 130072" d="M2129.44,972.171l-2.152-.111a3.149,3.149,0,0,1-2.86-3.2v-2.288a2.8,2.8,0,0,1,2.86-2.918l2.152.1a3.147,3.147,0,0,1,2.878,3.2v2.3A2.8,2.8,0,0,1,2129.44,972.171Z" transform="translate(-2114.028 -919.67)" fill="#fff"/>
      <path id="Trazado_130073" data-name="Trazado 130073" d="M2140.91,972.753l-2.18-.111a3.179,3.179,0,0,1-2.9-3.219v-2.3a2.827,2.827,0,0,1,2.9-2.937l2.18.1a3.177,3.177,0,0,1,2.915,3.219v2.314A2.826,2.826,0,0,1,2140.91,972.753Z" transform="translate(-2114.9 -919.71)" fill="#fff"/>
      <path id="Trazado_130074" data-name="Trazado 130074" d="M2152.527,973.343l-2.207-.114a3.207,3.207,0,0,1-2.935-3.24v-2.317a2.852,2.852,0,0,1,2.935-2.954l2.207.1a3.207,3.207,0,0,1,2.954,3.241v2.328A2.854,2.854,0,0,1,2152.527,973.343Z" transform="translate(-2115.783 -919.751)" fill="#fff"/>
      <path id="Trazado_130075" data-name="Trazado 130075" d="M2164.3,973.94l-2.237-.115a3.239,3.239,0,0,1-2.973-3.262v-2.332a2.881,2.881,0,0,1,2.973-2.974l2.237.1a3.237,3.237,0,0,1,2.991,3.263v2.344A2.88,2.88,0,0,1,2164.3,973.94Z" transform="translate(-2116.677 -919.792)" fill="#fff"/>
      <path id="Trazado_130076" data-name="Trazado 130076" d="M2176.22,974.545l-2.267-.116a3.269,3.269,0,0,1-3.012-3.284V968.8a2.908,2.908,0,0,1,3.012-2.991l2.267.1a3.269,3.269,0,0,1,3.031,3.285v2.359A2.908,2.908,0,0,1,2176.22,974.545Z" transform="translate(-2117.583 -919.834)" fill="#b3cdfa"/>
      <path id="Trazado_130077" data-name="Trazado 130077" d="M2188.3,975.159l-2.3-.117a3.3,3.3,0,0,1-3.052-3.307v-2.364a2.935,2.935,0,0,1,3.052-3.01l2.3.105a3.3,3.3,0,0,1,3.071,3.308v2.374A2.936,2.936,0,0,1,2188.3,975.159Z" transform="translate(-2118.501 -919.876)" fill="#b3cdfa"/>
      <path id="Trazado_130078" data-name="Trazado 130078" d="M2118.116,983.66l-2.125-.123a3.147,3.147,0,0,1-2.824-3.195v-2.274a2.754,2.754,0,0,1,2.824-2.881l2.125.113a3.145,3.145,0,0,1,2.842,3.2v2.284A2.752,2.752,0,0,1,2118.116,983.66Z" transform="translate(-2113.167 -920.551)" fill="#fff"/>
    </g>
    <path id="Trazado_130079" data-name="Trazado 130079" d="M2197.606,792.821l-5.66.245a6.963,6.963,0,0,1-7.487-6.853V780.83a7.841,7.841,0,0,1,7.487-7.588l5.66-.31a6.973,6.973,0,0,1,7.6,6.846v5.449A7.849,7.849,0,0,1,2197.606,792.821Z" transform="translate(-32.349 -3.335)" fill="#fff"/>
    <path id="Trazado_130080" data-name="Trazado 130080" d="M2229.426,791.414l-5.856.253a7.148,7.148,0,0,1-7.747-6.964v-5.475a8.049,8.049,0,0,1,7.747-7.725l5.856-.321c4.337-.238,7.87,2.876,7.87,6.958v5.542A8.061,8.061,0,0,1,2229.426,791.414Z" transform="translate(-34.746 -3.202)" fill="#fff"/>
    <path id="Trazado_130081" data-name="Trazado 130081" d="M2221.392,777.008v7.6l3.014-.144v2.623l3.064-2.769,5.012-.239v-7.645Z" transform="translate(-35.172 -3.604)" fill="#b3cdfa"/>
    <path id="Trazado_130082" data-name="Trazado 130082" d="M2198.76,788.665h-.017c-3.634.1-8.169-4.362-8.243-8.089a2.446,2.446,0,0,1,1.039-1.755l.815-.533a1.023,1.023,0,0,1,.508-.167.92.92,0,0,1,.8.373l1.485,2.051a.958.958,0,0,1-.226,1.318l-.877.675a7.165,7.165,0,0,0,1.2,1.416,7.329,7.329,0,0,0,1.509,1.107l.647-.891a1.043,1.043,0,0,1,1.338-.287l2.187,1.352a.921.921,0,0,1,.283,1.278l-.506.827A3.288,3.288,0,0,1,2198.76,788.665Z" transform="translate(-32.81 -3.733)" fill="#b3cdfa"/>
    <path id="Trazado_130083" data-name="Trazado 130083" d="M2087.55,995.447a2.82,2.82,0,0,1-2.922,2.991,3.337,3.337,0,0,1-2.912-3.4,2.823,2.823,0,0,1,2.912-2.992A3.336,3.336,0,0,1,2087.55,995.447Z" transform="translate(-24.495 -20.083)" fill="#b3cdfa" opacity="0.47"/>
    <path id="Trazado_130084" data-name="Trazado 130084" d="M2076.065,994.648a2.8,2.8,0,0,1-2.885,2.973,3.307,3.307,0,0,1-2.874-3.374,2.8,2.8,0,0,1,2.874-2.974A3.306,3.306,0,0,1,2076.065,994.648Z" transform="translate(-23.624 -20.024)" fill="#b3cdfa" opacity="0.47"/>
    <path id="Trazado_130085" data-name="Trazado 130085" d="M2065.479,993.912a2.772,2.772,0,0,1-2.849,2.956,3.279,3.279,0,0,1-2.839-3.353,2.773,2.773,0,0,1,2.839-2.957A3.278,3.278,0,0,1,2065.479,993.912Z" transform="translate(-22.82 -19.97)" fill="#b3cdfa" opacity="0.47"/>
    <path id="Trazado_130086" data-name="Trazado 130086" d="M2054.941,993.179a2.747,2.747,0,0,1-2.814,2.939,3.251,3.251,0,0,1-2.8-3.33,2.748,2.748,0,0,1,2.8-2.94A3.249,3.249,0,0,1,2054.941,993.179Z" transform="translate(-22.02 -19.915)" fill="#b3cdfa" opacity="0.47"/>
    <path id="Trazado_130087" data-name="Trazado 130087" d="M2045.673,992.534a2.727,2.727,0,0,1-2.784,2.924,3.228,3.228,0,0,1-2.774-3.312,2.729,2.729,0,0,1,2.774-2.925A3.225,3.225,0,0,1,2045.673,992.534Z" transform="translate(-21.316 -19.868)" fill="#b3cdfa" opacity="0.47"/>
    <g id="Grupo_56884" data-name="Grupo 56884" transform="translate(2055.272 969.78)" opacity="0.47">
      <path id="Trazado_130088" data-name="Trazado 130088" d="M2084.861,1000.487c-.111,0-.223,0-.336-.011a5.632,5.632,0,0,1-4.918-5.7,4.819,4.819,0,0,1,4.982-5.078,5.618,5.618,0,0,1,4.946,5.7A4.842,4.842,0,0,1,2084.861,1000.487Zm-.581-9.88a3.931,3.931,0,0,0-3.75,4.164,4.694,4.694,0,0,0,4.061,4.782,3.892,3.892,0,0,0,4.019-4.155,4.683,4.683,0,0,0-4.083-4.783C2084.445,990.609,2084.361,990.607,2084.28,990.607Z" transform="translate(-2079.607 -989.683)" fill="#b3cdfa"/>
    </g>
    <path id="Trazado_130089" data-name="Trazado 130089" d="M2082.741,956.081c-.534-4.654-6.422-30.08-22.042-30.544-12.4-.369-18.724,16.2-22.088,16.517s-5.776-8.062-10.758-7.039c-4.95,1.016-6.146,9.015-9.869,11.276-3.705,2.251-6.215.185-12.672-.54-4.746-.533-8.622,3.809-10.311,6.092Z" transform="translate(-17.868 -15)" fill="#b3cdfa"/>
    <g id="Grupo_56885" data-name="Grupo 56885" transform="translate(1970.339 897.135)">
      <path id="Trazado_130090" data-name="Trazado 130090" d="M2091.416,962.362l-103.771-5.429V911.026l.473.01,103.3,2.334Zm-102.848-6.305,101.924,5.332V914.273l-101.924-2.3Z" transform="translate(-1987.645 -911.026)" fill="#b3cdfa"/>
    </g>
    <g id="Grupo_56886" data-name="Grupo 56886" transform="translate(1995.347 786.135)">
      <path id="Trazado_130091" data-name="Trazado 130091" d="M2047.879,790.84c-18.431,1.053-33.03,18.274-33.157,38.675l33.157-.832Z" transform="translate(-2014.722 -790.84)" fill="#fff"/>
      <path id="Trazado_130092" data-name="Trazado 130092" d="M2019.861,833.115c.128,17.439,12.672,31.542,28.411,31.624V832.412Z" transform="translate(-2015.115 -794.018)" fill="#b3cdfa"/>
      <path id="Trazado_130093" data-name="Trazado 130093" d="M2075.541,828.969c-.137-14.947-11.089-26.616-24.383-26.205v26.817Z" transform="translate(-2017.507 -791.751)" fill="#b3cdfa"/>
      <path id="Trazado_130094" data-name="Trazado 130094" d="M2051.158,853.658c10.527-.267,19.167-9.95,19.3-21.776l-19.3.477Z" transform="translate(-2017.507 -793.977)" fill="#fff"/>
    </g>
    <g id="Grupo_56887" data-name="Grupo 56887" transform="translate(1981.068 777.012)">
      <path id="Trazado_130095" data-name="Trazado 130095" d="M2001.984,867.152a.462.462,0,1,1,0-.924h1.673a.462.462,0,1,1,0,.924Zm8.068,0a.462.462,0,0,1,0-.924h1.675a.462.462,0,0,1,0,.924Zm8.069,0a.462.462,0,1,1,0-.924h1.673a.462.462,0,1,1,0,.924Zm8.068,0a.462.462,0,1,1,0-.923h1.673a.462.462,0,1,1,0,.924Zm8.068,0a.462.462,0,0,1,0-.924h1.675a.462.462,0,0,1,0,.924Zm8.069,0a.462.462,0,1,1,0-.924H2044a.462.462,0,0,1,0,.924Zm8.068,0a.462.462,0,0,1,0-.924h1.674a.462.462,0,0,1,0,.924Zm8.068,0a.462.462,0,1,1,0-.924h1.674a.462.462,0,1,1,0,.924Zm8.069,0a.462.462,0,0,1,0-.924h1.674a.462.462,0,0,1,0,.924Zm8.068,0a.462.462,0,1,1,0-.924h1.673a.462.462,0,1,1,0,.924Zm8.068,0a.462.462,0,1,1,0-.924h1.674a.462.462,0,0,1,0,.924Zm4.062-2.819a.461.461,0,0,1-.462-.462v-1.674a.462.462,0,1,1,.923,0v1.674A.462.462,0,0,1,2086.731,864.3Zm-87.007-2.262a.461.461,0,0,1-.462-.462V859.9a.462.462,0,1,1,.923,0v1.674A.462.462,0,0,1,1999.724,862.036Zm87.007-5.807a.461.461,0,0,1-.462-.462v-1.673a.462.462,0,1,1,.923,0v1.673A.461.461,0,0,1,2086.731,856.228Zm-87.007-2.262a.461.461,0,0,1-.462-.462v-1.673a.462.462,0,1,1,.923,0V853.5A.461.461,0,0,1,1999.724,853.966Zm87.007-5.806a.461.461,0,0,1-.462-.462v-1.674a.462.462,0,1,1,.923,0V847.7A.462.462,0,0,1,2086.731,848.16Zm-87.007-2.262a.461.461,0,0,1-.462-.462v-1.674a.462.462,0,1,1,.923,0v1.674A.462.462,0,0,1,1999.724,845.9Zm87.007-5.806a.461.461,0,0,1-.462-.462v-1.674a.462.462,0,1,1,.923,0v1.674A.462.462,0,0,1,2086.731,840.092Zm-87.007-2.262a.461.461,0,0,1-.462-.462v-1.674a.462.462,0,1,1,.923,0v1.674A.462.462,0,0,1,1999.724,837.83Zm87.007-5.807a.461.461,0,0,1-.462-.462v-1.674a.462.462,0,1,1,.923,0v1.674A.461.461,0,0,1,2086.731,832.022Zm-87.007-2.262a.461.461,0,0,1-.462-.462v-1.673a.462.462,0,1,1,.923,0V829.3A.461.461,0,0,1,1999.724,829.761Zm87.007-5.806a.461.461,0,0,1-.462-.462v-1.673a.462.462,0,1,1,.923,0v1.673A.462.462,0,0,1,2086.731,823.954Zm-87.007-2.262a.461.461,0,0,1-.462-.462v-1.674a.462.462,0,1,1,.923,0v1.674A.462.462,0,0,1,1999.724,821.692Zm87.007-5.806a.461.461,0,0,1-.462-.462V813.75a.462.462,0,1,1,.923,0v1.674A.462.462,0,0,1,2086.731,815.886Zm-87.007-2.262a.461.461,0,0,1-.462-.462v-1.674a.462.462,0,1,1,.923,0v1.674A.462.462,0,0,1,1999.724,813.624Zm87.007-5.807a.461.461,0,0,1-.462-.462v-1.674a.462.462,0,1,1,.923,0v1.674A.461.461,0,0,1,2086.731,807.817Zm-87.007-2.262a.461.461,0,0,1-.462-.462V803.42a.462.462,0,1,1,.923,0v1.673A.461.461,0,0,1,1999.724,805.555Zm87.007-5.807a.461.461,0,0,1-.462-.462v-1.673a.462.462,0,1,1,.923,0v1.673A.462.462,0,0,1,2086.731,799.748Zm-87.007-2.262a.461.461,0,0,1-.462-.462V795.35a.462.462,0,1,1,.923,0v1.674A.462.462,0,0,1,1999.724,797.487Zm87.007-5.806a.461.461,0,0,1-.462-.462v-1.674a.462.462,0,1,1,.923,0v1.674A.462.462,0,0,1,2086.731,791.68Zm-87.007-2.262a.461.461,0,0,1-.462-.462v-.787a3.271,3.271,0,0,1,.159-1.015.462.462,0,0,1,.878.284,2.364,2.364,0,0,0-.114.731v.787A.462.462,0,0,1,1999.724,789.418Zm5.733-3.558a.462.462,0,0,1-.025-.924l1.672-.09a.462.462,0,0,1,.049.923l-1.672.09Zm8.056-.432a.462.462,0,0,1-.024-.923l1.673-.09a.462.462,0,0,1,.048.923l-1.672.09Zm8.057-.432a.462.462,0,0,1-.024-.923l1.672-.09a.47.47,0,0,1,.486.437.462.462,0,0,1-.437.486l-1.673.09Zm8.058-.431a.462.462,0,0,1-.025-.923l1.672-.09a.468.468,0,0,1,.485.437.461.461,0,0,1-.436.486l-1.672.09Zm8.056-.431a.462.462,0,0,1-.024-.923l1.671-.089a.462.462,0,1,1,.049.923l-1.671.089Zm8.057-.431a.462.462,0,0,1-.024-.924l1.671-.09a.462.462,0,0,1,.049.923l-1.672.09Zm40.944-.089a.463.463,0,0,1-.454-.38,2.034,2.034,0,0,0-.644-1.173.462.462,0,1,1,.611-.694,2.963,2.963,0,0,1,.942,1.7.462.462,0,0,1-.373.537A.511.511,0,0,1,2086.686,783.614Zm-32.887-.344a.462.462,0,0,1-.025-.923l1.673-.09a.462.462,0,0,1,.048.923l-1.672.09Zm8.056-.431a.462.462,0,0,1-.024-.923l1.672-.09a.462.462,0,0,1,.049.923l-1.672.09Zm8.058-.431a.462.462,0,0,1-.025-.924l1.672-.089a.462.462,0,0,1,.049.923l-1.672.089Zm8.056-.432a.462.462,0,0,1-.024-.923l1.672-.09a.462.462,0,0,1,.048.923l-1.671.09Z" transform="translate(-1999.262 -780.962)" fill="#b3cdfa"/>
    </g>
    <path id="Trazado_130096" data-name="Trazado 130096" d="M1914.445,793.041l-13.142.682v-2.409l13.142-.7Z" transform="translate(-10.706 -4.687)" fill="#b3cdfa"/>
    <path id="Trazado_130097" data-name="Trazado 130097" d="M1914.445,799.84l-13.142.623v-4.818l13.142-.667Z" transform="translate(-10.706 -5.021)" fill="#b3cdfa"/>
    <path id="Trazado_130098" data-name="Trazado 130098" d="M1914.445,806.84l-13.142.564v-4.818l13.142-.609Z" transform="translate(-10.706 -5.556)" fill="#b3cdfa"/>
    <path id="Trazado_130099" data-name="Trazado 130099" d="M1958.083,790.222l-35.351,1.839v-5.274l35.351-1.967Z" transform="translate(-12.344 -4.245)" fill="#ecf3ff"/>
    <path id="Trazado_130100" data-name="Trazado 130100" d="M1958.083,801.046l-35.351,1.6v-5.274l35.351-1.73Z" transform="translate(-12.344 -5.072)" fill="#ecf3ff"/>
    <path id="Trazado_130101" data-name="Trazado 130101" d="M1958.083,811.87l-35.351,1.364V807.96l35.351-1.493Z" transform="translate(-12.344 -5.899)" fill="#ecf3ff"/>
    <path id="Trazado_130102" data-name="Trazado 130102" d="M1958.083,822.693l-35.351,1.127v-5.274l35.351-1.255Z" transform="translate(-12.344 -6.727)" fill="#ecf3ff"/>
    <path id="Trazado_130103" data-name="Trazado 130103" d="M1958.083,833.517l-35.351.889v-5.274l35.351-1.018Z" transform="translate(-12.344 -7.554)" fill="#ecf3ff"/>
    <path id="Trazado_130104" data-name="Trazado 130104" d="M1958.083,844.341l-35.351.652v-5.274l35.351-.78Z" transform="translate(-12.344 -8.381)" fill="#ecf3ff"/>
    <path id="Trazado_130105" data-name="Trazado 130105" d="M1958.083,855.165l-35.351.415v-5.274l35.351-.543Z" transform="translate(-12.344 -9.209)" fill="#ecf3ff"/>
    <path id="Trazado_130106" data-name="Trazado 130106" d="M1984.265,865.839l-61.534.308v-5.274l61.534-.532Z" transform="translate(-12.344 -10.017)" fill="#ecf3ff"/>
    <path id="Trazado_130107" data-name="Trazado 130107" d="M1984.265,876.853l-61.534-.1v-5.274l61.534-.118Z" transform="translate(-12.344 -10.859)" fill="#ecf3ff"/>
    <path id="Trazado_130108" data-name="Trazado 130108" d="M1984.265,887.843l-61.534-.518v-5.274l61.534.295Z" transform="translate(-12.344 -11.677)" fill="#ecf3ff"/>
    <path id="Trazado_130109" data-name="Trazado 130109" d="M1984.265,898.823l-61.534-.931v-5.274l61.534.708Z" transform="translate(-12.344 -12.484)" fill="#ecf3ff"/>
    <path id="Trazado_130110" data-name="Trazado 130110" d="M1971.256,909.519l-48.524-1.06v-5.274l48.524.884Z" transform="translate(-12.344 -13.292)" fill="#ecf3ff"/>
    <path id="Trazado_130111" data-name="Trazado 130111" d="M1971.256,920.411l-48.524-1.386v-5.274l48.524,1.21Z" transform="translate(-12.344 -14.1)" fill="#ecf3ff"/>
    <path id="Trazado_130112" data-name="Trazado 130112" d="M1971.256,931.3l-48.524-1.712v-5.274l48.524,1.536Z" transform="translate(-12.344 -14.907)" fill="#ecf3ff"/>
    <path id="Trazado_130113" data-name="Trazado 130113" d="M1971.256,942.2l-48.524-2.038v-5.274l48.524,1.862Z" transform="translate(-12.344 -15.715)" fill="#ecf3ff"/>
    <path id="Trazado_130114" data-name="Trazado 130114" d="M1971.256,953.089l-48.524-2.364v-5.274l48.524,2.188Z" transform="translate(-12.344 -16.522)" fill="#ecf3ff"/>
    <path id="Trazado_130115" data-name="Trazado 130115" d="M1971.256,963.982l-48.524-2.689v-5.274l48.524,2.513Z" transform="translate(-12.344 -17.33)" fill="#ecf3ff"/>
    <path id="Trazado_130116" data-name="Trazado 130116" d="M1971.256,974.875l-48.524-3.015v-5.274l48.524,2.839Z" transform="translate(-12.344 -18.138)" fill="#ecf3ff"/>
    <path id="Trazado_130117" data-name="Trazado 130117" d="M1971.256,985.767l-48.524-3.341v-5.274l48.524,3.165Z" transform="translate(-12.344 -18.945)" fill="#ecf3ff"/>
    <path id="Trazado_130118" data-name="Trazado 130118" d="M2023.192,992.12l-3.578-.255c0-9.531-6.794-17.693-15.065-18.19-8.182-.491-14.775,6.716-14.775,16.064l-3.426-.244c0-11.514,8.111-20.415,18.2-19.836C2014.773,970.246,2023.192,980.325,2023.192,992.12Z" transform="translate(-17.206 -18.371)" fill="#ecf3ff"/>
    <path id="Trazado_130119" data-name="Trazado 130119" d="M1989.774,989.868l-3.426-.244c0-8.069,4.079-15.246,10.435-18.306l1.471,3.708C1993.092,977.5,1989.774,983.317,1989.774,989.868Z" transform="translate(-17.206 -18.5)" fill="#b3cdfa"/>
    <path id="Trazado_130120" data-name="Trazado 130120" d="M2007.309,990.52l0,0-5.019-7.793-.011.006a.6.6,0,0,0-.788-.256.729.729,0,0,0-.293.846l-.011.006c.4,1.41,1.291,4.575,2.568,9.106l0,0a2.717,2.717,0,0,0,.131.376,2.026,2.026,0,0,0,2.76,1.168,2.411,2.411,0,0,0,.846-3.111A2.735,2.735,0,0,0,2007.309,990.52Zm-1.163,2.32a.951.951,0,0,1-1.3-.548,1.131,1.131,0,0,1,.4-1.458.95.95,0,0,1,1.3.547A1.131,1.131,0,0,1,2006.146,992.84Z" transform="translate(-18.339 -19.347)" fill="#b3cdfa"/>
    <path id="Trazado_130121" data-name="Trazado 130121" d="M2079.343,794.969l-7.545.346a.133.133,0,0,0-.118.137v3.712a.119.119,0,0,0,.118.127l2.869-.125a.112.112,0,0,1,.1.061l.688,1.283a.115.115,0,0,0,.207-.009l.689-1.343a.125.125,0,0,1,.1-.07l2.885-.126a.132.132,0,0,0,.12-.137V795.1A.12.12,0,0,0,2079.343,794.969Z" transform="translate(-23.729 -5.021)" fill="#b3cdfa"/>
    <path id="Trazado_130122" data-name="Trazado 130122" d="M2083.584,851.326l-7.582.1a.129.129,0,0,0-.119.134v3.72a.124.124,0,0,0,.119.13l2.883-.031a.118.118,0,0,1,.1.065l.691,1.309a.115.115,0,0,0,.208,0l.692-1.323a.118.118,0,0,1,.1-.068l2.9-.031a.13.13,0,0,0,.121-.134v-3.739A.125.125,0,0,0,2083.584,851.326Z" transform="translate(-24.05 -9.328)" fill="#fff"/>
    <path id="Trazado_130123" data-name="Trazado 130123" d="M2011.479,847.876l-6.965.111a.122.122,0,0,0-.11.128v3.567a.117.117,0,0,0,.11.125l2.648-.036a.107.107,0,0,1,.1.062l.635,1.252a.1.1,0,0,0,.19,0l.636-1.27a.109.109,0,0,1,.1-.065l2.662-.036a.121.121,0,0,0,.111-.128V848A.116.116,0,0,0,2011.479,847.876Z" transform="translate(-18.587 -9.064)" fill="#b3cdfa"/>
    <path id="Trazado_130124" data-name="Trazado 130124" d="M2013.144,800.846l-6.979.309a.125.125,0,0,0-.11.131v3.57a.113.113,0,0,0,.11.122l2.653-.111a.105.105,0,0,1,.1.059l.636,1.236a.1.1,0,0,0,.191-.007l.637-1.289a.117.117,0,0,1,.1-.068l2.669-.112a.125.125,0,0,0,.111-.131v-3.587A.114.114,0,0,0,2013.144,800.846Z" transform="translate(-18.713 -5.47)" fill="#fff"/>
    <path id="Trazado_130125" data-name="Trazado 130125" d="M1987.416,849.774l-23.457.275v-65.5l23.457-1.305Z" transform="translate(-15.495 -4.124)" fill="#ecf3ff"/>
    <path id="Trazado_130126" data-name="Trazado 130126" d="M2242.3,806.673l-36.736,1.305v-5.5l36.736-1.423Z" transform="translate(-33.962 -5.486)" fill="#ecf3ff"/>
    <path id="Trazado_130127" data-name="Trazado 130127" d="M2242.3,816.61l-36.736,1.113v-5.5l36.736-1.231Z" transform="translate(-33.962 -6.245)" fill="#ecf3ff"/>
    <path id="Trazado_130128" data-name="Trazado 130128" d="M2242.3,826.547l-36.736.92v-5.5l36.736-1.038Z" transform="translate(-33.962 -7.005)" fill="#ecf3ff"/>
    <path id="Trazado_130129" data-name="Trazado 130129" d="M2242.3,836.484l-36.736.728v-5.5l36.736-.846Z" transform="translate(-33.962 -7.764)" fill="#ecf3ff"/>
    <path id="Trazado_130130" data-name="Trazado 130130" d="M2242.3,846.421l-36.736.535v-5.5l36.736-.653Z" transform="translate(-33.962 -8.523)" fill="#ecf3ff"/>
    <path id="Trazado_130131" data-name="Trazado 130131" d="M2242.3,856.357l-36.736.343v-5.5l36.736-.461Z" transform="translate(-33.962 -9.283)" fill="#ecf3ff"/>
    <path id="Trazado_130132" data-name="Trazado 130132" d="M2242.3,866.294l-36.736.15v-5.5l36.736-.268Z" transform="translate(-33.962 -10.043)" fill="#ecf3ff"/>
    <path id="Trazado_130133" data-name="Trazado 130133" d="M2242.3,876.231l-36.736-.042v-5.5l36.736-.076Z" transform="translate(-33.962 -10.802)" fill="#ecf3ff"/>
    <path id="Trazado_130134" data-name="Trazado 130134" d="M2242.3,886.158l-36.736-.235v-5.5l36.736.117Z" transform="translate(-33.962 -11.552)" fill="#ecf3ff"/>
    <path id="Trazado_130135" data-name="Trazado 130135" d="M2242.3,896.079l-36.736-.427v-5.5l36.736.309Z" transform="translate(-33.962 -12.296)" fill="#ecf3ff"/>
    <path id="Trazado_130136" data-name="Trazado 130136" d="M2242.3,906l-36.736-.62v-5.5l36.736.5Z" transform="translate(-33.962 -13.039)" fill="#ecf3ff"/>
    <path id="Trazado_130137" data-name="Trazado 130137" d="M2242.3,915.921l-36.736-.812v-5.5l36.736.694Z" transform="translate(-33.962 -13.783)" fill="#ecf3ff"/>
    <path id="Trazado_130138" data-name="Trazado 130138" d="M2242.3,925.842l-36.736-1v-5.5l36.736.887Z" transform="translate(-33.962 -14.526)" fill="#ecf3ff"/>
    <path id="Trazado_130139" data-name="Trazado 130139" d="M2242.3,935.763l-36.736-1.2v-5.5l36.736,1.079Z" transform="translate(-33.962 -15.27)" fill="#ecf3ff"/>
    <path id="Trazado_130140" data-name="Trazado 130140" d="M2242.3,945.684l-36.736-1.39v-5.5l36.736,1.272Z" transform="translate(-33.962 -16.013)" fill="#ecf3ff"/>
    <path id="Trazado_130141" data-name="Trazado 130141" d="M2242.3,955.6l-36.736-1.582v-5.5l36.736,1.465Z" transform="translate(-33.962 -16.757)" fill="#ecf3ff"/>
    <path id="Trazado_130142" data-name="Trazado 130142" d="M2242.3,965.526l-36.736-1.775v-5.5L2242.3,959.9Z" transform="translate(-33.962 -17.5)" fill="#ecf3ff"/>
    <path id="Trazado_130143" data-name="Trazado 130143" d="M2242.3,975.446l-36.736-1.968v-5.5l36.736,1.85Z" transform="translate(-33.962 -18.244)" fill="#ecf3ff"/>
    <path id="Trazado_130144" data-name="Trazado 130144" d="M2242.3,985.367l-36.736-2.16v-5.5l36.736,2.042Z" transform="translate(-33.962 -18.988)" fill="#ecf3ff"/>
    <path id="Trazado_130145" data-name="Trazado 130145" d="M2242.3,995.288l-36.736-2.353v-5.5l36.736,2.235Z" transform="translate(-33.962 -19.731)" fill="#ecf3ff"/>
    <path id="Trazado_130146" data-name="Trazado 130146" d="M2242.3,1005.209l-36.736-2.545v-5.5l36.736,2.427Z" transform="translate(-33.962 -20.475)" fill="#ecf3ff"/>
    <path id="Trazado_130147" data-name="Trazado 130147" d="M2242.3,1015.13l-36.736-2.738v-5.5l36.736,2.62Z" transform="translate(-33.962 -21.218)" fill="#ecf3ff"/>
    <g id="Grupo_56888" data-name="Grupo 56888" transform="translate(2093.677 808.916)">
      <path id="Trazado_130148" data-name="Trazado 130148" d="M2150.658,815.513V847.17l-29.458.406c.186,16.831,13.071,30.456,29.2,30.506,16.542.051,30.171-14.143,30.171-31.7C2180.574,828.908,2167.084,815.151,2150.658,815.513Z" transform="translate(-2121.191 -815.506)" fill="#fff"/>
      <path id="Trazado_130149" data-name="Trazado 130149" d="M2121.19,847.206c0,.035,0,.069,0,.1l29.209-.405V815.515C2134.153,816.018,2121.19,830.2,2121.19,847.206Z" transform="translate(-2121.19 -815.507)" fill="#b3cdfa"/>
    </g>
    <g id="Grupo_56889" data-name="Grupo 56889" transform="translate(2087.923 801.733)">
      <path id="Trazado_130150" data-name="Trazado 130150" d="M2182.85,884.036l-1.677-.01a.462.462,0,0,1,0-.924h0l1.674.01a2.4,2.4,0,0,0,1.321-.4.462.462,0,1,1,.507.772A3.327,3.327,0,0,1,2182.85,884.036Zm-8.069-.05h0l-1.674-.01a.462.462,0,0,1,0-.923h0l1.674.01a.462.462,0,0,1,0,.924Zm-8.068-.051h0l-1.674-.01a.461.461,0,0,1-.459-.465.474.474,0,0,1,.465-.459l1.673.01a.462.462,0,0,1,0,.924Zm-8.067-.051h0l-1.674-.01a.462.462,0,0,1,0-.924h0l1.674.01a.462.462,0,0,1,0,.924Zm-8.069-.05h0l-1.674-.011a.462.462,0,0,1,0-.924h0l1.674.011a.462.462,0,0,1,0,.924Zm-8.068-.051h0l-1.674-.011a.462.462,0,0,1,0-.924h0l1.675.011a.462.462,0,0,1,0,.924Zm-8.068-.051h0l-1.675-.01a.462.462,0,0,1,0-.924h0l1.674.01a.462.462,0,0,1,0,.924Zm-8.069-.051h0l-1.674-.01a.462.462,0,0,1,0-.923h0l1.674.01a.462.462,0,0,1,0,.924Zm-8.068-.051h-.166a3.04,3.04,0,0,1-1.676-.517.462.462,0,1,1,.512-.768,2.12,2.12,0,0,0,1.169.362h.162a.462.462,0,0,1,0,.924Zm67.473-6a.461.461,0,0,1-.462-.462v-1.673a.462.462,0,1,1,.923,0v1.673A.461.461,0,0,1,2185.775,877.627Zm-70.353-.4a.462.462,0,0,1-.462-.462v-1.673a.462.462,0,0,1,.924,0v1.673A.461.461,0,0,1,2115.422,877.229Zm70.353-7.67a.461.461,0,0,1-.462-.462v-1.674a.462.462,0,1,1,.923,0V869.1A.461.461,0,0,1,2185.775,869.559Zm-70.353-.4a.462.462,0,0,1-.462-.462v-1.674a.462.462,0,0,1,.924,0V868.7A.462.462,0,0,1,2115.422,869.161Zm70.353-7.67a.461.461,0,0,1-.462-.462v-1.674a.462.462,0,1,1,.923,0v1.674A.462.462,0,0,1,2185.775,861.491Zm-70.353-.4a.462.462,0,0,1-.462-.462v-1.674a.462.462,0,0,1,.924,0v1.674A.462.462,0,0,1,2115.422,861.093Zm70.353-7.671a.461.461,0,0,1-.462-.462v-1.673a.462.462,0,1,1,.923,0v1.673A.461.461,0,0,1,2185.775,853.422Zm-70.353-.4a.462.462,0,0,1-.462-.462v-1.673a.462.462,0,1,1,.924,0v1.673A.461.461,0,0,1,2115.422,853.023Zm70.353-7.67a.461.461,0,0,1-.462-.462v-1.674a.462.462,0,1,1,.923,0v1.674A.461.461,0,0,1,2185.775,845.353Zm-70.353-.4a.462.462,0,0,1-.462-.462V842.82a.462.462,0,0,1,.924,0v1.674A.462.462,0,0,1,2115.422,844.955Zm70.353-7.67a.461.461,0,0,1-.462-.462v-1.674a.462.462,0,1,1,.923,0v1.674A.462.462,0,0,1,2185.775,837.285Zm-70.353-.4a.462.462,0,0,1-.462-.462v-1.674a.462.462,0,0,1,.924,0v1.674A.462.462,0,0,1,2115.422,836.887Zm70.353-7.67a.461.461,0,0,1-.462-.462v-1.674a.462.462,0,1,1,.923,0v1.674A.462.462,0,0,1,2185.775,829.217Zm-70.353-.4a.462.462,0,0,1-.462-.462v-1.674a.462.462,0,0,1,.924,0v1.674A.461.461,0,0,1,2115.422,828.818Zm70.353-7.67a.461.461,0,0,1-.462-.462v-1.674a.462.462,0,1,1,.923,0v1.674A.461.461,0,0,1,2185.775,821.148Zm-70.353-.4a.462.462,0,0,1-.462-.462v-1.673a.462.462,0,0,1,.924,0v1.673A.462.462,0,0,1,2115.422,820.75Zm70.353-7.67a.461.461,0,0,1-.462-.462v-1.56a.5.5,0,0,1,.438-.529.421.421,0,0,1,.483.392c0,.049,0,.1,0,.148v1.549A.461.461,0,0,1,2185.775,813.079Zm-70.157-.374a.449.449,0,0,1-.161-.03.461.461,0,0,1-.272-.594,3.489,3.489,0,0,1,1.12-1.541.462.462,0,0,1,.568.729,2.551,2.551,0,0,0-.822,1.134A.464.464,0,0,1,2115.618,812.705Zm7.231-2.072a.462.462,0,0,1-.015-.924l1.673-.056a.453.453,0,0,1,.477.445.462.462,0,0,1-.446.478l-1.673.056Zm8.064-.274a.462.462,0,0,1-.015-.924l1.673-.056a.462.462,0,1,1,.031.923l-1.673.056Zm8.065-.275a.461.461,0,0,1-.016-.923l1.673-.057a.462.462,0,1,1,.031.923l-1.674.057Zm8.063-.274a.462.462,0,0,1-.015-.924l1.672-.056a.462.462,0,1,1,.031.923l-1.672.056Zm8.065-.275a.461.461,0,0,1-.016-.923l1.672-.057a.462.462,0,1,1,.031.923l-1.673.057Zm8.063-.274a.461.461,0,0,1-.014-.923l1.672-.057a.455.455,0,0,1,.477.445.462.462,0,0,1-.447.477l-1.673.057Zm8.065-.274a.462.462,0,0,1-.016-.924l1.673-.056a.451.451,0,0,1,.477.445.463.463,0,0,1-.446.478l-1.673.056Zm8.064-.275a.461.461,0,0,1-.016-.923l1.674-.057a.452.452,0,0,1,.478.446.463.463,0,0,1-.448.477l-1.673.057Z" transform="translate(-2114.96 -807.729)" fill="#b3cdfa"/>
    </g>
    <path id="Trazado_130151" data-name="Trazado 130151" d="M1790.607,926.592h-14.02a.222.222,0,0,0-.222.222v6.281a.222.222,0,0,0,.222.222h5.346a.222.222,0,0,1,.192.111l1.28,2.216a.221.221,0,0,0,.384,0l1.279-2.216a.223.223,0,0,1,.192-.111h5.347a.222.222,0,0,0,.222-.222v-6.281A.222.222,0,0,0,1790.607,926.592Z" transform="translate(-1.157 -15.081)" fill="#c1507f"/>
    <path id="Trazado_130152" data-name="Trazado 130152" d="M1816.426,899.954H1802.4a.222.222,0,0,0-.221.222v6.281a.222.222,0,0,0,.221.222h5.347a.222.222,0,0,1,.192.111l1.279,2.217a.223.223,0,0,0,.385,0l1.279-2.217a.222.222,0,0,1,.192-.111h5.347a.222.222,0,0,0,.221-.222v-6.281A.222.222,0,0,0,1816.426,899.954Z" transform="translate(-3.13 -13.045)" fill="#0e1c2f"/>
    <path id="Trazado_130153" data-name="Trazado 130153" d="M1841.053,873.246h-14.021a.222.222,0,0,0-.222.223v6.28a.222.222,0,0,0,.222.222h5.347a.222.222,0,0,1,.192.111l1.279,2.217a.223.223,0,0,0,.385,0l1.279-2.217a.222.222,0,0,1,.192-.111h5.347a.222.222,0,0,0,.222-.222v-6.28A.223.223,0,0,0,1841.053,873.246Z" transform="translate(-5.013 -11.004)" fill="#c1507f"/>
    <path id="Trazado_130154" data-name="Trazado 130154" d="M1865.849,848.143h-14.02a.222.222,0,0,0-.223.222v6.28a.223.223,0,0,0,.223.223h5.346a.224.224,0,0,1,.193.111l1.279,2.216a.221.221,0,0,0,.384,0l1.279-2.216a.223.223,0,0,1,.193-.111h5.346a.223.223,0,0,0,.222-.223v-6.28A.222.222,0,0,0,1865.849,848.143Z" transform="translate(-6.908 -9.085)" fill="#0e1c2f"/>
    <ellipse id="Elipse_4352" data-name="Elipse 4352" cx="10.359" cy="4.491" rx="10.359" ry="4.491" transform="translate(1772.082 930.547)" fill="#ecf3ff"/>
    <path id="Trazado_130155" data-name="Trazado 130155" d="M1783.339,956.556c-5.722,0-10.359-2.011-10.359-4.491v20.718c0,2.481,4.637,4.491,10.359,4.491s10.359-2.01,10.359-4.491V952.065C1793.7,954.546,1789.059,956.556,1783.339,956.556Z" transform="translate(-0.898 -17.028)" fill="url(#linear-gradient)"/>
    <ellipse id="Elipse_4353" data-name="Elipse 4353" cx="10.359" cy="4.491" rx="10.359" ry="4.491" transform="translate(1818.672 882.527)" fill="#ecf3ff"/>
    <path id="Trazado_130156" data-name="Trazado 130156" d="M1833.785,904.563c-5.721,0-10.36-2.011-10.36-4.491v41.435c0,2.481,4.638,4.491,10.36,4.491s10.359-2.011,10.359-4.491V900.072C1844.143,902.553,1839.505,904.563,1833.785,904.563Z" transform="translate(-4.754 -13.054)" fill="url(#linear-gradient)"/>
    <ellipse id="Elipse_4354" data-name="Elipse 4354" cx="10.359" cy="4.491" rx="10.359" ry="4.491" transform="translate(1841.572 859.641)" fill="#ecf3ff"/>
    <path id="Trazado_130157" data-name="Trazado 130157" d="M1858.58,879.783c-5.721,0-10.359-2.011-10.359-4.491v51.795c0,2.48,4.637,4.49,10.359,4.49s10.359-2.011,10.359-4.49V875.292C1868.938,877.773,1864.3,879.783,1858.58,879.783Z" transform="translate(-6.649 -11.16)" fill="url(#linear-gradient)"/>
    <ellipse id="Elipse_4355" data-name="Elipse 4355" cx="10.359" cy="4.491" rx="10.359" ry="4.491" transform="translate(1795.926 906.43)" fill="#ecf3ff"/>
    <path id="Trazado_130158" data-name="Trazado 130158" d="M1809.157,930.444c-5.722,0-10.36-2.011-10.36-4.491V957.03c0,2.48,4.638,4.49,10.36,4.49s10.359-2.011,10.359-4.49V925.953C1819.515,928.434,1814.877,930.444,1809.157,930.444Z" transform="translate(-2.872 -15.032)" fill="url(#linear-gradient)"/>
    <path id="Trazado_130159" data-name="Trazado 130159" d="M2072.3,854.035c-.913.779-3.484,3.819-3.484,3.819s3.435-5.72,3.756-6.24-.189-1.171-.625-1.009a3.6,3.6,0,0,1,.327-.685c.44-.5-.485-1.3-1.562-.183s-4.467,5.685-5.007,5.643,2.169-5.635,2.546-6.672-.87-1.233-2.715,1.68-4,7.144-4.968,8.01-1.591-.4-1.843-1.243-2.121-3.6-3.039-2.656.582,1.893.548,2.88a9.778,9.778,0,0,0,.713,5.139c.389.912.81,1.748,1.19,2.448a4.876,4.876,0,0,0-.666.721l-.455.621a1.888,1.888,0,0,0-1.176.783h0l-.012.017-.032.042c-5.057,6.9-5.17,7.052-11.677,15.925l-29.038.3v.006c-.048,0-.1,0-.143,0a9.355,9.355,0,0,0-1.441.161,31.731,31.731,0,0,0-13.295-4.5,6.306,6.306,0,0,0-3.331-4.005l-.627-2.688a12.428,12.428,0,0,0,6.533-14.8l-2.34-7.741a12.364,12.364,0,0,0-3.8-5.823l-.147-.414,1.9-.677-.019-.055a5.8,5.8,0,0,0-7.4-3.514l-7.085,2.523-3.848,1.371a10.06,10.06,0,0,0-6.1,12.852l4.11,11.54a5.231,5.231,0,0,0,3.5,3.278l1.037,4.448a3.379,3.379,0,0,0-2.942,3.623l.142,1.734c-10.462,3.192-15.551,9.142-16.226,10.365a.594.594,0,0,0-.036.162,9.259,9.259,0,0,0-1.072,2.724s-3.054,13.944-5.492,25.112a7.28,7.28,0,0,0-.262,1.622c0,.014,0,.027,0,.041a7.292,7.292,0,0,0,4.582,7.157l13.421,8.119c-.2,7.98-.427,17.573-.521,22.492a2.665,2.665,0,0,0,.406,1.457c-1.284,9.721-2.447,18.6-3.5,26.724l21.207,1.619c2-9.121,3.639-16.635,4.558-20.839.023,5.244.056,12.691.093,21.2l20.616,1.575c1.5-16.022,2.631-28.086,2.631-28.086l.061-.746.077-.862c.033-.358.056-.721.056-1.09a11.8,11.8,0,0,0-.239-2.371,2.235,2.235,0,0,0,.2-.948c-.114-5.325-2.622-34.639-4.333-54.153.136-.013.274-.016.408-.033h0l32.606-4.359.02,0,.024,0h0a17.052,17.052,0,0,0,7.128-6.472l.006,0c5.142-10.433,9.11-18.723,9.454-19.521a1.678,1.678,0,0,0-.211-1.539,4.065,4.065,0,0,0,.326-1.735,6.621,6.621,0,0,0,.345-.647c3.132-5.865,7.091-13.265,7.211-13.437C2073.524,853.924,2073.217,853.256,2072.3,854.035Zm-99.523,64.515.217-.561q.223.553.428,1.058Z" transform="translate(-14.939 -8.385)" fill="#7c96c4" opacity="0.3"/>
    <path id="Trazado_130160" data-name="Trazado 130160" d="M2328.4,1090.327c-.684-2.9-8.257-18.692-28.616-18.692-16.455,0-24.941,10.754-29.485,11.043s-7.848-5.051-14.664-4.274-8.467,6.006-13.631,7.583-8.674.3-17.762.011a26.41,26.41,0,0,0-14.671,4.33Z" transform="translate(-34.268 -26.167)" fill="#ecf3ff"/>
    <path id="Trazado_130161" data-name="Trazado 130161" d="M2026.8,1108.483l64.289,2.424,23.821-21.367-49.6-1.525Z" transform="translate(-20.298 -27.419)" fill="#7c96c4" opacity="0.2"/>
    <path id="Trazado_130162" data-name="Trazado 130162" d="M2027.556,1104.8l64.289,2.424,23.82-21.367-48.416-2.016Z" transform="translate(-20.356 -27.1)" fill="url(#linear-gradient)"/>
    <path id="Trazado_130163" data-name="Trazado 130163" d="M1989.177,1117.744l64.289,2.424,23.821-21.367-49.6-1.525Z" transform="translate(-17.423 -28.127)" fill="#7c96c4" opacity="0.2"/>
    <path id="Trazado_130164" data-name="Trazado 130164" d="M1989.937,1114.062l64.289,2.424,23.821-21.367-48.416-2.015Z" transform="translate(-17.481 -27.808)" fill="url(#linear-gradient)"/>
    <ellipse id="Elipse_4356" data-name="Elipse 4356" cx="51.412" cy="12.321" rx="51.412" ry="12.321" transform="translate(1915.627 1045.313)" fill="#ecf3ff"/>
    <path id="Trazado_130165" data-name="Trazado 130165" d="M1950.268,1083.49v-4.2a1.418,1.418,0,0,1,1.418-1.418l9.137-.037-.092-1.949a.672.672,0,0,1,1.026-.65l4.675,2.961a4.652,4.652,0,0,0,2.85.771l4.738-.233a1.925,1.925,0,0,1,2.016,1.793l.2,2.959Z" transform="translate(-14.449 -26.434)" fill="url(#linear-gradient-7)"/>
    <path id="Trazado_130166" data-name="Trazado 130166" d="M2054.172,853a30.545,30.545,0,0,0,1.995,3.846c-.875,1.458-3.008,5.475-2.225,4.01l6.007,3.4c.324-.961,3.283-5.8,3.383-6.132,3.133-5.865,7.091-13.265,7.211-13.437.2-.284-.106-.953-1.019-.174s-3.485,3.819-3.485,3.819,3.435-5.72,3.756-6.241-.188-1.171-.624-1.008a3.664,3.664,0,0,1,.327-.685c.442-.5-.484-1.3-1.562-.183s-4.466,5.685-5.007,5.643,2.169-5.634,2.545-6.672-.869-1.232-2.715,1.68-4,7.144-4.968,8.01-1.59-.4-1.842-1.243-2.121-3.6-3.039-2.656.582,1.893.549,2.88A9.768,9.768,0,0,0,2054.172,853Z" transform="translate(-22.271 -8.347)" fill="url(#linear-gradient-8)"/>
    <ellipse id="Elipse_4357" data-name="Elipse 4357" cx="18.163" cy="4.353" rx="18.163" ry="4.353" transform="translate(2020.279 1042.597)" fill="#ecf3ff"/>
    <path id="Trazado_130167" data-name="Trazado 130167" d="M1979.547,849.184a6.99,6.99,0,0,0-8.046,8.471h0c2.23,9.562,2.239,9.594,4.456,19.1l.015.065,0,.013h0a6.993,6.993,0,1,0,13.62-3.178h0l-4.457-19.1-.015-.064,0-.014h0A6.992,6.992,0,0,0,1979.547,849.184Z" transform="translate(-16.058 -9.156)" fill="url(#linear-gradient-9)"/>
    <path id="Trazado_130168" data-name="Trazado 130168" d="M1985.113,862.94l-.24.072a12.434,12.434,0,0,1-15.5-8.306l-2.339-7.742a12.434,12.434,0,0,1,8.307-15.5l.24-.072a12.433,12.433,0,0,1,15.5,8.306l2.34,7.742A12.435,12.435,0,0,1,1985.113,862.94Z" transform="translate(-15.689 -7.764)" fill="url(#linear-gradient-10)"/>
    <path id="Trazado_130169" data-name="Trazado 130169" d="M1970.471,832.945l3.848-1.37,7.087-2.524a5.794,5.794,0,0,1,7.4,3.514l.019.055-1.9.677,2.114,5.935a4.975,4.975,0,0,1-2.114,5.925l-.089-.248a2.745,2.745,0,0,0-3.507-1.665l-.053.018a2.746,2.746,0,0,0-1.665,3.508l1.862,5.227a5.245,5.245,0,0,1-3.182,6.7l-5.111,1.82a5.245,5.245,0,0,1-6.7-3.182l-4.11-11.54A10.061,10.061,0,0,1,1970.471,832.945Z" transform="translate(-15.482 -7.6)" fill="#172b36"/>
    <path id="Trazado_130170" data-name="Trazado 130170" d="M1991.576,875.438l-20.534,1.682-.451-5.5a3.389,3.389,0,0,1,3.1-3.653l10.868-.889a6.311,6.311,0,0,1,6.8,5.774Z" transform="translate(-16.001 -10.53)" fill="url(#linear-gradient-11)"/>
    <path id="Trazado_130171" data-name="Trazado 130171" d="M1993.96,1078.828a4.805,4.805,0,0,1-2.926-5.072l5.238-39.4a4.8,4.8,0,1,1,9.522,1.265l-5.237,39.4a4.808,4.808,0,0,1-6.6,3.807Z" transform="translate(-17.561 -22.998)" fill="#0056ec"/>
    <path id="Trazado_130172" data-name="Trazado 130172" d="M1989.635,1083.49v-4.2a1.418,1.418,0,0,1,1.418-1.418l9.137-.037-.091-1.949a.671.671,0,0,1,1.025-.65l4.675,2.961a4.652,4.652,0,0,0,2.85.771l4.738-.233a1.926,1.926,0,0,1,2.016,1.793l.2,2.959Z" transform="translate(-17.458 -26.434)" fill="url(#linear-gradient-12)"/>
    <path id="Trazado_130173" data-name="Trazado 130173" d="M1982.74,930.569l0,0-25.258-19.446,0,0a7.29,7.29,0,1,0-8.22,12.013l0,0,27.274,16.5,0,0a5.5,5.5,0,0,0,6.2-9.068Z" transform="translate(-14.103 -13.783)" fill="#7d6eb2"/>
    <path id="Trazado_130174" data-name="Trazado 130174" d="M1969.281,892.955h0a9.31,9.31,0,1,0-17.778-5.342s-3.146,14.36-5.6,25.606l.007,0a7.289,7.289,0,0,0,13.92,4.183h0l.024-.063.019-.051Z" transform="translate(-14.102 -11.541)" fill="#7d6eb2"/>
    <path id="Trazado_130175" data-name="Trazado 130175" d="M1954.065,1077.356a4.8,4.8,0,0,1-2.925-5.072l5.237-39.406a4.8,4.8,0,0,1,9.523,1.266l-5.238,39.405a4.808,4.808,0,0,1-6.6,3.807Z" transform="translate(-14.512 -22.886)" fill="#0056ec"/>
    <path id="Trazado_130176" data-name="Trazado 130176" d="M2002.585,1067.523c.455-5.19,9.967-106.673,9.967-106.673l.062-.746.078-.862c.032-.358.056-.721.056-1.089a11.786,11.786,0,0,0-23.572-.011s.477,105.615.424,109.612S2002.13,1072.714,2002.585,1067.523Z" transform="translate(-17.423 -16.592)" fill="#172b36"/>
    <path id="Trazado_130177" data-name="Trazado 130177" d="M1963.642,1068.75c1.589-6.371,23.4-106.245,23.4-106.245l.394-1.827a11.779,11.779,0,1,0-23.19-4l-.136,1c-11.5,86.98-13.481,107.715-13.794,111.426C1949.971,1073.193,1962.547,1073.142,1963.642,1068.75Z" transform="translate(-14.452 -16.592)" fill="#172b36"/>
    <path id="Trazado_130178" data-name="Trazado 130178" d="M2045.463,883.837a6.358,6.358,0,0,1-3.719-9.963l.652-.888,11.375-15.514a4.572,4.572,0,0,1,8.188,3.659,4.656,4.656,0,0,1-.361,1.007l-.36.739-8.21,16.657-.455.911A6.332,6.332,0,0,1,2045.463,883.837Z" transform="translate(-21.346 -9.651)" fill="url(#linear-gradient-13)"/>
    <path id="Trazado_130179" data-name="Trazado 130179" d="M2048.512,883.52a7.291,7.291,0,0,0-7.367-7.1v0l-32.938.34v.006c-.049,0-.095,0-.144,0a9.315,9.315,0,1,0,1.474,18.544h0l32.606-4.359.02,0,.023,0h0A7.3,7.3,0,0,0,2048.512,883.52Z" transform="translate(-18.173 -11.246)" fill="#7d6eb2"/>
    <path id="Trazado_130180" data-name="Trazado 130180" d="M2061.794,863.553c1.2-2.793-8-7.3-9.807-4.477h0l-.012.017-.031.042-12.028,16.4h0a7.291,7.291,0,1,0,12.418,7.534l0,0C2057.483,872.641,2061.452,864.35,2061.794,863.553Z" transform="translate(-21.193 -9.852)" fill="#7d6eb2"/>
    <path id="Trazado_130181" data-name="Trazado 130181" d="M1953.173,884.068c.857-1.551,8.808-10.714,25.834-12.2s25.045,5.357,25.045,5.357,5.731,63.783,5.9,71.9-46.344,11.712-46.166,2.372.849-35.535.849-35.535S1952.166,885.891,1953.173,884.068Z" transform="translate(-14.667 -10.882)" fill="#5e5385"/>
    <ellipse id="Elipse_4358" data-name="Elipse 4358" cx="28.118" cy="9.188" rx="28.118" ry="9.188" transform="translate(1802.685 1081.018)" fill="#004fa0" opacity="0.4"/>
    <ellipse id="Elipse_4359" data-name="Elipse 4359" cx="28.118" cy="9.188" rx="28.118" ry="9.188" transform="translate(1800.91 1078.946)" fill="url(#linear-gradient)"/>
    <g id="Grupo_56890" data-name="Grupo 56890" transform="translate(1805.206 1080.038)">
      <path id="Trazado_130182" data-name="Trazado 130182" d="M1832.668,1125.256c-13.358,0-23.822-3.556-23.822-8.095s10.464-8.1,23.822-8.1,23.822,3.556,23.822,8.1S1846.026,1125.256,1832.668,1125.256Zm0-15.266c-13.7,0-22.9,3.708-22.9,7.172s9.2,7.171,22.9,7.171,22.9-3.708,22.9-7.171S1846.365,1109.99,1832.668,1109.99Z" transform="translate(-1808.846 -1109.066)" fill="#fff"/>
    </g>
    <ellipse id="Elipse_4360" data-name="Elipse 4360" cx="14.339" cy="4.685" rx="14.339" ry="4.685" transform="translate(1814.689 1083.448)" fill="#7c96c4" opacity="0.2"/>
    <path id="Trazado_130183" data-name="Trazado 130183" d="M1833.676,1116.51h-.526c-14.364,0-26.008-11.267-26.008-25.166v-28.111h52.542v28.111C1859.684,1105.243,1848.039,1116.51,1833.676,1116.51Z" transform="translate(-3.509 -25.525)" fill="url(#linear-gradient)"/>
    <ellipse id="Elipse_4361" data-name="Elipse 4361" cx="26.271" cy="6.278" rx="26.271" ry="6.278" transform="translate(1803.633 1031.429)" fill="#b3cdfa"/>
    <path id="Trazado_130184" data-name="Trazado 130184" d="M1858.893,1062.785c0,1.45-3.934,3.269-10.88,4.387-.222.037-.462.074-.693.111-1.348.2-2.808.379-4.359.517-.24.027-.49.055-.739.074-2.133.175-4.461.3-6.945.333-.231.009-.462.009-.7.009-.36.009-.72.009-1.09.009a97.687,97.687,0,0,1-11.194-.6c-.25-.019-.49-.055-.73-.083-8.552-1.053-13.484-3.131-13.484-4.756,0-1.478,4.082-3.334,11.258-4.452.231-.037.462-.065.693-.1a94.357,94.357,0,0,1,13.457-.887c1.006,0,1.995.009,2.955.037l.683.028a88.709,88.709,0,0,1,8.95.7,2.316,2.316,0,0,1,.249.037c.166.019.333.046.489.065a1.794,1.794,0,0,1,.213.037C1854.58,1059.349,1858.893,1061.27,1858.893,1062.785Z" transform="translate(-3.581 -25.075)" fill="#bdccd4"/>
    <path id="Trazado_130185" data-name="Trazado 130185" d="M1849.483,1056.488c1.618,1.9,16.014-.181,23.846-5.243s7.375-8.738,10.563-12.17,8.21-4.419,11.106-8.982c4.2-6.612,3.682-19.218.408-20.029-2.417-.6-4.488,6.962-11.783,8.473s-15.932.434-24.669,8.247C1851.124,1033.789,1846.36,1052.817,1849.483,1056.488Z" transform="translate(-6.671 -21.458)" fill="#7dccd4"/>
    <g id="Grupo_56891" data-name="Grupo 56891" transform="translate(1838.641 988.262)">
      <path id="Trazado_130186" data-name="Trazado 130186" d="M1845.787,1064.158c.369-1.21.748-2.383,1.145-3.473a49.818,49.818,0,0,1,2.29-5.3c.129-.277.268-.545.416-.813.055-.12.12-.24.185-.351,9.559-18.065,27.651-26.756,35.853-30.7,1.016-.49,1.866-.9,2.494-1.229a13.214,13.214,0,0,0,7.314-12.283.351.351,0,0,0-.379-.314.344.344,0,0,0-.3.379,12.533,12.533,0,0,1-6.955,11.609c-.628.323-1.459.73-2.475,1.219-8.118,3.9-25.851,12.413-35.641,30.025q-.319.554-.61,1.136c-.074.129-.148.268-.222.406a53.223,53.223,0,0,0-2.614,5.985c-.434,1.182-.85,2.457-1.238,3.777Z" transform="translate(-1845.048 -1009.695)" fill="#b3cdfa"/>
    </g>
    <g id="Grupo_56892" data-name="Grupo 56892" transform="translate(1883.759 997.06)">
      <path id="Trazado_130187" data-name="Trazado 130187" d="M1895.751,1021.486a13.871,13.871,0,0,1-1.547-.078.346.346,0,0,1,.083-.687c.047.006,4.613.529,6.948-1.419a.346.346,0,1,1,.444.532C1900,1021.235,1897.4,1021.486,1895.751,1021.486Z" transform="translate(-1893.899 -1019.22)" fill="#b3cdfa"/>
    </g>
    <g id="Grupo_56893" data-name="Grupo 56893" transform="translate(1873.84 997.017)">
      <path id="Trazado_130188" data-name="Trazado 130188" d="M1884.035,1026.446a.346.346,0,0,1-.3-.18c-1.57-2.875.583-6.752.675-6.916a.346.346,0,1,1,.6.341c-.02.036-2.056,3.705-.669,6.243a.345.345,0,0,1-.139.469A.335.335,0,0,1,1884.035,1026.446Z" transform="translate(-1883.159 -1019.174)" fill="#b3cdfa"/>
    </g>
    <g id="Grupo_56894" data-name="Grupo 56894" transform="translate(1877.794 1001.9)">
      <path id="Trazado_130189" data-name="Trazado 130189" d="M1896.87,1027.921c-4.512,0-9.029-2.677-9.261-2.816a.346.346,0,0,1,.356-.594c.067.04,6.764,4,11.722,2.273a.346.346,0,1,1,.229.653A9.191,9.191,0,0,1,1896.87,1027.921Z" transform="translate(-1887.441 -1024.461)" fill="#b3cdfa"/>
    </g>
    <g id="Grupo_56895" data-name="Grupo 56895" transform="translate(1858.424 999.363)">
      <path id="Trazado_130190" data-name="Trazado 130190" d="M1867.743,1036.065a.345.345,0,0,1-.3-.181c-3.04-5.617,2.015-13.668,2.233-14.008a.346.346,0,1,1,.584.371c-.051.08-5.053,8.048-2.208,13.307a.346.346,0,0,1-.14.469A.339.339,0,0,1,1867.743,1036.065Z" transform="translate(-1866.467 -1021.715)" fill="#b3cdfa"/>
    </g>
    <g id="Grupo_56896" data-name="Grupo 56896" transform="translate(1865.88 1008.424)">
      <path id="Trazado_130191" data-name="Trazado 130191" d="M1886.963,1036.093a20.707,20.707,0,0,1-12.327-4.1.255.255,0,0,1-.018-.382.318.318,0,0,1,.419-.016,20.081,20.081,0,0,0,13.676,3.875.3.3,0,0,1,.324.243.279.279,0,0,1-.267.3C1888.154,1036.066,1887.55,1036.093,1886.963,1036.093Z" transform="translate(-1874.541 -1031.525)" fill="#b3cdfa"/>
    </g>
    <g id="Grupo_56897" data-name="Grupo 56897" transform="translate(1853.376 1018.244)">
      <path id="Trazado_130192" data-name="Trazado 130192" d="M1874.756,1047.312c-9.085,0-13.6-4.51-13.656-4.566a.346.346,0,0,1,.5-.483c.065.067,6.7,6.649,20.175,3.509a.346.346,0,0,1,.157.674A31.577,31.577,0,0,1,1874.756,1047.312Z" transform="translate(-1861.002 -1042.158)" fill="#b3cdfa"/>
    </g>
    <g id="Grupo_56898" data-name="Grupo 56898" transform="translate(1847.253 1007.482)">
      <path id="Trazado_130193" data-name="Trazado 130193" d="M1856.85,1046.254a.346.346,0,0,1-.262-.12c-5-5.776-.007-15.058.208-15.45a.346.346,0,0,1,.608.333c-.051.093-4.974,9.253-.291,14.665a.346.346,0,0,1-.262.573Z" transform="translate(-1854.372 -1030.505)" fill="#b3cdfa"/>
    </g>
    <g id="Grupo_56899" data-name="Grupo 56899" transform="translate(1846.252 1028.113)">
      <path id="Trazado_130194" data-name="Trazado 130194" d="M1866.336,1056.363a29.611,29.611,0,0,1-12.867-2.869.346.346,0,1,1,.331-.608,29.276,29.276,0,0,0,19.808,1.832.347.347,0,1,1,.179.67A28.717,28.717,0,0,1,1866.336,1056.363Z" transform="translate(-1853.288 -1052.843)" fill="#b3cdfa"/>
    </g>
    <path id="Trazado_130195" data-name="Trazado 130195" d="M1809.7,1039.109s.615-16.048-7-23.524c-6.237-6.125-15.188-8.729-19.458-10.429-6.554-2.609-18.568-9.368-20.2-14.723-.664-2.185-4.1,6.806.665,19.527C1775.218,1040.665,1806.577,1042.1,1809.7,1039.109Z" transform="translate(0 -19.935)" fill="#7dccd4"/>
    <g id="Grupo_56900" data-name="Grupo 56900" transform="translate(1762.276 970.211)">
      <path id="Trazado_130196" data-name="Trazado 130196" d="M1818.8,1062.488c-.25-.018-.49-.055-.73-.083-.259-1.238-.545-2.521-.859-3.824-.425-1.764-.85-3.556-1.367-5.384-2.771-9.891-8.007-20.771-27.587-32.186-20.457-11.933-25.823-30.238-25.878-30.422a.346.346,0,0,1,.665-.194c.055.185,5.357,18.231,25.564,30.016,19.875,11.582,25.13,22.637,27.929,32.685.508,1.81.933,3.583,1.348,5.329C1818.216,1059.81,1818.521,1061.168,1818.8,1062.488Z" transform="translate(-1762.363 -990.149)" fill="#b3cdfa"/>
    </g>
    <g id="Grupo_56901" data-name="Grupo 56901" transform="translate(1776.074 982.092)">
      <path id="Trazado_130197" data-name="Trazado 130197" d="M1778.739,1014.05a.344.344,0,0,1-.309-.191c-2.349-4.68-.313-10.376-.225-10.617a.346.346,0,1,1,.65.238c-.02.055-2.018,5.66.194,10.069a.346.346,0,0,1-.154.465A.333.333,0,0,1,1778.739,1014.05Z" transform="translate(-1777.302 -1003.014)" fill="#b3cdfa"/>
    </g>
    <g id="Grupo_56902" data-name="Grupo 56902" transform="translate(1769.509 977.647)">
      <path id="Trazado_130198" data-name="Trazado 130198" d="M1771.342,1006.185a.346.346,0,0,1-.321-.215,16.672,16.672,0,0,1-.674-7.471.342.342,0,0,1,.392-.294.348.348,0,0,1,.294.392c-.006.041-.576,4.151.63,7.11a.348.348,0,0,1-.189.453A.368.368,0,0,1,1771.342,1006.185Z" transform="translate(-1770.194 -998.201)" fill="#b3cdfa"/>
    </g>
    <g id="Grupo_56903" data-name="Grupo 56903" transform="translate(1786.126 986.407)">
      <path id="Trazado_130199" data-name="Trazado 130199" d="M1790.406,1022.394a.346.346,0,0,1-.3-.167c-3.523-5.826-1.148-13.95-1.045-14.293a.346.346,0,0,1,.663.2c-.024.081-2.388,8.177.974,13.735a.347.347,0,0,1-.3.526Z" transform="translate(-1788.187 -1007.686)" fill="#b3cdfa"/>
    </g>
    <g id="Grupo_56904" data-name="Grupo 56904" transform="translate(1795.835 992.291)">
      <path id="Trazado_130200" data-name="Trazado 130200" d="M1800.253,1028.813a.346.346,0,0,1-.318-.21,14.16,14.16,0,0,1,1.736-14.427.347.347,0,0,1,.522.456,13.455,13.455,0,0,0-1.622,13.7.347.347,0,0,1-.319.484Z" transform="translate(-1798.699 -1014.057)" fill="#b3cdfa"/>
    </g>
    <g id="Grupo_56905" data-name="Grupo 56905" transform="translate(1804.777 1004.913)">
      <path id="Trazado_130201" data-name="Trazado 130201" d="M1808.924,1036.837a.346.346,0,0,1-.338-.275,9.558,9.558,0,0,1,2.743-8.749.346.346,0,0,1,.463.516,9.021,9.021,0,0,0-2.528,8.091.347.347,0,0,1-.268.41A.37.37,0,0,1,1808.924,1036.837Z" transform="translate(-1808.381 -1027.723)" fill="#b3cdfa"/>
    </g>
    <g id="Grupo_56906" data-name="Grupo 56906" transform="translate(1762.191 985.573)">
      <path id="Trazado_130202" data-name="Trazado 130202" d="M1773.13,1009.76a.348.348,0,0,1-.232-.088c-3.87-3.483-10.123-1.756-10.186-1.737a.346.346,0,1,1-.19-.666c.272-.077,6.688-1.846,10.84,1.887a.346.346,0,0,1-.232.6Z" transform="translate(-1762.271 -1006.783)" fill="#b3cdfa"/>
    </g>
    <g id="Grupo_56907" data-name="Grupo 56907" transform="translate(1766.875 994.847)">
      <path id="Trazado_130203" data-name="Trazado 130203" d="M1767.688,1019.858a.346.346,0,0,1-.169-.648,21,21,0,0,1,13.913-1.9.347.347,0,0,1,.256.417.342.342,0,0,1-.418.255c-6.988-1.683-13.35,1.794-13.414,1.829A.347.347,0,0,1,1767.688,1019.858Z" transform="translate(-1767.342 -1016.824)" fill="#b3cdfa"/>
    </g>
    <g id="Grupo_56908" data-name="Grupo 56908" transform="translate(1774.092 1001.977)">
      <path id="Trazado_130204" data-name="Trazado 130204" d="M1775.5,1030.006a.344.344,0,0,1-.271-.129.348.348,0,0,1,.054-.488c.078-.061,7.791-6.124,17.156-4.6a.347.347,0,0,1,.286.4.353.353,0,0,1-.4.285c-9.066-1.477-16.536,4.4-16.611,4.455A.341.341,0,0,1,1775.5,1030.006Z" transform="translate(-1775.157 -1024.545)" fill="#b3cdfa"/>
    </g>
    <g id="Grupo_56909" data-name="Grupo 56909" transform="translate(1787.888 1010.434)">
      <path id="Trazado_130205" data-name="Trazado 130205" d="M1790.44,1040.171a.346.346,0,0,1-.252-.584c.277-.294,6.867-7.159,14.667-5.675a.346.346,0,1,1-.129.68c-7.434-1.406-13.969,5.4-14.035,5.471A.344.344,0,0,1,1790.44,1040.171Z" transform="translate(-1790.094 -1033.702)" fill="#b3cdfa"/>
    </g>
    <path id="Trazado_130206" data-name="Trazado 130206" d="M1852.289,1021.282s-4.535-15.449,1.026-24.459c4.556-7.383,12.613-11.968,16.344-14.6,5.726-4.041,15.74-13.365,16.007-18.941.11-2.277,5.654,5.668,4.145,19.122C1886.169,1014.872,1856.057,1023.465,1852.289,1021.282Z" transform="translate(-6.827 -17.856)" fill="#7dccd4"/>
    <g id="Grupo_56910" data-name="Grupo 56910" transform="translate(1842.31 945.038)">
      <path id="Trazado_130207" data-name="Trazado 130207" d="M1851.142,1059.953c-.36-2.447-.72-5.468-.988-8.922l-.028-.388c-.037-.425-.065-.85-.092-1.293v-.009c-.157-2.318-.259-4.812-.3-7.444-.148-11.572-.314-24.687,18.905-43.149,16.948-16.292,17.677-35.308,17.677-35.5a.335.335,0,0,0-.333-.351.328.328,0,0,0-.36.333c0,.185-.73,18.933-17.464,35.022-19.432,18.665-19.266,31.946-19.118,43.657.037,3.057.176,5.939.379,8.58-.009.009,0,.009,0,.009,0,.148.018.286.028.434.018.3.046.591.074.877v.009c.259,3.168.6,5.957.924,8.247Z" transform="translate(-1849.02 -962.893)" fill="#b3cdfa"/>
    </g>
    <g id="Grupo_56911" data-name="Grupo 56911" transform="translate(1867.579 959.951)">
      <path id="Trazado_130208" data-name="Trazado 130208" d="M1879.06,989.83a.362.362,0,0,1-.076-.008.346.346,0,0,1-.262-.413c1.067-4.792-2.25-9.779-2.283-9.829a.346.346,0,0,1,.573-.388c.145.213,3.518,5.279,2.386,10.366A.347.347,0,0,1,1879.06,989.83Z" transform="translate(-1876.38 -979.04)" fill="#b3cdfa"/>
    </g>
    <g id="Grupo_56912" data-name="Grupo 56912" transform="translate(1873.576 953.959)">
      <path id="Trazado_130209" data-name="Trazado 130209" d="M1884.375,980.476a.3.3,0,0,1-.049,0,.345.345,0,0,1-.294-.392c.447-3.154-1.117-7.011-1.132-7.05a.346.346,0,1,1,.64-.263,16.716,16.716,0,0,1,1.177,7.411A.346.346,0,0,1,1884.375,980.476Z" transform="translate(-1882.874 -972.553)" fill="#b3cdfa"/>
    </g>
    <g id="Grupo_56913" data-name="Grupo 56913" transform="translate(1858.888 966.449)">
      <path id="Trazado_130210" data-name="Trazado 130210" d="M1869.775,1000.615a.331.331,0,0,1-.1-.016.346.346,0,0,1-.229-.433c1.9-6.171-2.382-13.493-2.425-13.566a.346.346,0,1,1,.6-.354c.184.309,4.484,7.655,2.492,14.124A.348.348,0,0,1,1869.775,1000.615Z" transform="translate(-1866.97 -986.076)" fill="#b3cdfa"/>
    </g>
    <g id="Grupo_56914" data-name="Grupo 56914" transform="translate(1848.935 974.859)">
      <path id="Trazado_130211" data-name="Trazado 130211" d="M1861.622,1009.151a.391.391,0,0,1-.056,0,.347.347,0,0,1-.286-.4,13.6,13.6,0,0,0-4.939-12.935.347.347,0,1,1,.4-.567,14.331,14.331,0,0,1,5.224,13.615A.345.345,0,0,1,1861.622,1009.151Z" transform="translate(-1856.193 -995.182)" fill="#b3cdfa"/>
    </g>
    <g id="Grupo_56915" data-name="Grupo 56915" transform="translate(1843.398 989.163)">
      <path id="Trazado_130212" data-name="Trazado 130212" d="M1855.171,1018.936a.346.346,0,0,1-.346-.333,9.187,9.187,0,0,0-4.444-7.283.346.346,0,0,1,.328-.61,9.721,9.721,0,0,1,4.809,7.866.347.347,0,0,1-.332.359Z" transform="translate(-1850.198 -1010.67)" fill="#b3cdfa"/>
    </g>
    <g id="Grupo_56916" data-name="Grupo 56916" transform="translate(1873.121 960.397)">
      <path id="Trazado_130213" data-name="Trazado 130213" d="M1882.727,984.395a.346.346,0,0,1-.286-.541c3.12-4.586,9.789-4.332,10.07-4.326a.345.345,0,0,1,.33.361.357.357,0,0,1-.361.332c-.066-.01-6.567-.237-9.467,4.023A.344.344,0,0,1,1882.727,984.395Z" transform="translate(-1882.381 -979.524)" fill="#b3cdfa"/>
    </g>
    <g id="Grupo_56917" data-name="Grupo 56917" transform="translate(1867.344 971.687)">
      <path id="Trazado_130214" data-name="Trazado 130214" d="M1876.472,994.383a.346.346,0,0,1-.157-.655c6.622-3.366,13.682-1.439,13.98-1.355a.348.348,0,0,1,.24.428.352.352,0,0,1-.428.24c-.07-.021-7.105-1.936-13.479,1.3A.339.339,0,0,1,1876.472,994.383Z" transform="translate(-1876.125 -991.748)" fill="#b3cdfa"/>
    </g>
    <g id="Grupo_56918" data-name="Grupo 56918" transform="translate(1858.896 981.254)">
      <path id="Trazado_130215" data-name="Trazado 130215" d="M1884.836,1004.788a.356.356,0,0,1-.146-.032c-.087-.04-8.8-4.026-17.232-.513a.346.346,0,1,1-.267-.639c8.726-3.634,17.7.483,17.792.524a.347.347,0,0,1-.148.66Z" transform="translate(-1866.978 -1002.106)" fill="#b3cdfa"/>
    </g>
    <g id="Grupo_56919" data-name="Grupo 56919" transform="translate(1850.021 992.458)">
      <path id="Trazado_130216" data-name="Trazado 130216" d="M1873.023,1018.079a.345.345,0,0,1-.188-.056c-.081-.051-8.114-5.164-14.978-2.092a.346.346,0,1,1-.282-.632c7.213-3.231,15.3,1.922,15.637,2.143a.346.346,0,0,1-.188.637Z" transform="translate(-1857.369 -1014.237)" fill="#b3cdfa"/>
    </g>
    <path id="Trazado_130217" data-name="Trazado 130217" d="M1809.152,968.388s9.057,16.406,16.376,22.541c9.68,8.113,20,26.409,15.58,45.807-2.346,10.3-7.7,12.572-7.7,12.572s-4.954-14.525-9.964-19.821-10.5-9.975-12.089-22.971S1809.152,968.388,1809.152,968.388Z" transform="translate(-3.663 -18.275)" fill="#7dccd4"/>
    <g id="Grupo_56920" data-name="Grupo 56920" transform="translate(1804.346 935.634)">
      <path id="Trazado_130218" data-name="Trazado 130218" d="M1831.955,1060.512a106.269,106.269,0,0,0,1.847-10.8,68.846,68.846,0,0,0-.573-21.676c-2.2-10.63-7.629-18.684-12.874-26.469a100.657,100.657,0,0,1-7.647-12.579c-5.68-11.84-3.814-35.668-3.8-35.908a.343.343,0,0,0-.683-.055c-.028.24-1.9,24.253,3.851,36.259a101.244,101.244,0,0,0,7.7,12.671c5.209,7.73,10.593,15.719,12.764,26.229a68.285,68.285,0,0,1,.573,21.5,107.048,107.048,0,0,1-1.866,10.833Z" transform="translate(-1807.915 -952.711)" fill="#b3cdfa"/>
    </g>
    <g id="Grupo_56921" data-name="Grupo 56921" transform="translate(1812.372 965.021)">
      <path id="Trazado_130219" data-name="Trazado 130219" d="M1818.014,1000.47a.344.344,0,0,1-.321-.215c-2.849-6.992.779-15.177.934-15.521a.347.347,0,0,1,.632.285c-.037.082-3.659,8.261-.924,14.975a.347.347,0,0,1-.19.452A.341.341,0,0,1,1818.014,1000.47Z" transform="translate(-1816.605 -984.53)" fill="#b3cdfa"/>
    </g>
    <g id="Grupo_56922" data-name="Grupo 56922" transform="translate(1818.771 972.308)">
      <path id="Trazado_130220" data-name="Trazado 130220" d="M1824.733,1010.379a.347.347,0,0,1-.329-.236c-2.7-8.09,1.724-17.15,1.913-17.531a.351.351,0,0,1,.465-.156.347.347,0,0,1,.156.465c-.045.091-4.485,9.188-1.877,17a.346.346,0,0,1-.219.439A.322.322,0,0,1,1824.733,1010.379Z" transform="translate(-1823.533 -992.42)" fill="#b3cdfa"/>
    </g>
    <g id="Grupo_56923" data-name="Grupo 56923" transform="translate(1824.885 983.149)">
      <path id="Trazado_130221" data-name="Trazado 130221" d="M1831.127,1021.863a.348.348,0,0,1-.326-.231c-2.9-8.116,4.861-16.983,5.193-17.357a.346.346,0,1,1,.518.46c-.078.088-7.822,8.936-5.057,16.665a.347.347,0,0,1-.327.463Z" transform="translate(-1830.153 -1004.159)" fill="#b3cdfa"/>
    </g>
    <g id="Grupo_56924" data-name="Grupo 56924" transform="translate(1828.888 998.244)">
      <path id="Trazado_130222" data-name="Trazado 130222" d="M1834.921,1033.641a.347.347,0,0,1-.344-.3c-1.081-8.522,8.043-12.763,8.137-12.8a.346.346,0,1,1,.286.631c-.088.04-8.751,4.075-7.735,12.087a.347.347,0,0,1-.3.387Z" transform="translate(-1834.488 -1020.503)" fill="#b3cdfa"/>
    </g>
    <g id="Grupo_56925" data-name="Grupo 56925" transform="translate(1830.248 1013.653)">
      <path id="Trazado_130223" data-name="Trazado 130223" d="M1836.306,1046.391h-.019a.347.347,0,0,1-.328-.364c.368-6.985,7.808-8.813,7.883-8.83a.346.346,0,0,1,.158.674c-.285.068-7.008,1.731-7.349,8.192A.346.346,0,0,1,1836.306,1046.391Z" transform="translate(-1835.959 -1037.188)" fill="#b3cdfa"/>
    </g>
    <g id="Grupo_56926" data-name="Grupo 56926" transform="translate(1805.927 987.172)">
      <path id="Trazado_130224" data-name="Trazado 130224" d="M1824.688,1013.215a.349.349,0,0,1-.284-.147c-4.093-5.808-14.243-3.3-14.345-3.275a.347.347,0,0,1-.172-.671c.435-.111,10.716-2.647,15.084,3.547a.348.348,0,0,1-.084.483A.354.354,0,0,1,1824.688,1013.215Z" transform="translate(-1809.626 -1008.515)" fill="#b3cdfa"/>
    </g>
    <g id="Grupo_56927" data-name="Grupo 56927" transform="translate(1810.317 998.753)">
      <path id="Trazado_130225" data-name="Trazado 130225" d="M1830.972,1025.632a.346.346,0,0,1-.3-.175c-3.758-6.651-15.7-2.264-15.823-2.216a.347.347,0,1,1-.243-.649c.514-.191,12.622-4.634,16.668,2.525a.347.347,0,0,1-.3.516Z" transform="translate(-1814.379 -1021.054)" fill="#b3cdfa"/>
    </g>
    <g id="Grupo_56928" data-name="Grupo 56928" transform="translate(1819.917 1011.074)">
      <path id="Trazado_130226" data-name="Trazado 130226" d="M1834.871,1038.935a.345.345,0,0,1-.319-.212c-2.161-5.144-9.272-3.332-9.345-3.316a.346.346,0,0,1-.177-.67c.079-.021,7.765-1.984,10.16,3.716a.348.348,0,0,1-.185.454A.363.363,0,0,1,1834.871,1038.935Z" transform="translate(-1824.773 -1034.394)" fill="#b3cdfa"/>
    </g>
    <path id="Trazado_130227" data-name="Trazado 130227" d="M2209.752,982.95c-.358-.006-7.168-5.958-7.168-5.958l1.877-6.951s5.842,2.269,6.049,4.681S2212.282,982.986,2209.752,982.95Z" transform="translate(-33.734 -18.402)" fill="url(#linear-gradient-16)"/>
    <g id="Grupo_56929" data-name="Grupo 56929" transform="translate(2128.146 938.169)">
      <path id="Trazado_130228" data-name="Trazado 130228" d="M2203.97,983.565h-35.418a2.855,2.855,0,0,1-2.537-1.943L2158.6,957.4a1.387,1.387,0,0,1,1.348-1.943h35.418a2.855,2.855,0,0,1,2.537,1.943l7.414,24.222A1.387,1.387,0,0,1,2203.97,983.565Z" transform="translate(-2158.511 -955.456)" fill="#7d6eb2"/>
      <path id="Trazado_130229" data-name="Trazado 130229" d="M2168.339,982.674a1.429,1.429,0,0,1-1.268-.971l-7.415-24.223a.7.7,0,0,1,.674-.972h35.418a1.428,1.428,0,0,1,1.268.972l7.415,24.223a.7.7,0,0,1-.674.971Z" transform="translate(-2158.595 -955.536)" fill="#b3cdfa"/>
      <path id="Trazado_130230" data-name="Trazado 130230" d="M2190.264,985.576H2186.3a.353.353,0,0,1-.314-.24v0a.171.171,0,0,1,.166-.24h3.963a.353.353,0,0,1,.314.24v0A.171.171,0,0,1,2190.264,985.576Z" transform="translate(-2160.61 -957.721)" fill="#b3cdfa"/>
    </g>
    <g id="Grupo_56930" data-name="Grupo 56930" transform="translate(2135.733 948.194)">
      <path id="Trazado_130231" data-name="Trazado 130231" d="M2172.009,974.369a5.737,5.737,0,0,1-5.1-3.894,3.334,3.334,0,0,1,.384-2.989,3.041,3.041,0,0,1,2.533-1.176,5.739,5.739,0,0,1,5.1,3.894,3.335,3.335,0,0,1-.384,2.989A3.047,3.047,0,0,1,2172.009,974.369Zm-2.183-7.135a2.146,2.146,0,0,0-1.791.8,2.392,2.392,0,0,0-.242,2.169,4.754,4.754,0,0,0,4.216,3.241,2.149,2.149,0,0,0,1.792-.8,2.4,2.4,0,0,0,.242-2.169A4.754,4.754,0,0,0,2169.826,967.234Z" transform="translate(-2166.727 -966.311)" fill="#fff"/>
    </g>
    <g id="Grupo_56931" data-name="Grupo 56931" transform="translate(2135.271 947.732)">
      <path id="Trazado_130232" data-name="Trazado 130232" d="M2166.429,970.572a3.79,3.79,0,0,1,.453-3.4,3.5,3.5,0,0,1,2.9-1.362v1.847a1.7,1.7,0,0,0-1.42.614,1.955,1.955,0,0,0-.173,1.759Z" transform="translate(-2166.227 -965.811)" fill="#7d6eb2"/>
    </g>
    <g id="Grupo_56932" data-name="Grupo 56932" transform="translate(2147.403 948.194)">
      <path id="Trazado_130233" data-name="Trazado 130233" d="M2184.645,974.369a5.738,5.738,0,0,1-5.1-3.894,3.336,3.336,0,0,1,.384-2.99,3.044,3.044,0,0,1,2.533-1.175,5.737,5.737,0,0,1,5.1,3.894,3.333,3.333,0,0,1-.383,2.988A3.044,3.044,0,0,1,2184.645,974.369Zm-2.183-7.135a2.151,2.151,0,0,0-1.792.8,2.4,2.4,0,0,0-.242,2.169,4.755,4.755,0,0,0,4.217,3.241,2.145,2.145,0,0,0,1.791-.8,2.391,2.391,0,0,0,.242-2.168A4.754,4.754,0,0,0,2182.461,967.234Z" transform="translate(-2179.362 -966.311)" fill="#fff"/>
    </g>
    <g id="Grupo_56933" data-name="Grupo 56933" transform="translate(2146.941 947.732)">
      <path id="Trazado_130234" data-name="Trazado 130234" d="M2179.064,970.572a3.792,3.792,0,0,1,.453-3.4,3.5,3.5,0,0,1,2.905-1.362v1.847a1.7,1.7,0,0,0-1.42.614,1.952,1.952,0,0,0-.173,1.759Z" transform="translate(-2178.862 -965.811)" fill="#7d6eb2"/>
    </g>
    <g id="Grupo_56934" data-name="Grupo 56934" transform="translate(2159.072 948.194)">
      <path id="Trazado_130235" data-name="Trazado 130235" d="M2197.28,974.369a5.738,5.738,0,0,1-5.1-3.894,3.337,3.337,0,0,1,.383-2.989,3.045,3.045,0,0,1,2.534-1.176,5.74,5.74,0,0,1,5.1,3.894,3.336,3.336,0,0,1-.384,2.989A3.046,3.046,0,0,1,2197.28,974.369Zm-2.183-7.135a2.148,2.148,0,0,0-1.792.8,2.4,2.4,0,0,0-.242,2.169,4.756,4.756,0,0,0,4.217,3.241,2.145,2.145,0,0,0,1.791-.8,2.4,2.4,0,0,0,.243-2.169A4.756,4.756,0,0,0,2195.1,967.234Z" transform="translate(-2191.997 -966.311)" fill="#fff"/>
    </g>
    <g id="Grupo_56935" data-name="Grupo 56935" transform="translate(2158.611 947.732)">
      <path id="Trazado_130236" data-name="Trazado 130236" d="M2191.7,970.572a3.791,3.791,0,0,1,.452-3.4,3.5,3.5,0,0,1,2.906-1.362v1.847a1.7,1.7,0,0,0-1.421.614,1.955,1.955,0,0,0-.172,1.759Z" transform="translate(-2191.498 -965.811)" fill="#7d6eb2"/>
    </g>
    <path id="Trazado_130237" data-name="Trazado 130237" d="M2172.947,971.35h-3.217l-.451-1.474h3.217Z" transform="translate(-31.188 -18.389)" fill="#fff" opacity="0.5"/>
    <path id="Trazado_130238" data-name="Trazado 130238" d="M2185.582,971.35h-3.217l-.451-1.474h3.217Z" transform="translate(-32.154 -18.389)" fill="#fff" opacity="0.5"/>
    <path id="Trazado_130239" data-name="Trazado 130239" d="M2198.218,971.35H2195l-.451-1.474h3.217Z" transform="translate(-33.12 -18.389)" fill="#fff" opacity="0.5"/>
    <path id="Trazado_130240" data-name="Trazado 130240" d="M2221.585,985.451c-2.18-1.3-4.264-2.6-6.062-3.87l-2.089-1.913s-2.49-8.165-3.11-8.875-6.184-2.869-6.184-2.869L2205,970.8c-.974-.421-2.326-1.19-2.411-1.234-.252-.127-1.671,1.08-.067,2.224a36.752,36.752,0,0,0,3.906,2.314s1.739,7.079,2.754,9.069c.449.882,5.879,7.4,12.4,13.676Z" transform="translate(-33.672 -18.24)" fill="url(#linear-gradient-17)"/>
    <ellipse id="Elipse_4362" data-name="Elipse 4362" cx="49.594" cy="11.885" rx="49.594" ry="11.885" transform="translate(2077.923 1079.329)" fill="#ecf3ff"/>
    <ellipse id="Elipse_4363" data-name="Elipse 4363" cx="29.554" cy="7.082" rx="29.554" ry="7.082" transform="translate(2175.624 1091.557)" fill="#ecf3ff"/>
    <path id="Trazado_130241" data-name="Trazado 130241" d="M2177.967,1102.632a4.866,4.866,0,0,1-6.248-2.459,4.351,4.351,0,0,1-.247-.763l-.384-1.634h0l-11.112-47.561-.467-2.037a7.035,7.035,0,0,1,4.4-8.126,7.594,7.594,0,0,1,9.75,3.837,6.934,6.934,0,0,1,.512,1.874l.246,1.915h.007l6.219,48.4.226,1.79A4.549,4.549,0,0,1,2177.967,1102.632Z" transform="translate(-30.428 -23.711)" fill="url(#linear-gradient-18)"/>
    <path id="Trazado_130242" data-name="Trazado 130242" d="M2182.487,1100.053l-.461-2.894-6.391,1.8-.586,2.328-1.818-1.65-5.707,1.612-.118,12.17a2.71,2.71,0,0,1-1.277,2.252l-5.175,3.294a1.416,1.416,0,0,0-.612,1.613l.007.022a1.516,1.516,0,0,0,1.659,1.021l10.9-1.447a2.882,2.882,0,0,0,2-1.207l4.4-6.392,2.108,5.686,3.083-.871,1.239-12.449Z" transform="translate(-30.501 -28.118)" fill="#f5ca56"/>
    <path id="Trazado_130243" data-name="Trazado 130243" d="M2180.884,1113.451l2.108,5.686,3.083-.87.969-9.733Z" transform="translate(-32.075 -28.987)" fill="url(#linear-gradient-19)"/>
    <path id="Trazado_130244" data-name="Trazado 130244" d="M2179.708,1082.148c-.43-3.623-4.787-40.3-4.787-40.3l-.116-.841-.156-1.2a8.388,8.388,0,0,0-.617-2.26,8.925,8.925,0,0,0-8.245-5.261,9.179,9.179,0,0,0-3.4.652,8.465,8.465,0,0,0-5.286,9.786l.5,2.18s7.628,33,9.218,39.061S2180.138,1085.771,2179.708,1082.148Z" transform="translate(-30.24 -23.159)" fill="#26aab7"/>
    <path id="Trazado_130245" data-name="Trazado 130245" d="M2228.847,951.016a7.2,7.2,0,0,1,9.225,3.74,6.473,6.473,0,0,1,.513,2.692h0c-.228,9.5-.229,9.534-.456,18.982l0,.065v.013h0a6.786,6.786,0,0,1-4.429,6.12,7.2,7.2,0,0,1-9.224-3.74,6.479,6.479,0,0,1-.513-2.691h0c.229-9.5.23-9.535.457-18.983l0-.064v-.013h0A6.784,6.784,0,0,1,2228.847,951.016Z" transform="translate(-35.368 -16.91)" fill="url(#linear-gradient-20)"/>
    <path id="Trazado_130246" data-name="Trazado 130246" d="M2225.149,959.883l.236.054a12.087,12.087,0,0,0,14.519-8.525l1.819-7.283a11.5,11.5,0,0,0-8.924-13.87l-.237-.054a12.087,12.087,0,0,0-14.519,8.526l-1.819,7.283A11.5,11.5,0,0,0,2225.149,959.883Z" transform="translate(-34.751 -15.333)" fill="url(#linear-gradient-21)"/>
    <path id="Trazado_130247" data-name="Trazado 130247" d="M2221.947,972.239l18.368-.786-.309-4.517a1.7,1.7,0,0,0-2.009-1.508l-12.529,2.229a4.193,4.193,0,0,0-3.525,4.543Z" transform="translate(-35.212 -18.047)" fill="url(#linear-gradient-22)"/>
    <path id="Trazado_130248" data-name="Trazado 130248" d="M2136.148,1107.708a4.681,4.681,0,0,1-4.778-4.565,4.4,4.4,0,0,1,.079-.8l.3-1.65h0l8.88-47.987.389-2.053a7.487,7.487,0,0,1,14.792,1.24,6.9,6.9,0,0,1-.282,1.917l-.542,1.858.007,0-13.733,46.961-.513,1.735A4.761,4.761,0,0,1,2136.148,1107.708Z" transform="translate(-28.291 -24.114)" fill="url(#linear-gradient-23)"/>
    <path id="Trazado_130249" data-name="Trazado 130249" d="M2141.067,1106.939l.339-2.543-12.2-1.443-6.1,11.124c-.373.833-1.9,1.5-2.833,1.677l-6.1,1.142a1.472,1.472,0,0,0-1.214,1.263l0,.023a1.451,1.451,0,0,0,1.12,1.553l10.646,2.667a2.973,2.973,0,0,0,2.332-.38l6.633-4.284-.341,6.024,3.2.329,6.154-11.038Z" transform="translate(-26.883 -28.561)" fill="#f5ca56"/>
    <path id="Trazado_130250" data-name="Trazado 130250" d="M2135.369,1118.773l-.342,6.023,3.2.328,4.81-8.629Z" transform="translate(-28.571 -29.596)" fill="url(#linear-gradient-24)"/>
    <path id="Trazado_130251" data-name="Trazado 130251" d="M2231.116,1038.872v-.284a13.083,13.083,0,0,0-14.331-13.023L2149.616,1032l-.166.027c-.238.029-.472.063-.7.108l-.161.035c-.216.046-.432.1-.647.159l-.185.058c-.2.06-.39.126-.585.2l-.215.087c-.171.071-.339.144-.517.231l-.247.126c-.146.076-.289.154-.432.238-.1.059-.2.121-.287.178-.12.078-.237.157-.354.239s-.215.158-.316.235-.187.149-.283.23c-.117.1-.232.2-.339.3l-.207.2c-.125.123-.245.248-.357.372l-.137.161c-.129.151-.252.3-.37.461l-.078.109c-.126.177-.249.357-.393.6a8.36,8.36,0,0,0-1.069,2.8l-.19,1.009c-1.167,6.315-2.592,14.081-4,21.748-1.373,7.475-3.4,19.092-4.166,23.258s11.608,6.617,12.7,3.3,11.554-38.781,11.554-38.781l60.071,2.261A13.084,13.084,0,0,0,2231.116,1038.872Z" transform="translate(-28.429 -22.641)" fill="#26aab7"/>
    <path id="Trazado_130252" data-name="Trazado 130252" d="M2235.757,1037.689c-2.5,6.314-41.149-10.375-37.7-14.517,4.612-5.53,8.009-9.479,8.009-9.479s-2.412-34.03-.381-36.433c3.169-3.753,13.367-5.307,24.14-6.433,8.991-.94,12.5,2.674,13.419,4.745,2.224,5.032-9,45.742-9,45.742S2237.159,1034.155,2235.757,1037.689Z" transform="translate(-33.372 -18.45)" fill="#172b36"/>
    <path id="Trazado_130253" data-name="Trazado 130253" d="M2191.814,1004.17c-2.753-2.05-14.7-11.845-19.146-15.954-1.336-1.511-2.156-2.542-2.2-2.6-.167-.232.185-2.638.055-3.278s-.2-3.287-.29-3.6-2.62-3.7-2.9-4.027-1.425-.324-1.093.943,1.172,2.738.716,2.781-1.973-1.285-2.13-1.489-.152-5.5-.166-6-1.312-1.493-1.581-.473-.839,5.875-.839,5.875-1.733,3.182-1.481,3.8c.056.137.173.42.173.42a2.29,2.29,0,0,0-.413.889,3.391,3.391,0,0,0,.387,1.057,11.646,11.646,0,0,0-.022,1.432,46.055,46.055,0,0,0,5.278,6.44c.042.036,17.94,30.665,26.387,25.172C2197.333,1012.46,2194.9,1006.465,2191.814,1004.17Z" transform="translate(-30.519 -18.402)" fill="url(#linear-gradient-25)"/>
    <path id="Trazado_130254" data-name="Trazado 130254" d="M2181.824,996.519s-.637-.409-2.661-2.051-8.3,4.855-6.471,7.245c1.377,1.8,3.252,4.078,3.252,4.078Z" transform="translate(-31.424 -20.249)" fill="url(#linear-gradient-22)"/>
    <path id="Trazado_130255" data-name="Trazado 130255" d="M2217.3,982.11a7.414,7.414,0,0,0-7.578-7.24,7.624,7.624,0,0,0-6.714,3.887l0,0c-5.135,9.385-8.711,15.921-12.424,22.706-2.667-2.026-7-5.359-8.058-6.134-2.456-1.795-9.344,5.714-7.273,8.367,1.336,1.713,6.385,7.614,8.309,9.41a20.174,20.174,0,0,0,5.228,3.731,6.163,6.163,0,0,0,2.85.692h.015c.019,0,.037,0,.056,0a6.022,6.022,0,0,0,4.943-2.614l0,0,19.442-28.885,0,0A6.975,6.975,0,0,0,2217.3,982.11Z" transform="translate(-31.616 -18.771)" fill="#172b36"/>
    <path id="Trazado_130256" data-name="Trazado 130256" d="M2250.836,987.905h-36.373a4.254,4.254,0,0,0-4.059,2.98l-17.709,56.444h-29.88a2.671,2.671,0,0,0-2.672,2.672v.054a2.671,2.671,0,0,0,2.672,2.672h73.476l18.6-59.294A4.254,4.254,0,0,0,2250.836,987.905Z" transform="translate(-30.49 -19.767)" fill="#f7ede2"/>
    <rect id="Rectngulo_30773" data-name="Rectngulo 30773" width="6.594" height="45.657" transform="translate(2176.011 1032.959)" fill="#fff5dc"/>
    <rect id="Rectngulo_30774" data-name="Rectngulo 30774" width="9.854" height="7.255" transform="translate(2174.432 1032.959)" fill="#f0daa5"/>
    <rect id="Rectngulo_30775" data-name="Rectngulo 30775" width="7.48" height="24.508" transform="translate(2175.619 1057.254)" fill="#f7ede2"/>
    <g id="Grupo_56936" data-name="Grupo 56936" transform="translate(2147.193 1084.55)">
      <path id="Trazado_130257" data-name="Trazado 130257" d="M2179.135,1122.965a4.1,4.1,0,1,0,4.1-4.1A4.1,4.1,0,0,0,2179.135,1122.965Z" transform="translate(-2179.135 -1114.327)" fill="#172b36"/>
      <path id="Trazado_130258" data-name="Trazado 130258" d="M2181.256,1123.127a2.143,2.143,0,1,0,2.143-2.144A2.143,2.143,0,0,0,2181.256,1123.127Z" transform="translate(-2179.297 -1114.488)" fill="#fff"/>
      <rect id="Rectngulo_30776" data-name="Rectngulo 30776" width="1.454" height="5.282" transform="translate(1.897)" fill="#172b36"/>
    </g>
    <g id="Grupo_56937" data-name="Grupo 56937" transform="translate(2203.218 1084.55)">
      <path id="Trazado_130259" data-name="Trazado 130259" d="M2248,1122.965a4.1,4.1,0,1,1-4.1-4.1A4.1,4.1,0,0,1,2248,1122.965Z" transform="translate(-2239.796 -1114.327)" fill="#172b36"/>
      <path id="Trazado_130260" data-name="Trazado 130260" d="M2246.2,1123.127a2.143,2.143,0,1,1-2.144-2.144A2.143,2.143,0,0,1,2246.2,1123.127Z" transform="translate(-2239.958 -1114.488)" fill="#fff"/>
      <rect id="Rectngulo_30777" data-name="Rectngulo 30777" width="1.454" height="5.282" transform="translate(4.853)" fill="#172b36"/>
    </g>
    <g id="Grupo_56938" data-name="Grupo 56938" transform="translate(2173.953 1081.762)">
      <circle id="Elipse_4364" data-name="Elipse 4364" cx="4.102" cy="4.102" r="4.102" transform="translate(0 4.535)" fill="#172b36"/>
      <path id="Trazado_130261" data-name="Trazado 130261" d="M2214.517,1120.108a2.143,2.143,0,1,1-2.143-2.143A2.143,2.143,0,0,1,2214.517,1120.108Z" transform="translate(-2208.271 -1111.47)" fill="#fff"/>
      <rect id="Rectngulo_30778" data-name="Rectngulo 30778" width="1.454" height="5.282" transform="translate(4.853 0)" fill="#172b36"/>
    </g>
    <path id="Trazado_130262" data-name="Trazado 130262" d="M2181.189,1116.484l26.477-5.939V1105.5l-26.477,7.483Z" transform="translate(-32.099 -28.755)" fill="#f7ede2"/>
    <path id="Trazado_130263" data-name="Trazado 130263" d="M2244.49,1116.484l-26.477-5.939V1105.5l26.477,7.483Z" transform="translate(-34.913 -28.755)" fill="#f7ede2"/>
    <path id="Trazado_130264" data-name="Trazado 130264" d="M2197.74,1040.982l.3-.965h45.289l-.3.965Zm4.97-15.84-.3.964h45.29l.3-.964Zm-2.334,7.437-.3.965h45.289l.3-.965Zm9.333-29.75-.3.965H2254.7l.3-.965Zm2.334-7.437-.3.964h45.29l.3-.964Zm-4.667,14.875-.3.965h45.29l.3-.965Zm-2.334,7.438-.3.965h45.29l.3-.965Z" transform="translate(-33.364 -20.34)" fill="#f0daa5"/>
    <path id="Trazado_130265" data-name="Trazado 130265" d="M2244.929,945.427c-.052,0-.1.007-.156.008.1-.915.191-1.8.266-2.623.72-7.948-3.106-11.895-8.239-13.321l-1.168-.324-.222-.062-4.292-1.192a8,8,0,0,0-1.691-.693,7.85,7.85,0,0,0-9.608,4.952l5.049,1.4c-1.062,2.535-1.062,7.933,2.635,10.156a2.727,2.727,0,0,1,1.552,5.224c.417,1.017,5.231,35.012,15.874,35.012a19.271,19.271,0,0,0,0-38.541Z" transform="translate(-35.051 -15.106)" fill="#12263f"/>
  </g>
</svg>
