<svg xmlns="http://www.w3.org/2000/svg" width="119" height="119" viewBox="0 0 119 119">
  <g id="Grupo_56962" data-name="Grupo 56962" transform="translate(-1741.83 -2637.209)">
    <circle id="Elipse_4369" data-name="Elipse 4369" cx="59.5" cy="59.5" r="59.5" transform="translate(1741.83 2637.209)" fill="#26aab7"/>
    <g id="Grupo_56961" data-name="Grupo 56961" transform="translate(1761.923 2656.767)">
      <path id="Trazado_130370" data-name="Trazado 130370" d="M1914.261,2977.621a10.394,10.394,0,0,0-6.159-8.8,7.248,7.248,0,1,0-8.393,0,3.671,3.671,0,1,1-6.957,2.151,10.388,10.388,0,0,0-3.141-2.156,7.248,7.248,0,1,0-8.393.005,3.671,3.671,0,1,1-6.957,2.151,10.39,10.39,0,0,0-3.141-2.156,7.248,7.248,0,1,0-8.394,0,10.466,10.466,0,0,0-5.048,4.771,10.424,10.424,0,0,0-5.048-4.776,7.248,7.248,0,1,0-8.393.005,10.4,10.4,0,0,0-6.167,8.793,1.115,1.115,0,0,0,.477.99,39.47,39.47,0,0,1,25.774,2.9,1.116,1.116,0,0,0,.332-2.208,15.108,15.108,0,0,1-5.8-2.162,8.151,8.151,0,0,1,16.13,0,15.1,15.1,0,0,1-5.8,2.162,1.116,1.116,0,0,0,.164,2.22,1.155,1.155,0,0,0,.168-.012,13.343,13.343,0,0,1,15.892.194,17.341,17.341,0,0,1,18.49,0,17.233,17.233,0,0,0,9.882-3.091,1.115,1.115,0,0,0,.477-.99Zm-65.83-19.714a5.016,5.016,0,1,1-5.016,5.015A5.021,5.021,0,0,1,1848.431,2957.906Zm0,21.563a15.009,15.009,0,0,1-8.065-2.33,8.151,8.151,0,0,1,16.13,0A15.011,15.011,0,0,1,1848.431,2979.469Zm18.49-21.563a5.016,5.016,0,1,1-5.016,5.015A5.021,5.021,0,0,1,1866.921,2957.906Zm36.981,0a5.016,5.016,0,1,1-5.015,5.015A5.021,5.021,0,0,1,1903.9,2957.906Zm-18.49,0a5.016,5.016,0,1,1-5.015,5.015A5.021,5.021,0,0,1,1885.411,2957.906Zm0,21.563a15.01,15.01,0,0,1-8.065-2.33,8.151,8.151,0,0,1,16.13,0A15.012,15.012,0,0,1,1885.411,2979.469Zm18.49,0a15.009,15.009,0,0,1-8.065-2.33,8.151,8.151,0,0,1,16.13,0A15.011,15.011,0,0,1,1903.9,2979.469Z" transform="translate(-1838.069 -2908.849)" fill="#fff"/>
      <path id="Trazado_130371" data-name="Trazado 130371" d="M1901.907,2792.664h2.612v4.228a1.116,1.116,0,0,0,1.725.935l7.939-5.163h17.069l7.843,5.16a1.116,1.116,0,0,0,1.73-.921l.042-4.24h1.749a5.6,5.6,0,0,0,5.59-5.59v-.553a1.116,1.116,0,0,0-2.232,0v.553a3.361,3.361,0,0,1-3.358,3.357h-2.854a1.116,1.116,0,0,0-1.116,1.105l-.033,3.3-6.414-4.219a1.114,1.114,0,0,0-.613-.184h-17.735a1.115,1.115,0,0,0-.608.181l-6.492,4.222v-3.287a1.116,1.116,0,0,0-1.116-1.116h-3.728a3.361,3.361,0,0,1-3.358-3.357v-21.855a3.361,3.361,0,0,1,3.358-3.357h2.479a1.116,1.116,0,1,0,0-2.232h-2.479a5.6,5.6,0,0,0-5.59,5.589v21.855a5.6,5.6,0,0,0,5.59,5.59Z" transform="translate(-1884.098 -2753.932)" fill="#fff"/>
      <path id="Trazado_130372" data-name="Trazado 130372" d="M1953.284,2766.015h6.815a1.116,1.116,0,0,0,1.116-1.116v-1.317a5.107,5.107,0,0,1,2.612.99,4,4,0,0,0,2.417.827h12.5a70.516,70.516,0,0,1,5.167-12.771,3.444,3.444,0,0,1,.789-4.662,3.451,3.451,0,0,0-3.447-3.447h-6.977a14.91,14.91,0,0,0,.54-4.121h11.931a3.361,3.361,0,0,1,3.358,3.357v16.438a1.116,1.116,0,1,0,2.232,0v-16.438a5.6,5.6,0,0,0-5.59-5.59h-12.1a22.349,22.349,0,0,0-.777-3.459,3.151,3.151,0,0,0-3.035-2.239,3.177,3.177,0,0,0-3.171,3.341,8.985,8.985,0,0,1-.153,2.357h-14.13a1.116,1.116,0,0,0,0,2.232h13.126a14.76,14.76,0,0,1-3.126,2.788c-.689.514-1.427,1.065-2.17,1.7v-.01a1.116,1.116,0,0,0-1.116-1.116h-6.815a1.116,1.116,0,0,0-1.116,1.116V2764.9a1.116,1.116,0,0,0,1.116,1.117Zm11.436-21.039c2.8-2.091,5.448-4.066,5.178-9.283a.944.944,0,0,1,1.841-.335,14.427,14.427,0,0,1-.047,9.871,1.116,1.116,0,0,0,1.04,1.523h8.524a1.215,1.215,0,1,1,0,2.429h-2.9a1.116,1.116,0,0,0,0,2.232h2.11a1.215,1.215,0,1,1,0,2.429h-2.11a1.116,1.116,0,1,0,0,2.232h1.336a1.215,1.215,0,0,1,0,2.43h-2.111a1.116,1.116,0,1,0,0,2.232h1.165a1.215,1.215,0,1,1,0,2.429h-12.5a1.753,1.753,0,0,1-1.059-.366,7.569,7.569,0,0,0-3.97-1.469v-13.365a24.531,24.531,0,0,1,3.505-2.991Zm-10.32,1.017h4.583v17.79H1954.4Z" transform="translate(-1928.232 -2732.468)" fill="#fff"/>
    </g>
    <path id="Trazado_130373" data-name="Trazado 130373" d="M1998.8,2753.384c2.8-2.091,5.448-4.066,5.177-9.283a.944.944,0,0,1,1.842-.335,14.424,14.424,0,0,1-.047,9.871,1.116,1.116,0,0,0,1.04,1.522h8.524a1.215,1.215,0,1,1,0,2.43h-2.9a1.116,1.116,0,1,0,0,2.232h2.111a1.215,1.215,0,0,1,0,2.43h-2.111a1.116,1.116,0,1,0,0,2.232h1.336a1.215,1.215,0,1,1,0,2.429h-2.111a1.116,1.116,0,0,0,0,2.232h1.166a1.215,1.215,0,1,1,0,2.429h-12.5a1.757,1.757,0,0,1-1.06-.366,7.563,7.563,0,0,0-3.97-1.469v-13.365a24.485,24.485,0,0,1,3.505-2.991Z" transform="translate(-200.388 -84.109)" fill="#a8dde2"/>
    <rect id="Rectángulo_30781" data-name="Rectángulo 30781" width="4.583" height="17.79" transform="translate(1788.091 2670.292)" fill="#a8dde2"/>
    <path id="Trazado_130374" data-name="Trazado 130374" d="M1868.568,2966.315a5.016,5.016,0,1,1-5.016,5.016A5.021,5.021,0,0,1,1868.568,2966.315Z" transform="translate(-96.283 -260.491)" fill="#a8dde2"/>
    <path id="Trazado_130375" data-name="Trazado 130375" d="M1857.082,3034.075a15,15,0,0,1-8.065-2.331,8.151,8.151,0,0,1,16.13,0A15.007,15.007,0,0,1,1857.082,3034.075Z" transform="translate(-84.797 -306.688)" fill="#a8dde2"/>
    <path id="Trazado_130376" data-name="Trazado 130376" d="M1956.709,2966.315a5.016,5.016,0,1,1-5.015,5.016A5.021,5.021,0,0,1,1956.709,2966.315Z" transform="translate(-165.935 -260.491)" fill="#a8dde2"/>
    <path id="Trazado_130377" data-name="Trazado 130377" d="M1945.223,3034.075a15.007,15.007,0,0,1-8.065-2.331,8.152,8.152,0,0,1,16.13,0A15.008,15.008,0,0,1,1945.223,3034.075Z" transform="translate(-154.448 -306.688)" fill="#a8dde2"/>
    <path id="Trazado_130378" data-name="Trazado 130378" d="M2044.852,2966.315a5.016,5.016,0,1,1-5.016,5.016A5.021,5.021,0,0,1,2044.852,2966.315Z" transform="translate(-235.586 -260.491)" fill="#a8dde2"/>
    <path id="Trazado_130379" data-name="Trazado 130379" d="M2033.365,3034.075a15.006,15.006,0,0,1-8.065-2.331,8.151,8.151,0,0,1,16.13,0A15.007,15.007,0,0,1,2033.365,3034.075Z" transform="translate(-224.1 -306.688)" fill="#a8dde2"/>
    <path id="Trazado_130380" data-name="Trazado 130380" d="M2132.995,2966.315a5.016,5.016,0,1,1-5.016,5.016A5.021,5.021,0,0,1,2132.995,2966.315Z" transform="translate(-305.239 -260.491)" fill="#a8dde2"/>
    <path id="Trazado_130381" data-name="Trazado 130381" d="M2121.508,3034.075a15.006,15.006,0,0,1-8.065-2.331,8.151,8.151,0,0,1,16.13,0A15.008,15.008,0,0,1,2121.508,3034.075Z" transform="translate(-293.752 -306.688)" fill="#a8dde2"/>
  </g>
</svg>
