<svg xmlns="http://www.w3.org/2000/svg" width="119" height="119" viewBox="0 0 119 119">
  <g id="Grupo_56964" data-name="Grupo 56964" transform="translate(-965.264 -3140.468)">
    <circle id="Elipse_4370" data-name="Elipse 4370" cx="59.5" cy="59.5" r="59.5" transform="translate(965.264 3140.468)" fill="#26aab7"/>
    <g id="Grupo_56963" data-name="Grupo 56963" transform="translate(984.786 3165.925)">
      <path id="Trazado_130382" data-name="Trazado 130382" d="M1304.2,3268.347l-12.795-5.33a5.779,5.779,0,0,0-4.417,0l-6.143,2.559a1.077,1.077,0,1,0,.828,1.989l6.143-2.559a3.611,3.611,0,0,1,2.76,0l12.794,5.33a3.249,3.249,0,0,1,2.049,2.973v46.058a3.346,3.346,0,0,1-3.429,3.248h-1.746a1.077,1.077,0,1,0,0,2.154h1.746a5.5,5.5,0,0,0,5.583-5.4v-46.058A5.4,5.4,0,0,0,1304.2,3268.347Z" transform="translate(-1234.052 -3262.578)" fill="#fff"/>
      <path id="Trazado_130383" data-name="Trazado 130383" d="M1120.4,3341.1h-18.1a4.626,4.626,0,0,0,.062-6.04,4.653,4.653,0,0,0,1.176-.855,4.632,4.632,0,0,1,1.182-7.111,4.628,4.628,0,0,0,.191-6.345,4.677,4.677,0,0,0,1.015-.768,4.634,4.634,0,0,0-3.277-7.909h-4.829V3291.8a3.249,3.249,0,0,1,2.048-2.973l1.959-.816a1.077,1.077,0,1,0-.828-1.988l-1.96.816a5.4,5.4,0,0,0-3.373,4.961v20.279h-4.5c1.5-4.735,1.371-9.677-.378-15.413a4.157,4.157,0,0,0-1.529-2.152,4.22,4.22,0,0,0-6.715,3.618c.337,6.476-2.651,8.7-6.785,11.79a49.665,49.665,0,0,0-4.311,3.489V3312a1.077,1.077,0,0,0-1.077-1.077h-10.4a1.077,1.077,0,0,0-1.077,1.077v30.544a1.077,1.077,0,0,0,1.077,1.077h10.4a1.077,1.077,0,0,0,1.077-1.077v-2.709a8.933,8.933,0,0,1,4.991,1.715,5.475,5.475,0,0,0,3.307,1.133h18.993a5.736,5.736,0,0,0,2.508.579H1120.4a1.077,1.077,0,0,0,0-2.154Zm-42.646-1.267a11.425,11.425,0,0,0-6.3-2.17v-12.575a1.077,1.077,0,0,0-2.154,0v16.373h-8.242v-28.39h8.242v7.324a1.077,1.077,0,1,0,2.154,0v-3.931a36.907,36.907,0,0,1,5.6-4.822c4.137-3.087,8.044-6,7.648-13.628a2.068,2.068,0,0,1,3.29-1.77,2.019,2.019,0,0,1,.743,1.044c1.781,5.842,1.753,10.757-.088,15.469a1.077,1.077,0,0,0,1,1.469h13.005a2.479,2.479,0,1,1,0,4.958h-4.424a1.077,1.077,0,1,0,0,2.154h3.219a2.479,2.479,0,0,1,0,4.959h-3.219a1.077,1.077,0,1,0,0,2.154h2.037a2.479,2.479,0,0,1,0,4.958h-3.22a1.077,1.077,0,0,0,0,2.154h1.778a2.48,2.48,0,0,1,1.754,4.232,2.625,2.625,0,0,1-1.646.724l-19.182,0a3.312,3.312,0,0,1-2-.689Z" transform="translate(-1058.906 -3281.068)" fill="#fff"/>
      <path id="Trazado_130384" data-name="Trazado 130384" d="M1310.9,3300.761a4.1,4.1,0,1,0-4.1,4.1A4.109,4.109,0,0,0,1310.9,3300.761Zm-6.054,0a1.95,1.95,0,1,1,1.95,1.95A1.953,1.953,0,0,1,1304.846,3300.761Z" transform="translate(-1251.87 -3289.552)" fill="#fff"/>
      <path id="Trazado_130385" data-name="Trazado 130385" d="M1303.09,3423.638h-1.931a1.847,1.847,0,0,1-1.845-1.845,1.077,1.077,0,0,0-2.154,0,4,4,0,0,0,3.888,4v2.383a1.077,1.077,0,1,0,2.154,0v-2.383a4,4,0,0,0,3.888-4V3420.3a3.175,3.175,0,0,0-2.2-3.027l-4.865-1.58a1.027,1.027,0,0,1-.711-.979v-2.135a1.5,1.5,0,0,1,1.5-1.5h2.625a1.5,1.5,0,0,1,1.5,1.5,1.077,1.077,0,0,0,2.154,0,3.657,3.657,0,0,0-3.652-3.653h-.236v-2.38a1.077,1.077,0,1,0-2.154,0v2.38h-.235a3.657,3.657,0,0,0-3.652,3.653v2.135a3.175,3.175,0,0,0,2.2,3.027l4.865,1.58a1.026,1.026,0,0,1,.711.979v1.491a1.847,1.847,0,0,1-1.845,1.845Z" transform="translate(-1247.49 -3375.682)" fill="#fff"/>
    </g>
    <path id="Trazado_130386" data-name="Trazado 130386" d="M1085.936,3377.465a11.421,11.421,0,0,0-6.3-2.17v-12.576a1.077,1.077,0,0,0-2.154,0v16.373h-8.242V3350.7h8.242v7.325a1.077,1.077,0,1,0,2.154,0V3354.1a36.958,36.958,0,0,1,5.6-4.822c4.137-3.086,8.044-6,7.648-13.628a2.068,2.068,0,0,1,3.29-1.77,2.019,2.019,0,0,1,.743,1.044c1.781,5.843,1.753,10.757-.088,15.469a1.076,1.076,0,0,0,1,1.468h13.005a2.479,2.479,0,0,1,0,4.959h-4.424a1.077,1.077,0,1,0,0,2.154h3.219a2.479,2.479,0,1,1,0,4.958h-3.219a1.077,1.077,0,1,0,0,2.154h2.037a2.479,2.479,0,0,1,0,4.958h-3.219a1.077,1.077,0,0,0,0,2.154h1.778a2.48,2.48,0,0,1,1.754,4.232,2.622,2.622,0,0,1-1.646.724l-19.182,0a3.317,3.317,0,0,1-2-.689Z" transform="translate(-82.299 -152.771)" fill="#a8dde2"/>
    <circle id="Elipse_4371" data-name="Elipse 4371" cx="1.95" cy="1.95" r="1.95" transform="translate(1037.762 3175.183)" fill="#a8dde2"/>
  </g>
</svg>
