<svg xmlns="http://www.w3.org/2000/svg" width="119" height="119" viewBox="0 0 119 119">
  <g id="Grupo_56969" data-name="Grupo 56969" transform="translate(-1611.318 -3570.174)">
    <circle id="Elipse_4372" data-name="Elipse 4372" cx="59.5" cy="59.5" r="59.5" transform="translate(1611.318 3570.174)" fill="#26aab7"/>
    <rect id="Rectángulo_30782" data-name="Rectángulo 30782" width="63.579" height="39.858" rx="3" transform="translate(1639.435 3606.218)" fill="#a8dde2"/>
    <g id="Grupo_56968" data-name="Grupo 56968" transform="translate(1637.55 3604.326)">
      <path id="Trazado_130387" data-name="Trazado 130387" d="M1798.6,3733.4h-4.979a.979.979,0,1,0,0,1.957h4.979a2.939,2.939,0,0,1,2.936,2.935v30.334H1757.7a.978.978,0,1,0,0,1.957h43.836v1.631a2.939,2.939,0,0,1-2.936,2.935h-57.014a2.938,2.938,0,0,1-2.935-2.935v-1.631h14.784a.978.978,0,1,0,0-1.957h-14.784v-30.334a2.938,2.938,0,0,1,2.935-2.935h47.772a.979.979,0,1,0,0-1.957h-47.772a4.9,4.9,0,0,0-4.892,4.892v33.922a4.9,4.9,0,0,0,4.892,4.892h19.7v5.871h-7.5a2.936,2.936,0,0,0,0,5.871H1786.4a2.936,2.936,0,1,0,0-5.871h-7.5v-.718a.979.979,0,0,0-1.957,0v.718h-13.7V3777.1h13.7v.889a.979.979,0,1,0,1.957,0v-.889h19.7a4.9,4.9,0,0,0,4.893-4.892v-33.922A4.9,4.9,0,0,0,1798.6,3733.4Zm-20.679,51.535h8.48a.979.979,0,1,1,0,1.957h-32.617a.979.979,0,0,1,0-1.957h24.137Z" transform="translate(-1736.692 -3733.398)" fill="#fff"/>
      <path id="Trazado_130388" data-name="Trazado 130388" d="M1816.219,3767.493H1811a.979.979,0,0,0,0,1.958h2.856l-11.886,11.886a3.58,3.58,0,0,0-3.934.055l-2.134-2.134a3.588,3.588,0,1,0-6.544-.1l-5.815,5.815a3.586,3.586,0,1,0,1.368,1.4l5.691-5.691a3.576,3.576,0,0,0,4.014.058l2.156,2.156a3.587,3.587,0,1,0,6.5-.1l11.966-11.966v2.857a.978.978,0,1,0,1.957,0v-5.219a.979.979,0,0,0-.979-.979Zm-34.46,22.221a1.631,1.631,0,1,1,1.631-1.631A1.633,1.633,0,0,1,1781.758,3789.714Zm9.263-11.975a1.631,1.631,0,1,1,1.631,1.631A1.633,1.633,0,0,1,1791.021,3777.74Zm9.024,8.254a1.631,1.631,0,1,1,1.631-1.631A1.633,1.633,0,0,1,1800.045,3785.993Z" transform="translate(-1769.491 -3760.359)" fill="#26aab7"/>
      <g id="Grupo_56965" data-name="Grupo 56965" transform="translate(41.899 20.875)">
        <path id="Trazado_130389" data-name="Trazado 130389" d="M1952.182,3835.121h-14.265a.979.979,0,0,1,0-1.957h14.265a.979.979,0,1,1,0,1.957Z" transform="translate(-1936.939 -3833.164)" fill="#26aab7"/>
      </g>
      <g id="Grupo_56966" data-name="Grupo 56966" transform="translate(41.899 25.137)">
        <path id="Trazado_130390" data-name="Trazado 130390" d="M1952.182,3855.49h-14.265a.979.979,0,0,1,0-1.957h14.265a.979.979,0,1,1,0,1.957Z" transform="translate(-1936.939 -3853.533)" fill="#26aab7"/>
      </g>
      <g id="Grupo_56967" data-name="Grupo 56967" transform="translate(41.899 29.399)">
        <path id="Trazado_130391" data-name="Trazado 130391" d="M1947.572,3875.859h-9.655a.978.978,0,0,1,0-1.957h9.655a.978.978,0,1,1,0,1.957Z" transform="translate(-1936.939 -3873.902)" fill="#26aab7"/>
      </g>
    </g>
  </g>
</svg>
