<svg xmlns="http://www.w3.org/2000/svg" width="118" height="118" viewBox="0 0 118 118">
  <g id="Grupo_56971" data-name="Grupo 56971" transform="translate(-760.958 -3981.433)">
    <circle id="Elipse_4373" data-name="Elipse 4373" cx="59" cy="59" r="59" transform="translate(760.958 3981.433)" fill="#26aab7"/>
    <g id="Grupo_56970" data-name="Grupo 56970" transform="translate(785.764 3997.955)">
      <path id="Trazado_130392" data-name="Trazado 130392" d="M951.279,4105.823l-2.315-8.611,2.3-8.613a1.271,1.271,0,0,0-.33-1.228l-6.31-6.3-2.314-8.61a1.272,1.272,0,0,0-.9-.9l-8.613-2.3-6.311-6.3a1.27,1.27,0,0,0-1.228-.328l-8.61,2.314-8.613-2.3a1.272,1.272,0,0,0-1.228.33l-6.3,6.31-8.61,2.315a1.271,1.271,0,0,0-.9.9l-2.3,8.613-6.3,6.311a1.271,1.271,0,0,0-.328,1.228l2.315,8.609-1.426,5.339a1.271,1.271,0,0,0,2.456.656l1.514-5.668a1.273,1.273,0,0,0,0-.659l-2.213-8.228,6.021-6.032a1.268,1.268,0,0,0,.329-.57l2.2-8.234,8.23-2.212a1.27,1.27,0,0,0,.57-.33l6.021-6.032,8.234,2.2a1.273,1.273,0,0,0,.658,0l8.231-2.212,6.032,6.021a1.278,1.278,0,0,0,.57.329l8.234,2.2,2.213,8.23a1.275,1.275,0,0,0,.329.57l6.032,6.021-2.2,8.234a1.267,1.267,0,0,0,0,.657l2.213,8.23-6.021,6.032a1.273,1.273,0,0,0-.328.569l-2.2,8.234-8.23,2.213a1.274,1.274,0,0,0-.57.329l-6.021,6.032-8.233-2.2a1.273,1.273,0,0,0-.659,0l-8.23,2.214-6.032-6.021a1.275,1.275,0,0,0-.57-.328l-1.723-.46h-.007l-6.5-1.739-2.213-8.229a1.27,1.27,0,0,0-.33-.57l-4.286-4.277a1.271,1.271,0,0,0-1.8,1.8l4.045,4.037,2.315,8.609a1.27,1.27,0,0,0,.9.9l5.987,1.6L892.8,4143.66a1.27,1.27,0,0,0,1.613,1.54l8.185-2.6,5.788,6.346a1.271,1.271,0,0,0,2.167-.527l4.977-18.573,1.178-.317,1.115.3,4.982,18.591a1.271,1.271,0,0,0,.927.906,1.287,1.287,0,0,0,.3.036,1.269,1.269,0,0,0,.939-.414l5.788-6.346,8.186,2.6a1.27,1.27,0,0,0,1.612-1.54l-2.061-7.69a1.271,1.271,0,1,0-2.455.658l1.459,5.446-6.747-2.145a1.271,1.271,0,0,0-1.324.355l-4.771,5.232-4-14.933,4.664,1.246a1.272,1.272,0,0,0,1.228-.33l6.3-6.311.121-.032,1.589,5.933a1.271,1.271,0,1,0,2.455-.657l-1.59-5.935,6.035-1.623a1.272,1.272,0,0,0,.9-.9l2.3-8.614,6.3-6.311a1.269,1.269,0,0,0,.328-1.227ZM908.7,4145.515l-4.77-5.231a1.271,1.271,0,0,0-1.324-.354l-6.747,2.145,4.53-16.9.171.046,6.31,6.3a1.277,1.277,0,0,0,1.228.328l4.6-1.236Z" transform="translate(-882.029 -4062.594)" fill="#fff"/>
      <path id="Trazado_130393" data-name="Trazado 130393" d="M947.293,4103.771a23.875,23.875,0,0,1,10.114,2.221,1.271,1.271,0,0,0,1.07-2.306,26.382,26.382,0,0,0-11.184-2.457,26.653,26.653,0,0,0-25.713,19.687l0,.012-.011.039a26.7,26.7,0,0,0-.9,6.889,26.33,26.33,0,0,0,5.784,16.57l.008.01.011.014a26.628,26.628,0,1,0,37.825-37.088,1.271,1.271,0,0,0-1.624,1.956,24.087,24.087,0,1,1-32.392,35.589h7.714a1.271,1.271,0,0,0,1.271-1.271v-1.44a5.649,5.649,0,0,1,2.873,1.1,4.485,4.485,0,0,0,2.713.928H958.8a83.41,83.41,0,0,1,5.791-14.274,3.867,3.867,0,0,1,.881-5.2,3.876,3.876,0,0,0-3.872-3.872h-7.75a19.086,19.086,0,0,0-.461-10.929,3.541,3.541,0,0,0-3.41-2.516,3.569,3.569,0,0,0-3.564,3.754c.233,4.477-1.757,5.962-4.768,8.209-.757.565-1.566,1.169-2.382,1.864a1.27,1.27,0,0,0-1.269-1.228H924.509a24.116,24.116,0,0,1,22.784-16.255Zm-4.13,17.656c3.132-2.337,6.09-4.544,5.787-10.379a1.027,1.027,0,0,1,2-.364c1.269,4.161,1.253,7.655-.052,11a1.271,1.271,0,0,0,1.184,1.733h9.51a1.33,1.33,0,1,1,0,2.66h-3.235a1.271,1.271,0,0,0,0,2.542h2.355a1.33,1.33,0,1,1,0,2.659h-2.355a1.271,1.271,0,1,0,0,2.542h1.49a1.33,1.33,0,0,1,0,2.66H957.5a1.271,1.271,0,0,0,0,2.542h1.3a1.33,1.33,0,1,1,0,2.659H944.848a1.932,1.932,0,0,1-1.166-.4,8.444,8.444,0,0,0-4.419-1.641v-14.878a27.387,27.387,0,0,1,3.9-3.328Zm-6.442,3.131v17.806h-8.654a23.8,23.8,0,0,1-4.86-14.508,24.207,24.207,0,0,1,.585-5.289h12.929Z" transform="translate(-912.646 -4093.21)" fill="#fff"/>
    </g>
    <path id="Trazado_130394" data-name="Trazado 130394" d="M961.479,4384.423l-4.77-5.231a1.273,1.273,0,0,0-1.324-.354l-6.747,2.145,4.53-16.9.171.045,6.31,6.3a1.276,1.276,0,0,0,1.228.328l4.6-1.236Z" transform="translate(-149.048 -303.548)" fill="#a8dde2"/>
    <path id="Trazado_130395" data-name="Trazado 130395" d="M1014.163,4154.792c3.132-2.337,6.09-4.544,5.787-10.379a1.027,1.027,0,0,1,2-.365c1.27,4.162,1.253,7.655-.052,11a1.272,1.272,0,0,0,1.184,1.734h9.511a1.33,1.33,0,1,1,0,2.659h-3.235a1.271,1.271,0,0,0,0,2.542h2.355a1.33,1.33,0,0,1,0,2.66h-2.355a1.271,1.271,0,1,0,0,2.542h1.49a1.33,1.33,0,0,1,0,2.66H1028.5a1.271,1.271,0,1,0,0,2.542h1.3a1.33,1.33,0,0,1,0,2.66h-13.949a1.935,1.935,0,0,1-1.166-.4,8.444,8.444,0,0,0-4.419-1.641V4158.12a27.345,27.345,0,0,1,3.9-3.328Z" transform="translate(-197.882 -128.619)" fill="#a8dde2"/>
    <path id="Trazado_130396" data-name="Trazado 130396" d="M946.425,4206.022v17.806h-8.654a23.8,23.8,0,0,1-4.86-14.507,24.211,24.211,0,0,1,.585-5.29h12.929Z" transform="translate(-136.586 -176.718)" fill="#a8dde2"/>
    <path id="Trazado_130397" data-name="Trazado 130397" d="M1067.267,4369.517l4.6,1.236a1.276,1.276,0,0,0,1.228-.328l6.31-6.3.172-.045,4.53,16.9-6.747-2.145a1.272,1.272,0,0,0-1.324.354l-4.77,5.231Z" transform="translate(-243.055 -303.548)" fill="#a8dde2"/>
  </g>
</svg>
