<svg xmlns="http://www.w3.org/2000/svg" width="131" height="131" viewBox="0 0 131 131">
  <g id="Grupo_57595" data-name="Grupo 57595" transform="translate(-290 -1172.412)">
    <circle id="Elipse_4341" data-name="Elipse 4341" cx="65.5" cy="65.5" r="65.5" transform="translate(290 1172.412)" fill="#26aab7"/>
    <g id="_019-focus" data-name="019-focus" transform="translate(317 1197.618)">
      <path id="Trazado_129887" data-name="Trazado 129887" d="M1.1,31.32H8.657a1.1,1.1,0,0,0,1.1-1.1V9.759H30.22a1.1,1.1,0,0,0,1.1-1.1V1.1A1.1,1.1,0,0,0,30.22,0H1.1A1.1,1.1,0,0,0,0,1.1V30.22a1.1,1.1,0,0,0,1.1,1.1ZM2.2,2.2H29.117V7.555H8.655a1.1,1.1,0,0,0-1.1,1.1V29.116H2.2Z" transform="translate(0)" fill="#fff"/>
      <path id="Trazado_129888" data-name="Trazado 129888" d="M108.47,0H79.352a1.1,1.1,0,0,0-1.1,1.1V8.657a1.1,1.1,0,0,0,1.1,1.1H99.814V30.22a1.1,1.1,0,0,0,1.1,1.1h7.555a1.1,1.1,0,0,0,1.1-1.1V1.1a1.1,1.1,0,0,0-1.1-1.1Zm-1.1,29.116h-5.352V8.654a1.1,1.1,0,0,0-1.1-1.1H80.454V2.2h26.915Z" transform="translate(-28.984)" fill="#fff"/>
      <path id="Trazado_129889" data-name="Trazado 129889" d="M30.22,99.814H9.759V79.352a1.1,1.1,0,0,0-1.1-1.1H1.1a1.1,1.1,0,0,0-1.1,1.1v29.116a1.1,1.1,0,0,0,1.1,1.1H30.22a1.1,1.1,0,0,0,1.1-1.1v-7.555A1.1,1.1,0,0,0,30.22,99.814Zm-1.1,7.555H2.2V80.452H7.555v20.462a1.1,1.1,0,0,0,1.1,1.1H29.119Z" transform="translate(0 -28.984)" fill="#fff"/>
      <path id="Trazado_129890" data-name="Trazado 129890" d="M108.47,78.248h-7.555a1.1,1.1,0,0,0-1.1,1.1V99.813H79.352a1.1,1.1,0,0,0-1.1,1.1v7.555a1.1,1.1,0,0,0,1.1,1.1H108.47a1.1,1.1,0,0,0,1.1-1.1V79.351a1.1,1.1,0,0,0-1.1-1.1Zm-1.1,29.116H80.455v-5.348h20.462a1.1,1.1,0,0,0,1.1-1.1V80.453h5.352Z" transform="translate(-28.984 -28.984)" fill="#fff"/>
      <path id="Trazado_129891" data-name="Trazado 129891" d="M47.59,61.585h0l-2.566-5.967a1.1,1.1,0,0,0-2.024,0l-2.563,5.96,0,.014-1.385,3.218a1.1,1.1,0,1,0,2.024.871l1.1-2.564h3.673l1.1,2.564a1.1,1.1,0,1,0,2.024-.871Zm-4.47-.674.89-2.069.893,2.069Z" transform="translate(-14.43 -20.354)" fill="#fff"/>
      <path id="Trazado_129892" data-name="Trazado 129892" d="M64.164,54.951H60.287a1.1,1.1,0,0,0-1.1,1.1v9.191a1.1,1.1,0,0,0,1.1,1.1h3.878a3.624,3.624,0,0,0,3.62-3.62V58.571A3.624,3.624,0,0,0,64.164,54.951Zm1.417,7.775a1.418,1.418,0,0,1-1.417,1.417H61.389V57.154h2.776a1.418,1.418,0,0,1,1.417,1.417Z" transform="translate(-21.923 -20.354)" fill="#fff"/>
      <path id="Trazado_129893" data-name="Trazado 129893" d="M83.453,57.155a1.1,1.1,0,1,0,0-2.2H78.03a1.1,1.1,0,0,0-1.1,1.1v4.6a1.1,1.1,0,0,0,1.1,1.1h4.322v2.392H78.03a1.1,1.1,0,0,0,0,2.2h5.423a1.1,1.1,0,0,0,1.1-1.1v-4.6a1.1,1.1,0,0,0-1.1-1.1H79.132V57.154Z" transform="translate(-28.495 -20.354)" fill="#fff"/>
      <path id="Trazado_129894" data-name="Trazado 129894" d="M67.417,49.7h8.018a1.1,1.1,0,0,0,1.1-1.1V43.563a1.1,1.1,0,0,0-1.1-1.1H67.417A21.563,21.563,0,0,0,49.7,24.745V16.727a1.1,1.1,0,0,0-1.1-1.1H43.564a1.1,1.1,0,0,0-1.1,1.1v8.018A21.562,21.562,0,0,0,24.748,42.46H16.73a1.1,1.1,0,0,0-1.1,1.1V48.6a1.1,1.1,0,0,0,1.1,1.1h8.018A21.562,21.562,0,0,0,42.463,67.414v8.018a1.1,1.1,0,0,0,1.1,1.1H48.6a1.1,1.1,0,0,0,1.1-1.1V67.414A21.563,21.563,0,0,0,67.417,49.7ZM48.466,65.367a1.1,1.1,0,0,0-.968,1.094v7.87H44.665v-7.87a1.1,1.1,0,0,0-.968-1.094,19.369,19.369,0,0,1-16.9-16.9A1.1,1.1,0,0,0,25.7,47.5h-7.87V44.663H25.7A1.1,1.1,0,0,0,26.8,43.7a19.369,19.369,0,0,1,16.9-16.9,1.1,1.1,0,0,0,.968-1.094v-7.87H47.5V25.7a1.1,1.1,0,0,0,.968,1.094,19.369,19.369,0,0,1,16.9,16.9,1.1,1.1,0,0,0,1.094.968h7.87V47.5h-7.87a1.1,1.1,0,0,0-1.094.968,19.369,19.369,0,0,1-16.9,16.9Z" transform="translate(-5.789 -5.788)" fill="#fff"/>
    </g>
  </g>
</svg>
