<svg xmlns="http://www.w3.org/2000/svg" width="112" height="112" viewBox="0 0 112 112">
  <g id="Grupo_56973" data-name="Grupo 56973" transform="translate(-1493.17 -4430.753)">
    <circle id="Elipse_4374" data-name="Elipse 4374" cx="56" cy="56" r="56" transform="translate(1493.17 4430.753)" fill="#26aab7"/>
    <g id="Grupo_56972" data-name="Grupo 56972" transform="translate(1510.39 4443.573)">
      <path id="Trazado_130398" data-name="Trazado 130398" d="M1647.571,4541.074a12.736,12.736,0,0,0-11.922,8.146h-3.42v-23.864a1.163,1.163,0,1,0-2.325,0v23.86h-11.632V4514.68H1629.9v5.608a1.163,1.163,0,0,0,2.325,0v-6.771a1.163,1.163,0,0,0-1.162-1.163h-7.643v-6.547h8.039a1.163,1.163,0,0,0,.9-1.894l-2.51-3.1,2.51-3.1a1.163,1.163,0,0,0-.9-1.895h-9.2a1.163,1.163,0,0,0-1.163,1.163v15.379h-3.989a1.163,1.163,0,0,0-1.163,1.163v8.141h-12.8a1.163,1.163,0,0,0-1.163,1.163v6.638h-12.8a1.163,1.163,0,0,0-1.162,1.163v6.072a1.163,1.163,0,1,0,2.325,0v-4.909h11.632v17.431h-11.632v-7.456a1.163,1.163,0,1,0-2.325,0v7.456h-2.378a4.652,4.652,0,1,0,0,9.3h2.378v2.288a4.652,4.652,0,1,0,9.3,0v-2.288h2.386v4.786a4.653,4.653,0,0,0,9.305,0v-4.786h26.626a12.815,12.815,0,0,0,9.135,7.837,1.162,1.162,0,1,0,.5-2.269,10.484,10.484,0,0,1-7.7-7.055,1.144,1.144,0,0,0-.077-.2,1.162,1.162,0,0,0-1.041-.644l-.086,0h-28.523a1.163,1.163,0,0,0-1.162,1.163v5.95a2.327,2.327,0,0,1-4.655,0v-5.95a1.163,1.163,0,0,0-1.163-1.163h-4.711a1.163,1.163,0,0,0-1.162,1.163v3.451a2.327,2.327,0,0,1-4.653,0v-3.451a1.163,1.163,0,0,0-1.163-1.163h-3.54a2.327,2.327,0,0,1,0-4.653c.5,0,49.854,0,50.8,0h.02a1.163,1.163,0,0,0,1.108-.815,10.47,10.47,0,0,1,20.459,3.136,10.531,10.531,0,0,1-8.187,10.22,1.162,1.162,0,1,0,.5,2.269,12.794,12.794,0,0,0-2.786-25.282Zm-20.114-39.533,1.57,1.941h-5.6v-5.344h5.6l-1.57,1.941A1.163,1.163,0,0,0,1627.456,4501.541Zm-23.143,22.443h11.632v25.232h-11.632Z" transform="translate(-1581.001 -4495.812)" fill="#fff"/>
      <path id="Trazado_130399" data-name="Trazado 130399" d="M1901.492,4766.723a6.147,6.147,0,1,0-6.147,6.147A6.154,6.154,0,0,0,1901.492,4766.723Zm-6.147,3.822a3.822,3.822,0,1,1,3.822-3.822A3.826,3.826,0,0,1,1895.344,4770.544Z" transform="translate(-1828.774 -4708.667)" fill="#fff"/>
    </g>
    <rect id="Rectángulo_30783" data-name="Rectángulo 30783" width="11.632" height="25.232" transform="translate(1533.702 4471.745)" fill="#a8dde2"/>
    <rect id="Rectángulo_30784" data-name="Rectángulo 30784" width="11.632" height="17.431" transform="translate(1519.723 4479.545)" fill="#a8dde2"/>
    <rect id="Rectángulo_30785" data-name="Rectángulo 30785" width="11.632" height="34.536" transform="translate(1547.681 4462.44)" fill="#a8dde2"/>
    <path id="Trazado_130400" data-name="Trazado 130400" d="M1801.413,4511.075l1.57,1.94h-5.6v-5.344h5.6l-1.57,1.941A1.163,1.163,0,0,0,1801.413,4511.075Z" transform="translate(-244.568 -61.773)" fill="#a8dde2"/>
  </g>
</svg>
