<svg xmlns="http://www.w3.org/2000/svg" width="131" height="131" viewBox="0 0 131 131">
  <g id="Grupo_57596" data-name="Grupo 57596" transform="translate(-290 -1327.412)">
    <circle id="Elipse_4343" data-name="Elipse 4343" cx="65.5" cy="65.5" r="65.5" transform="translate(290 1327.412)" fill="#26aab7"/>
    <g id="_003-approved" data-name="003-approved" transform="translate(310.86 1346.479)">
      <path id="Trazado_129895" data-name="Trazado 129895" d="M87.318,36.667c-1.752-1.869-3.41-3.634-4.157-5.441-.8-1.93-.9-4.548-1-7.08-.15-3.908-.305-7.95-2.9-10.54s-6.633-2.746-10.54-2.9c-2.533-.1-5.151-.2-7.081-1-1.814-.75-3.575-2.4-5.441-4.156C53.289,2.822,50.279,0,46.434,0s-6.855,2.822-9.768,5.55C34.8,7.3,33.032,8.955,31.224,9.705c-1.931.8-4.548.9-7.081,1-3.908.15-7.95.305-10.54,2.9s-2.745,6.632-2.9,10.54c-.1,2.532-.2,5.151-1,7.081C8.958,33.032,7.3,34.8,5.552,36.663,2.822,39.578,0,42.588,0,46.434S2.822,53.289,5.549,56.2c1.751,1.869,3.41,3.634,4.157,5.441.8,1.93.9,4.548,1,7.08.15,3.908.305,7.95,2.9,10.54s6.633,2.746,10.54,2.9c2.533.1,5.151.2,7.081,1,1.81.75,3.575,2.4,5.441,4.156,2.915,2.732,5.925,5.553,9.771,5.553s6.855-2.822,9.768-5.55c1.869-1.751,3.634-3.406,5.441-4.156,1.931-.8,4.548-.9,7.081-1,3.908-.15,7.95-.305,10.54-2.9s2.745-6.632,2.9-10.54c.1-2.532.2-5.151,1-7.081.751-1.814,2.405-3.575,4.157-5.441,2.73-2.915,5.552-5.925,5.552-9.771S90.046,39.578,87.318,36.667Zm-1.852,17.8c-1.83,1.952-3.721,3.972-4.648,6.209-.975,2.351-1.088,5.2-1.191,7.955-.137,3.578-.267,6.956-2.154,8.843s-5.266,2.017-8.843,2.154c-2.757.106-5.605.218-7.955,1.19-2.238.928-4.256,2.819-6.209,4.649-2.551,2.394-5.19,4.861-8.031,4.861s-5.48-2.473-8.031-4.861c-1.953-1.83-3.972-3.721-6.209-4.649-2.35-.974-5.2-1.084-7.956-1.19-3.577-.137-6.955-.268-8.842-2.154s-2.017-5.266-2.154-8.843c-.107-2.757-.218-5.605-1.191-7.956-.927-2.238-2.819-4.256-4.648-6.208-2.394-2.552-4.865-5.19-4.865-8.031S5.011,40.954,7.4,38.4c1.83-1.952,3.721-3.972,4.648-6.209.975-2.351,1.084-5.2,1.191-7.955.137-3.578.267-6.956,2.154-8.843s5.265-2.017,8.843-2.154c2.757-.106,5.605-.218,7.955-1.19,2.238-.928,4.256-2.819,6.209-4.649,2.553-2.391,5.192-4.863,8.033-4.863s5.48,2.473,8.031,4.861c1.953,1.83,3.972,3.721,6.209,4.649,2.35.974,5.2,1.084,7.956,1.19,3.576.137,6.955.268,8.842,2.154s2.017,5.266,2.154,8.843c.106,2.757.218,5.605,1.191,7.956.927,2.238,2.819,4.256,4.648,6.208,2.394,2.552,4.861,5.19,4.861,8.031S87.856,51.913,85.467,54.464Z" fill="#fff"/>
      <path id="Trazado_129896" data-name="Trazado 129896" d="M85.279,42.831c-1.935-2.064-4.128-4.4-5.283-7.191-1.2-2.891-1.325-6.179-1.436-9.08-.168-4.353-.447-5.907-1.2-6.66s-2.309-1.034-6.66-1.2c-2.9-.112-6.189-.238-9.082-1.437-2.787-1.155-5.125-3.348-7.191-5.283C51.549,9.283,49.948,8,48.629,8s-2.92,1.283-5.8,3.981c-2.065,1.934-4.4,4.127-7.19,5.283-2.893,1.2-6.181,1.325-9.081,1.437-4.353.166-5.907.447-6.66,1.2s-1.034,2.309-1.2,6.66c-.111,2.9-.237,6.189-1.436,9.081-1.156,2.785-3.348,5.126-5.286,7.194C9.283,45.711,8,47.312,8,48.629s1.283,2.92,3.98,5.8c1.935,2.064,4.128,4.4,5.283,7.191,1.2,2.891,1.325,6.179,1.436,9.08.167,4.353.447,5.907,1.2,6.66s2.309,1.034,6.66,1.2c2.9.112,6.189.238,9.082,1.437,2.786,1.155,5.125,3.348,7.191,5.283,2.878,2.7,4.479,3.98,5.8,3.98s2.92-1.283,5.8-3.981c2.065-1.934,4.4-4.127,7.19-5.283C64.51,78.8,67.8,78.67,70.7,78.559c4.353-.166,5.907-.447,6.66-1.2s1.033-2.309,1.2-6.66c.111-2.9.237-6.189,1.436-9.081,1.156-2.785,3.348-5.126,5.286-7.194,2.695-2.876,3.977-4.477,3.977-5.795S87.975,45.709,85.279,42.831Zm-1.854,9.861c-2.082,2.223-4.442,4.742-5.774,7.954-1.374,3.312-1.509,6.842-1.629,9.956a23.239,23.239,0,0,1-.484,4.934,23.249,23.249,0,0,1-4.934.484c-3.114.12-6.643.255-9.956,1.628-3.213,1.333-5.732,3.693-7.954,5.776-.895.838-3.233,3.029-4.063,3.283-.829-.254-3.168-2.445-4.063-3.284-2.222-2.082-4.74-4.442-7.953-5.775-3.312-1.373-6.842-1.509-9.956-1.628a23.212,23.212,0,0,1-4.934-.485,23.24,23.24,0,0,1-.484-4.934c-.12-3.114-.255-6.644-1.629-9.956-1.332-3.213-3.692-5.732-5.774-7.954-.838-.894-3.03-3.232-3.283-4.063.253-.829,2.443-3.165,3.283-4.063,2.082-2.223,4.442-4.742,5.774-7.954,1.374-3.312,1.509-6.842,1.629-9.956a23.24,23.24,0,0,1,.484-4.934,23.243,23.243,0,0,1,4.934-.484c3.114-.12,6.643-.255,9.955-1.628,3.214-1.333,5.732-3.693,7.955-5.776.895-.838,3.233-3.029,4.063-3.283.829.254,3.168,2.445,4.063,3.284,2.222,2.082,4.74,4.442,7.952,5.775,3.313,1.373,6.842,1.509,9.957,1.628a23.217,23.217,0,0,1,4.934.485,23.24,23.24,0,0,1,.484,4.934c.12,3.114.255,6.644,1.629,9.956,1.332,3.213,3.692,5.732,5.774,7.954.838.894,3.03,3.232,3.283,4.063C86.455,49.458,84.265,51.795,83.425,52.692Z" transform="translate(-2.196 -2.196)" fill="#fff"/>
      <path id="Trazado_129897" data-name="Trazado 129897" d="M68.457,40.037a1.27,1.27,0,0,0-1.8,0L51.208,55.491l-5.732-5.732a1.268,1.268,0,0,0-1.795,0l-8.214,8.209a1.271,1.271,0,0,0,0,1.8L50.307,74.6a1.269,1.269,0,0,0,1.8,0L76.666,50.041a1.27,1.27,0,0,0,0-1.795ZM51.205,71.91,38.16,58.866l6.414-6.412L50.3,58.185a1.306,1.306,0,0,0,1.8,0L67.554,42.731l6.414,6.413Z" transform="translate(-9.633 -10.887)" fill="#fff"/>
    </g>
  </g>
</svg>
