<svg xmlns="http://www.w3.org/2000/svg" width="150.999" height="128" viewBox="0 0 150.999 128">
  <g id="Grupo_57597" data-name="Grupo 57597" transform="translate(-839 -1664.113)">
    <g id="Unión_1" data-name="Unión 1" transform="translate(-9945 -10058.299)" fill="none">
      <path d="M10808.572,11800.567l-24.572-14.156,24.572-14.156a64,64,0,1,1,0,28.313Z" stroke="none"/>
      <path d="M 10871 11848.412109375 C 10879.37109375 11848.412109375 10887.490234375 11846.7734375 10895.1328125 11843.541015625 C 10898.8056640625 11841.9873046875 10902.3486328125 11840.0634765625 10905.6630859375 11837.82421875 C 10908.9462890625 11835.6064453125 10912.0341796875 11833.05859375 10914.83984375 11830.2529296875 C 10917.646484375 11827.4462890625 10920.193359375 11824.3583984375 10922.412109375 11821.0751953125 C 10924.6513671875 11817.7607421875 10926.57421875 11814.2177734375 10928.1279296875 11810.5439453125 C 10931.3603515625 11802.9013671875 10932.9990234375 11794.7822265625 10932.9990234375 11786.4111328125 C 10932.9990234375 11778.041015625 10931.3603515625 11769.921875 10928.1279296875 11762.279296875 C 10926.57421875 11758.6064453125 10924.6513671875 11755.0634765625 10922.412109375 11751.7490234375 C 10920.193359375 11748.4658203125 10917.646484375 11745.3779296875 10914.83984375 11742.572265625 C 10912.0341796875 11739.765625 10908.9462890625 11737.2177734375 10905.6630859375 11735 C 10902.3486328125 11732.7607421875 10898.8056640625 11730.837890625 10895.1328125 11729.2841796875 C 10887.490234375 11726.05078125 10879.37109375 11724.412109375 10871 11724.412109375 C 10863.7763671875 11724.412109375 10856.701171875 11725.642578125 10849.970703125 11728.0693359375 C 10843.4658203125 11730.4140625 10837.4296875 11733.8193359375 10832.0302734375 11738.1884765625 C 10826.6767578125 11742.5205078125 10822.1083984375 11747.669921875 10818.4521484375 11753.4931640625 C 10814.728515625 11759.423828125 10812.0615234375 11765.884765625 10810.5234375 11772.6953125 L 10810.330078125 11773.55078125 L 10809.5703125 11773.98828125 L 10788.0068359375 11786.4111328125 L 10810.330078125 11799.271484375 L 10810.5234375 11800.126953125 C 10812.0615234375 11806.9384765625 10814.7294921875 11813.3994140625 10818.4521484375 11819.330078125 C 10822.1083984375 11825.154296875 10826.6767578125 11830.3037109375 10832.0302734375 11834.6357421875 C 10837.4296875 11839.005859375 10843.4658203125 11842.41015625 10849.970703125 11844.7548828125 C 10856.701171875 11847.181640625 10863.7763671875 11848.412109375 10871 11848.412109375 M 10871 11850.412109375 C 10840.5185546875 11850.412109375 10815.015625 11829.1025390625 10808.572265625 11800.5673828125 L 10784 11786.4111328125 L 10808.572265625 11772.2548828125 C 10815.015625 11743.72265625 10840.5185546875 11722.412109375 10871 11722.412109375 C 10906.3466796875 11722.412109375 10934.9990234375 11751.0673828125 10934.9990234375 11786.4111328125 C 10934.9990234375 11821.7578125 10906.3466796875 11850.412109375 10871 11850.412109375 Z" stroke="none" fill="#7d70b0"/>
    </g>
    <g id="Grupo_56874" data-name="Grupo 56874" transform="translate(129.307 1063.801)">
      <path id="Trazado_129898" data-name="Trazado 129898" d="M758.759,673.469a48.738,48.738,0,0,1,65.5-21.46q.86.436,1.7.905-1.915-1.506-3.987-2.825a48.722,48.722,0,0,0-67.244,15.032q-1.266,2-2.334,4.106a48.846,48.846,0,0,0,17.367,19.138q1.169.744,2.375,1.416A48.811,48.811,0,0,1,758.759,673.469Z" transform="translate(-10.011 -9.476)" fill="#d4e1f4"/>
      <path id="Trazado_129899" data-name="Trazado 129899" d="M1035.35,816.714a19.96,19.96,0,0,1,17.812-19.82,19.932,19.932,0,1,0,0,39.639A19.96,19.96,0,0,1,1035.35,816.714Z" transform="translate(-229.623 -131.042)" fill="#d4e1f4"/>
      <path id="Trazado_129900" data-name="Trazado 129900" d="M800.573,686.871l-.729-2.439a48.737,48.737,0,0,1-57.456-24.68,48.722,48.722,0,0,1,86.945,0,48.91,48.91,0,0,1-2.887,4.95l2.119,1.409a51.447,51.447,0,0,0,3.332-5.8,1.272,1.272,0,0,0,0-1.121,51.267,51.267,0,0,0-92.073,0,1.272,1.272,0,0,0,0,1.121,51.281,51.281,0,0,0,60.749,26.558Z" transform="translate(0)" fill="#5e5385"/>
      <path id="Trazado_129901" data-name="Trazado 129901" d="M902.643,711.259a12.5,12.5,0,1,0,21.074,6.309,1.272,1.272,0,0,0-2.12-.667,4.338,4.338,0,0,1-6.043-6.223c.085-.085.18-.172.284-.259a1.272,1.272,0,0,0-.417-2.181A12.427,12.427,0,0,0,902.643,711.259Zm11.111,7.355a6.842,6.842,0,0,0,7.677,1.424,9.979,9.979,0,1,1-8.721-9.821,6.9,6.9,0,0,0,1.044,8.4Z" transform="translate(-125.513 -60.764)" fill="#5e5385"/>
      <path id="Trazado_129902" data-name="Trazado 129902" d="M866.723,696.05a19.511,19.511,0,1,0,19.511-19.511h0A19.533,19.533,0,0,0,866.723,696.05Zm36.477,0a16.966,16.966,0,1,1-16.966-16.966A16.966,16.966,0,0,1,903.2,696.05Z" transform="translate(-100.093 -36.298)" fill="#5e5385"/>
      <path id="Trazado_129903" data-name="Trazado 129903" d="M1041.582,784.788a22.477,22.477,0,1,0,22.477,22.477A22.477,22.477,0,0,0,1041.582,784.788Zm0,42.409a19.932,19.932,0,1,1,19.932-19.932,19.932,19.932,0,0,1-19.932,19.932Z" transform="translate(-220.163 -121.593)" fill="#26aab7"/>
      <path id="Trazado_129904" data-name="Trazado 129904" d="M1071,838.288a1.847,1.847,0,0,0-1.831-.989,1.783,1.783,0,0,0-1.806.991l-5.063,16.486a.8.8,0,0,0-.031.263c0,.759,1.039,1.226,1.785,1.226a.953.953,0,0,0,1.043-.636l1.021-3.536h6.125l1.022,3.539a.948.948,0,0,0,1.018.634c.837,0,1.811-.535,1.811-1.226a.836.836,0,0,0-.055-.26Zm.573,11.429h-4.806l2.4-8.243Z" transform="translate(-254.173 -162.969)" fill="#26aab7"/>
      <path id="Trazado_129905" data-name="Trazado 129905" d="M1141.757,838.02h-4.5c-.73,0-1.3.426-1.3.971v16.87c0,.545.573.971,1.3.971h4.5c3.76,0,5.831-2.053,5.831-5.78V843.8C1147.588,840.073,1145.517,838.02,1141.757,838.02Zm0,16.208h-2.9v-13.6h2.9c1.939,0,2.922,1.069,2.922,3.176v7.252c0,2.108-.983,3.176-2.922,3.176Z" transform="translate(-312.233 -163.537)" fill="#26aab7"/>
    </g>
  </g>
</svg>
