<svg xmlns="http://www.w3.org/2000/svg" width="103" height="103" viewBox="0 0 103 103"><g transform="translate(-589.688 -1576.412)"><circle cx="51.5" cy="51.5" r="51.5" transform="translate(589.688 1576.412)" fill="#7d6eb2"/><g transform="translate(589.494 1578.346)"><path d="M80.072,84.89H23.318a.554.554,0,0,1-.554-.554V17.031a.554.554,0,0,1,.554-.554H46.175a.554.554,0,1,1,0,1.108h-22.3v66.2H79.518v-66.2H57.291a.554.554,0,1,1,0-1.108h22.78a.554.554,0,0,1,.554.554V84.336A.554.554,0,0,1,80.072,84.89Z" transform="translate(0 -2.89)" fill="#fff"/><path d="M78.582,84.032H34.575a.554.554,0,0,1-.554-.554V29.448a.554.554,0,0,1,.554-.554h8.351a.554.554,0,0,1,0,1.108h-7.8V82.924h42.9V30H70.5a.554.554,0,0,1,0-1.108h8.086a.554.554,0,0,1,.554.554v54.03A.554.554,0,0,1,78.582,84.032Z" transform="translate(-5.022 -8.43)" fill="#fff"/><path d="M77.223,26.1H49.654a.554.554,0,0,1-.554-.554V17.031a.554.554,0,0,1,.554-.554h8.271a.554.554,0,1,1,0,1.108H50.208v7.4H76.669v-7.4H69.041a.554.554,0,1,1,0-1.108h8.182a.554.554,0,0,1,.554.554v8.513A.554.554,0,0,1,77.223,26.1Z" transform="translate(-11.75 -2.89)" fill="#fff"/><path d="M75.7,18.589H64.587a.554.554,0,0,1-.554-.554V10.554A.554.554,0,0,1,64.587,10H75.7a.554.554,0,0,1,.554.554v7.481A.554.554,0,0,1,75.7,18.589ZM65.141,17.481H75.15V11.108H65.141Z" transform="translate(-18.412)" fill="#fff"/><path d="M64.258,66.063A13.023,13.023,0,1,1,77.281,53.04,13.023,13.023,0,0,1,64.258,66.063Zm0-24.939A11.915,11.915,0,1,0,76.174,53.04,11.915,11.915,0,0,0,64.258,41.125Z" transform="translate(-12.702 -13.392)" fill="#fff"/><path d="M67.5,64.415a.554.554,0,0,1-.391-.162L62.88,60.027a.554.554,0,1,1,.783-.783L67.5,63.078l7.6-7.6a.554.554,0,1,1,.783.783l-7.993,7.993A.554.554,0,0,1,67.5,64.415Z" transform="translate(-17.826 -20.217)" fill="#fff"/><path d="M52.456,102.662H47.095a.554.554,0,1,1,0-1.108h5.361a.554.554,0,1,1,0,1.108Z" transform="translate(-10.608 -40.847)" fill="#fff"/><path d="M97.337,102.662H91.978a.554.554,0,1,1,0-1.108h5.359a.554.554,0,0,1,0,1.108Z" transform="translate(-30.633 -40.847)" fill="#fff"/><path d="M75.075,102.662H67.881a.554.554,0,1,1,0-1.108h7.194a.554.554,0,1,1,0,1.108Z" transform="translate(-19.882 -40.847)" fill="#fff"/><path d="M52.456,115.572H47.095a.554.554,0,0,1,0-1.108h5.361a.554.554,0,1,1,0,1.108Z" transform="translate(-10.608 -46.607)" fill="#fff"/><path d="M75.075,115.572H67.881a.554.554,0,0,1,0-1.108h7.194a.554.554,0,1,1,0,1.108Z" transform="translate(-19.882 -46.607)" fill="#fff"/></g></g></svg>