<svg xmlns="http://www.w3.org/2000/svg" width="150.999" height="128" viewBox="0 0 150.999 128">
  <g id="Grupo_57598" data-name="Grupo 57598" transform="translate(-568 -1841.112)">
    <g id="Unión_3" data-name="Unión 3" transform="translate(11502.999 13691.524) rotate(180)" fill="none">
      <path d="M10808.572,11800.567l-24.572-14.156,24.572-14.156a64,64,0,1,1,0,28.313Z" stroke="none"/>
      <path d="M 10871 11848.412109375 C 10879.37109375 11848.412109375 10887.490234375 11846.7734375 10895.1328125 11843.541015625 C 10898.8056640625 11841.9873046875 10902.3486328125 11840.0634765625 10905.6630859375 11837.82421875 C 10908.9462890625 11835.6064453125 10912.0341796875 11833.05859375 10914.83984375 11830.2529296875 C 10917.646484375 11827.4462890625 10920.193359375 11824.3583984375 10922.412109375 11821.0751953125 C 10924.6513671875 11817.7607421875 10926.57421875 11814.2177734375 10928.1279296875 11810.5439453125 C 10931.3603515625 11802.9013671875 10932.9990234375 11794.7822265625 10932.9990234375 11786.4111328125 C 10932.9990234375 11778.041015625 10931.3603515625 11769.921875 10928.1279296875 11762.279296875 C 10926.57421875 11758.6064453125 10924.6513671875 11755.0634765625 10922.412109375 11751.7490234375 C 10920.193359375 11748.4658203125 10917.646484375 11745.3779296875 10914.83984375 11742.572265625 C 10912.0341796875 11739.765625 10908.9462890625 11737.2177734375 10905.6630859375 11735 C 10902.3486328125 11732.7607421875 10898.8056640625 11730.837890625 10895.1328125 11729.2841796875 C 10887.490234375 11726.05078125 10879.37109375 11724.412109375 10871 11724.412109375 C 10863.7763671875 11724.412109375 10856.701171875 11725.642578125 10849.970703125 11728.0693359375 C 10843.4658203125 11730.4140625 10837.4296875 11733.8193359375 10832.0302734375 11738.1884765625 C 10826.6767578125 11742.5205078125 10822.1083984375 11747.669921875 10818.4521484375 11753.4931640625 C 10814.728515625 11759.423828125 10812.0615234375 11765.884765625 10810.5234375 11772.6953125 L 10810.330078125 11773.55078125 L 10809.5703125 11773.98828125 L 10788.0068359375 11786.4111328125 L 10810.330078125 11799.271484375 L 10810.5234375 11800.126953125 C 10812.0615234375 11806.9384765625 10814.7294921875 11813.3994140625 10818.4521484375 11819.330078125 C 10822.1083984375 11825.154296875 10826.6767578125 11830.3037109375 10832.0302734375 11834.6357421875 C 10837.4296875 11839.005859375 10843.4658203125 11842.41015625 10849.970703125 11844.7548828125 C 10856.701171875 11847.181640625 10863.7763671875 11848.412109375 10871 11848.412109375 M 10871 11850.412109375 C 10840.5185546875 11850.412109375 10815.015625 11829.1025390625 10808.572265625 11800.5673828125 L 10784 11786.4111328125 L 10808.572265625 11772.2548828125 C 10815.015625 11743.72265625 10840.5185546875 11722.412109375 10871 11722.412109375 C 10906.3466796875 11722.412109375 10934.9990234375 11751.0673828125 10934.9990234375 11786.4111328125 C 10934.9990234375 11821.7578125 10906.3466796875 11850.412109375 10871 11850.412109375 Z" stroke="none" fill="#7d70b0"/>
    </g>
    <g id="_092-users" data-name="092-users" transform="translate(571.135 1841.198)">
      <path id="Trazado_129906" data-name="Trazado 129906" d="M109.762,23.522h-65.8a4.507,4.507,0,0,0-4.5,4.5V49.169a4.507,4.507,0,0,0,4.5,4.5H58.928v6.409a1.039,1.039,0,0,0,1.774.735l7.042-7.043H87.189l7.464,7.063a1.039,1.039,0,0,0,1.753-.755V53.764l13.356-.093a4.507,4.507,0,0,0,4.5-4.5V28.024A4.507,4.507,0,0,0,109.762,23.522Zm2.424,25.647a2.428,2.428,0,0,1-2.431,2.424l-14.395.1a1.039,1.039,0,0,0-1.032,1.039v4.934l-6.014-5.689a1.039,1.039,0,0,0-.714-.284H67.312a1.039,1.039,0,0,0-.735.3l-5.571,5.573V52.632a1.039,1.039,0,0,0-1.039-1.039h-16a2.427,2.427,0,0,1-2.424-2.424V28.024A2.427,2.427,0,0,1,43.962,25.6h65.8a2.427,2.427,0,0,1,2.424,2.424Z" transform="translate(-16.09)" fill="#26aab7"/>
      <path id="Trazado_129907" data-name="Trazado 129907" d="M395.681,145.923h-8.626a1.212,1.212,0,0,0,0,2.424h8.626a1.212,1.212,0,0,0,0-2.424Z" transform="translate(-302.494 -101.206)" fill="#26aab7"/>
      <path id="Trazado_129908" data-name="Trazado 129908" d="M286.449,145.923H270.234a1.212,1.212,0,0,0,0,2.424h16.215a1.212,1.212,0,1,0,0-2.424Z" transform="translate(-205.902 -101.206)" fill="#26aab7"/>
      <path id="Trazado_129909" data-name="Trazado 129909" d="M200.7,145.923H191.66a1.212,1.212,0,0,0,0,2.424H200.7a1.212,1.212,0,1,0,0-2.424Z" transform="translate(-140.934 -101.206)" fill="#26aab7"/>
      <path id="Trazado_129910" data-name="Trazado 129910" d="M160.558,145.923H158.92a1.212,1.212,0,0,0,0,2.424h1.638a1.212,1.212,0,1,0,0-2.424Z" transform="translate(-113.863 -101.206)" fill="#26aab7"/>
      <path id="Trazado_129911" data-name="Trazado 129911" d="M83.535,145.923H72.471a1.212,1.212,0,1,0,0,2.424H83.535a1.212,1.212,0,0,0,0-2.424Z" transform="translate(-42.383 -101.206)" fill="#26aab7"/>
      <path id="Trazado_129912" data-name="Trazado 129912" d="M421.391,101.856h-3.242a1.212,1.212,0,0,0,0,2.424h3.242a1.212,1.212,0,1,0,0-2.424Z" transform="translate(-328.203 -64.77)" fill="#26aab7"/>
      <path id="Trazado_129913" data-name="Trazado 129913" d="M317.841,103.068a1.212,1.212,0,0,0,1.212,1.212h13.29a1.212,1.212,0,1,0,0-2.424h-13.29A1.212,1.212,0,0,0,317.841,103.068Z" transform="translate(-246.268 -64.77)" fill="#26aab7"/>
      <path id="Trazado_129914" data-name="Trazado 129914" d="M178.679,104.28a1.212,1.212,0,0,0,0-2.424H154.022a1.212,1.212,0,0,0,0,2.424Z" transform="translate(-109.813 -64.77)" fill="#26aab7"/>
      <path id="Trazado_129915" data-name="Trazado 129915" d="M72.471,104.28H81.8a1.212,1.212,0,1,0,0-2.424H72.471a1.212,1.212,0,1,0,0,2.424Z" transform="translate(-42.383 -64.77)" fill="#26aab7"/>
      <path id="Trazado_129916" data-name="Trazado 129916" d="M384.947,58.176H374.073a1.212,1.212,0,0,0,0,2.424h10.874a1.212,1.212,0,0,0,0-2.424Z" transform="translate(-291.76 -28.653)" fill="#26aab7"/>
      <path id="Trazado_129917" data-name="Trazado 129917" d="M336.351,60.6h2.405a1.212,1.212,0,0,0,0-2.424h-2.405a1.212,1.212,0,1,0,0,2.424Z" transform="translate(-260.57 -28.653)" fill="#26aab7"/>
      <path id="Trazado_129918" data-name="Trazado 129918" d="M244.817,60.6h11.767a1.212,1.212,0,0,0,0-2.424H244.817a1.212,1.212,0,0,0,0,2.424Z" transform="translate(-184.886 -28.653)" fill="#26aab7"/>
      <path id="Trazado_129919" data-name="Trazado 129919" d="M118.693,60.6h18.174a1.212,1.212,0,1,0,0-2.424H118.693a1.212,1.212,0,1,0,0,2.424Z" transform="translate(-80.601 -28.653)" fill="#26aab7"/>
      <path id="Trazado_129920" data-name="Trazado 129920" d="M72.471,60.6h4.085a1.212,1.212,0,1,0,0-2.424H72.471a1.212,1.212,0,0,0,0,2.424Z" transform="translate(-42.383 -28.653)" fill="#26aab7"/>
      <path id="Trazado_129921" data-name="Trazado 129921" d="M73.222,258.57v-3.829a6.63,6.63,0,0,1,4.888-6.388,6.617,6.617,0,0,0-8.351,6.388v3.829a6.627,6.627,0,0,0,6.619,6.619h0a6.6,6.6,0,0,0,1.731-.231A6.63,6.63,0,0,1,73.222,258.57Z" transform="translate(-41.143 -185.708)" fill="#d4e1f4"/>
      <path id="Trazado_129922" data-name="Trazado 129922" d="M120.352,378.567a8.406,8.406,0,0,0,5.8-2.1,7.528,7.528,0,0,0-2.625-.845,8.409,8.409,0,0,1-4.685,2.771A8.567,8.567,0,0,0,120.352,378.567Z" transform="translate(-81.726 -291.13)" fill="#d4e1f4"/>
      <path id="Trazado_129923" data-name="Trazado 129923" d="M37.5,377.7a7.593,7.593,0,0,1,2.012-1.475,8.505,8.505,0,0,1-.752-.777,7.581,7.581,0,0,0-6.881,7.547v7.578h3.463v-7.578A7.536,7.536,0,0,1,37.5,377.7Z" transform="translate(-9.822 -290.987)" fill="#d4e1f4"/>
      <path id="Trazado_129924" data-name="Trazado 129924" d="M214.915,227.918v-4.375a7.723,7.723,0,0,1,5.979-7.512,7.7,7.7,0,0,0-9.442,7.512v4.375a7.7,7.7,0,0,0,9.442,7.512A7.723,7.723,0,0,1,214.915,227.918Z" transform="translate(-158.301 -159.011)" fill="#d4e1f4"/>
      <path id="Trazado_129925" data-name="Trazado 129925" d="M369.008,258.57v-3.829a6.63,6.63,0,0,1,4.888-6.388,6.617,6.617,0,0,0-8.351,6.388v3.829a6.627,6.627,0,0,0,6.619,6.619h0a6.6,6.6,0,0,0,1.731-.231A6.63,6.63,0,0,1,369.008,258.57Z" transform="translate(-285.711 -185.708)" fill="#d4e1f4"/>
      <path id="Trazado_129926" data-name="Trazado 129926" d="M416.141,378.563a8.4,8.4,0,0,0,5.8-2.1,7.515,7.515,0,0,0-2.626-.844,8.408,8.408,0,0,1-4.685,2.771A8.565,8.565,0,0,0,416.141,378.563Z" transform="translate(-326.298 -291.126)" fill="#d4e1f4"/>
      <path id="Trazado_129927" data-name="Trazado 129927" d="M351.606,376.573c.2-.128.412-.243.625-.351a8.472,8.472,0,0,1-.753-.779,7.471,7.471,0,0,0-3.335,1.13,10.821,10.821,0,0,1,1.323,5.19v8.805h3.463v-8.8A10.821,10.821,0,0,0,351.606,376.573Z" transform="translate(-271.322 -290.983)" fill="#d4e1f4"/>
      <path id="Trazado_129928" data-name="Trazado 129928" d="M209.36,203.833a9.8,9.8,0,0,0-9.788,9.788V218a9.788,9.788,0,1,0,19.576,0v-4.375A9.8,9.8,0,0,0,209.36,203.833ZM217.07,218a7.71,7.71,0,1,1-15.421,0v-4.375a7.71,7.71,0,1,1,15.421,0Z" transform="translate(-148.478 -149.089)" fill="#7d6eb2"/>
      <path id="Trazado_129929" data-name="Trazado 129929" d="M353.666,244.82v3.829a8.7,8.7,0,1,0,17.394,0V244.82a8.7,8.7,0,0,0-17.394,0Zm15.316,0v3.829a6.619,6.619,0,1,1-13.239,0V244.82a6.619,6.619,0,1,1,13.239,0Z" transform="translate(-275.889 -175.787)" fill="#7d6eb2"/>
      <path id="Trazado_129930" data-name="Trazado 129930" d="M92.679,351.578c-.554-.04-.829.3-1.121.652a6.38,6.38,0,0,1-10.067-.246,1.051,1.051,0,0,0-.861-.421,9.552,9.552,0,0,0-4.952,1.514,10.866,10.866,0,0,0-7.739-3.953c-.543-.026-.816.306-1.133.693a7.437,7.437,0,0,1-11.734-.287,1.04,1.04,0,0,0-.862-.421,10.825,10.825,0,0,0-7.51,3.276c-.221.227-.43.463-.629.705a9.594,9.594,0,0,0-4.608-1.511c-.553-.04-.829.3-1.121.652a6.38,6.38,0,0,1-10.067-.246,1.045,1.045,0,0,0-.862-.421A9.658,9.658,0,0,0,20,361.215v8.617a1.039,1.039,0,0,0,1.039,1.039H43.6v1.6a1.039,1.039,0,0,0,1.039,1.039H77.125a1.039,1.039,0,0,0,1.039-1.039v-1.6h22.528a1.039,1.039,0,0,0,1.039-1.039v-8.617a9.663,9.663,0,0,0-9.051-9.637Zm-70.6,17.215v-7.578a7.581,7.581,0,0,1,6.881-7.547,8.459,8.459,0,0,0,12.862.029,7.535,7.535,0,0,1,3.089,1.114,10.83,10.83,0,0,0-1.309,5.176v8.805Zm54.008,2.643H45.679V359.987a8.809,8.809,0,0,1,8.073-8.776,9.516,9.516,0,0,0,14.569.031,8.817,8.817,0,0,1,7.765,8.744Zm23.567-2.643H78.164v-8.805a10.821,10.821,0,0,0-1.323-5.19,7.471,7.471,0,0,1,3.335-1.13,8.459,8.459,0,0,0,12.862.029,7.588,7.588,0,0,1,6.615,7.517Z" transform="translate(0 -269.208)" fill="#7d6eb2"/>
      <path id="Trazado_129931" data-name="Trazado 129931" d="M66.577,236.122a8.707,8.707,0,0,0-8.7,8.7v3.829a8.7,8.7,0,0,0,17.394,0v-3.829a8.707,8.707,0,0,0-8.7-8.7ZM73.2,248.648a6.619,6.619,0,0,1-13.239,0v-3.829a6.619,6.619,0,1,1,13.239,0Z" transform="translate(-31.321 -175.787)" fill="#7d6eb2"/>
      <path id="Trazado_129932" data-name="Trazado 129932" d="M268.537,364.813a9.438,9.438,0,0,0,6.778-2.592,8.731,8.731,0,0,0-2.723-.783,9.453,9.453,0,0,1-5.543,3.221A9.648,9.648,0,0,0,268.537,364.813Z" transform="translate(-204.27 -279.403)" fill="#d4e1f4"/>
      <path id="Trazado_129933" data-name="Trazado 129933" d="M174.264,363.888a8.8,8.8,0,0,1,2.76-1.913,9.641,9.641,0,0,1-.658-.71,8.809,8.809,0,0,0-8.073,8.776v11.448h3.463V370.04A8.756,8.756,0,0,1,174.264,363.888Z" transform="translate(-122.615 -279.26)" fill="#d4e1f4"/>
    </g>
  </g>
</svg>
