<svg xmlns="http://www.w3.org/2000/svg" width="150.999" height="128" viewBox="0 0 150.999 128">
  <g id="Grupo_57599" data-name="Grupo 57599" transform="translate(-839 -2015.111)">
    <g id="Unión_4" data-name="Unión 4" transform="translate(-9945 -9707.301)" fill="#fff">
      <path d="M 10871 11849.412109375 C 10863.6611328125 11849.412109375 10856.4716796875 11848.162109375 10849.6318359375 11845.6962890625 C 10843.021484375 11843.3125 10836.8876953125 11839.853515625 10831.4013671875 11835.4130859375 C 10825.9619140625 11831.01171875 10821.3203125 11825.779296875 10817.60546875 11819.8623046875 C 10813.822265625 11813.8349609375 10811.1103515625 11807.26953125 10809.5478515625 11800.3466796875 L 10809.451171875 11799.919921875 L 10809.0712890625 11799.701171875 L 10786.0029296875 11786.4111328125 L 10809.0712890625 11773.12109375 L 10809.451171875 11772.90234375 L 10809.5478515625 11772.4755859375 C 10811.1103515625 11765.5537109375 10813.822265625 11758.98828125 10817.60546875 11752.9619140625 C 10821.3203125 11747.044921875 10825.9619140625 11741.8125 10831.4013671875 11737.4111328125 C 10836.8876953125 11732.970703125 10843.021484375 11729.51171875 10849.6318359375 11727.12890625 C 10856.4716796875 11724.662109375 10863.6611328125 11723.412109375 10871 11723.412109375 C 10879.505859375 11723.412109375 10887.755859375 11725.078125 10895.5224609375 11728.3623046875 C 10899.2548828125 11729.94140625 10902.85546875 11731.8955078125 10906.22265625 11734.1708984375 C 10909.5595703125 11736.4248046875 10912.6962890625 11739.013671875 10915.5478515625 11741.865234375 C 10918.3984375 11744.7158203125 10920.9873046875 11747.853515625 10923.240234375 11751.189453125 C 10925.515625 11754.5576171875 10927.4697265625 11758.1572265625 10929.048828125 11761.890625 C 10932.333984375 11769.65625 10933.9990234375 11777.90625 10933.9990234375 11786.4111328125 C 10933.9990234375 11794.9169921875 10932.333984375 11803.1669921875 10929.048828125 11810.93359375 C 10927.4697265625 11814.666015625 10925.515625 11818.2666015625 10923.240234375 11821.634765625 C 10920.9873046875 11824.970703125 10918.3984375 11828.1083984375 10915.5478515625 11830.9599609375 C 10912.6962890625 11833.810546875 10909.5595703125 11836.3994140625 10906.22265625 11838.6533203125 C 10902.85546875 11840.9287109375 10899.2548828125 11842.8828125 10895.5224609375 11844.4619140625 C 10887.755859375 11847.74609375 10879.505859375 11849.412109375 10871 11849.412109375 Z" stroke="none"/>
      <path d="M 10871 11848.412109375 C 10879.37109375 11848.412109375 10887.490234375 11846.7734375 10895.1328125 11843.541015625 C 10898.8056640625 11841.9873046875 10902.3486328125 11840.0634765625 10905.6630859375 11837.82421875 C 10908.9462890625 11835.6064453125 10912.0341796875 11833.05859375 10914.83984375 11830.2529296875 C 10917.646484375 11827.4462890625 10920.193359375 11824.3583984375 10922.412109375 11821.0751953125 C 10924.6513671875 11817.7607421875 10926.57421875 11814.2177734375 10928.1279296875 11810.5439453125 C 10931.3603515625 11802.9013671875 10932.9990234375 11794.7822265625 10932.9990234375 11786.4111328125 C 10932.9990234375 11778.041015625 10931.3603515625 11769.921875 10928.1279296875 11762.279296875 C 10926.57421875 11758.6064453125 10924.6513671875 11755.0634765625 10922.412109375 11751.7490234375 C 10920.193359375 11748.4658203125 10917.646484375 11745.3779296875 10914.83984375 11742.572265625 C 10912.0341796875 11739.765625 10908.9462890625 11737.2177734375 10905.6630859375 11735 C 10902.3486328125 11732.7607421875 10898.8056640625 11730.837890625 10895.1328125 11729.2841796875 C 10887.490234375 11726.05078125 10879.37109375 11724.412109375 10871 11724.412109375 C 10863.7763671875 11724.412109375 10856.701171875 11725.642578125 10849.970703125 11728.0693359375 C 10843.4658203125 11730.4140625 10837.4296875 11733.8193359375 10832.0302734375 11738.1884765625 C 10826.6767578125 11742.5205078125 10822.1083984375 11747.669921875 10818.4521484375 11753.4931640625 C 10814.728515625 11759.423828125 10812.0615234375 11765.884765625 10810.5234375 11772.6953125 L 10810.330078125 11773.55078125 L 10809.5703125 11773.98828125 L 10788.0068359375 11786.4111328125 L 10810.330078125 11799.271484375 L 10810.5234375 11800.126953125 C 10812.0615234375 11806.9384765625 10814.7294921875 11813.3994140625 10818.4521484375 11819.330078125 C 10822.1083984375 11825.154296875 10826.6767578125 11830.3037109375 10832.0302734375 11834.6357421875 C 10837.4296875 11839.005859375 10843.4658203125 11842.41015625 10849.970703125 11844.7548828125 C 10856.701171875 11847.181640625 10863.7763671875 11848.412109375 10871 11848.412109375 M 10871 11850.412109375 C 10840.5185546875 11850.412109375 10815.015625 11829.1025390625 10808.572265625 11800.5673828125 L 10784 11786.4111328125 L 10808.572265625 11772.2548828125 C 10815.015625 11743.72265625 10840.5185546875 11722.412109375 10871 11722.412109375 C 10906.3466796875 11722.412109375 10934.9990234375 11751.0673828125 10934.9990234375 11786.4111328125 C 10934.9990234375 11821.7578125 10906.3466796875 11850.412109375 10871 11850.412109375 Z" stroke="none" fill="#7d70b0"/>
    </g>
    <g id="_041-focus" data-name="041-focus" transform="translate(867.717 2024.3)">
      <path id="Trazado_129934" data-name="Trazado 129934" d="M27,128.244A38.753,38.753,0,0,1,62.885,89.6q-1.421-.1-2.868-.106a38.751,38.751,0,0,0,0,77.5q1.447,0,2.868-.106A38.753,38.753,0,0,1,27,128.244Z" transform="translate(-9.92 -65.101)" fill="#d4e1f4"/>
      <path id="Trazado_129935" data-name="Trazado 129935" d="M78.747,145.427a40.862,40.862,0,0,0,3.786-53.421,1.339,1.339,0,1,0-2.14,1.609A38.175,38.175,0,1,1,72.779,86a1.339,1.339,0,1,0,1.609-2.14,40.858,40.858,0,1,0,4.359,61.566Z" transform="translate(0 -53.929)" fill="#7d6eb2"/>
      <path id="Trazado_129936" data-name="Trazado 129936" d="M101.282,121.407a33.324,33.324,0,1,0,7.4,7.412,1.339,1.339,0,0,0-2.167,1.572,30.656,30.656,0,1,1-6.811-6.819,1.339,1.339,0,0,0,1.575-2.165Z" transform="translate(-31.833 -85.766)" fill="#7d6eb2"/>
      <path id="Trazado_129937" data-name="Trazado 129937" d="M202.985,248.486v-2.481a6.108,6.108,0,1,0-12.216,0v2.481a6.108,6.108,0,1,0,12.216,0Zm-9.922,0v-2.481a3.814,3.814,0,1,1,7.627,0v2.481a3.814,3.814,0,1,1-7.627,0Z" transform="translate(-147.01 -186.744)" fill="#7d6eb2"/>
      <path id="Trazado_129938" data-name="Trazado 129938" d="M113.1,330.42h18.42a1.147,1.147,0,0,0,1.147-1.147V327.94h12.215a1.147,1.147,0,0,0,1.147-1.147v-4.886a6.041,6.041,0,0,0-5.668-6.024,1.26,1.26,0,0,0-1.09.574,3.06,3.06,0,0,1-4.827-.117,1.147,1.147,0,0,0-.952-.465,5.975,5.975,0,0,0-2.677.705,6.723,6.723,0,0,0-4.477-2.088,1.29,1.29,0,0,0-1.1.6,3.659,3.659,0,0,1-5.773-.14,1.151,1.151,0,0,0-.951-.465,6.711,6.711,0,0,0-4.7,2.11,6.015,6.015,0,0,0-2.492-.709,1.252,1.252,0,0,0-1.09.574,3.06,3.06,0,0,1-4.827-.117,1.148,1.148,0,0,0-.952-.465,6.07,6.07,0,0,0-5.881,6.031v4.886a1.147,1.147,0,0,0,1.147,1.147h12.235v1.333a1.147,1.147,0,0,0,1.147,1.147Zm19.93-12.2a5.355,5.355,0,0,0,7.721.026,3.745,3.745,0,0,1,2.983,3.663v3.738H132.666v-4.434a6.686,6.686,0,0,0-.572-2.708A3.673,3.673,0,0,1,133.029,318.218Zm-14.99-1.395a5.955,5.955,0,0,0,8.7.026,4.442,4.442,0,0,1,3.629,4.362v6.915H114.246v-6.915A4.467,4.467,0,0,1,118.039,316.823Zm-17.175,8.822v-3.738a3.767,3.767,0,0,1,3.124-3.688,5.356,5.356,0,0,0,7.72.025,3.709,3.709,0,0,1,.817.273,6.626,6.626,0,0,0-.574,2.694v4.434Z" transform="translate(-72.442 -247.067)" fill="#7d6eb2"/>
      <path id="Trazado_129939" data-name="Trazado 129939" d="M280.863,264.137v-2.171a5.49,5.49,0,0,0-10.979,0v2.171a5.49,5.49,0,1,0,10.979,0Zm-8.685,0v-2.171a3.195,3.195,0,1,1,6.39,0v2.171a3.195,3.195,0,0,1-6.39,0Z" transform="translate(-210.996 -200.153)" fill="#7d6eb2"/>
      <path id="Trazado_129940" data-name="Trazado 129940" d="M129,264.137v-2.171a5.49,5.49,0,0,0-10.979,0v2.171a5.49,5.49,0,1,0,10.979,0Zm-8.685,0v-2.171a3.195,3.195,0,0,1,6.39,0v2.171a3.195,3.195,0,1,1-6.39,0Z" transform="translate(-88.171 -200.153)" fill="#7d6eb2"/>
      <path id="Trazado_129941" data-name="Trazado 129941" d="M299.454,21.481l-10.26-1.015-1.015-10.26a1.339,1.339,0,0,0-2.279-.815L272.178,23.114a1.339,1.339,0,0,0-.352,1.271l2.312,9.244L253.212,54.555a1.339,1.339,0,0,0,1.893,1.893l20.926-20.926,9.245,2.311a1.339,1.339,0,0,0,1.271-.352L300.268,23.76a1.339,1.339,0,0,0-.815-2.279Zm-24.847,2.99,11.187-11.187.782,7.907L276.345,31.422Zm10.582,10.582-6.951-1.738,10.231-10.231,7.907.782Z" transform="translate(-197.195 0)" fill="#26aab7"/>
    </g>
  </g>
</svg>
