<svg xmlns="http://www.w3.org/2000/svg" width="103" height="103" viewBox="0 0 103 103"><g transform="translate(-1194.688 -1576.412)"><circle cx="51.5" cy="51.5" r="51.5" transform="translate(1194.688 1576.412)" fill="#7d6eb2"/><g transform="translate(1191.731 1583.912)"><path d="M84.292,78H49.623a4.378,4.378,0,0,1-4.373-4.373V47.662a.523.523,0,1,1,1.046,0V73.627a3.331,3.331,0,0,0,3.327,3.327h34.67a3.331,3.331,0,0,0,3.327-3.327V14.368a3.328,3.328,0,0,0-3.327-3.322H49.623A3.328,3.328,0,0,0,46.3,14.368V27.131a.523.523,0,1,1-1.046,0V14.368A4.375,4.375,0,0,1,49.623,10h34.67a4.375,4.375,0,0,1,4.373,4.368V73.627A4.378,4.378,0,0,1,84.292,78Z" transform="translate(-11.208)" fill="#fff"/><path d="M88.14,25.024H45.773a.523.523,0,1,1,0-1.046H88.142a.523.523,0,1,1,0,1.046Z" transform="translate(-11.208 -6.666)" fill="#fff"/><path d="M88.14,119.266H45.773a.523.523,0,1,1,0-1.046H88.142a.523.523,0,1,1,0,1.046Z" transform="translate(-11.208 -51.613)" fill="#fff"/><path d="M86.625,18.446H78.574a.523.523,0,1,1,0-1.046h8.051a.523.523,0,1,1,0,1.046Z" transform="translate(-26.851 -3.529)" fill="#fff"/><path d="M83.776,129.5a3.261,3.261,0,1,1,3.258-3.263A3.261,3.261,0,0,1,83.776,129.5Zm0-5.475a2.215,2.215,0,1,0,2.212,2.212,2.215,2.215,0,0,0-2.212-2.212Z" transform="translate(-28.025 -53.884)" fill="#fff"/><path d="M44.064,68.066a.523.523,0,0,1-.369-.153L39.1,63.327H25.877A4.132,4.132,0,0,1,21.75,59.2V45.877a4.132,4.132,0,0,1,4.127-4.127H43.662a4.132,4.132,0,0,1,4.127,4.127V59.2a4.11,4.11,0,0,1-3.2,4.022v4.321a.523.523,0,0,1-.523.523ZM25.877,42.8A3.086,3.086,0,0,0,22.8,45.877V59.2a3.086,3.086,0,0,0,3.081,3.081H39.32a.523.523,0,0,1,.369.153l3.852,3.847v-3.5a.523.523,0,0,1,.467-.52A3.064,3.064,0,0,0,46.743,59.2V45.877A3.086,3.086,0,0,0,43.662,42.8Z" transform="translate(0 -15.142)" fill="#fff"/><path d="M36.781,55.971a2.793,2.793,0,1,1,2.581-1.723A2.794,2.794,0,0,1,36.781,55.971Zm0-4.539a1.746,1.746,0,1,0,1.237.511,1.746,1.746,0,0,0-1.237-.511Z" transform="translate(-5.836 -19.26)" fill="#fff"/><path d="M50.624,69.816A2.8,2.8,0,1,1,53.2,68.091,2.794,2.794,0,0,1,50.624,69.816Zm0-4.541a1.747,1.747,0,0,0-1.234,2.982,1.786,1.786,0,0,0,2.468,0,1.744,1.744,0,0,0-1.234-2.982Z" transform="translate(-12.439 -25.863)" fill="#fff"/><path d="M35.661,63.163a.523.523,0,0,1-.37-.893L45.87,51.691a.523.523,0,1,1,.74.74L36.031,63.01A.523.523,0,0,1,35.661,63.163Z" transform="translate(-6.385 -19.81)" fill="#fff"/></g></g></svg>