<svg xmlns="http://www.w3.org/2000/svg" width="150.999" height="128" viewBox="0 0 150.999 128">
  <g id="Grupo_57600" data-name="Grupo 57600" transform="translate(-568 -2196.112)">
    <g id="Unión_5" data-name="Unión 5" transform="translate(11502.999 14046.524) rotate(180)" fill="none">
      <path d="M10808.572,11800.567l-24.572-14.156,24.572-14.156a64,64,0,1,1,0,28.313Z" stroke="none"/>
      <path d="M 10871 11848.412109375 C 10879.37109375 11848.412109375 10887.490234375 11846.7734375 10895.1328125 11843.541015625 C 10898.8056640625 11841.9873046875 10902.3486328125 11840.0634765625 10905.6630859375 11837.82421875 C 10908.9462890625 11835.6064453125 10912.0341796875 11833.05859375 10914.83984375 11830.2529296875 C 10917.646484375 11827.4462890625 10920.193359375 11824.3583984375 10922.412109375 11821.0751953125 C 10924.6513671875 11817.7607421875 10926.57421875 11814.2177734375 10928.1279296875 11810.5439453125 C 10931.3603515625 11802.9013671875 10932.9990234375 11794.7822265625 10932.9990234375 11786.4111328125 C 10932.9990234375 11778.041015625 10931.3603515625 11769.921875 10928.1279296875 11762.279296875 C 10926.57421875 11758.6064453125 10924.6513671875 11755.0634765625 10922.412109375 11751.7490234375 C 10920.193359375 11748.4658203125 10917.646484375 11745.3779296875 10914.83984375 11742.572265625 C 10912.0341796875 11739.765625 10908.9462890625 11737.2177734375 10905.6630859375 11735 C 10902.3486328125 11732.7607421875 10898.8056640625 11730.837890625 10895.1328125 11729.2841796875 C 10887.490234375 11726.05078125 10879.37109375 11724.412109375 10871 11724.412109375 C 10863.7763671875 11724.412109375 10856.701171875 11725.642578125 10849.970703125 11728.0693359375 C 10843.4658203125 11730.4140625 10837.4296875 11733.8193359375 10832.0302734375 11738.1884765625 C 10826.6767578125 11742.5205078125 10822.1083984375 11747.669921875 10818.4521484375 11753.4931640625 C 10814.728515625 11759.423828125 10812.0615234375 11765.884765625 10810.5234375 11772.6953125 L 10810.330078125 11773.55078125 L 10809.5703125 11773.98828125 L 10788.0068359375 11786.4111328125 L 10810.330078125 11799.271484375 L 10810.5234375 11800.126953125 C 10812.0615234375 11806.9384765625 10814.7294921875 11813.3994140625 10818.4521484375 11819.330078125 C 10822.1083984375 11825.154296875 10826.6767578125 11830.3037109375 10832.0302734375 11834.6357421875 C 10837.4296875 11839.005859375 10843.4658203125 11842.41015625 10849.970703125 11844.7548828125 C 10856.701171875 11847.181640625 10863.7763671875 11848.412109375 10871 11848.412109375 M 10871 11850.412109375 C 10840.5185546875 11850.412109375 10815.015625 11829.1025390625 10808.572265625 11800.5673828125 L 10784 11786.4111328125 L 10808.572265625 11772.2548828125 C 10815.015625 11743.72265625 10840.5185546875 11722.412109375 10871 11722.412109375 C 10906.3466796875 11722.412109375 10934.9990234375 11751.0673828125 10934.9990234375 11786.4111328125 C 10934.9990234375 11821.7578125 10906.3466796875 11850.412109375 10871 11850.412109375 Z" stroke="none" fill="#7d70b0"/>
    </g>
    <g id="_052-like" data-name="052-like" transform="translate(578.838 2153.982)">
      <path id="Trazado_129942" data-name="Trazado 129942" d="M86.025,79.857V98.962H83.337V79.857A6.046,6.046,0,0,0,77.3,73.818H18.227a6.046,6.046,0,0,0-6.039,6.039v39.852a6.046,6.046,0,0,0,6.039,6.039h3.005a3.877,3.877,0,0,1,3.854,3.168c1.056,5.985,4.194,8.74,6.023,9.868.006-.077.013-.154.021-.232a20.556,20.556,0,0,1,1.893-7.8c1.778-3.322,4.806-5.006,9-5.006H56.864v2.688H42.025c-6.69,0-7.729,5.121-8.218,10.365a13.6,13.6,0,0,1-.3,2.168,1.452,1.452,0,0,1-1.19,1.141,1.252,1.252,0,0,1-.205.015,1.368,1.368,0,0,1-.68-.181c-1.294-.5-7.35-3.283-8.99-12.56a1.21,1.21,0,0,0-1.206-.949H18.227A8.737,8.737,0,0,1,9.5,119.709V79.857a8.737,8.737,0,0,1,8.727-8.727H77.3A8.739,8.739,0,0,1,86.025,79.857Z" fill="#7d6eb2"/>
      <path id="Trazado_129943" data-name="Trazado 129943" d="M344.18,227.987a4.045,4.045,0,0,1-4.075,3.827h-2.458a1.184,1.184,0,0,1-1.2-1.115,1.152,1.152,0,0,1,1.152-1.19h2.544a1.717,1.717,0,0,0,1.732-1.56,1.679,1.679,0,0,0-1.672-1.793H327.432a3.483,3.483,0,0,1-3.466-3.109,12.765,12.765,0,0,1,.735-5.841,12.815,12.815,0,0,0,.822-4.524v-1.035a3.951,3.951,0,0,0-2.974-3.823l-.405,2.644a26.825,26.825,0,0,1-4.729,11.571,8.673,8.673,0,0,1-7,3.57H307.76a1.184,1.184,0,0,1-1.2-1.114,1.152,1.152,0,0,1,1.152-1.19h2.7a6.363,6.363,0,0,0,5.133-2.615,24.534,24.534,0,0,0,4.318-10.57l.574-3.742a1.149,1.149,0,0,1,1.139-.977h.019a5,5,0,0,1,2.559.743l1.318.8a4.01,4.01,0,0,1,1.206,1.107,6.214,6.214,0,0,1,1.147,3.6v1.035a15.149,15.149,0,0,1-.968,5.334,10.423,10.423,0,0,0-.6,4.781,1.18,1.18,0,0,0,1.175,1.054H340.2a3.985,3.985,0,0,1,3.976,4.134Z" transform="translate(-240.02 -108.488)" fill="#26aab7"/>
      <path id="Trazado_129944" data-name="Trazado 129944" d="M256.647,245.167a1.344,1.344,0,1,0,0-2.688H235.1a1.344,1.344,0,1,0,0,2.688Z" transform="translate(-181.197 -138.448)" fill="#7d6eb2"/>
      <path id="Trazado_129945" data-name="Trazado 129945" d="M135.226,243.823a1.344,1.344,0,0,0-1.344-1.344H115.36a1.344,1.344,0,1,0,0,2.688h18.522A1.344,1.344,0,0,0,135.226,243.823Z" transform="translate(-84.448 -138.448)" fill="#7d6eb2"/>
      <path id="Trazado_129946" data-name="Trazado 129946" d="M58.911,245.167h6.508a1.344,1.344,0,1,0,0-2.688H58.911a1.344,1.344,0,1,0,0,2.688Z" transform="translate(-38.838 -138.448)" fill="#7d6eb2"/>
      <path id="Trazado_129947" data-name="Trazado 129947" d="M320.243,195.756a1.344,1.344,0,0,0,1.344,1.344h4.94a1.344,1.344,0,0,0,0-2.688h-4.94A1.344,1.344,0,0,0,320.243,195.756Z" transform="translate(-251.076 -99.61)" fill="#7d6eb2"/>
      <path id="Trazado_129948" data-name="Trazado 129948" d="M242.492,194.412a1.344,1.344,0,0,0,0,2.688h10.9a1.344,1.344,0,0,0,0-2.688Z" transform="translate(-187.169 -99.61)" fill="#7d6eb2"/>
      <path id="Trazado_129949" data-name="Trazado 129949" d="M58.911,197.1h30.9a1.344,1.344,0,1,0,0-2.688h-30.9a1.344,1.344,0,1,0,0,2.688Z" transform="translate(-38.838 -99.61)" fill="#7d6eb2"/>
      <path id="Trazado_129950" data-name="Trazado 129950" d="M330.507,139.419a1.344,1.344,0,1,0,0-2.688h-3.994a1.344,1.344,0,0,0,0,2.688Z" transform="translate(-255.056 -53.005)" fill="#7d6eb2"/>
      <path id="Trazado_129951" data-name="Trazado 129951" d="M144.6,138.075a1.344,1.344,0,0,0-1.344-1.344H105.134a1.344,1.344,0,0,0,0,2.688h38.124A1.344,1.344,0,0,0,144.6,138.075Z" transform="translate(-76.185 -53.005)" fill="#7d6eb2"/>
      <path id="Trazado_129952" data-name="Trazado 129952" d="M58.911,139.419H63.44a1.344,1.344,0,0,0,0-2.688H58.911a1.344,1.344,0,1,0,0,2.688Z" transform="translate(-38.838 -53.005)" fill="#7d6eb2"/>
      <path id="Trazado_129953" data-name="Trazado 129953" d="M202.937,293.234h4.211a1.344,1.344,0,1,0,0-2.688h-4.211a1.344,1.344,0,1,0,0,2.688Z" transform="translate(-155.209 -177.285)" fill="#7d6eb2"/>
      <path id="Trazado_129954" data-name="Trazado 129954" d="M58.911,293.234h23.14a1.344,1.344,0,1,0,0-2.688H58.911a1.344,1.344,0,0,0,0,2.688Z" transform="translate(-38.838 -177.285)" fill="#7d6eb2"/>
      <path id="Trazado_129955" data-name="Trazado 129955" d="M298.617,292.437a4.275,4.275,0,0,0-4.27-4.27h-4.165a1.152,1.152,0,1,0,0,2.3h4.165a1.966,1.966,0,1,1,0,3.932h-4.165a1.152,1.152,0,0,0,0,2.3h4.259a1.872,1.872,0,1,1,0,3.744H288.3a1.152,1.152,0,0,0,0,2.3h4.76a1.859,1.859,0,1,1,0,3.717H282.4c-3,0-5.885-.123-8.276-1.606a17.99,17.99,0,0,0-9.491-2.7h-1.346v-23.03a1.152,1.152,0,0,0-1.152-1.152H251.317a1.152,1.152,0,0,0-1.152,1.152v27.694a1.152,1.152,0,0,0,1.152,1.152H262.14a1.152,1.152,0,0,0,1.152-1.152v-2.362h1.346a15.69,15.69,0,0,1,8.278,2.36c2.9,1.8,6.145,1.951,9.488,1.951h10.657a4.159,4.159,0,0,0,3.408-6.549,4.17,4.17,0,0,0,.819-6.7A4.257,4.257,0,0,0,298.617,292.437Zm-37.628,13.237h-8.519v-25.39h8.519Z" transform="translate(-194.454 -167.131)" fill="#26aab7"/>
      <path id="Trazado_129956" data-name="Trazado 129956" d="M25.927,136.206V96.665A6.007,6.007,0,0,1,31.9,90.628H91.7c.175,0,.348.009.518.024a6,6,0,0,0-5.946-5.519h-59.8A6.008,6.008,0,0,0,20.5,91.17v39.542a6.051,6.051,0,0,0,5.453,6.047C25.936,136.577,25.927,136.393,25.927,136.206Z" transform="translate(-8.888 -11.314)" fill="#d4e1f4"/>
    </g>
  </g>
</svg>
