<svg xmlns="http://www.w3.org/2000/svg" width="150.999" height="128" viewBox="0 0 150.999 128">
  <g id="Grupo_57601" data-name="Grupo 57601" transform="translate(-839 -2365.412)">
    <g id="Unión_6" data-name="Unión 6" transform="translate(-9945 -9357)" fill="#fff">
      <path d="M 10871 11849.412109375 C 10863.6611328125 11849.412109375 10856.4716796875 11848.162109375 10849.6318359375 11845.6962890625 C 10843.021484375 11843.3125 10836.8876953125 11839.853515625 10831.4013671875 11835.4130859375 C 10825.9619140625 11831.01171875 10821.3203125 11825.779296875 10817.60546875 11819.8623046875 C 10813.822265625 11813.8349609375 10811.1103515625 11807.26953125 10809.5478515625 11800.3466796875 L 10809.451171875 11799.919921875 L 10809.0712890625 11799.701171875 L 10786.0029296875 11786.4111328125 L 10809.0712890625 11773.12109375 L 10809.451171875 11772.90234375 L 10809.5478515625 11772.4755859375 C 10811.1103515625 11765.5537109375 10813.822265625 11758.98828125 10817.60546875 11752.9619140625 C 10821.3203125 11747.044921875 10825.9619140625 11741.8125 10831.4013671875 11737.4111328125 C 10836.8876953125 11732.970703125 10843.021484375 11729.51171875 10849.6318359375 11727.12890625 C 10856.4716796875 11724.662109375 10863.6611328125 11723.412109375 10871 11723.412109375 C 10879.505859375 11723.412109375 10887.755859375 11725.078125 10895.5224609375 11728.3623046875 C 10899.2548828125 11729.94140625 10902.85546875 11731.8955078125 10906.22265625 11734.1708984375 C 10909.5595703125 11736.4248046875 10912.6962890625 11739.013671875 10915.5478515625 11741.865234375 C 10918.3984375 11744.7158203125 10920.9873046875 11747.853515625 10923.240234375 11751.189453125 C 10925.515625 11754.5576171875 10927.4697265625 11758.1572265625 10929.048828125 11761.890625 C 10932.333984375 11769.65625 10933.9990234375 11777.90625 10933.9990234375 11786.4111328125 C 10933.9990234375 11794.9169921875 10932.333984375 11803.1669921875 10929.048828125 11810.93359375 C 10927.4697265625 11814.666015625 10925.515625 11818.2666015625 10923.240234375 11821.634765625 C 10920.9873046875 11824.970703125 10918.3984375 11828.1083984375 10915.5478515625 11830.9599609375 C 10912.6962890625 11833.810546875 10909.5595703125 11836.3994140625 10906.22265625 11838.6533203125 C 10902.85546875 11840.9287109375 10899.2548828125 11842.8828125 10895.5224609375 11844.4619140625 C 10887.755859375 11847.74609375 10879.505859375 11849.412109375 10871 11849.412109375 Z" stroke="none"/>
      <path d="M 10871 11848.412109375 C 10879.37109375 11848.412109375 10887.490234375 11846.7734375 10895.1328125 11843.541015625 C 10898.8056640625 11841.9873046875 10902.3486328125 11840.0634765625 10905.6630859375 11837.82421875 C 10908.9462890625 11835.6064453125 10912.0341796875 11833.05859375 10914.83984375 11830.2529296875 C 10917.646484375 11827.4462890625 10920.193359375 11824.3583984375 10922.412109375 11821.0751953125 C 10924.6513671875 11817.7607421875 10926.57421875 11814.2177734375 10928.1279296875 11810.5439453125 C 10931.3603515625 11802.9013671875 10932.9990234375 11794.7822265625 10932.9990234375 11786.4111328125 C 10932.9990234375 11778.041015625 10931.3603515625 11769.921875 10928.1279296875 11762.279296875 C 10926.57421875 11758.6064453125 10924.6513671875 11755.0634765625 10922.412109375 11751.7490234375 C 10920.193359375 11748.4658203125 10917.646484375 11745.3779296875 10914.83984375 11742.572265625 C 10912.0341796875 11739.765625 10908.9462890625 11737.2177734375 10905.6630859375 11735 C 10902.3486328125 11732.7607421875 10898.8056640625 11730.837890625 10895.1328125 11729.2841796875 C 10887.490234375 11726.05078125 10879.37109375 11724.412109375 10871 11724.412109375 C 10863.7763671875 11724.412109375 10856.701171875 11725.642578125 10849.970703125 11728.0693359375 C 10843.4658203125 11730.4140625 10837.4296875 11733.8193359375 10832.0302734375 11738.1884765625 C 10826.6767578125 11742.5205078125 10822.1083984375 11747.669921875 10818.4521484375 11753.4931640625 C 10814.728515625 11759.423828125 10812.0615234375 11765.884765625 10810.5234375 11772.6953125 L 10810.330078125 11773.55078125 L 10809.5703125 11773.98828125 L 10788.0068359375 11786.4111328125 L 10810.330078125 11799.271484375 L 10810.5234375 11800.126953125 C 10812.0615234375 11806.9384765625 10814.7294921875 11813.3994140625 10818.4521484375 11819.330078125 C 10822.1083984375 11825.154296875 10826.6767578125 11830.3037109375 10832.0302734375 11834.6357421875 C 10837.4296875 11839.005859375 10843.4658203125 11842.41015625 10849.970703125 11844.7548828125 C 10856.701171875 11847.181640625 10863.7763671875 11848.412109375 10871 11848.412109375 M 10871 11850.412109375 C 10840.5185546875 11850.412109375 10815.015625 11829.1025390625 10808.572265625 11800.5673828125 L 10784 11786.4111328125 L 10808.572265625 11772.2548828125 C 10815.015625 11743.72265625 10840.5185546875 11722.412109375 10871 11722.412109375 C 10906.3466796875 11722.412109375 10934.9990234375 11751.0673828125 10934.9990234375 11786.4111328125 C 10934.9990234375 11821.7578125 10906.3466796875 11850.412109375 10871 11850.412109375 Z" stroke="none" fill="#7d70b0"/>
    </g>
    <g id="_074-public-relation-2" data-name="074-public-relation-2" transform="translate(863.427 2349.004)">
      <path id="Trazado_129966" data-name="Trazado 129966" d="M282.344,170.517V175.3h3.8c-.005-.073-.012-.146-.012-.221v-6.461a1.237,1.237,0,0,0-1.274-1.271h-5.149l3.544-9.309a1.478,1.478,0,0,0,.087-.5c0-1.765.016-3.771.028-4.012a18.292,18.292,0,0,1,8.259-14.363,18.3,18.3,0,0,0-12.046,16.257c-.013.241-.024,2.247-.028,4.012a1.479,1.479,0,0,1-.087.5l-3.544,9.309h5.149a1.237,1.237,0,0,1,1.274,1.271Z" transform="translate(-209.576 -81.183)" fill="#d4e1f4"/>
      <path id="Trazado_129967" data-name="Trazado 129967" d="M368.492,353.71h-11.4l-1.4-5.561a4.153,4.153,0,0,0-4.025-3.15h-.019c-2.014,0-5.456,0-5.8.011-.059,0-.116,0-.175,0v1.886h2.207a4.153,4.153,0,0,1,4.025,3.15l1.4,5.561h15.608C368.791,355.071,368.646,354.43,368.492,353.71Z" transform="translate(-266.125 -248.038)" fill="#d4e1f4"/>
      <path id="Trazado_129968" data-name="Trazado 129968" d="M68.355,168.936a1.474,1.474,0,0,1-.087-.5c0-1.765-.015-3.771-.028-4.012A18.3,18.3,0,0,0,56.193,148.17a18.292,18.292,0,0,1,8.26,14.363c.013.241.024,2.247.028,4.012a1.474,1.474,0,0,0,.087.5l3.543,9.309H62.963a1.237,1.237,0,0,0-1.274,1.271v6.461a3.133,3.133,0,0,1-3.175,3.072c-.345-.011-3.787-.011-5.8-.011h-.019a4.153,4.153,0,0,0-4.025,3.15l-1.395,5.561h-11.4c-.155.72-.3,1.361-.424,1.894H51.062l1.4-5.561a4.153,4.153,0,0,1,4.024-3.15H56.5c2.014,0,5.456,0,5.8.011a3.133,3.133,0,0,0,3.175-3.072v-6.461a1.237,1.237,0,0,1,1.274-1.271H71.9Z" transform="translate(-14.643 -88.479)" fill="#d4e1f4"/>
      <path id="Trazado_129969" data-name="Trazado 129969" d="M264.643,156.41h4.668v3.767h-.088a3.809,3.809,0,0,0,.047,7.617h.044l7.894-.121a1.133,1.133,0,0,0,.888-.451l2.612-.012h.007a1.685,1.685,0,0,1,1.638,1.277L284,175.04a1.136,1.136,0,0,0,1.1.859h18.336a1.136,1.136,0,0,0,1.1-1.429c-.031-.115-3.054-11.577-2.387-18.743a38.641,38.641,0,0,1,2.213-7.031,19.4,19.4,0,0,0-.468-18.783,19.035,19.035,0,0,0-15.834-9.533q-.267-.01-.536-.012A20.817,20.817,0,0,0,266.5,140.037c-.021.341-.03,3.017-.032,3.946l-3.7,9.7a2.011,2.011,0,0,0,1.879,2.728Zm4.639,9.112h-.018a1.536,1.536,0,0,1-1.1-2.609,1.519,1.519,0,0,1,1.07-.464h6.758l.043,2.969Zm32.647-34.466a17.141,17.141,0,0,1,.392,16.639c-.017.032-.032.066-.046.1-.222.549-2.176,5.424-2.389,7.723a49.416,49.416,0,0,0,.963,12.673c.408,2.27.841,4.2,1.135,5.437h-16l-1.432-5.693a3.948,3.948,0,0,0-3.45-2.973l1.15-.007a7.743,7.743,0,0,0,7.671-7.815l-.015-1.619a7.07,7.07,0,0,0,6.139-7.1l-.01-.742a7.091,7.091,0,0,0-5.99-6.893V122.854A16.788,16.788,0,0,1,301.93,131.056Zm-13,11.915h.045a4.81,4.81,0,0,1,4.8,4.734l.01.742a4.8,4.8,0,0,1-4.754,4.864h-.045a4.81,4.81,0,0,1-4.8-4.734l-.01-.742a4.8,4.8,0,0,1,4.754-4.864ZM268.664,144.6a1.134,1.134,0,0,0,.075-.4c0-1.777.016-3.791.029-4.029a18.5,18.5,0,0,1,18.519-17.528h.211c.095,0,.187,0,.28.006V140.8a7.072,7.072,0,0,0-5.88,7.066l.01.742a7.09,7.09,0,0,0,5.73,6.847l.016,1.707a5.476,5.476,0,0,1-5.416,5.521l-3.968.024-.021-1.409a1.136,1.136,0,0,0-1.136-1.12h-5.53v-4.9a1.136,1.136,0,0,0-1.136-1.136h-5.424Z" transform="translate(-198.804 -65.94)" fill="#7d6eb2"/>
      <path id="Trazado_129970" data-name="Trazado 129970" d="M21.6,166.958c.636,6.831-2.248,17.763-2.277,17.873a1.136,1.136,0,0,0,1.1,1.429h17.5a1.136,1.136,0,0,0,1.1-.859l1.573-6.254a1.553,1.553,0,0,1,1.52-1.18c4.628.019,5.36.029,5.46.032a5.336,5.336,0,0,0,3.856-1.5,5.268,5.268,0,0,0,1.613-3.813v-5.031h4.4a1.971,1.971,0,0,0,1.842-2.674l-3.531-9.25c0-.9-.011-3.433-.03-3.752A19.876,19.876,0,0,0,35.612,133.15c-.172,0-.342.006-.513.012a18.221,18.221,0,0,0-15.157,9.125,18.572,18.572,0,0,0-.449,17.977A36.791,36.791,0,0,1,21.6,166.958Zm.3-23.529a15.96,15.96,0,0,1,13.274-8q.227-.008.457-.011A17.607,17.607,0,0,1,53.465,152.11c.012.224.023,2.144.027,3.837a1.135,1.135,0,0,0,.076.4l3.449,9.036h-5.1a1.136,1.136,0,0,0-1.136,1.136v6.167a3.04,3.04,0,0,1-3.126,3.039c-.241-.008-2.1-.019-5.522-.033h-.016a3.825,3.825,0,0,0-3.717,2.9l-1.357,5.395H21.877c.783-3.279,2.526-11.453,1.987-17.24-.2-2.2-2.072-6.862-2.284-7.386q-.021-.051-.046-.1a16.31,16.31,0,0,1,.373-15.832Z" transform="translate(0 -76.301)" fill="#7d6eb2"/>
      <path id="Trazado_129971" data-name="Trazado 129971" d="M128.9,55.5a1.136,1.136,0,0,0,1.347.876l8.711-1.844a1.136,1.136,0,0,0,.384-2.064l-4.194-2.729a23.195,23.195,0,0,1,33.748-2.19,1.136,1.136,0,1,0,1.551-1.661,25.467,25.467,0,0,0-37.215,2.6L128.783,45.6a1.136,1.136,0,0,0-1.731,1.188Zm3.909-4.572,0,0c.009.007.019.011.028.017L135.8,52.88l-4.916,1.041L129.844,49Z" transform="translate(-88.876)" fill="#26aab7"/>
      <path id="Trazado_129972" data-name="Trazado 129972" d="M144.808,398.572a25.447,25.447,0,0,0,19.8-9.467l4.448,2.888a1.136,1.136,0,0,0,1.731-1.188l-1.844-8.71a1.136,1.136,0,0,0-1.347-.876l-8.71,1.844a1.136,1.136,0,0,0-.384,2.064l4.194,2.729a23.195,23.195,0,0,1-33.748,2.19,1.136,1.136,0,0,0-1.551,1.661A25.522,25.522,0,0,0,144.808,398.572Zm22.148-14.9L168,388.593l-2.962-1.926,0,0a1.129,1.129,0,0,0-.114-.073l-2.876-1.872Z" transform="translate(-88.883 -277.379)" fill="#26aab7"/>
    </g>
  </g>
</svg>
