<svg xmlns="http://www.w3.org/2000/svg" width="150.999" height="128" viewBox="0 0 150.999 128"><g transform="translate(-854.688 -3236.479)"><path d="M10808.572,11800.567l-24.572-14.156,24.572-14.156a64,64,0,1,1,0,28.313Z" transform="translate(-9929.312 -8485.934)" fill="#26aab7"/><g transform="translate(895.688 3249.979)"><path d="M2.295,56.546,6.2,61.752l-4.081,9.52A1.471,1.471,0,0,0,4.18,73.142l29.437-16.19a1.471,1.471,0,0,0,0-2.579L4.18,38.183a1.471,1.471,0,0,0-2.061,1.869L6.2,49.572,2.295,54.779a1.473,1.473,0,0,0,0,1.767Zm6.653,6.267,13.817-3.251L6.509,68.5Zm13.817-11.05L8.947,48.512,6.509,42.822ZM8.487,51.428l17.994,4.234L8.487,59.9,5.312,55.662Z" transform="translate(0 16.987)" fill="#fff"/><path d="M62.987,2A23.561,23.561,0,0,0,39.512,24.078H35.631l-3.984-3.984-2.081,2.081,1.9,1.9H25.455a15.455,15.455,0,0,0,0,30.909H41.771l3.984,3.984,2.081-2.081-1.9-1.9H74.026a8.1,8.1,0,0,1,0,16.19H60.653l-3.984-3.984-2.081,2.081,1.9,1.9H33.55v2.944H56.49l-1.9,1.9,2.081,2.081,3.984-3.984H74.026a11.039,11.039,0,0,0,0-22.078H45.934l1.9-1.9-2.081-2.081-3.984,3.984H25.455a12.511,12.511,0,0,1,0-25.022h6.014l-1.9,1.9,2.081,2.081,3.984-3.984h3.881A23.536,23.536,0,1,0,62.987,2Zm0,44.156A20.617,20.617,0,0,1,42.455,27.022h4.416a16.19,16.19,0,1,0,0-2.944H42.455A20.6,20.6,0,1,1,62.987,46.156Zm-3.375-15.15,4.416-4.416a1.471,1.471,0,0,0,0-2.081l-4.416-4.416-2.081,2.081,1.9,1.9H49.827a13.247,13.247,0,1,1,0,2.944h9.607l-1.9,1.9Z" transform="translate(3.775)" fill="#fff"/><path d="M54.831,20.831A8.841,8.841,0,0,0,46,12v2.944a5.887,5.887,0,0,1,0,11.775v2.944A8.841,8.841,0,0,0,54.831,20.831Z" transform="translate(20.762 4.719)" fill="#fff"/></g></g></svg>