<?xml version="1.0" encoding="utf-8"?>
<!-- Generator: Adobe Illustrator 25.3.1, SVG Export Plug-In . SVG Version: 6.00 Build 0)  -->
<svg version="1.1" id="Layer_1" xmlns="http://www.w3.org/2000/svg" xmlns:xlink="http://www.w3.org/1999/xlink" x="0px" y="0px"
	 viewBox="0 0 117 117" style="enable-background:new 0 0 117 117;" xml:space="preserve">
<style type="text/css">
	.st0{fill:#26AAB7;}
	.st1{fill:none;stroke:#FFFFFF;stroke-width:3.313;stroke-linecap:round;stroke-linejoin:round;}
</style>
<g id="Group_57595" transform="translate(-680.465 -4680.125)">
	<circle id="Ellipse_4375" class="st0" cx="738.97" cy="4738.62" r="58.5"/>
	<g id="Group_57599" transform="translate(-1000.057 3456.56)">
		<path id="Path_131047" class="st1" d="M1742.05,1288.69h-31.44l-9.09,9.61v-35.07c0-5.88,4.77-10.65,10.65-10.65h29.88
			c5.88,0,10.65,4.77,10.65,10.65v14.81C1752.7,1283.92,1747.93,1288.69,1742.05,1288.69z"/>
		<path id="Path_131048" class="st1" d="M1719.19,1288.69v2.6c0,5.88,4.77,10.65,10.65,10.65h31.44l9.09,9.61v-35.07
			c0-5.88-4.77-10.65-10.65-10.65h-7.02"/>
		<g id="Group_57598" transform="translate(1714.122 1270.676)">
			<path id="Path_131049" class="st1" d="M1.73,0.87c0,0.48-0.39,0.87-0.87,0.87C0.39,1.73,0,1.34,0,0.87C0,0.39,0.39,0,0.87,0
				c0,0,0,0,0,0C1.34,0,1.73,0.39,1.73,0.87z"/>
			<g id="Group_57596" transform="translate(12.124)">
				<path id="Path_131050" class="st1" d="M1.73,0.87c0,0.48-0.39,0.87-0.87,0.87C0.39,1.73,0,1.34,0,0.87C0,0.39,0.39,0,0.87,0
					c0,0,0,0,0,0C1.34,0,1.73,0.39,1.73,0.87z"/>
			</g>
			<g id="Group_57597" transform="translate(24.248)">
				<path id="Path_131051" class="st1" d="M1.73,0.87c0,0.48-0.39,0.87-0.87,0.87C0.39,1.73,0,1.34,0,0.87C0,0.39,0.39,0,0.87,0
					c0,0,0,0,0,0C1.35,0,1.73,0.39,1.73,0.87z"/>
			</g>
		</g>
	</g>
</g>
</svg>
